G04 #@! TF.GenerationSoftware,KiCad,Pcbnew,5.1.6*
G04 #@! TF.CreationDate,2020-09-10T16:33:30+02:00*
G04 #@! TF.ProjectId,LORA_ATTINY84,4c4f5241-5f41-4545-9449-4e5938342e6b,rev?*
G04 #@! TF.SameCoordinates,Original*
G04 #@! TF.FileFunction,Copper,L1,Top*
G04 #@! TF.FilePolarity,Positive*
%FSLAX46Y46*%
G04 Gerber Fmt 4.6, Leading zero omitted, Abs format (unit mm)*
G04 Created by KiCad (PCBNEW 5.1.6) date 2020-09-10 16:33:30*
%MOMM*%
%LPD*%
G01*
G04 APERTURE LIST*
G04 #@! TA.AperFunction,ComponentPad*
%ADD10R,1.200000X2.100000*%
G04 #@! TD*
G04 #@! TA.AperFunction,SMDPad,CuDef*
%ADD11C,0.100000*%
G04 #@! TD*
G04 #@! TA.AperFunction,ComponentPad*
%ADD12O,1.700000X1.700000*%
G04 #@! TD*
G04 #@! TA.AperFunction,ComponentPad*
%ADD13R,1.700000X1.700000*%
G04 #@! TD*
G04 #@! TA.AperFunction,SMDPad,CuDef*
%ADD14O,2.000000X1.000000*%
G04 #@! TD*
G04 #@! TA.AperFunction,ViaPad*
%ADD15C,0.800000*%
G04 #@! TD*
G04 #@! TA.AperFunction,Conductor*
%ADD16C,0.250000*%
G04 #@! TD*
G04 #@! TA.AperFunction,Conductor*
%ADD17C,1.000000*%
G04 #@! TD*
G04 #@! TA.AperFunction,Conductor*
%ADD18C,0.254000*%
G04 #@! TD*
G04 APERTURE END LIST*
D10*
X88087200Y-78384400D03*
G04 #@! TA.AperFunction,SMDPad,CuDef*
D11*
G36*
X91586600Y-79493600D02*
G01*
X90236600Y-79493600D01*
X90236600Y-77293600D01*
X89136600Y-77293600D01*
X89136600Y-75293600D01*
X91586600Y-75293600D01*
X91586600Y-79493600D01*
G37*
G04 #@! TD.AperFunction*
G04 #@! TA.AperFunction,SMDPad,CuDef*
G36*
X87034920Y-77293600D02*
G01*
X85934920Y-77293600D01*
X85934920Y-79493600D01*
X84584920Y-79493600D01*
X84584920Y-75293600D01*
X87034920Y-75293600D01*
X87034920Y-77293600D01*
G37*
G04 #@! TD.AperFunction*
G04 #@! TA.AperFunction,SMDPad,CuDef*
G36*
G01*
X70791700Y-76723400D02*
X70791700Y-75473400D01*
G75*
G02*
X71041700Y-75223400I250000J0D01*
G01*
X71966700Y-75223400D01*
G75*
G02*
X72216700Y-75473400I0J-250000D01*
G01*
X72216700Y-76723400D01*
G75*
G02*
X71966700Y-76973400I-250000J0D01*
G01*
X71041700Y-76973400D01*
G75*
G02*
X70791700Y-76723400I0J250000D01*
G01*
G37*
G04 #@! TD.AperFunction*
G04 #@! TA.AperFunction,SMDPad,CuDef*
G36*
G01*
X67816700Y-76723400D02*
X67816700Y-75473400D01*
G75*
G02*
X68066700Y-75223400I250000J0D01*
G01*
X68991700Y-75223400D01*
G75*
G02*
X69241700Y-75473400I0J-250000D01*
G01*
X69241700Y-76723400D01*
G75*
G02*
X68991700Y-76973400I-250000J0D01*
G01*
X68066700Y-76973400D01*
G75*
G02*
X67816700Y-76723400I0J250000D01*
G01*
G37*
G04 #@! TD.AperFunction*
G04 #@! TA.AperFunction,SMDPad,CuDef*
G36*
G01*
X75069400Y-75448000D02*
X75069400Y-76698000D01*
G75*
G02*
X74819400Y-76948000I-250000J0D01*
G01*
X73894400Y-76948000D01*
G75*
G02*
X73644400Y-76698000I0J250000D01*
G01*
X73644400Y-75448000D01*
G75*
G02*
X73894400Y-75198000I250000J0D01*
G01*
X74819400Y-75198000D01*
G75*
G02*
X75069400Y-75448000I0J-250000D01*
G01*
G37*
G04 #@! TD.AperFunction*
G04 #@! TA.AperFunction,SMDPad,CuDef*
G36*
G01*
X78044400Y-75448000D02*
X78044400Y-76698000D01*
G75*
G02*
X77794400Y-76948000I-250000J0D01*
G01*
X76869400Y-76948000D01*
G75*
G02*
X76619400Y-76698000I0J250000D01*
G01*
X76619400Y-75448000D01*
G75*
G02*
X76869400Y-75198000I250000J0D01*
G01*
X77794400Y-75198000D01*
G75*
G02*
X78044400Y-75448000I0J-250000D01*
G01*
G37*
G04 #@! TD.AperFunction*
G04 #@! TA.AperFunction,SMDPad,CuDef*
G36*
G01*
X69202000Y-53731000D02*
X69202000Y-54981000D01*
G75*
G02*
X68952000Y-55231000I-250000J0D01*
G01*
X68027000Y-55231000D01*
G75*
G02*
X67777000Y-54981000I0J250000D01*
G01*
X67777000Y-53731000D01*
G75*
G02*
X68027000Y-53481000I250000J0D01*
G01*
X68952000Y-53481000D01*
G75*
G02*
X69202000Y-53731000I0J-250000D01*
G01*
G37*
G04 #@! TD.AperFunction*
G04 #@! TA.AperFunction,SMDPad,CuDef*
G36*
G01*
X72177000Y-53731000D02*
X72177000Y-54981000D01*
G75*
G02*
X71927000Y-55231000I-250000J0D01*
G01*
X71002000Y-55231000D01*
G75*
G02*
X70752000Y-54981000I0J250000D01*
G01*
X70752000Y-53731000D01*
G75*
G02*
X71002000Y-53481000I250000J0D01*
G01*
X71927000Y-53481000D01*
G75*
G02*
X72177000Y-53731000I0J-250000D01*
G01*
G37*
G04 #@! TD.AperFunction*
D12*
X84378800Y-50596800D03*
X84378800Y-48056800D03*
X86918800Y-50596800D03*
X86918800Y-48056800D03*
X89458800Y-50596800D03*
D13*
X89458800Y-48056800D03*
D12*
X89458800Y-54381400D03*
X89458800Y-56921400D03*
X89458800Y-59461400D03*
X89458800Y-62001400D03*
X89458800Y-64541400D03*
X89458800Y-67081400D03*
X89458800Y-69621400D03*
D13*
X89458800Y-72161400D03*
G04 #@! TA.AperFunction,SMDPad,CuDef*
G36*
G01*
X69202000Y-50644900D02*
X69202000Y-51894900D01*
G75*
G02*
X68952000Y-52144900I-250000J0D01*
G01*
X68027000Y-52144900D01*
G75*
G02*
X67777000Y-51894900I0J250000D01*
G01*
X67777000Y-50644900D01*
G75*
G02*
X68027000Y-50394900I250000J0D01*
G01*
X68952000Y-50394900D01*
G75*
G02*
X69202000Y-50644900I0J-250000D01*
G01*
G37*
G04 #@! TD.AperFunction*
G04 #@! TA.AperFunction,SMDPad,CuDef*
G36*
G01*
X72177000Y-50644900D02*
X72177000Y-51894900D01*
G75*
G02*
X71927000Y-52144900I-250000J0D01*
G01*
X71002000Y-52144900D01*
G75*
G02*
X70752000Y-51894900I0J250000D01*
G01*
X70752000Y-50644900D01*
G75*
G02*
X71002000Y-50394900I250000J0D01*
G01*
X71927000Y-50394900D01*
G75*
G02*
X72177000Y-50644900I0J-250000D01*
G01*
G37*
G04 #@! TD.AperFunction*
G04 #@! TA.AperFunction,SMDPad,CuDef*
G36*
G01*
X70752000Y-48758000D02*
X70752000Y-47508000D01*
G75*
G02*
X71002000Y-47258000I250000J0D01*
G01*
X71927000Y-47258000D01*
G75*
G02*
X72177000Y-47508000I0J-250000D01*
G01*
X72177000Y-48758000D01*
G75*
G02*
X71927000Y-49008000I-250000J0D01*
G01*
X71002000Y-49008000D01*
G75*
G02*
X70752000Y-48758000I0J250000D01*
G01*
G37*
G04 #@! TD.AperFunction*
G04 #@! TA.AperFunction,SMDPad,CuDef*
G36*
G01*
X67777000Y-48758000D02*
X67777000Y-47508000D01*
G75*
G02*
X68027000Y-47258000I250000J0D01*
G01*
X68952000Y-47258000D01*
G75*
G02*
X69202000Y-47508000I0J-250000D01*
G01*
X69202000Y-48758000D01*
G75*
G02*
X68952000Y-49008000I-250000J0D01*
G01*
X68027000Y-49008000D01*
G75*
G02*
X67777000Y-48758000I0J250000D01*
G01*
G37*
G04 #@! TD.AperFunction*
G04 #@! TA.AperFunction,SMDPad,CuDef*
G36*
G01*
X75589000Y-54688600D02*
X75589000Y-54988600D01*
G75*
G02*
X75439000Y-55138600I-150000J0D01*
G01*
X73789000Y-55138600D01*
G75*
G02*
X73639000Y-54988600I0J150000D01*
G01*
X73639000Y-54688600D01*
G75*
G02*
X73789000Y-54538600I150000J0D01*
G01*
X75439000Y-54538600D01*
G75*
G02*
X75589000Y-54688600I0J-150000D01*
G01*
G37*
G04 #@! TD.AperFunction*
G04 #@! TA.AperFunction,SMDPad,CuDef*
G36*
G01*
X75589000Y-53418600D02*
X75589000Y-53718600D01*
G75*
G02*
X75439000Y-53868600I-150000J0D01*
G01*
X73789000Y-53868600D01*
G75*
G02*
X73639000Y-53718600I0J150000D01*
G01*
X73639000Y-53418600D01*
G75*
G02*
X73789000Y-53268600I150000J0D01*
G01*
X75439000Y-53268600D01*
G75*
G02*
X75589000Y-53418600I0J-150000D01*
G01*
G37*
G04 #@! TD.AperFunction*
G04 #@! TA.AperFunction,SMDPad,CuDef*
G36*
G01*
X75589000Y-52148600D02*
X75589000Y-52448600D01*
G75*
G02*
X75439000Y-52598600I-150000J0D01*
G01*
X73789000Y-52598600D01*
G75*
G02*
X73639000Y-52448600I0J150000D01*
G01*
X73639000Y-52148600D01*
G75*
G02*
X73789000Y-51998600I150000J0D01*
G01*
X75439000Y-51998600D01*
G75*
G02*
X75589000Y-52148600I0J-150000D01*
G01*
G37*
G04 #@! TD.AperFunction*
G04 #@! TA.AperFunction,SMDPad,CuDef*
G36*
G01*
X75589000Y-50878600D02*
X75589000Y-51178600D01*
G75*
G02*
X75439000Y-51328600I-150000J0D01*
G01*
X73789000Y-51328600D01*
G75*
G02*
X73639000Y-51178600I0J150000D01*
G01*
X73639000Y-50878600D01*
G75*
G02*
X73789000Y-50728600I150000J0D01*
G01*
X75439000Y-50728600D01*
G75*
G02*
X75589000Y-50878600I0J-150000D01*
G01*
G37*
G04 #@! TD.AperFunction*
G04 #@! TA.AperFunction,SMDPad,CuDef*
G36*
G01*
X75589000Y-49608600D02*
X75589000Y-49908600D01*
G75*
G02*
X75439000Y-50058600I-150000J0D01*
G01*
X73789000Y-50058600D01*
G75*
G02*
X73639000Y-49908600I0J150000D01*
G01*
X73639000Y-49608600D01*
G75*
G02*
X73789000Y-49458600I150000J0D01*
G01*
X75439000Y-49458600D01*
G75*
G02*
X75589000Y-49608600I0J-150000D01*
G01*
G37*
G04 #@! TD.AperFunction*
G04 #@! TA.AperFunction,SMDPad,CuDef*
G36*
G01*
X75589000Y-48338600D02*
X75589000Y-48638600D01*
G75*
G02*
X75439000Y-48788600I-150000J0D01*
G01*
X73789000Y-48788600D01*
G75*
G02*
X73639000Y-48638600I0J150000D01*
G01*
X73639000Y-48338600D01*
G75*
G02*
X73789000Y-48188600I150000J0D01*
G01*
X75439000Y-48188600D01*
G75*
G02*
X75589000Y-48338600I0J-150000D01*
G01*
G37*
G04 #@! TD.AperFunction*
G04 #@! TA.AperFunction,SMDPad,CuDef*
G36*
G01*
X75589000Y-47068600D02*
X75589000Y-47368600D01*
G75*
G02*
X75439000Y-47518600I-150000J0D01*
G01*
X73789000Y-47518600D01*
G75*
G02*
X73639000Y-47368600I0J150000D01*
G01*
X73639000Y-47068600D01*
G75*
G02*
X73789000Y-46918600I150000J0D01*
G01*
X75439000Y-46918600D01*
G75*
G02*
X75589000Y-47068600I0J-150000D01*
G01*
G37*
G04 #@! TD.AperFunction*
G04 #@! TA.AperFunction,SMDPad,CuDef*
G36*
G01*
X80539000Y-47068600D02*
X80539000Y-47368600D01*
G75*
G02*
X80389000Y-47518600I-150000J0D01*
G01*
X78739000Y-47518600D01*
G75*
G02*
X78589000Y-47368600I0J150000D01*
G01*
X78589000Y-47068600D01*
G75*
G02*
X78739000Y-46918600I150000J0D01*
G01*
X80389000Y-46918600D01*
G75*
G02*
X80539000Y-47068600I0J-150000D01*
G01*
G37*
G04 #@! TD.AperFunction*
G04 #@! TA.AperFunction,SMDPad,CuDef*
G36*
G01*
X80539000Y-48338600D02*
X80539000Y-48638600D01*
G75*
G02*
X80389000Y-48788600I-150000J0D01*
G01*
X78739000Y-48788600D01*
G75*
G02*
X78589000Y-48638600I0J150000D01*
G01*
X78589000Y-48338600D01*
G75*
G02*
X78739000Y-48188600I150000J0D01*
G01*
X80389000Y-48188600D01*
G75*
G02*
X80539000Y-48338600I0J-150000D01*
G01*
G37*
G04 #@! TD.AperFunction*
G04 #@! TA.AperFunction,SMDPad,CuDef*
G36*
G01*
X80539000Y-49608600D02*
X80539000Y-49908600D01*
G75*
G02*
X80389000Y-50058600I-150000J0D01*
G01*
X78739000Y-50058600D01*
G75*
G02*
X78589000Y-49908600I0J150000D01*
G01*
X78589000Y-49608600D01*
G75*
G02*
X78739000Y-49458600I150000J0D01*
G01*
X80389000Y-49458600D01*
G75*
G02*
X80539000Y-49608600I0J-150000D01*
G01*
G37*
G04 #@! TD.AperFunction*
G04 #@! TA.AperFunction,SMDPad,CuDef*
G36*
G01*
X80539000Y-50878600D02*
X80539000Y-51178600D01*
G75*
G02*
X80389000Y-51328600I-150000J0D01*
G01*
X78739000Y-51328600D01*
G75*
G02*
X78589000Y-51178600I0J150000D01*
G01*
X78589000Y-50878600D01*
G75*
G02*
X78739000Y-50728600I150000J0D01*
G01*
X80389000Y-50728600D01*
G75*
G02*
X80539000Y-50878600I0J-150000D01*
G01*
G37*
G04 #@! TD.AperFunction*
G04 #@! TA.AperFunction,SMDPad,CuDef*
G36*
G01*
X80539000Y-52148600D02*
X80539000Y-52448600D01*
G75*
G02*
X80389000Y-52598600I-150000J0D01*
G01*
X78739000Y-52598600D01*
G75*
G02*
X78589000Y-52448600I0J150000D01*
G01*
X78589000Y-52148600D01*
G75*
G02*
X78739000Y-51998600I150000J0D01*
G01*
X80389000Y-51998600D01*
G75*
G02*
X80539000Y-52148600I0J-150000D01*
G01*
G37*
G04 #@! TD.AperFunction*
G04 #@! TA.AperFunction,SMDPad,CuDef*
G36*
G01*
X80539000Y-53418600D02*
X80539000Y-53718600D01*
G75*
G02*
X80389000Y-53868600I-150000J0D01*
G01*
X78739000Y-53868600D01*
G75*
G02*
X78589000Y-53718600I0J150000D01*
G01*
X78589000Y-53418600D01*
G75*
G02*
X78739000Y-53268600I150000J0D01*
G01*
X80389000Y-53268600D01*
G75*
G02*
X80539000Y-53418600I0J-150000D01*
G01*
G37*
G04 #@! TD.AperFunction*
G04 #@! TA.AperFunction,SMDPad,CuDef*
G36*
G01*
X80539000Y-54688600D02*
X80539000Y-54988600D01*
G75*
G02*
X80389000Y-55138600I-150000J0D01*
G01*
X78739000Y-55138600D01*
G75*
G02*
X78589000Y-54988600I0J150000D01*
G01*
X78589000Y-54688600D01*
G75*
G02*
X78739000Y-54538600I150000J0D01*
G01*
X80389000Y-54538600D01*
G75*
G02*
X80539000Y-54688600I0J-150000D01*
G01*
G37*
G04 #@! TD.AperFunction*
D14*
X84529200Y-58267600D03*
X84529200Y-60267600D03*
X84529200Y-62267600D03*
X84529200Y-64267600D03*
X84529200Y-66267600D03*
X84529200Y-68267600D03*
X84529200Y-70267600D03*
X84529200Y-72267600D03*
X68529200Y-72267600D03*
X68529200Y-70267600D03*
X68529200Y-68267600D03*
X68529200Y-66267600D03*
X68529200Y-64267600D03*
X68529200Y-62267600D03*
X68529200Y-60267600D03*
X68529200Y-58267600D03*
D15*
X91084400Y-75768200D03*
X85090000Y-75819000D03*
X86969600Y-52481399D03*
X66827400Y-63246000D03*
X79596854Y-54871454D03*
X71464500Y-54356000D03*
X82067400Y-56921400D03*
X68489500Y-51269900D03*
X71983600Y-58775600D03*
X86156800Y-55346600D03*
X84529200Y-62267600D03*
X74320400Y-57404000D03*
X79564000Y-52298600D03*
X79564000Y-51028600D03*
D16*
X84378800Y-50596800D02*
X86263399Y-52481399D01*
X86263399Y-52481399D02*
X86969600Y-52481399D01*
X66827400Y-58719400D02*
X66827400Y-63246000D01*
X68529200Y-58267600D02*
X67279200Y-58267600D01*
X67279200Y-58267600D02*
X66827400Y-58719400D01*
X85026400Y-77631800D02*
X85026400Y-77631800D01*
X85026400Y-77631800D02*
X85039200Y-77644600D01*
X79564000Y-54838600D02*
X79564000Y-54849800D01*
X84529200Y-64267600D02*
X87445998Y-64267600D01*
X87445998Y-64267600D02*
X88989798Y-65811400D01*
X89458800Y-50596800D02*
X91083811Y-52221811D01*
X91083811Y-64655391D02*
X91083811Y-52221811D01*
X89927802Y-65811400D02*
X91083811Y-64655391D01*
X88989798Y-65811400D02*
X89927802Y-65811400D01*
X90558800Y-72161400D02*
X89458800Y-72161400D01*
X91083811Y-71636389D02*
X90558800Y-72161400D01*
X91083811Y-64655391D02*
X91083811Y-71636389D01*
X77331900Y-76948000D02*
X77331900Y-76073000D01*
X77006890Y-77273010D02*
X77331900Y-76948000D01*
X71504200Y-76973400D02*
X71803810Y-77273010D01*
X71803810Y-77273010D02*
X77006890Y-77273010D01*
X71504200Y-76098400D02*
X71504200Y-76973400D01*
X78044400Y-76073000D02*
X82870400Y-71247000D01*
X77331900Y-76073000D02*
X78044400Y-76073000D01*
X88358800Y-72161400D02*
X89458800Y-72161400D01*
X87444400Y-71247000D02*
X88358800Y-72161400D01*
X82870400Y-71247000D02*
X87444400Y-71247000D01*
X79864000Y-50058600D02*
X79564000Y-49758600D01*
X80240768Y-50058600D02*
X79864000Y-50058600D01*
X88256719Y-54381400D02*
X89458800Y-54381400D01*
X85795390Y-54381400D02*
X88256719Y-54381400D01*
X81172590Y-49758600D02*
X85795390Y-54381400D01*
X79564000Y-49758600D02*
X81172590Y-49758600D01*
X78589000Y-48488600D02*
X79564000Y-48488600D01*
X90308799Y-56071401D02*
X89458800Y-56921400D01*
X90633801Y-55746399D02*
X90308799Y-56071401D01*
X90633801Y-53817399D02*
X90633801Y-55746399D01*
X90022801Y-53206399D02*
X90633801Y-53817399D01*
X80539000Y-48488600D02*
X85256799Y-53206399D01*
X85256799Y-53206399D02*
X90022801Y-53206399D01*
X79564000Y-48488600D02*
X80539000Y-48488600D01*
X89458800Y-56921400D02*
X82067400Y-56921400D01*
X88256719Y-59461400D02*
X89458800Y-59461400D01*
X77851000Y-54772368D02*
X82171242Y-59092610D01*
X87887929Y-59092610D02*
X88256719Y-59461400D01*
X82171242Y-59092610D02*
X87887929Y-59092610D01*
X75290768Y-50058600D02*
X77851000Y-52618832D01*
X77851000Y-52618832D02*
X77851000Y-54772368D01*
X74914000Y-50058600D02*
X75290768Y-50058600D01*
X74614000Y-49758600D02*
X74914000Y-50058600D01*
X75589000Y-51028600D02*
X75614400Y-51054000D01*
X74614000Y-51028600D02*
X75589000Y-51028600D01*
X88608801Y-61151401D02*
X89458800Y-62001400D01*
X83593623Y-61151401D02*
X88608801Y-61151401D01*
X77400990Y-52813790D02*
X77400991Y-54958769D01*
X77400991Y-54958769D02*
X83593623Y-61151401D01*
X75641200Y-51054000D02*
X77400990Y-52813790D01*
X75614400Y-51054000D02*
X75641200Y-51054000D01*
X84037450Y-63442590D02*
X88359990Y-63442590D01*
X76950982Y-56356122D02*
X84037450Y-63442590D01*
X76950982Y-53024182D02*
X76950982Y-56356122D01*
X76225400Y-52298600D02*
X76950982Y-53024182D01*
X74614000Y-52298600D02*
X76225400Y-52298600D01*
X89458800Y-64541400D02*
X88359990Y-63442590D01*
X88608801Y-66231401D02*
X89458800Y-67081400D01*
X87819990Y-65442590D02*
X88608801Y-66231401D01*
X84037450Y-65442590D02*
X87819990Y-65442590D01*
X76500972Y-57906112D02*
X84037450Y-65442590D01*
X76500972Y-54480572D02*
X76500972Y-57906112D01*
X75589000Y-53568600D02*
X76500972Y-54480572D01*
X74614000Y-53568600D02*
X75589000Y-53568600D01*
X73937232Y-47518600D02*
X72863980Y-48591852D01*
X74614000Y-47218600D02*
X74314000Y-47518600D01*
X74314000Y-47518600D02*
X73937232Y-47518600D01*
X69779200Y-62267600D02*
X68529200Y-62267600D01*
X72863980Y-59182820D02*
X69779200Y-62267600D01*
X72863980Y-48591852D02*
X72863980Y-59182820D01*
X74914000Y-46918600D02*
X74614000Y-47218600D01*
X89458800Y-46956800D02*
X89458800Y-48056800D01*
X88645580Y-46143580D02*
X89458800Y-46956800D01*
X75689020Y-46143580D02*
X88645580Y-46143580D01*
X74614000Y-47218600D02*
X75689020Y-46143580D01*
X69779200Y-64267600D02*
X68529200Y-64267600D01*
X74614000Y-48488600D02*
X74314000Y-48788600D01*
X74314000Y-48788600D02*
X73937232Y-48788600D01*
X73937232Y-48788600D02*
X73313990Y-49411842D01*
X73313990Y-60732810D02*
X69779200Y-64267600D01*
X73313990Y-49411842D02*
X73313990Y-60732810D01*
X74614000Y-48488600D02*
X75589000Y-48488600D01*
X86068801Y-47206801D02*
X86918800Y-48056800D01*
X85455590Y-46593590D02*
X86068801Y-47206801D01*
X77484010Y-46593590D02*
X85455590Y-46593590D01*
X75589000Y-48488600D02*
X77484010Y-46593590D01*
X82552201Y-49231801D02*
X80539000Y-47218600D01*
X80539000Y-47218600D02*
X79564000Y-47218600D01*
X85553801Y-49231801D02*
X82552201Y-49231801D01*
X86918800Y-50596800D02*
X85553801Y-49231801D01*
X68529200Y-60267600D02*
X70491600Y-60267600D01*
X70491600Y-60267600D02*
X71983600Y-58775600D01*
X80577329Y-53568600D02*
X80539000Y-53568600D01*
X80539000Y-53568600D02*
X79564000Y-53568600D01*
X81955330Y-54946601D02*
X80577329Y-53568600D01*
X85756801Y-54946601D02*
X81955330Y-54946601D01*
X86156800Y-55346600D02*
X85756801Y-54946601D01*
X68530200Y-66268600D02*
X68529200Y-66267600D01*
X74320400Y-61726400D02*
X69779200Y-66267600D01*
X69779200Y-66267600D02*
X68529200Y-66267600D01*
X74320400Y-57404000D02*
X74320400Y-61726400D01*
X67204190Y-75485890D02*
X67204190Y-66342610D01*
X67279200Y-66267600D02*
X68529200Y-66267600D01*
X67816700Y-76098400D02*
X67204190Y-75485890D01*
X67204190Y-66342610D02*
X67279200Y-66267600D01*
X68529200Y-76098400D02*
X67816700Y-76098400D01*
X71439100Y-48031400D02*
X71388300Y-47980600D01*
X71464500Y-49008000D02*
X71464500Y-51269900D01*
X71464500Y-48133000D02*
X71464500Y-49008000D01*
X84811000Y-72267600D02*
X84529200Y-72267600D01*
X88087200Y-77084400D02*
X88087200Y-78384400D01*
D17*
X88087200Y-74575600D02*
X88087200Y-77084400D01*
X85779200Y-72267600D02*
X88087200Y-74575600D01*
X84529200Y-72267600D02*
X85779200Y-72267600D01*
D18*
G36*
X74741000Y-54711600D02*
G01*
X74761000Y-54711600D01*
X74761000Y-54965600D01*
X74741000Y-54965600D01*
X74741000Y-55614850D01*
X74899750Y-55773600D01*
X75589000Y-55776672D01*
X75713482Y-55764412D01*
X75740972Y-55756073D01*
X75740973Y-57868780D01*
X75737296Y-57906112D01*
X75751970Y-58055097D01*
X75795426Y-58198358D01*
X75865998Y-58330388D01*
X75918696Y-58394600D01*
X75960972Y-58446113D01*
X75989970Y-58469911D01*
X83113874Y-65593817D01*
X83080916Y-65633977D01*
X82975524Y-65831153D01*
X82910623Y-66045101D01*
X82888709Y-66267600D01*
X82910623Y-66490099D01*
X82975524Y-66704047D01*
X83080916Y-66901223D01*
X83222751Y-67074049D01*
X83395577Y-67215884D01*
X83492332Y-67267600D01*
X83395577Y-67319316D01*
X83222751Y-67461151D01*
X83080916Y-67633977D01*
X82975524Y-67831153D01*
X82910623Y-68045101D01*
X82888709Y-68267600D01*
X82910623Y-68490099D01*
X82975524Y-68704047D01*
X83080916Y-68901223D01*
X83222751Y-69074049D01*
X83395577Y-69215884D01*
X83485727Y-69264070D01*
X83477522Y-69267597D01*
X83293031Y-69394439D01*
X83136831Y-69554836D01*
X83014924Y-69742624D01*
X82935081Y-69965726D01*
X83061246Y-70140600D01*
X84402200Y-70140600D01*
X84402200Y-70120600D01*
X84656200Y-70120600D01*
X84656200Y-70140600D01*
X85997154Y-70140600D01*
X86123319Y-69965726D01*
X86043476Y-69742624D01*
X85921569Y-69554836D01*
X85765369Y-69394439D01*
X85580878Y-69267597D01*
X85572673Y-69264070D01*
X85662823Y-69215884D01*
X85835649Y-69074049D01*
X85977484Y-68901223D01*
X86082876Y-68704047D01*
X86147777Y-68490099D01*
X86169691Y-68267600D01*
X86147777Y-68045101D01*
X86082876Y-67831153D01*
X85977484Y-67633977D01*
X85835649Y-67461151D01*
X85662823Y-67319316D01*
X85566068Y-67267600D01*
X85662823Y-67215884D01*
X85835649Y-67074049D01*
X85977484Y-66901223D01*
X86082876Y-66704047D01*
X86147777Y-66490099D01*
X86169691Y-66267600D01*
X86163288Y-66202590D01*
X87505189Y-66202590D01*
X88017590Y-66714992D01*
X87973800Y-66935140D01*
X87973800Y-67227660D01*
X88030868Y-67514558D01*
X88142810Y-67784811D01*
X88305325Y-68028032D01*
X88512168Y-68234875D01*
X88694334Y-68356595D01*
X88577445Y-68426222D01*
X88361212Y-68621131D01*
X88187159Y-68854480D01*
X88061975Y-69117301D01*
X88017324Y-69264510D01*
X88138645Y-69494400D01*
X89331800Y-69494400D01*
X89331800Y-69474400D01*
X89585800Y-69474400D01*
X89585800Y-69494400D01*
X89605800Y-69494400D01*
X89605800Y-69748400D01*
X89585800Y-69748400D01*
X89585800Y-69768400D01*
X89331800Y-69768400D01*
X89331800Y-69748400D01*
X88138645Y-69748400D01*
X88017324Y-69978290D01*
X88061975Y-70125499D01*
X88187159Y-70388320D01*
X88361212Y-70621669D01*
X88445266Y-70697434D01*
X88364620Y-70721898D01*
X88254306Y-70780863D01*
X88157615Y-70860215D01*
X88146257Y-70874055D01*
X88008203Y-70736002D01*
X87984401Y-70706999D01*
X87868676Y-70612026D01*
X87736647Y-70541454D01*
X87593386Y-70497997D01*
X87481733Y-70487000D01*
X87481722Y-70487000D01*
X87444400Y-70483324D01*
X87407078Y-70487000D01*
X86063817Y-70487000D01*
X85997154Y-70394600D01*
X84656200Y-70394600D01*
X84656200Y-70414600D01*
X84402200Y-70414600D01*
X84402200Y-70394600D01*
X83061246Y-70394600D01*
X82994583Y-70487000D01*
X82907725Y-70487000D01*
X82870400Y-70483324D01*
X82833075Y-70487000D01*
X82833067Y-70487000D01*
X82721414Y-70497997D01*
X82578153Y-70541454D01*
X82446124Y-70612026D01*
X82330399Y-70706999D01*
X82306601Y-70735997D01*
X78312622Y-74729977D01*
X78287786Y-74709595D01*
X78134250Y-74627528D01*
X77967654Y-74576992D01*
X77794400Y-74559928D01*
X76869400Y-74559928D01*
X76696146Y-74576992D01*
X76529550Y-74627528D01*
X76376014Y-74709595D01*
X76241438Y-74820038D01*
X76130995Y-74954614D01*
X76048928Y-75108150D01*
X75998392Y-75274746D01*
X75981328Y-75448000D01*
X75981328Y-76513010D01*
X75705204Y-76513010D01*
X75704400Y-76358750D01*
X75545650Y-76200000D01*
X74483900Y-76200000D01*
X74483900Y-76220000D01*
X74229900Y-76220000D01*
X74229900Y-76200000D01*
X73168150Y-76200000D01*
X73009400Y-76358750D01*
X73008596Y-76513010D01*
X72854772Y-76513010D01*
X72854772Y-75473400D01*
X72837708Y-75300146D01*
X72806723Y-75198000D01*
X73006328Y-75198000D01*
X73009400Y-75787250D01*
X73168150Y-75946000D01*
X74229900Y-75946000D01*
X74229900Y-74721750D01*
X74483900Y-74721750D01*
X74483900Y-75946000D01*
X75545650Y-75946000D01*
X75704400Y-75787250D01*
X75707472Y-75198000D01*
X75695212Y-75073518D01*
X75658902Y-74953820D01*
X75599937Y-74843506D01*
X75520585Y-74746815D01*
X75423894Y-74667463D01*
X75313580Y-74608498D01*
X75193882Y-74572188D01*
X75069400Y-74559928D01*
X74642650Y-74563000D01*
X74483900Y-74721750D01*
X74229900Y-74721750D01*
X74071150Y-74563000D01*
X73644400Y-74559928D01*
X73519918Y-74572188D01*
X73400220Y-74608498D01*
X73289906Y-74667463D01*
X73193215Y-74746815D01*
X73113863Y-74843506D01*
X73054898Y-74953820D01*
X73018588Y-75073518D01*
X73006328Y-75198000D01*
X72806723Y-75198000D01*
X72787172Y-75133550D01*
X72705105Y-74980014D01*
X72594662Y-74845438D01*
X72460086Y-74734995D01*
X72306550Y-74652928D01*
X72139954Y-74602392D01*
X71966700Y-74585328D01*
X71041700Y-74585328D01*
X70868446Y-74602392D01*
X70701850Y-74652928D01*
X70548314Y-74734995D01*
X70413738Y-74845438D01*
X70303295Y-74980014D01*
X70221228Y-75133550D01*
X70170692Y-75300146D01*
X70153628Y-75473400D01*
X70153628Y-76723400D01*
X70170692Y-76896654D01*
X70221228Y-77063250D01*
X70303295Y-77216786D01*
X70413738Y-77351362D01*
X70548314Y-77461805D01*
X70701850Y-77543872D01*
X70868446Y-77594408D01*
X71041700Y-77611472D01*
X71067471Y-77611472D01*
X71240006Y-77784007D01*
X71263809Y-77813011D01*
X71379534Y-77907984D01*
X71511563Y-77978556D01*
X71654824Y-78022013D01*
X71803810Y-78036687D01*
X71841143Y-78033010D01*
X76969568Y-78033010D01*
X77006890Y-78036686D01*
X77044212Y-78033010D01*
X77044223Y-78033010D01*
X77155876Y-78022013D01*
X77299137Y-77978556D01*
X77431166Y-77907984D01*
X77546891Y-77813011D01*
X77570694Y-77784007D01*
X77768629Y-77586072D01*
X77794400Y-77586072D01*
X77967654Y-77569008D01*
X78134250Y-77518472D01*
X78287786Y-77436405D01*
X78422362Y-77325962D01*
X78532805Y-77191386D01*
X78614872Y-77037850D01*
X78665408Y-76871254D01*
X78682472Y-76698000D01*
X78682472Y-76509729D01*
X82891927Y-72300275D01*
X82910623Y-72490099D01*
X82975524Y-72704047D01*
X83080916Y-72901223D01*
X83222751Y-73074049D01*
X83395577Y-73215884D01*
X83592753Y-73321276D01*
X83806701Y-73386177D01*
X83973448Y-73402600D01*
X85309069Y-73402600D01*
X86561996Y-74655528D01*
X84584920Y-74655528D01*
X84460438Y-74667788D01*
X84340740Y-74704098D01*
X84230426Y-74763063D01*
X84133735Y-74842415D01*
X84054383Y-74939106D01*
X83995418Y-75049420D01*
X83959108Y-75169118D01*
X83946848Y-75293600D01*
X83946848Y-78816600D01*
X66724895Y-78816600D01*
X66722804Y-76079305D01*
X67178628Y-76535130D01*
X67178628Y-76723400D01*
X67195692Y-76896654D01*
X67246228Y-77063250D01*
X67328295Y-77216786D01*
X67438738Y-77351362D01*
X67573314Y-77461805D01*
X67726850Y-77543872D01*
X67893446Y-77594408D01*
X68066700Y-77611472D01*
X68991700Y-77611472D01*
X69164954Y-77594408D01*
X69331550Y-77543872D01*
X69485086Y-77461805D01*
X69619662Y-77351362D01*
X69730105Y-77216786D01*
X69812172Y-77063250D01*
X69862708Y-76896654D01*
X69879772Y-76723400D01*
X69879772Y-75473400D01*
X69862708Y-75300146D01*
X69812172Y-75133550D01*
X69730105Y-74980014D01*
X69619662Y-74845438D01*
X69485086Y-74734995D01*
X69331550Y-74652928D01*
X69164954Y-74602392D01*
X68991700Y-74585328D01*
X68066700Y-74585328D01*
X67964190Y-74595424D01*
X67964190Y-73402600D01*
X68402200Y-73402600D01*
X68402200Y-72394600D01*
X68656200Y-72394600D01*
X68656200Y-73402600D01*
X69156200Y-73402600D01*
X69375187Y-73356015D01*
X69580878Y-73267603D01*
X69765369Y-73140761D01*
X69921569Y-72980364D01*
X70043476Y-72792576D01*
X70123319Y-72569474D01*
X69997154Y-72394600D01*
X68656200Y-72394600D01*
X68402200Y-72394600D01*
X68382200Y-72394600D01*
X68382200Y-72140600D01*
X68402200Y-72140600D01*
X68402200Y-72120600D01*
X68656200Y-72120600D01*
X68656200Y-72140600D01*
X69997154Y-72140600D01*
X70123319Y-71965726D01*
X70043476Y-71742624D01*
X69921569Y-71554836D01*
X69765369Y-71394439D01*
X69580878Y-71267597D01*
X69572673Y-71264070D01*
X69662823Y-71215884D01*
X69835649Y-71074049D01*
X69977484Y-70901223D01*
X70082876Y-70704047D01*
X70147777Y-70490099D01*
X70169691Y-70267600D01*
X70147777Y-70045101D01*
X70082876Y-69831153D01*
X69977484Y-69633977D01*
X69835649Y-69461151D01*
X69662823Y-69319316D01*
X69566068Y-69267600D01*
X69662823Y-69215884D01*
X69835649Y-69074049D01*
X69977484Y-68901223D01*
X70082876Y-68704047D01*
X70147777Y-68490099D01*
X70169691Y-68267600D01*
X70147777Y-68045101D01*
X70082876Y-67831153D01*
X69977484Y-67633977D01*
X69835649Y-67461151D01*
X69662823Y-67319316D01*
X69566068Y-67267600D01*
X69662823Y-67215884D01*
X69835649Y-67074049D01*
X69878802Y-67021467D01*
X69928186Y-67016603D01*
X70071447Y-66973146D01*
X70203476Y-66902574D01*
X70319201Y-66807601D01*
X70343004Y-66778597D01*
X74831403Y-62290199D01*
X74860401Y-62266401D01*
X74955374Y-62150676D01*
X75025946Y-62018647D01*
X75069403Y-61875386D01*
X75080400Y-61763733D01*
X75080400Y-61763725D01*
X75084076Y-61726400D01*
X75080400Y-61689075D01*
X75080400Y-58107711D01*
X75124337Y-58063774D01*
X75237605Y-57894256D01*
X75315626Y-57705898D01*
X75355400Y-57505939D01*
X75355400Y-57302061D01*
X75315626Y-57102102D01*
X75237605Y-56913744D01*
X75124337Y-56744226D01*
X74980174Y-56600063D01*
X74810656Y-56486795D01*
X74622298Y-56408774D01*
X74422339Y-56369000D01*
X74218461Y-56369000D01*
X74073990Y-56397737D01*
X74073990Y-55774733D01*
X74328250Y-55773600D01*
X74487000Y-55614850D01*
X74487000Y-54965600D01*
X74467000Y-54965600D01*
X74467000Y-54711600D01*
X74487000Y-54711600D01*
X74487000Y-54691600D01*
X74741000Y-54691600D01*
X74741000Y-54711600D01*
G37*
X74741000Y-54711600D02*
X74761000Y-54711600D01*
X74761000Y-54965600D01*
X74741000Y-54965600D01*
X74741000Y-55614850D01*
X74899750Y-55773600D01*
X75589000Y-55776672D01*
X75713482Y-55764412D01*
X75740972Y-55756073D01*
X75740973Y-57868780D01*
X75737296Y-57906112D01*
X75751970Y-58055097D01*
X75795426Y-58198358D01*
X75865998Y-58330388D01*
X75918696Y-58394600D01*
X75960972Y-58446113D01*
X75989970Y-58469911D01*
X83113874Y-65593817D01*
X83080916Y-65633977D01*
X82975524Y-65831153D01*
X82910623Y-66045101D01*
X82888709Y-66267600D01*
X82910623Y-66490099D01*
X82975524Y-66704047D01*
X83080916Y-66901223D01*
X83222751Y-67074049D01*
X83395577Y-67215884D01*
X83492332Y-67267600D01*
X83395577Y-67319316D01*
X83222751Y-67461151D01*
X83080916Y-67633977D01*
X82975524Y-67831153D01*
X82910623Y-68045101D01*
X82888709Y-68267600D01*
X82910623Y-68490099D01*
X82975524Y-68704047D01*
X83080916Y-68901223D01*
X83222751Y-69074049D01*
X83395577Y-69215884D01*
X83485727Y-69264070D01*
X83477522Y-69267597D01*
X83293031Y-69394439D01*
X83136831Y-69554836D01*
X83014924Y-69742624D01*
X82935081Y-69965726D01*
X83061246Y-70140600D01*
X84402200Y-70140600D01*
X84402200Y-70120600D01*
X84656200Y-70120600D01*
X84656200Y-70140600D01*
X85997154Y-70140600D01*
X86123319Y-69965726D01*
X86043476Y-69742624D01*
X85921569Y-69554836D01*
X85765369Y-69394439D01*
X85580878Y-69267597D01*
X85572673Y-69264070D01*
X85662823Y-69215884D01*
X85835649Y-69074049D01*
X85977484Y-68901223D01*
X86082876Y-68704047D01*
X86147777Y-68490099D01*
X86169691Y-68267600D01*
X86147777Y-68045101D01*
X86082876Y-67831153D01*
X85977484Y-67633977D01*
X85835649Y-67461151D01*
X85662823Y-67319316D01*
X85566068Y-67267600D01*
X85662823Y-67215884D01*
X85835649Y-67074049D01*
X85977484Y-66901223D01*
X86082876Y-66704047D01*
X86147777Y-66490099D01*
X86169691Y-66267600D01*
X86163288Y-66202590D01*
X87505189Y-66202590D01*
X88017590Y-66714992D01*
X87973800Y-66935140D01*
X87973800Y-67227660D01*
X88030868Y-67514558D01*
X88142810Y-67784811D01*
X88305325Y-68028032D01*
X88512168Y-68234875D01*
X88694334Y-68356595D01*
X88577445Y-68426222D01*
X88361212Y-68621131D01*
X88187159Y-68854480D01*
X88061975Y-69117301D01*
X88017324Y-69264510D01*
X88138645Y-69494400D01*
X89331800Y-69494400D01*
X89331800Y-69474400D01*
X89585800Y-69474400D01*
X89585800Y-69494400D01*
X89605800Y-69494400D01*
X89605800Y-69748400D01*
X89585800Y-69748400D01*
X89585800Y-69768400D01*
X89331800Y-69768400D01*
X89331800Y-69748400D01*
X88138645Y-69748400D01*
X88017324Y-69978290D01*
X88061975Y-70125499D01*
X88187159Y-70388320D01*
X88361212Y-70621669D01*
X88445266Y-70697434D01*
X88364620Y-70721898D01*
X88254306Y-70780863D01*
X88157615Y-70860215D01*
X88146257Y-70874055D01*
X88008203Y-70736002D01*
X87984401Y-70706999D01*
X87868676Y-70612026D01*
X87736647Y-70541454D01*
X87593386Y-70497997D01*
X87481733Y-70487000D01*
X87481722Y-70487000D01*
X87444400Y-70483324D01*
X87407078Y-70487000D01*
X86063817Y-70487000D01*
X85997154Y-70394600D01*
X84656200Y-70394600D01*
X84656200Y-70414600D01*
X84402200Y-70414600D01*
X84402200Y-70394600D01*
X83061246Y-70394600D01*
X82994583Y-70487000D01*
X82907725Y-70487000D01*
X82870400Y-70483324D01*
X82833075Y-70487000D01*
X82833067Y-70487000D01*
X82721414Y-70497997D01*
X82578153Y-70541454D01*
X82446124Y-70612026D01*
X82330399Y-70706999D01*
X82306601Y-70735997D01*
X78312622Y-74729977D01*
X78287786Y-74709595D01*
X78134250Y-74627528D01*
X77967654Y-74576992D01*
X77794400Y-74559928D01*
X76869400Y-74559928D01*
X76696146Y-74576992D01*
X76529550Y-74627528D01*
X76376014Y-74709595D01*
X76241438Y-74820038D01*
X76130995Y-74954614D01*
X76048928Y-75108150D01*
X75998392Y-75274746D01*
X75981328Y-75448000D01*
X75981328Y-76513010D01*
X75705204Y-76513010D01*
X75704400Y-76358750D01*
X75545650Y-76200000D01*
X74483900Y-76200000D01*
X74483900Y-76220000D01*
X74229900Y-76220000D01*
X74229900Y-76200000D01*
X73168150Y-76200000D01*
X73009400Y-76358750D01*
X73008596Y-76513010D01*
X72854772Y-76513010D01*
X72854772Y-75473400D01*
X72837708Y-75300146D01*
X72806723Y-75198000D01*
X73006328Y-75198000D01*
X73009400Y-75787250D01*
X73168150Y-75946000D01*
X74229900Y-75946000D01*
X74229900Y-74721750D01*
X74483900Y-74721750D01*
X74483900Y-75946000D01*
X75545650Y-75946000D01*
X75704400Y-75787250D01*
X75707472Y-75198000D01*
X75695212Y-75073518D01*
X75658902Y-74953820D01*
X75599937Y-74843506D01*
X75520585Y-74746815D01*
X75423894Y-74667463D01*
X75313580Y-74608498D01*
X75193882Y-74572188D01*
X75069400Y-74559928D01*
X74642650Y-74563000D01*
X74483900Y-74721750D01*
X74229900Y-74721750D01*
X74071150Y-74563000D01*
X73644400Y-74559928D01*
X73519918Y-74572188D01*
X73400220Y-74608498D01*
X73289906Y-74667463D01*
X73193215Y-74746815D01*
X73113863Y-74843506D01*
X73054898Y-74953820D01*
X73018588Y-75073518D01*
X73006328Y-75198000D01*
X72806723Y-75198000D01*
X72787172Y-75133550D01*
X72705105Y-74980014D01*
X72594662Y-74845438D01*
X72460086Y-74734995D01*
X72306550Y-74652928D01*
X72139954Y-74602392D01*
X71966700Y-74585328D01*
X71041700Y-74585328D01*
X70868446Y-74602392D01*
X70701850Y-74652928D01*
X70548314Y-74734995D01*
X70413738Y-74845438D01*
X70303295Y-74980014D01*
X70221228Y-75133550D01*
X70170692Y-75300146D01*
X70153628Y-75473400D01*
X70153628Y-76723400D01*
X70170692Y-76896654D01*
X70221228Y-77063250D01*
X70303295Y-77216786D01*
X70413738Y-77351362D01*
X70548314Y-77461805D01*
X70701850Y-77543872D01*
X70868446Y-77594408D01*
X71041700Y-77611472D01*
X71067471Y-77611472D01*
X71240006Y-77784007D01*
X71263809Y-77813011D01*
X71379534Y-77907984D01*
X71511563Y-77978556D01*
X71654824Y-78022013D01*
X71803810Y-78036687D01*
X71841143Y-78033010D01*
X76969568Y-78033010D01*
X77006890Y-78036686D01*
X77044212Y-78033010D01*
X77044223Y-78033010D01*
X77155876Y-78022013D01*
X77299137Y-77978556D01*
X77431166Y-77907984D01*
X77546891Y-77813011D01*
X77570694Y-77784007D01*
X77768629Y-77586072D01*
X77794400Y-77586072D01*
X77967654Y-77569008D01*
X78134250Y-77518472D01*
X78287786Y-77436405D01*
X78422362Y-77325962D01*
X78532805Y-77191386D01*
X78614872Y-77037850D01*
X78665408Y-76871254D01*
X78682472Y-76698000D01*
X78682472Y-76509729D01*
X82891927Y-72300275D01*
X82910623Y-72490099D01*
X82975524Y-72704047D01*
X83080916Y-72901223D01*
X83222751Y-73074049D01*
X83395577Y-73215884D01*
X83592753Y-73321276D01*
X83806701Y-73386177D01*
X83973448Y-73402600D01*
X85309069Y-73402600D01*
X86561996Y-74655528D01*
X84584920Y-74655528D01*
X84460438Y-74667788D01*
X84340740Y-74704098D01*
X84230426Y-74763063D01*
X84133735Y-74842415D01*
X84054383Y-74939106D01*
X83995418Y-75049420D01*
X83959108Y-75169118D01*
X83946848Y-75293600D01*
X83946848Y-78816600D01*
X66724895Y-78816600D01*
X66722804Y-76079305D01*
X67178628Y-76535130D01*
X67178628Y-76723400D01*
X67195692Y-76896654D01*
X67246228Y-77063250D01*
X67328295Y-77216786D01*
X67438738Y-77351362D01*
X67573314Y-77461805D01*
X67726850Y-77543872D01*
X67893446Y-77594408D01*
X68066700Y-77611472D01*
X68991700Y-77611472D01*
X69164954Y-77594408D01*
X69331550Y-77543872D01*
X69485086Y-77461805D01*
X69619662Y-77351362D01*
X69730105Y-77216786D01*
X69812172Y-77063250D01*
X69862708Y-76896654D01*
X69879772Y-76723400D01*
X69879772Y-75473400D01*
X69862708Y-75300146D01*
X69812172Y-75133550D01*
X69730105Y-74980014D01*
X69619662Y-74845438D01*
X69485086Y-74734995D01*
X69331550Y-74652928D01*
X69164954Y-74602392D01*
X68991700Y-74585328D01*
X68066700Y-74585328D01*
X67964190Y-74595424D01*
X67964190Y-73402600D01*
X68402200Y-73402600D01*
X68402200Y-72394600D01*
X68656200Y-72394600D01*
X68656200Y-73402600D01*
X69156200Y-73402600D01*
X69375187Y-73356015D01*
X69580878Y-73267603D01*
X69765369Y-73140761D01*
X69921569Y-72980364D01*
X70043476Y-72792576D01*
X70123319Y-72569474D01*
X69997154Y-72394600D01*
X68656200Y-72394600D01*
X68402200Y-72394600D01*
X68382200Y-72394600D01*
X68382200Y-72140600D01*
X68402200Y-72140600D01*
X68402200Y-72120600D01*
X68656200Y-72120600D01*
X68656200Y-72140600D01*
X69997154Y-72140600D01*
X70123319Y-71965726D01*
X70043476Y-71742624D01*
X69921569Y-71554836D01*
X69765369Y-71394439D01*
X69580878Y-71267597D01*
X69572673Y-71264070D01*
X69662823Y-71215884D01*
X69835649Y-71074049D01*
X69977484Y-70901223D01*
X70082876Y-70704047D01*
X70147777Y-70490099D01*
X70169691Y-70267600D01*
X70147777Y-70045101D01*
X70082876Y-69831153D01*
X69977484Y-69633977D01*
X69835649Y-69461151D01*
X69662823Y-69319316D01*
X69566068Y-69267600D01*
X69662823Y-69215884D01*
X69835649Y-69074049D01*
X69977484Y-68901223D01*
X70082876Y-68704047D01*
X70147777Y-68490099D01*
X70169691Y-68267600D01*
X70147777Y-68045101D01*
X70082876Y-67831153D01*
X69977484Y-67633977D01*
X69835649Y-67461151D01*
X69662823Y-67319316D01*
X69566068Y-67267600D01*
X69662823Y-67215884D01*
X69835649Y-67074049D01*
X69878802Y-67021467D01*
X69928186Y-67016603D01*
X70071447Y-66973146D01*
X70203476Y-66902574D01*
X70319201Y-66807601D01*
X70343004Y-66778597D01*
X74831403Y-62290199D01*
X74860401Y-62266401D01*
X74955374Y-62150676D01*
X75025946Y-62018647D01*
X75069403Y-61875386D01*
X75080400Y-61763733D01*
X75080400Y-61763725D01*
X75084076Y-61726400D01*
X75080400Y-61689075D01*
X75080400Y-58107711D01*
X75124337Y-58063774D01*
X75237605Y-57894256D01*
X75315626Y-57705898D01*
X75355400Y-57505939D01*
X75355400Y-57302061D01*
X75315626Y-57102102D01*
X75237605Y-56913744D01*
X75124337Y-56744226D01*
X74980174Y-56600063D01*
X74810656Y-56486795D01*
X74622298Y-56408774D01*
X74422339Y-56369000D01*
X74218461Y-56369000D01*
X74073990Y-56397737D01*
X74073990Y-55774733D01*
X74328250Y-55773600D01*
X74487000Y-55614850D01*
X74487000Y-54965600D01*
X74467000Y-54965600D01*
X74467000Y-54711600D01*
X74487000Y-54711600D01*
X74487000Y-54691600D01*
X74741000Y-54691600D01*
X74741000Y-54711600D01*
G36*
X73351171Y-46413342D02*
G01*
X73231749Y-46511349D01*
X73133742Y-46630771D01*
X73060916Y-46767018D01*
X73016071Y-46914855D01*
X73000928Y-47068600D01*
X73000928Y-47368600D01*
X73001959Y-47379071D01*
X72815072Y-47565959D01*
X72815072Y-47508000D01*
X72798008Y-47334746D01*
X72747472Y-47168150D01*
X72665405Y-47014614D01*
X72554962Y-46880038D01*
X72420386Y-46769595D01*
X72266850Y-46687528D01*
X72100254Y-46636992D01*
X71927000Y-46619928D01*
X71002000Y-46619928D01*
X70828746Y-46636992D01*
X70662150Y-46687528D01*
X70508614Y-46769595D01*
X70374038Y-46880038D01*
X70263595Y-47014614D01*
X70181528Y-47168150D01*
X70130992Y-47334746D01*
X70113928Y-47508000D01*
X70113928Y-48758000D01*
X70130992Y-48931254D01*
X70181528Y-49097850D01*
X70263595Y-49251386D01*
X70374038Y-49385962D01*
X70508614Y-49496405D01*
X70662150Y-49578472D01*
X70704500Y-49591319D01*
X70704500Y-49811581D01*
X70662150Y-49824428D01*
X70508614Y-49906495D01*
X70374038Y-50016938D01*
X70263595Y-50151514D01*
X70181528Y-50305050D01*
X70130992Y-50471646D01*
X70113928Y-50644900D01*
X70113928Y-51894900D01*
X70130992Y-52068154D01*
X70181528Y-52234750D01*
X70263595Y-52388286D01*
X70374038Y-52522862D01*
X70508614Y-52633305D01*
X70662150Y-52715372D01*
X70828746Y-52765908D01*
X71002000Y-52782972D01*
X71927000Y-52782972D01*
X72100254Y-52765908D01*
X72103980Y-52764778D01*
X72103980Y-52861122D01*
X72100254Y-52859992D01*
X71927000Y-52842928D01*
X71002000Y-52842928D01*
X70828746Y-52859992D01*
X70662150Y-52910528D01*
X70508614Y-52992595D01*
X70374038Y-53103038D01*
X70263595Y-53237614D01*
X70181528Y-53391150D01*
X70130992Y-53557746D01*
X70113928Y-53731000D01*
X70113928Y-54981000D01*
X70130992Y-55154254D01*
X70181528Y-55320850D01*
X70263595Y-55474386D01*
X70374038Y-55608962D01*
X70508614Y-55719405D01*
X70662150Y-55801472D01*
X70828746Y-55852008D01*
X71002000Y-55869072D01*
X71927000Y-55869072D01*
X72100254Y-55852008D01*
X72103981Y-55850878D01*
X72103981Y-57744268D01*
X72085539Y-57740600D01*
X71881661Y-57740600D01*
X71681702Y-57780374D01*
X71493344Y-57858395D01*
X71323826Y-57971663D01*
X71179663Y-58115826D01*
X71066395Y-58285344D01*
X70988374Y-58473702D01*
X70948600Y-58673661D01*
X70948600Y-58735798D01*
X70176799Y-59507600D01*
X69873769Y-59507600D01*
X69835649Y-59461151D01*
X69662823Y-59319316D01*
X69572673Y-59271130D01*
X69580878Y-59267603D01*
X69765369Y-59140761D01*
X69921569Y-58980364D01*
X70043476Y-58792576D01*
X70123319Y-58569474D01*
X69997154Y-58394600D01*
X68656200Y-58394600D01*
X68656200Y-58414600D01*
X68402200Y-58414600D01*
X68402200Y-58394600D01*
X67061246Y-58394600D01*
X66935081Y-58569474D01*
X67014924Y-58792576D01*
X67136831Y-58980364D01*
X67293031Y-59140761D01*
X67477522Y-59267603D01*
X67485727Y-59271130D01*
X67395577Y-59319316D01*
X67222751Y-59461151D01*
X67080916Y-59633977D01*
X66975524Y-59831153D01*
X66910623Y-60045101D01*
X66888709Y-60267600D01*
X66910623Y-60490099D01*
X66975524Y-60704047D01*
X67080916Y-60901223D01*
X67222751Y-61074049D01*
X67395577Y-61215884D01*
X67492332Y-61267600D01*
X67395577Y-61319316D01*
X67222751Y-61461151D01*
X67080916Y-61633977D01*
X66975524Y-61831153D01*
X66910623Y-62045101D01*
X66888709Y-62267600D01*
X66910623Y-62490099D01*
X66975524Y-62704047D01*
X67080916Y-62901223D01*
X67222751Y-63074049D01*
X67395577Y-63215884D01*
X67492332Y-63267600D01*
X67395577Y-63319316D01*
X67222751Y-63461151D01*
X67080916Y-63633977D01*
X66975524Y-63831153D01*
X66910623Y-64045101D01*
X66888709Y-64267600D01*
X66910623Y-64490099D01*
X66975524Y-64704047D01*
X67080916Y-64901223D01*
X67222751Y-65074049D01*
X67395577Y-65215884D01*
X67492332Y-65267600D01*
X67395577Y-65319316D01*
X67222751Y-65461151D01*
X67179598Y-65513733D01*
X67130214Y-65518597D01*
X66986953Y-65562054D01*
X66854924Y-65632626D01*
X66739199Y-65727599D01*
X66715396Y-65756603D01*
X66714919Y-65757080D01*
X66708968Y-57965726D01*
X66935081Y-57965726D01*
X67061246Y-58140600D01*
X68402200Y-58140600D01*
X68402200Y-57132600D01*
X68656200Y-57132600D01*
X68656200Y-58140600D01*
X69997154Y-58140600D01*
X70123319Y-57965726D01*
X70043476Y-57742624D01*
X69921569Y-57554836D01*
X69765369Y-57394439D01*
X69580878Y-57267597D01*
X69375187Y-57179185D01*
X69156200Y-57132600D01*
X68656200Y-57132600D01*
X68402200Y-57132600D01*
X67902200Y-57132600D01*
X67683213Y-57179185D01*
X67477522Y-57267597D01*
X67293031Y-57394439D01*
X67136831Y-57554836D01*
X67014924Y-57742624D01*
X66935081Y-57965726D01*
X66708968Y-57965726D01*
X66706879Y-55231000D01*
X67138928Y-55231000D01*
X67151188Y-55355482D01*
X67187498Y-55475180D01*
X67246463Y-55585494D01*
X67325815Y-55682185D01*
X67422506Y-55761537D01*
X67532820Y-55820502D01*
X67652518Y-55856812D01*
X67777000Y-55869072D01*
X68203750Y-55866000D01*
X68362500Y-55707250D01*
X68362500Y-54483000D01*
X68616500Y-54483000D01*
X68616500Y-55707250D01*
X68775250Y-55866000D01*
X69202000Y-55869072D01*
X69326482Y-55856812D01*
X69446180Y-55820502D01*
X69556494Y-55761537D01*
X69653185Y-55682185D01*
X69732537Y-55585494D01*
X69791502Y-55475180D01*
X69827812Y-55355482D01*
X69840072Y-55231000D01*
X69837000Y-54641750D01*
X69678250Y-54483000D01*
X68616500Y-54483000D01*
X68362500Y-54483000D01*
X67300750Y-54483000D01*
X67142000Y-54641750D01*
X67138928Y-55231000D01*
X66706879Y-55231000D01*
X66705542Y-53481000D01*
X67138928Y-53481000D01*
X67142000Y-54070250D01*
X67300750Y-54229000D01*
X68362500Y-54229000D01*
X68362500Y-53004750D01*
X68616500Y-53004750D01*
X68616500Y-54229000D01*
X69678250Y-54229000D01*
X69837000Y-54070250D01*
X69840072Y-53481000D01*
X69827812Y-53356518D01*
X69791502Y-53236820D01*
X69732537Y-53126506D01*
X69653185Y-53029815D01*
X69556494Y-52950463D01*
X69446180Y-52891498D01*
X69326482Y-52855188D01*
X69202000Y-52842928D01*
X68775250Y-52846000D01*
X68616500Y-53004750D01*
X68362500Y-53004750D01*
X68203750Y-52846000D01*
X67777000Y-52842928D01*
X67652518Y-52855188D01*
X67532820Y-52891498D01*
X67422506Y-52950463D01*
X67325815Y-53029815D01*
X67246463Y-53126506D01*
X67187498Y-53236820D01*
X67151188Y-53356518D01*
X67138928Y-53481000D01*
X66705542Y-53481000D01*
X66703376Y-50644900D01*
X67138928Y-50644900D01*
X67138928Y-51894900D01*
X67155992Y-52068154D01*
X67206528Y-52234750D01*
X67288595Y-52388286D01*
X67399038Y-52522862D01*
X67533614Y-52633305D01*
X67687150Y-52715372D01*
X67853746Y-52765908D01*
X68027000Y-52782972D01*
X68952000Y-52782972D01*
X69125254Y-52765908D01*
X69291850Y-52715372D01*
X69445386Y-52633305D01*
X69579962Y-52522862D01*
X69690405Y-52388286D01*
X69772472Y-52234750D01*
X69823008Y-52068154D01*
X69840072Y-51894900D01*
X69840072Y-50644900D01*
X69823008Y-50471646D01*
X69772472Y-50305050D01*
X69690405Y-50151514D01*
X69579962Y-50016938D01*
X69445386Y-49906495D01*
X69291850Y-49824428D01*
X69125254Y-49773892D01*
X68952000Y-49756828D01*
X68027000Y-49756828D01*
X67853746Y-49773892D01*
X67687150Y-49824428D01*
X67533614Y-49906495D01*
X67399038Y-50016938D01*
X67288595Y-50151514D01*
X67206528Y-50305050D01*
X67155992Y-50471646D01*
X67138928Y-50644900D01*
X66703376Y-50644900D01*
X66702126Y-49008000D01*
X67138928Y-49008000D01*
X67151188Y-49132482D01*
X67187498Y-49252180D01*
X67246463Y-49362494D01*
X67325815Y-49459185D01*
X67422506Y-49538537D01*
X67532820Y-49597502D01*
X67652518Y-49633812D01*
X67777000Y-49646072D01*
X68203750Y-49643000D01*
X68362500Y-49484250D01*
X68362500Y-48260000D01*
X68616500Y-48260000D01*
X68616500Y-49484250D01*
X68775250Y-49643000D01*
X69202000Y-49646072D01*
X69326482Y-49633812D01*
X69446180Y-49597502D01*
X69556494Y-49538537D01*
X69653185Y-49459185D01*
X69732537Y-49362494D01*
X69791502Y-49252180D01*
X69827812Y-49132482D01*
X69840072Y-49008000D01*
X69837000Y-48418750D01*
X69678250Y-48260000D01*
X68616500Y-48260000D01*
X68362500Y-48260000D01*
X67300750Y-48260000D01*
X67142000Y-48418750D01*
X67138928Y-49008000D01*
X66702126Y-49008000D01*
X66700788Y-47258000D01*
X67138928Y-47258000D01*
X67142000Y-47847250D01*
X67300750Y-48006000D01*
X68362500Y-48006000D01*
X68362500Y-46781750D01*
X68616500Y-46781750D01*
X68616500Y-48006000D01*
X69678250Y-48006000D01*
X69837000Y-47847250D01*
X69840072Y-47258000D01*
X69827812Y-47133518D01*
X69791502Y-47013820D01*
X69732537Y-46903506D01*
X69653185Y-46806815D01*
X69556494Y-46727463D01*
X69446180Y-46668498D01*
X69326482Y-46632188D01*
X69202000Y-46619928D01*
X68775250Y-46623000D01*
X68616500Y-46781750D01*
X68362500Y-46781750D01*
X68203750Y-46623000D01*
X67777000Y-46619928D01*
X67652518Y-46632188D01*
X67532820Y-46668498D01*
X67422506Y-46727463D01*
X67325815Y-46806815D01*
X67246463Y-46903506D01*
X67187498Y-47013820D01*
X67151188Y-47133518D01*
X67138928Y-47258000D01*
X66700788Y-47258000D01*
X66700136Y-46405400D01*
X73366029Y-46405400D01*
X73351171Y-46413342D01*
G37*
X73351171Y-46413342D02*
X73231749Y-46511349D01*
X73133742Y-46630771D01*
X73060916Y-46767018D01*
X73016071Y-46914855D01*
X73000928Y-47068600D01*
X73000928Y-47368600D01*
X73001959Y-47379071D01*
X72815072Y-47565959D01*
X72815072Y-47508000D01*
X72798008Y-47334746D01*
X72747472Y-47168150D01*
X72665405Y-47014614D01*
X72554962Y-46880038D01*
X72420386Y-46769595D01*
X72266850Y-46687528D01*
X72100254Y-46636992D01*
X71927000Y-46619928D01*
X71002000Y-46619928D01*
X70828746Y-46636992D01*
X70662150Y-46687528D01*
X70508614Y-46769595D01*
X70374038Y-46880038D01*
X70263595Y-47014614D01*
X70181528Y-47168150D01*
X70130992Y-47334746D01*
X70113928Y-47508000D01*
X70113928Y-48758000D01*
X70130992Y-48931254D01*
X70181528Y-49097850D01*
X70263595Y-49251386D01*
X70374038Y-49385962D01*
X70508614Y-49496405D01*
X70662150Y-49578472D01*
X70704500Y-49591319D01*
X70704500Y-49811581D01*
X70662150Y-49824428D01*
X70508614Y-49906495D01*
X70374038Y-50016938D01*
X70263595Y-50151514D01*
X70181528Y-50305050D01*
X70130992Y-50471646D01*
X70113928Y-50644900D01*
X70113928Y-51894900D01*
X70130992Y-52068154D01*
X70181528Y-52234750D01*
X70263595Y-52388286D01*
X70374038Y-52522862D01*
X70508614Y-52633305D01*
X70662150Y-52715372D01*
X70828746Y-52765908D01*
X71002000Y-52782972D01*
X71927000Y-52782972D01*
X72100254Y-52765908D01*
X72103980Y-52764778D01*
X72103980Y-52861122D01*
X72100254Y-52859992D01*
X71927000Y-52842928D01*
X71002000Y-52842928D01*
X70828746Y-52859992D01*
X70662150Y-52910528D01*
X70508614Y-52992595D01*
X70374038Y-53103038D01*
X70263595Y-53237614D01*
X70181528Y-53391150D01*
X70130992Y-53557746D01*
X70113928Y-53731000D01*
X70113928Y-54981000D01*
X70130992Y-55154254D01*
X70181528Y-55320850D01*
X70263595Y-55474386D01*
X70374038Y-55608962D01*
X70508614Y-55719405D01*
X70662150Y-55801472D01*
X70828746Y-55852008D01*
X71002000Y-55869072D01*
X71927000Y-55869072D01*
X72100254Y-55852008D01*
X72103981Y-55850878D01*
X72103981Y-57744268D01*
X72085539Y-57740600D01*
X71881661Y-57740600D01*
X71681702Y-57780374D01*
X71493344Y-57858395D01*
X71323826Y-57971663D01*
X71179663Y-58115826D01*
X71066395Y-58285344D01*
X70988374Y-58473702D01*
X70948600Y-58673661D01*
X70948600Y-58735798D01*
X70176799Y-59507600D01*
X69873769Y-59507600D01*
X69835649Y-59461151D01*
X69662823Y-59319316D01*
X69572673Y-59271130D01*
X69580878Y-59267603D01*
X69765369Y-59140761D01*
X69921569Y-58980364D01*
X70043476Y-58792576D01*
X70123319Y-58569474D01*
X69997154Y-58394600D01*
X68656200Y-58394600D01*
X68656200Y-58414600D01*
X68402200Y-58414600D01*
X68402200Y-58394600D01*
X67061246Y-58394600D01*
X66935081Y-58569474D01*
X67014924Y-58792576D01*
X67136831Y-58980364D01*
X67293031Y-59140761D01*
X67477522Y-59267603D01*
X67485727Y-59271130D01*
X67395577Y-59319316D01*
X67222751Y-59461151D01*
X67080916Y-59633977D01*
X66975524Y-59831153D01*
X66910623Y-60045101D01*
X66888709Y-60267600D01*
X66910623Y-60490099D01*
X66975524Y-60704047D01*
X67080916Y-60901223D01*
X67222751Y-61074049D01*
X67395577Y-61215884D01*
X67492332Y-61267600D01*
X67395577Y-61319316D01*
X67222751Y-61461151D01*
X67080916Y-61633977D01*
X66975524Y-61831153D01*
X66910623Y-62045101D01*
X66888709Y-62267600D01*
X66910623Y-62490099D01*
X66975524Y-62704047D01*
X67080916Y-62901223D01*
X67222751Y-63074049D01*
X67395577Y-63215884D01*
X67492332Y-63267600D01*
X67395577Y-63319316D01*
X67222751Y-63461151D01*
X67080916Y-63633977D01*
X66975524Y-63831153D01*
X66910623Y-64045101D01*
X66888709Y-64267600D01*
X66910623Y-64490099D01*
X66975524Y-64704047D01*
X67080916Y-64901223D01*
X67222751Y-65074049D01*
X67395577Y-65215884D01*
X67492332Y-65267600D01*
X67395577Y-65319316D01*
X67222751Y-65461151D01*
X67179598Y-65513733D01*
X67130214Y-65518597D01*
X66986953Y-65562054D01*
X66854924Y-65632626D01*
X66739199Y-65727599D01*
X66715396Y-65756603D01*
X66714919Y-65757080D01*
X66708968Y-57965726D01*
X66935081Y-57965726D01*
X67061246Y-58140600D01*
X68402200Y-58140600D01*
X68402200Y-57132600D01*
X68656200Y-57132600D01*
X68656200Y-58140600D01*
X69997154Y-58140600D01*
X70123319Y-57965726D01*
X70043476Y-57742624D01*
X69921569Y-57554836D01*
X69765369Y-57394439D01*
X69580878Y-57267597D01*
X69375187Y-57179185D01*
X69156200Y-57132600D01*
X68656200Y-57132600D01*
X68402200Y-57132600D01*
X67902200Y-57132600D01*
X67683213Y-57179185D01*
X67477522Y-57267597D01*
X67293031Y-57394439D01*
X67136831Y-57554836D01*
X67014924Y-57742624D01*
X66935081Y-57965726D01*
X66708968Y-57965726D01*
X66706879Y-55231000D01*
X67138928Y-55231000D01*
X67151188Y-55355482D01*
X67187498Y-55475180D01*
X67246463Y-55585494D01*
X67325815Y-55682185D01*
X67422506Y-55761537D01*
X67532820Y-55820502D01*
X67652518Y-55856812D01*
X67777000Y-55869072D01*
X68203750Y-55866000D01*
X68362500Y-55707250D01*
X68362500Y-54483000D01*
X68616500Y-54483000D01*
X68616500Y-55707250D01*
X68775250Y-55866000D01*
X69202000Y-55869072D01*
X69326482Y-55856812D01*
X69446180Y-55820502D01*
X69556494Y-55761537D01*
X69653185Y-55682185D01*
X69732537Y-55585494D01*
X69791502Y-55475180D01*
X69827812Y-55355482D01*
X69840072Y-55231000D01*
X69837000Y-54641750D01*
X69678250Y-54483000D01*
X68616500Y-54483000D01*
X68362500Y-54483000D01*
X67300750Y-54483000D01*
X67142000Y-54641750D01*
X67138928Y-55231000D01*
X66706879Y-55231000D01*
X66705542Y-53481000D01*
X67138928Y-53481000D01*
X67142000Y-54070250D01*
X67300750Y-54229000D01*
X68362500Y-54229000D01*
X68362500Y-53004750D01*
X68616500Y-53004750D01*
X68616500Y-54229000D01*
X69678250Y-54229000D01*
X69837000Y-54070250D01*
X69840072Y-53481000D01*
X69827812Y-53356518D01*
X69791502Y-53236820D01*
X69732537Y-53126506D01*
X69653185Y-53029815D01*
X69556494Y-52950463D01*
X69446180Y-52891498D01*
X69326482Y-52855188D01*
X69202000Y-52842928D01*
X68775250Y-52846000D01*
X68616500Y-53004750D01*
X68362500Y-53004750D01*
X68203750Y-52846000D01*
X67777000Y-52842928D01*
X67652518Y-52855188D01*
X67532820Y-52891498D01*
X67422506Y-52950463D01*
X67325815Y-53029815D01*
X67246463Y-53126506D01*
X67187498Y-53236820D01*
X67151188Y-53356518D01*
X67138928Y-53481000D01*
X66705542Y-53481000D01*
X66703376Y-50644900D01*
X67138928Y-50644900D01*
X67138928Y-51894900D01*
X67155992Y-52068154D01*
X67206528Y-52234750D01*
X67288595Y-52388286D01*
X67399038Y-52522862D01*
X67533614Y-52633305D01*
X67687150Y-52715372D01*
X67853746Y-52765908D01*
X68027000Y-52782972D01*
X68952000Y-52782972D01*
X69125254Y-52765908D01*
X69291850Y-52715372D01*
X69445386Y-52633305D01*
X69579962Y-52522862D01*
X69690405Y-52388286D01*
X69772472Y-52234750D01*
X69823008Y-52068154D01*
X69840072Y-51894900D01*
X69840072Y-50644900D01*
X69823008Y-50471646D01*
X69772472Y-50305050D01*
X69690405Y-50151514D01*
X69579962Y-50016938D01*
X69445386Y-49906495D01*
X69291850Y-49824428D01*
X69125254Y-49773892D01*
X68952000Y-49756828D01*
X68027000Y-49756828D01*
X67853746Y-49773892D01*
X67687150Y-49824428D01*
X67533614Y-49906495D01*
X67399038Y-50016938D01*
X67288595Y-50151514D01*
X67206528Y-50305050D01*
X67155992Y-50471646D01*
X67138928Y-50644900D01*
X66703376Y-50644900D01*
X66702126Y-49008000D01*
X67138928Y-49008000D01*
X67151188Y-49132482D01*
X67187498Y-49252180D01*
X67246463Y-49362494D01*
X67325815Y-49459185D01*
X67422506Y-49538537D01*
X67532820Y-49597502D01*
X67652518Y-49633812D01*
X67777000Y-49646072D01*
X68203750Y-49643000D01*
X68362500Y-49484250D01*
X68362500Y-48260000D01*
X68616500Y-48260000D01*
X68616500Y-49484250D01*
X68775250Y-49643000D01*
X69202000Y-49646072D01*
X69326482Y-49633812D01*
X69446180Y-49597502D01*
X69556494Y-49538537D01*
X69653185Y-49459185D01*
X69732537Y-49362494D01*
X69791502Y-49252180D01*
X69827812Y-49132482D01*
X69840072Y-49008000D01*
X69837000Y-48418750D01*
X69678250Y-48260000D01*
X68616500Y-48260000D01*
X68362500Y-48260000D01*
X67300750Y-48260000D01*
X67142000Y-48418750D01*
X67138928Y-49008000D01*
X66702126Y-49008000D01*
X66700788Y-47258000D01*
X67138928Y-47258000D01*
X67142000Y-47847250D01*
X67300750Y-48006000D01*
X68362500Y-48006000D01*
X68362500Y-46781750D01*
X68616500Y-46781750D01*
X68616500Y-48006000D01*
X69678250Y-48006000D01*
X69837000Y-47847250D01*
X69840072Y-47258000D01*
X69827812Y-47133518D01*
X69791502Y-47013820D01*
X69732537Y-46903506D01*
X69653185Y-46806815D01*
X69556494Y-46727463D01*
X69446180Y-46668498D01*
X69326482Y-46632188D01*
X69202000Y-46619928D01*
X68775250Y-46623000D01*
X68616500Y-46781750D01*
X68362500Y-46781750D01*
X68203750Y-46623000D01*
X67777000Y-46619928D01*
X67652518Y-46632188D01*
X67532820Y-46668498D01*
X67422506Y-46727463D01*
X67325815Y-46806815D01*
X67246463Y-46903506D01*
X67187498Y-47013820D01*
X67151188Y-47133518D01*
X67138928Y-47258000D01*
X66700788Y-47258000D01*
X66700136Y-46405400D01*
X73366029Y-46405400D01*
X73351171Y-46413342D01*
G36*
X84505800Y-50469800D02*
G01*
X84525800Y-50469800D01*
X84525800Y-50723800D01*
X84505800Y-50723800D01*
X84505800Y-50743800D01*
X84251800Y-50743800D01*
X84251800Y-50723800D01*
X84231800Y-50723800D01*
X84231800Y-50469800D01*
X84251800Y-50469800D01*
X84251800Y-50449800D01*
X84505800Y-50449800D01*
X84505800Y-50469800D01*
G37*
X84505800Y-50469800D02*
X84525800Y-50469800D01*
X84525800Y-50723800D01*
X84505800Y-50723800D01*
X84505800Y-50743800D01*
X84251800Y-50743800D01*
X84251800Y-50723800D01*
X84231800Y-50723800D01*
X84231800Y-50469800D01*
X84251800Y-50469800D01*
X84251800Y-50449800D01*
X84505800Y-50449800D01*
X84505800Y-50469800D01*
M02*
