G04 #@! TF.GenerationSoftware,KiCad,Pcbnew,5.1.6*
G04 #@! TF.CreationDate,2020-09-10T16:33:30+02:00*
G04 #@! TF.ProjectId,LORA_ATTINY84,4c4f5241-5f41-4545-9449-4e5938342e6b,rev?*
G04 #@! TF.SameCoordinates,Original*
G04 #@! TF.FileFunction,Soldermask,Top*
G04 #@! TF.FilePolarity,Negative*
%FSLAX46Y46*%
G04 Gerber Fmt 4.6, Leading zero omitted, Abs format (unit mm)*
G04 Created by KiCad (PCBNEW 5.1.6) date 2020-09-10 16:33:30*
%MOMM*%
%LPD*%
G01*
G04 APERTURE LIST*
%ADD10C,0.100000*%
G04 APERTURE END LIST*
D10*
G36*
X91596599Y-75243337D02*
G01*
X91606208Y-75246252D01*
X91615072Y-75250990D01*
X91622837Y-75257363D01*
X91629210Y-75265128D01*
X91633948Y-75273992D01*
X91636863Y-75283601D01*
X91638452Y-75299740D01*
X91638452Y-79487460D01*
X91636863Y-79503599D01*
X91633948Y-79513208D01*
X91629210Y-79522072D01*
X91622837Y-79529837D01*
X91615072Y-79536210D01*
X91606208Y-79540948D01*
X91596599Y-79543863D01*
X91580460Y-79545452D01*
X90242740Y-79545452D01*
X90226601Y-79543863D01*
X90216992Y-79540948D01*
X90208128Y-79536210D01*
X90200363Y-79529837D01*
X90193990Y-79522072D01*
X90189252Y-79513208D01*
X90186337Y-79503599D01*
X90184748Y-79487460D01*
X90184748Y-77470451D01*
X90182346Y-77446065D01*
X90175233Y-77422616D01*
X90163682Y-77401005D01*
X90148137Y-77382063D01*
X90129195Y-77366518D01*
X90107584Y-77354967D01*
X90084135Y-77347854D01*
X90059749Y-77345452D01*
X89142740Y-77345452D01*
X89126601Y-77343863D01*
X89116992Y-77340948D01*
X89108128Y-77336210D01*
X89100363Y-77329837D01*
X89093990Y-77322072D01*
X89089252Y-77313208D01*
X89086337Y-77303599D01*
X89084748Y-77287460D01*
X89084748Y-75299740D01*
X89086337Y-75283601D01*
X89089252Y-75273992D01*
X89093990Y-75265128D01*
X89100363Y-75257363D01*
X89108128Y-75250990D01*
X89116992Y-75246252D01*
X89126601Y-75243337D01*
X89142740Y-75241748D01*
X91580460Y-75241748D01*
X91596599Y-75243337D01*
G37*
G36*
X87044919Y-75243337D02*
G01*
X87054528Y-75246252D01*
X87063392Y-75250990D01*
X87071157Y-75257363D01*
X87077530Y-75265128D01*
X87082268Y-75273992D01*
X87085183Y-75283601D01*
X87086772Y-75299740D01*
X87086772Y-77287460D01*
X87085183Y-77303599D01*
X87082268Y-77313208D01*
X87077530Y-77322072D01*
X87071157Y-77329837D01*
X87063392Y-77336210D01*
X87054528Y-77340948D01*
X87044919Y-77343863D01*
X87028780Y-77345452D01*
X86111771Y-77345452D01*
X86087385Y-77347854D01*
X86063936Y-77354967D01*
X86042325Y-77366518D01*
X86023383Y-77382063D01*
X86007838Y-77401005D01*
X85996287Y-77422616D01*
X85989174Y-77446065D01*
X85986772Y-77470451D01*
X85986772Y-79487460D01*
X85985183Y-79503599D01*
X85982268Y-79513208D01*
X85977530Y-79522072D01*
X85971157Y-79529837D01*
X85963392Y-79536210D01*
X85954528Y-79540948D01*
X85944919Y-79543863D01*
X85928780Y-79545452D01*
X84591060Y-79545452D01*
X84574921Y-79543863D01*
X84565312Y-79540948D01*
X84556448Y-79536210D01*
X84548683Y-79529837D01*
X84542310Y-79522072D01*
X84537572Y-79513208D01*
X84534657Y-79503599D01*
X84533068Y-79487460D01*
X84533068Y-75299740D01*
X84534657Y-75283601D01*
X84537572Y-75273992D01*
X84542310Y-75265128D01*
X84548683Y-75257363D01*
X84556448Y-75250990D01*
X84565312Y-75246252D01*
X84574921Y-75243337D01*
X84591060Y-75241748D01*
X87028780Y-75241748D01*
X87044919Y-75243337D01*
G37*
G36*
X88738200Y-79485400D02*
G01*
X87436200Y-79485400D01*
X87436200Y-77283400D01*
X88738200Y-77283400D01*
X88738200Y-79485400D01*
G37*
G36*
X69142262Y-75176581D02*
G01*
X69177181Y-75187174D01*
X69209363Y-75204376D01*
X69237573Y-75227527D01*
X69260724Y-75255737D01*
X69277926Y-75287919D01*
X69288519Y-75322838D01*
X69292700Y-75365295D01*
X69292700Y-76831505D01*
X69288519Y-76873962D01*
X69277926Y-76908881D01*
X69260724Y-76941063D01*
X69237573Y-76969273D01*
X69209363Y-76992424D01*
X69177181Y-77009626D01*
X69142262Y-77020219D01*
X69099805Y-77024400D01*
X67958595Y-77024400D01*
X67916138Y-77020219D01*
X67881219Y-77009626D01*
X67849037Y-76992424D01*
X67820827Y-76969273D01*
X67797676Y-76941063D01*
X67780474Y-76908881D01*
X67769881Y-76873962D01*
X67765700Y-76831505D01*
X67765700Y-75365295D01*
X67769881Y-75322838D01*
X67780474Y-75287919D01*
X67797676Y-75255737D01*
X67820827Y-75227527D01*
X67849037Y-75204376D01*
X67881219Y-75187174D01*
X67916138Y-75176581D01*
X67958595Y-75172400D01*
X69099805Y-75172400D01*
X69142262Y-75176581D01*
G37*
G36*
X72117262Y-75176581D02*
G01*
X72152181Y-75187174D01*
X72184363Y-75204376D01*
X72212573Y-75227527D01*
X72235724Y-75255737D01*
X72252926Y-75287919D01*
X72263519Y-75322838D01*
X72267700Y-75365295D01*
X72267700Y-76831505D01*
X72263519Y-76873962D01*
X72252926Y-76908881D01*
X72235724Y-76941063D01*
X72212573Y-76969273D01*
X72184363Y-76992424D01*
X72152181Y-77009626D01*
X72117262Y-77020219D01*
X72074805Y-77024400D01*
X70933595Y-77024400D01*
X70891138Y-77020219D01*
X70856219Y-77009626D01*
X70824037Y-76992424D01*
X70795827Y-76969273D01*
X70772676Y-76941063D01*
X70755474Y-76908881D01*
X70744881Y-76873962D01*
X70740700Y-76831505D01*
X70740700Y-75365295D01*
X70744881Y-75322838D01*
X70755474Y-75287919D01*
X70772676Y-75255737D01*
X70795827Y-75227527D01*
X70824037Y-75204376D01*
X70856219Y-75187174D01*
X70891138Y-75176581D01*
X70933595Y-75172400D01*
X72074805Y-75172400D01*
X72117262Y-75176581D01*
G37*
G36*
X74969962Y-75151181D02*
G01*
X75004881Y-75161774D01*
X75037063Y-75178976D01*
X75065273Y-75202127D01*
X75088424Y-75230337D01*
X75105626Y-75262519D01*
X75116219Y-75297438D01*
X75120400Y-75339895D01*
X75120400Y-76806105D01*
X75116219Y-76848562D01*
X75105626Y-76883481D01*
X75088424Y-76915663D01*
X75065273Y-76943873D01*
X75037063Y-76967024D01*
X75004881Y-76984226D01*
X74969962Y-76994819D01*
X74927505Y-76999000D01*
X73786295Y-76999000D01*
X73743838Y-76994819D01*
X73708919Y-76984226D01*
X73676737Y-76967024D01*
X73648527Y-76943873D01*
X73625376Y-76915663D01*
X73608174Y-76883481D01*
X73597581Y-76848562D01*
X73593400Y-76806105D01*
X73593400Y-75339895D01*
X73597581Y-75297438D01*
X73608174Y-75262519D01*
X73625376Y-75230337D01*
X73648527Y-75202127D01*
X73676737Y-75178976D01*
X73708919Y-75161774D01*
X73743838Y-75151181D01*
X73786295Y-75147000D01*
X74927505Y-75147000D01*
X74969962Y-75151181D01*
G37*
G36*
X77944962Y-75151181D02*
G01*
X77979881Y-75161774D01*
X78012063Y-75178976D01*
X78040273Y-75202127D01*
X78063424Y-75230337D01*
X78080626Y-75262519D01*
X78091219Y-75297438D01*
X78095400Y-75339895D01*
X78095400Y-76806105D01*
X78091219Y-76848562D01*
X78080626Y-76883481D01*
X78063424Y-76915663D01*
X78040273Y-76943873D01*
X78012063Y-76967024D01*
X77979881Y-76984226D01*
X77944962Y-76994819D01*
X77902505Y-76999000D01*
X76761295Y-76999000D01*
X76718838Y-76994819D01*
X76683919Y-76984226D01*
X76651737Y-76967024D01*
X76623527Y-76943873D01*
X76600376Y-76915663D01*
X76583174Y-76883481D01*
X76572581Y-76848562D01*
X76568400Y-76806105D01*
X76568400Y-75339895D01*
X76572581Y-75297438D01*
X76583174Y-75262519D01*
X76600376Y-75230337D01*
X76623527Y-75202127D01*
X76651737Y-75178976D01*
X76683919Y-75161774D01*
X76718838Y-75151181D01*
X76761295Y-75147000D01*
X77902505Y-75147000D01*
X77944962Y-75151181D01*
G37*
G36*
X90359800Y-73062400D02*
G01*
X88557800Y-73062400D01*
X88557800Y-71260400D01*
X90359800Y-71260400D01*
X90359800Y-73062400D01*
G37*
G36*
X69137215Y-71724573D02*
G01*
X69241079Y-71756079D01*
X69268255Y-71770605D01*
X69336800Y-71807243D01*
X69420701Y-71876099D01*
X69489557Y-71960000D01*
X69526195Y-72028545D01*
X69540721Y-72055721D01*
X69572227Y-72159585D01*
X69582866Y-72267600D01*
X69572227Y-72375615D01*
X69540721Y-72479479D01*
X69540719Y-72479482D01*
X69489557Y-72575200D01*
X69420701Y-72659101D01*
X69336800Y-72727957D01*
X69268255Y-72764595D01*
X69241079Y-72779121D01*
X69137215Y-72810627D01*
X69056267Y-72818600D01*
X68002133Y-72818600D01*
X67921185Y-72810627D01*
X67817321Y-72779121D01*
X67790145Y-72764595D01*
X67721600Y-72727957D01*
X67637699Y-72659101D01*
X67568843Y-72575200D01*
X67517681Y-72479482D01*
X67517679Y-72479479D01*
X67486173Y-72375615D01*
X67475534Y-72267600D01*
X67486173Y-72159585D01*
X67517679Y-72055721D01*
X67532205Y-72028545D01*
X67568843Y-71960000D01*
X67637699Y-71876099D01*
X67721600Y-71807243D01*
X67790145Y-71770605D01*
X67817321Y-71756079D01*
X67921185Y-71724573D01*
X68002133Y-71716600D01*
X69056267Y-71716600D01*
X69137215Y-71724573D01*
G37*
G36*
X85137215Y-71724573D02*
G01*
X85241079Y-71756079D01*
X85268255Y-71770605D01*
X85336800Y-71807243D01*
X85420701Y-71876099D01*
X85489557Y-71960000D01*
X85526195Y-72028545D01*
X85540721Y-72055721D01*
X85572227Y-72159585D01*
X85582866Y-72267600D01*
X85572227Y-72375615D01*
X85540721Y-72479479D01*
X85540719Y-72479482D01*
X85489557Y-72575200D01*
X85420701Y-72659101D01*
X85336800Y-72727957D01*
X85268255Y-72764595D01*
X85241079Y-72779121D01*
X85137215Y-72810627D01*
X85056267Y-72818600D01*
X84002133Y-72818600D01*
X83921185Y-72810627D01*
X83817321Y-72779121D01*
X83790145Y-72764595D01*
X83721600Y-72727957D01*
X83637699Y-72659101D01*
X83568843Y-72575200D01*
X83517681Y-72479482D01*
X83517679Y-72479479D01*
X83486173Y-72375615D01*
X83475534Y-72267600D01*
X83486173Y-72159585D01*
X83517679Y-72055721D01*
X83532205Y-72028545D01*
X83568843Y-71960000D01*
X83637699Y-71876099D01*
X83721600Y-71807243D01*
X83790145Y-71770605D01*
X83817321Y-71756079D01*
X83921185Y-71724573D01*
X84002133Y-71716600D01*
X85056267Y-71716600D01*
X85137215Y-71724573D01*
G37*
G36*
X69137215Y-69724573D02*
G01*
X69241079Y-69756079D01*
X69268255Y-69770605D01*
X69336800Y-69807243D01*
X69420701Y-69876099D01*
X69489557Y-69960000D01*
X69526195Y-70028545D01*
X69540721Y-70055721D01*
X69572227Y-70159585D01*
X69582866Y-70267600D01*
X69572227Y-70375615D01*
X69540721Y-70479479D01*
X69536286Y-70487776D01*
X69489557Y-70575200D01*
X69420701Y-70659101D01*
X69336800Y-70727957D01*
X69268255Y-70764595D01*
X69241079Y-70779121D01*
X69137215Y-70810627D01*
X69056267Y-70818600D01*
X68002133Y-70818600D01*
X67921185Y-70810627D01*
X67817321Y-70779121D01*
X67790145Y-70764595D01*
X67721600Y-70727957D01*
X67637699Y-70659101D01*
X67568843Y-70575200D01*
X67522114Y-70487776D01*
X67517679Y-70479479D01*
X67486173Y-70375615D01*
X67475534Y-70267600D01*
X67486173Y-70159585D01*
X67517679Y-70055721D01*
X67532205Y-70028545D01*
X67568843Y-69960000D01*
X67637699Y-69876099D01*
X67721600Y-69807243D01*
X67790145Y-69770605D01*
X67817321Y-69756079D01*
X67921185Y-69724573D01*
X68002133Y-69716600D01*
X69056267Y-69716600D01*
X69137215Y-69724573D01*
G37*
G36*
X85137215Y-69724573D02*
G01*
X85241079Y-69756079D01*
X85268255Y-69770605D01*
X85336800Y-69807243D01*
X85420701Y-69876099D01*
X85489557Y-69960000D01*
X85526195Y-70028545D01*
X85540721Y-70055721D01*
X85572227Y-70159585D01*
X85582866Y-70267600D01*
X85572227Y-70375615D01*
X85540721Y-70479479D01*
X85536286Y-70487776D01*
X85489557Y-70575200D01*
X85420701Y-70659101D01*
X85336800Y-70727957D01*
X85268255Y-70764595D01*
X85241079Y-70779121D01*
X85137215Y-70810627D01*
X85056267Y-70818600D01*
X84002133Y-70818600D01*
X83921185Y-70810627D01*
X83817321Y-70779121D01*
X83790145Y-70764595D01*
X83721600Y-70727957D01*
X83637699Y-70659101D01*
X83568843Y-70575200D01*
X83522114Y-70487776D01*
X83517679Y-70479479D01*
X83486173Y-70375615D01*
X83475534Y-70267600D01*
X83486173Y-70159585D01*
X83517679Y-70055721D01*
X83532205Y-70028545D01*
X83568843Y-69960000D01*
X83637699Y-69876099D01*
X83721600Y-69807243D01*
X83790145Y-69770605D01*
X83817321Y-69756079D01*
X83921185Y-69724573D01*
X84002133Y-69716600D01*
X85056267Y-69716600D01*
X85137215Y-69724573D01*
G37*
G36*
X89572312Y-68725327D02*
G01*
X89721612Y-68755024D01*
X89885584Y-68822944D01*
X90033154Y-68921547D01*
X90158653Y-69047046D01*
X90257256Y-69194616D01*
X90325176Y-69358588D01*
X90359800Y-69532659D01*
X90359800Y-69710141D01*
X90325176Y-69884212D01*
X90257256Y-70048184D01*
X90158653Y-70195754D01*
X90033154Y-70321253D01*
X89885584Y-70419856D01*
X89721612Y-70487776D01*
X89572312Y-70517473D01*
X89547542Y-70522400D01*
X89370058Y-70522400D01*
X89345288Y-70517473D01*
X89195988Y-70487776D01*
X89032016Y-70419856D01*
X88884446Y-70321253D01*
X88758947Y-70195754D01*
X88660344Y-70048184D01*
X88592424Y-69884212D01*
X88557800Y-69710141D01*
X88557800Y-69532659D01*
X88592424Y-69358588D01*
X88660344Y-69194616D01*
X88758947Y-69047046D01*
X88884446Y-68921547D01*
X89032016Y-68822944D01*
X89195988Y-68755024D01*
X89345288Y-68725327D01*
X89370058Y-68720400D01*
X89547542Y-68720400D01*
X89572312Y-68725327D01*
G37*
G36*
X69137215Y-67724573D02*
G01*
X69241079Y-67756079D01*
X69268255Y-67770605D01*
X69336800Y-67807243D01*
X69420701Y-67876099D01*
X69489557Y-67960000D01*
X69526195Y-68028545D01*
X69540721Y-68055721D01*
X69572227Y-68159585D01*
X69582866Y-68267600D01*
X69572227Y-68375615D01*
X69540721Y-68479479D01*
X69540719Y-68479482D01*
X69489557Y-68575200D01*
X69420701Y-68659101D01*
X69336800Y-68727957D01*
X69286159Y-68755025D01*
X69241079Y-68779121D01*
X69137215Y-68810627D01*
X69056267Y-68818600D01*
X68002133Y-68818600D01*
X67921185Y-68810627D01*
X67817321Y-68779121D01*
X67772241Y-68755025D01*
X67721600Y-68727957D01*
X67637699Y-68659101D01*
X67568843Y-68575200D01*
X67517681Y-68479482D01*
X67517679Y-68479479D01*
X67486173Y-68375615D01*
X67475534Y-68267600D01*
X67486173Y-68159585D01*
X67517679Y-68055721D01*
X67532205Y-68028545D01*
X67568843Y-67960000D01*
X67637699Y-67876099D01*
X67721600Y-67807243D01*
X67790145Y-67770605D01*
X67817321Y-67756079D01*
X67921185Y-67724573D01*
X68002133Y-67716600D01*
X69056267Y-67716600D01*
X69137215Y-67724573D01*
G37*
G36*
X85137215Y-67724573D02*
G01*
X85241079Y-67756079D01*
X85268255Y-67770605D01*
X85336800Y-67807243D01*
X85420701Y-67876099D01*
X85489557Y-67960000D01*
X85526195Y-68028545D01*
X85540721Y-68055721D01*
X85572227Y-68159585D01*
X85582866Y-68267600D01*
X85572227Y-68375615D01*
X85540721Y-68479479D01*
X85540719Y-68479482D01*
X85489557Y-68575200D01*
X85420701Y-68659101D01*
X85336800Y-68727957D01*
X85286159Y-68755025D01*
X85241079Y-68779121D01*
X85137215Y-68810627D01*
X85056267Y-68818600D01*
X84002133Y-68818600D01*
X83921185Y-68810627D01*
X83817321Y-68779121D01*
X83772241Y-68755025D01*
X83721600Y-68727957D01*
X83637699Y-68659101D01*
X83568843Y-68575200D01*
X83517681Y-68479482D01*
X83517679Y-68479479D01*
X83486173Y-68375615D01*
X83475534Y-68267600D01*
X83486173Y-68159585D01*
X83517679Y-68055721D01*
X83532205Y-68028545D01*
X83568843Y-67960000D01*
X83637699Y-67876099D01*
X83721600Y-67807243D01*
X83790145Y-67770605D01*
X83817321Y-67756079D01*
X83921185Y-67724573D01*
X84002133Y-67716600D01*
X85056267Y-67716600D01*
X85137215Y-67724573D01*
G37*
G36*
X89572312Y-66185327D02*
G01*
X89721612Y-66215024D01*
X89885584Y-66282944D01*
X90033154Y-66381547D01*
X90158653Y-66507046D01*
X90257256Y-66654616D01*
X90325176Y-66818588D01*
X90359800Y-66992659D01*
X90359800Y-67170141D01*
X90325176Y-67344212D01*
X90257256Y-67508184D01*
X90158653Y-67655754D01*
X90033154Y-67781253D01*
X89885584Y-67879856D01*
X89721612Y-67947776D01*
X89572312Y-67977473D01*
X89547542Y-67982400D01*
X89370058Y-67982400D01*
X89345288Y-67977473D01*
X89195988Y-67947776D01*
X89032016Y-67879856D01*
X88884446Y-67781253D01*
X88758947Y-67655754D01*
X88660344Y-67508184D01*
X88592424Y-67344212D01*
X88557800Y-67170141D01*
X88557800Y-66992659D01*
X88592424Y-66818588D01*
X88660344Y-66654616D01*
X88758947Y-66507046D01*
X88884446Y-66381547D01*
X89032016Y-66282944D01*
X89195988Y-66215024D01*
X89345288Y-66185327D01*
X89370058Y-66180400D01*
X89547542Y-66180400D01*
X89572312Y-66185327D01*
G37*
G36*
X85137215Y-65724573D02*
G01*
X85241079Y-65756079D01*
X85268255Y-65770605D01*
X85336800Y-65807243D01*
X85420701Y-65876099D01*
X85489557Y-65960000D01*
X85526195Y-66028545D01*
X85540721Y-66055721D01*
X85572227Y-66159585D01*
X85582866Y-66267600D01*
X85572227Y-66375615D01*
X85540721Y-66479479D01*
X85540719Y-66479482D01*
X85489557Y-66575200D01*
X85420701Y-66659101D01*
X85336800Y-66727957D01*
X85268255Y-66764595D01*
X85241079Y-66779121D01*
X85137215Y-66810627D01*
X85056267Y-66818600D01*
X84002133Y-66818600D01*
X83921185Y-66810627D01*
X83817321Y-66779121D01*
X83790145Y-66764595D01*
X83721600Y-66727957D01*
X83637699Y-66659101D01*
X83568843Y-66575200D01*
X83517681Y-66479482D01*
X83517679Y-66479479D01*
X83486173Y-66375615D01*
X83475534Y-66267600D01*
X83486173Y-66159585D01*
X83517679Y-66055721D01*
X83532205Y-66028545D01*
X83568843Y-65960000D01*
X83637699Y-65876099D01*
X83721600Y-65807243D01*
X83790145Y-65770605D01*
X83817321Y-65756079D01*
X83921185Y-65724573D01*
X84002133Y-65716600D01*
X85056267Y-65716600D01*
X85137215Y-65724573D01*
G37*
G36*
X69137215Y-65724573D02*
G01*
X69241079Y-65756079D01*
X69268255Y-65770605D01*
X69336800Y-65807243D01*
X69420701Y-65876099D01*
X69489557Y-65960000D01*
X69526195Y-66028545D01*
X69540721Y-66055721D01*
X69572227Y-66159585D01*
X69582866Y-66267600D01*
X69572227Y-66375615D01*
X69540721Y-66479479D01*
X69540719Y-66479482D01*
X69489557Y-66575200D01*
X69420701Y-66659101D01*
X69336800Y-66727957D01*
X69268255Y-66764595D01*
X69241079Y-66779121D01*
X69137215Y-66810627D01*
X69056267Y-66818600D01*
X68002133Y-66818600D01*
X67921185Y-66810627D01*
X67817321Y-66779121D01*
X67790145Y-66764595D01*
X67721600Y-66727957D01*
X67637699Y-66659101D01*
X67568843Y-66575200D01*
X67517681Y-66479482D01*
X67517679Y-66479479D01*
X67486173Y-66375615D01*
X67475534Y-66267600D01*
X67486173Y-66159585D01*
X67517679Y-66055721D01*
X67532205Y-66028545D01*
X67568843Y-65960000D01*
X67637699Y-65876099D01*
X67721600Y-65807243D01*
X67790145Y-65770605D01*
X67817321Y-65756079D01*
X67921185Y-65724573D01*
X68002133Y-65716600D01*
X69056267Y-65716600D01*
X69137215Y-65724573D01*
G37*
G36*
X89572312Y-63645327D02*
G01*
X89721612Y-63675024D01*
X89885584Y-63742944D01*
X90033154Y-63841547D01*
X90158653Y-63967046D01*
X90257256Y-64114616D01*
X90325176Y-64278588D01*
X90359800Y-64452659D01*
X90359800Y-64630141D01*
X90325176Y-64804212D01*
X90257256Y-64968184D01*
X90158653Y-65115754D01*
X90033154Y-65241253D01*
X89885584Y-65339856D01*
X89721612Y-65407776D01*
X89572312Y-65437473D01*
X89547542Y-65442400D01*
X89370058Y-65442400D01*
X89345288Y-65437473D01*
X89195988Y-65407776D01*
X89032016Y-65339856D01*
X88884446Y-65241253D01*
X88758947Y-65115754D01*
X88660344Y-64968184D01*
X88592424Y-64804212D01*
X88557800Y-64630141D01*
X88557800Y-64452659D01*
X88592424Y-64278588D01*
X88660344Y-64114616D01*
X88758947Y-63967046D01*
X88884446Y-63841547D01*
X89032016Y-63742944D01*
X89195988Y-63675024D01*
X89345288Y-63645327D01*
X89370058Y-63640400D01*
X89547542Y-63640400D01*
X89572312Y-63645327D01*
G37*
G36*
X69137215Y-63724573D02*
G01*
X69241079Y-63756079D01*
X69268255Y-63770605D01*
X69336800Y-63807243D01*
X69420701Y-63876099D01*
X69489557Y-63960000D01*
X69526195Y-64028545D01*
X69540721Y-64055721D01*
X69572227Y-64159585D01*
X69582866Y-64267600D01*
X69572227Y-64375615D01*
X69540721Y-64479479D01*
X69540719Y-64479482D01*
X69489557Y-64575200D01*
X69420701Y-64659101D01*
X69336800Y-64727957D01*
X69268255Y-64764595D01*
X69241079Y-64779121D01*
X69137215Y-64810627D01*
X69056267Y-64818600D01*
X68002133Y-64818600D01*
X67921185Y-64810627D01*
X67817321Y-64779121D01*
X67790145Y-64764595D01*
X67721600Y-64727957D01*
X67637699Y-64659101D01*
X67568843Y-64575200D01*
X67517681Y-64479482D01*
X67517679Y-64479479D01*
X67486173Y-64375615D01*
X67475534Y-64267600D01*
X67486173Y-64159585D01*
X67517679Y-64055721D01*
X67532205Y-64028545D01*
X67568843Y-63960000D01*
X67637699Y-63876099D01*
X67721600Y-63807243D01*
X67790145Y-63770605D01*
X67817321Y-63756079D01*
X67921185Y-63724573D01*
X68002133Y-63716600D01*
X69056267Y-63716600D01*
X69137215Y-63724573D01*
G37*
G36*
X85137215Y-63724573D02*
G01*
X85241079Y-63756079D01*
X85268255Y-63770605D01*
X85336800Y-63807243D01*
X85420701Y-63876099D01*
X85489557Y-63960000D01*
X85526195Y-64028545D01*
X85540721Y-64055721D01*
X85572227Y-64159585D01*
X85582866Y-64267600D01*
X85572227Y-64375615D01*
X85540721Y-64479479D01*
X85540719Y-64479482D01*
X85489557Y-64575200D01*
X85420701Y-64659101D01*
X85336800Y-64727957D01*
X85268255Y-64764595D01*
X85241079Y-64779121D01*
X85137215Y-64810627D01*
X85056267Y-64818600D01*
X84002133Y-64818600D01*
X83921185Y-64810627D01*
X83817321Y-64779121D01*
X83790145Y-64764595D01*
X83721600Y-64727957D01*
X83637699Y-64659101D01*
X83568843Y-64575200D01*
X83517681Y-64479482D01*
X83517679Y-64479479D01*
X83486173Y-64375615D01*
X83475534Y-64267600D01*
X83486173Y-64159585D01*
X83517679Y-64055721D01*
X83532205Y-64028545D01*
X83568843Y-63960000D01*
X83637699Y-63876099D01*
X83721600Y-63807243D01*
X83790145Y-63770605D01*
X83817321Y-63756079D01*
X83921185Y-63724573D01*
X84002133Y-63716600D01*
X85056267Y-63716600D01*
X85137215Y-63724573D01*
G37*
G36*
X89572312Y-61105327D02*
G01*
X89721612Y-61135024D01*
X89885584Y-61202944D01*
X90033154Y-61301547D01*
X90158653Y-61427046D01*
X90257256Y-61574616D01*
X90325176Y-61738588D01*
X90359800Y-61912659D01*
X90359800Y-62090141D01*
X90325176Y-62264212D01*
X90257256Y-62428184D01*
X90158653Y-62575754D01*
X90033154Y-62701253D01*
X89885584Y-62799856D01*
X89721612Y-62867776D01*
X89572312Y-62897473D01*
X89547542Y-62902400D01*
X89370058Y-62902400D01*
X89345288Y-62897473D01*
X89195988Y-62867776D01*
X89032016Y-62799856D01*
X88884446Y-62701253D01*
X88758947Y-62575754D01*
X88660344Y-62428184D01*
X88592424Y-62264212D01*
X88557800Y-62090141D01*
X88557800Y-61912659D01*
X88592424Y-61738588D01*
X88660344Y-61574616D01*
X88758947Y-61427046D01*
X88884446Y-61301547D01*
X89032016Y-61202944D01*
X89195988Y-61135024D01*
X89345288Y-61105327D01*
X89370058Y-61100400D01*
X89547542Y-61100400D01*
X89572312Y-61105327D01*
G37*
G36*
X69137215Y-61724573D02*
G01*
X69241079Y-61756079D01*
X69268255Y-61770605D01*
X69336800Y-61807243D01*
X69420701Y-61876099D01*
X69489557Y-61960000D01*
X69526195Y-62028545D01*
X69540721Y-62055721D01*
X69572227Y-62159585D01*
X69582866Y-62267600D01*
X69572227Y-62375615D01*
X69540721Y-62479479D01*
X69540719Y-62479482D01*
X69489557Y-62575200D01*
X69420701Y-62659101D01*
X69336800Y-62727957D01*
X69268255Y-62764595D01*
X69241079Y-62779121D01*
X69137215Y-62810627D01*
X69056267Y-62818600D01*
X68002133Y-62818600D01*
X67921185Y-62810627D01*
X67817321Y-62779121D01*
X67790145Y-62764595D01*
X67721600Y-62727957D01*
X67637699Y-62659101D01*
X67568843Y-62575200D01*
X67517681Y-62479482D01*
X67517679Y-62479479D01*
X67486173Y-62375615D01*
X67475534Y-62267600D01*
X67486173Y-62159585D01*
X67517679Y-62055721D01*
X67532205Y-62028545D01*
X67568843Y-61960000D01*
X67637699Y-61876099D01*
X67721600Y-61807243D01*
X67790145Y-61770605D01*
X67817321Y-61756079D01*
X67921185Y-61724573D01*
X68002133Y-61716600D01*
X69056267Y-61716600D01*
X69137215Y-61724573D01*
G37*
G36*
X85137215Y-61724573D02*
G01*
X85241079Y-61756079D01*
X85268255Y-61770605D01*
X85336800Y-61807243D01*
X85420701Y-61876099D01*
X85489557Y-61960000D01*
X85526195Y-62028545D01*
X85540721Y-62055721D01*
X85572227Y-62159585D01*
X85582866Y-62267600D01*
X85572227Y-62375615D01*
X85540721Y-62479479D01*
X85540719Y-62479482D01*
X85489557Y-62575200D01*
X85420701Y-62659101D01*
X85336800Y-62727957D01*
X85268255Y-62764595D01*
X85241079Y-62779121D01*
X85137215Y-62810627D01*
X85056267Y-62818600D01*
X84002133Y-62818600D01*
X83921185Y-62810627D01*
X83817321Y-62779121D01*
X83790145Y-62764595D01*
X83721600Y-62727957D01*
X83637699Y-62659101D01*
X83568843Y-62575200D01*
X83517681Y-62479482D01*
X83517679Y-62479479D01*
X83486173Y-62375615D01*
X83475534Y-62267600D01*
X83486173Y-62159585D01*
X83517679Y-62055721D01*
X83532205Y-62028545D01*
X83568843Y-61960000D01*
X83637699Y-61876099D01*
X83721600Y-61807243D01*
X83790145Y-61770605D01*
X83817321Y-61756079D01*
X83921185Y-61724573D01*
X84002133Y-61716600D01*
X85056267Y-61716600D01*
X85137215Y-61724573D01*
G37*
G36*
X85137215Y-59724573D02*
G01*
X85241079Y-59756079D01*
X85268255Y-59770605D01*
X85336800Y-59807243D01*
X85420701Y-59876099D01*
X85489557Y-59960000D01*
X85526195Y-60028545D01*
X85540721Y-60055721D01*
X85572227Y-60159585D01*
X85582866Y-60267600D01*
X85572227Y-60375615D01*
X85540721Y-60479479D01*
X85540719Y-60479482D01*
X85489557Y-60575200D01*
X85420701Y-60659101D01*
X85336800Y-60727957D01*
X85268255Y-60764595D01*
X85241079Y-60779121D01*
X85137215Y-60810627D01*
X85056267Y-60818600D01*
X84002133Y-60818600D01*
X83921185Y-60810627D01*
X83817321Y-60779121D01*
X83790145Y-60764595D01*
X83721600Y-60727957D01*
X83637699Y-60659101D01*
X83568843Y-60575200D01*
X83517681Y-60479482D01*
X83517679Y-60479479D01*
X83486173Y-60375615D01*
X83475534Y-60267600D01*
X83486173Y-60159585D01*
X83517679Y-60055721D01*
X83532205Y-60028545D01*
X83568843Y-59960000D01*
X83637699Y-59876099D01*
X83721600Y-59807243D01*
X83790145Y-59770605D01*
X83817321Y-59756079D01*
X83921185Y-59724573D01*
X84002133Y-59716600D01*
X85056267Y-59716600D01*
X85137215Y-59724573D01*
G37*
G36*
X69137215Y-59724573D02*
G01*
X69241079Y-59756079D01*
X69268255Y-59770605D01*
X69336800Y-59807243D01*
X69420701Y-59876099D01*
X69489557Y-59960000D01*
X69526195Y-60028545D01*
X69540721Y-60055721D01*
X69572227Y-60159585D01*
X69582866Y-60267600D01*
X69572227Y-60375615D01*
X69540721Y-60479479D01*
X69540719Y-60479482D01*
X69489557Y-60575200D01*
X69420701Y-60659101D01*
X69336800Y-60727957D01*
X69268255Y-60764595D01*
X69241079Y-60779121D01*
X69137215Y-60810627D01*
X69056267Y-60818600D01*
X68002133Y-60818600D01*
X67921185Y-60810627D01*
X67817321Y-60779121D01*
X67790145Y-60764595D01*
X67721600Y-60727957D01*
X67637699Y-60659101D01*
X67568843Y-60575200D01*
X67517681Y-60479482D01*
X67517679Y-60479479D01*
X67486173Y-60375615D01*
X67475534Y-60267600D01*
X67486173Y-60159585D01*
X67517679Y-60055721D01*
X67532205Y-60028545D01*
X67568843Y-59960000D01*
X67637699Y-59876099D01*
X67721600Y-59807243D01*
X67790145Y-59770605D01*
X67817321Y-59756079D01*
X67921185Y-59724573D01*
X68002133Y-59716600D01*
X69056267Y-59716600D01*
X69137215Y-59724573D01*
G37*
G36*
X89572312Y-58565327D02*
G01*
X89721612Y-58595024D01*
X89885584Y-58662944D01*
X90033154Y-58761547D01*
X90158653Y-58887046D01*
X90257256Y-59034616D01*
X90325176Y-59198588D01*
X90359800Y-59372659D01*
X90359800Y-59550141D01*
X90325176Y-59724212D01*
X90257256Y-59888184D01*
X90158653Y-60035754D01*
X90033154Y-60161253D01*
X89885584Y-60259856D01*
X89721612Y-60327776D01*
X89572312Y-60357473D01*
X89547542Y-60362400D01*
X89370058Y-60362400D01*
X89345288Y-60357473D01*
X89195988Y-60327776D01*
X89032016Y-60259856D01*
X88884446Y-60161253D01*
X88758947Y-60035754D01*
X88660344Y-59888184D01*
X88592424Y-59724212D01*
X88557800Y-59550141D01*
X88557800Y-59372659D01*
X88592424Y-59198588D01*
X88660344Y-59034616D01*
X88758947Y-58887046D01*
X88884446Y-58761547D01*
X89032016Y-58662944D01*
X89195988Y-58595024D01*
X89345288Y-58565327D01*
X89370058Y-58560400D01*
X89547542Y-58560400D01*
X89572312Y-58565327D01*
G37*
G36*
X69137215Y-57724573D02*
G01*
X69241079Y-57756079D01*
X69268255Y-57770605D01*
X69336800Y-57807243D01*
X69420701Y-57876099D01*
X69489557Y-57960000D01*
X69526195Y-58028545D01*
X69540721Y-58055721D01*
X69572227Y-58159585D01*
X69582866Y-58267600D01*
X69572227Y-58375615D01*
X69540721Y-58479479D01*
X69540719Y-58479482D01*
X69489557Y-58575200D01*
X69420701Y-58659101D01*
X69336800Y-58727957D01*
X69273957Y-58761547D01*
X69241079Y-58779121D01*
X69137215Y-58810627D01*
X69056267Y-58818600D01*
X68002133Y-58818600D01*
X67921185Y-58810627D01*
X67817321Y-58779121D01*
X67784443Y-58761547D01*
X67721600Y-58727957D01*
X67637699Y-58659101D01*
X67568843Y-58575200D01*
X67517681Y-58479482D01*
X67517679Y-58479479D01*
X67486173Y-58375615D01*
X67475534Y-58267600D01*
X67486173Y-58159585D01*
X67517679Y-58055721D01*
X67532205Y-58028545D01*
X67568843Y-57960000D01*
X67637699Y-57876099D01*
X67721600Y-57807243D01*
X67790145Y-57770605D01*
X67817321Y-57756079D01*
X67921185Y-57724573D01*
X68002133Y-57716600D01*
X69056267Y-57716600D01*
X69137215Y-57724573D01*
G37*
G36*
X85137215Y-57724573D02*
G01*
X85241079Y-57756079D01*
X85268255Y-57770605D01*
X85336800Y-57807243D01*
X85420701Y-57876099D01*
X85489557Y-57960000D01*
X85526195Y-58028545D01*
X85540721Y-58055721D01*
X85572227Y-58159585D01*
X85582866Y-58267600D01*
X85572227Y-58375615D01*
X85540721Y-58479479D01*
X85540719Y-58479482D01*
X85489557Y-58575200D01*
X85420701Y-58659101D01*
X85336800Y-58727957D01*
X85273957Y-58761547D01*
X85241079Y-58779121D01*
X85137215Y-58810627D01*
X85056267Y-58818600D01*
X84002133Y-58818600D01*
X83921185Y-58810627D01*
X83817321Y-58779121D01*
X83784443Y-58761547D01*
X83721600Y-58727957D01*
X83637699Y-58659101D01*
X83568843Y-58575200D01*
X83517681Y-58479482D01*
X83517679Y-58479479D01*
X83486173Y-58375615D01*
X83475534Y-58267600D01*
X83486173Y-58159585D01*
X83517679Y-58055721D01*
X83532205Y-58028545D01*
X83568843Y-57960000D01*
X83637699Y-57876099D01*
X83721600Y-57807243D01*
X83790145Y-57770605D01*
X83817321Y-57756079D01*
X83921185Y-57724573D01*
X84002133Y-57716600D01*
X85056267Y-57716600D01*
X85137215Y-57724573D01*
G37*
G36*
X89572312Y-56025327D02*
G01*
X89721612Y-56055024D01*
X89885584Y-56122944D01*
X90033154Y-56221547D01*
X90158653Y-56347046D01*
X90257256Y-56494616D01*
X90325176Y-56658588D01*
X90359800Y-56832659D01*
X90359800Y-57010141D01*
X90325176Y-57184212D01*
X90257256Y-57348184D01*
X90158653Y-57495754D01*
X90033154Y-57621253D01*
X89885584Y-57719856D01*
X89721612Y-57787776D01*
X89572312Y-57817473D01*
X89547542Y-57822400D01*
X89370058Y-57822400D01*
X89345288Y-57817473D01*
X89195988Y-57787776D01*
X89032016Y-57719856D01*
X88884446Y-57621253D01*
X88758947Y-57495754D01*
X88660344Y-57348184D01*
X88592424Y-57184212D01*
X88557800Y-57010141D01*
X88557800Y-56832659D01*
X88592424Y-56658588D01*
X88660344Y-56494616D01*
X88758947Y-56347046D01*
X88884446Y-56221547D01*
X89032016Y-56122944D01*
X89195988Y-56055024D01*
X89345288Y-56025327D01*
X89370058Y-56020400D01*
X89547542Y-56020400D01*
X89572312Y-56025327D01*
G37*
G36*
X89571306Y-53485127D02*
G01*
X89721612Y-53515024D01*
X89885584Y-53582944D01*
X90033154Y-53681547D01*
X90158653Y-53807046D01*
X90257256Y-53954616D01*
X90325176Y-54118588D01*
X90354873Y-54267888D01*
X90359800Y-54292658D01*
X90359800Y-54470142D01*
X90355657Y-54490972D01*
X90325176Y-54644212D01*
X90257256Y-54808184D01*
X90158653Y-54955754D01*
X90033154Y-55081253D01*
X89885584Y-55179856D01*
X89721612Y-55247776D01*
X89575433Y-55276852D01*
X89547542Y-55282400D01*
X89370058Y-55282400D01*
X89342167Y-55276852D01*
X89195988Y-55247776D01*
X89032016Y-55179856D01*
X88884446Y-55081253D01*
X88758947Y-54955754D01*
X88660344Y-54808184D01*
X88592424Y-54644212D01*
X88561943Y-54490972D01*
X88557800Y-54470142D01*
X88557800Y-54292658D01*
X88562727Y-54267888D01*
X88592424Y-54118588D01*
X88660344Y-53954616D01*
X88758947Y-53807046D01*
X88884446Y-53681547D01*
X89032016Y-53582944D01*
X89195988Y-53515024D01*
X89346294Y-53485127D01*
X89370058Y-53480400D01*
X89547542Y-53480400D01*
X89571306Y-53485127D01*
G37*
G36*
X72077562Y-53434181D02*
G01*
X72112481Y-53444774D01*
X72144663Y-53461976D01*
X72172873Y-53485127D01*
X72196024Y-53513337D01*
X72213226Y-53545519D01*
X72223819Y-53580438D01*
X72228000Y-53622895D01*
X72228000Y-55089105D01*
X72223819Y-55131562D01*
X72213226Y-55166481D01*
X72196024Y-55198663D01*
X72172873Y-55226873D01*
X72144663Y-55250024D01*
X72112481Y-55267226D01*
X72077562Y-55277819D01*
X72035105Y-55282000D01*
X70893895Y-55282000D01*
X70851438Y-55277819D01*
X70816519Y-55267226D01*
X70784337Y-55250024D01*
X70756127Y-55226873D01*
X70732976Y-55198663D01*
X70715774Y-55166481D01*
X70705181Y-55131562D01*
X70701000Y-55089105D01*
X70701000Y-53622895D01*
X70705181Y-53580438D01*
X70715774Y-53545519D01*
X70732976Y-53513337D01*
X70756127Y-53485127D01*
X70784337Y-53461976D01*
X70816519Y-53444774D01*
X70851438Y-53434181D01*
X70893895Y-53430000D01*
X72035105Y-53430000D01*
X72077562Y-53434181D01*
G37*
G36*
X69102562Y-53434181D02*
G01*
X69137481Y-53444774D01*
X69169663Y-53461976D01*
X69197873Y-53485127D01*
X69221024Y-53513337D01*
X69238226Y-53545519D01*
X69248819Y-53580438D01*
X69253000Y-53622895D01*
X69253000Y-55089105D01*
X69248819Y-55131562D01*
X69238226Y-55166481D01*
X69221024Y-55198663D01*
X69197873Y-55226873D01*
X69169663Y-55250024D01*
X69137481Y-55267226D01*
X69102562Y-55277819D01*
X69060105Y-55282000D01*
X67918895Y-55282000D01*
X67876438Y-55277819D01*
X67841519Y-55267226D01*
X67809337Y-55250024D01*
X67781127Y-55226873D01*
X67757976Y-55198663D01*
X67740774Y-55166481D01*
X67730181Y-55131562D01*
X67726000Y-55089105D01*
X67726000Y-53622895D01*
X67730181Y-53580438D01*
X67740774Y-53545519D01*
X67757976Y-53513337D01*
X67781127Y-53485127D01*
X67809337Y-53461976D01*
X67841519Y-53444774D01*
X67876438Y-53434181D01*
X67918895Y-53430000D01*
X69060105Y-53430000D01*
X69102562Y-53434181D01*
G37*
G36*
X75548928Y-54490364D02*
G01*
X75570009Y-54496760D01*
X75589445Y-54507148D01*
X75606476Y-54521124D01*
X75620452Y-54538155D01*
X75630840Y-54557591D01*
X75637236Y-54578672D01*
X75640000Y-54606740D01*
X75640000Y-55070460D01*
X75637236Y-55098528D01*
X75630840Y-55119609D01*
X75620452Y-55139045D01*
X75606476Y-55156076D01*
X75589445Y-55170052D01*
X75570009Y-55180440D01*
X75548928Y-55186836D01*
X75520860Y-55189600D01*
X73707140Y-55189600D01*
X73679072Y-55186836D01*
X73657991Y-55180440D01*
X73638555Y-55170052D01*
X73621524Y-55156076D01*
X73607548Y-55139045D01*
X73597160Y-55119609D01*
X73590764Y-55098528D01*
X73588000Y-55070460D01*
X73588000Y-54606740D01*
X73590764Y-54578672D01*
X73597160Y-54557591D01*
X73607548Y-54538155D01*
X73621524Y-54521124D01*
X73638555Y-54507148D01*
X73657991Y-54496760D01*
X73679072Y-54490364D01*
X73707140Y-54487600D01*
X75520860Y-54487600D01*
X75548928Y-54490364D01*
G37*
G36*
X80498928Y-54490364D02*
G01*
X80520009Y-54496760D01*
X80539445Y-54507148D01*
X80556476Y-54521124D01*
X80570452Y-54538155D01*
X80580840Y-54557591D01*
X80587236Y-54578672D01*
X80590000Y-54606740D01*
X80590000Y-55070460D01*
X80587236Y-55098528D01*
X80580840Y-55119609D01*
X80570452Y-55139045D01*
X80556476Y-55156076D01*
X80539445Y-55170052D01*
X80520009Y-55180440D01*
X80498928Y-55186836D01*
X80470860Y-55189600D01*
X78657140Y-55189600D01*
X78629072Y-55186836D01*
X78607991Y-55180440D01*
X78588555Y-55170052D01*
X78571524Y-55156076D01*
X78557548Y-55139045D01*
X78547160Y-55119609D01*
X78540764Y-55098528D01*
X78538000Y-55070460D01*
X78538000Y-54606740D01*
X78540764Y-54578672D01*
X78547160Y-54557591D01*
X78557548Y-54538155D01*
X78571524Y-54521124D01*
X78588555Y-54507148D01*
X78607991Y-54496760D01*
X78629072Y-54490364D01*
X78657140Y-54487600D01*
X80470860Y-54487600D01*
X80498928Y-54490364D01*
G37*
G36*
X80498928Y-53220364D02*
G01*
X80520009Y-53226760D01*
X80539445Y-53237148D01*
X80556476Y-53251124D01*
X80570452Y-53268155D01*
X80580840Y-53287591D01*
X80587236Y-53308672D01*
X80590000Y-53336740D01*
X80590000Y-53800460D01*
X80587236Y-53828528D01*
X80580840Y-53849609D01*
X80570452Y-53869045D01*
X80556476Y-53886076D01*
X80539445Y-53900052D01*
X80520009Y-53910440D01*
X80498928Y-53916836D01*
X80470860Y-53919600D01*
X78657140Y-53919600D01*
X78629072Y-53916836D01*
X78607991Y-53910440D01*
X78588555Y-53900052D01*
X78571524Y-53886076D01*
X78557548Y-53869045D01*
X78547160Y-53849609D01*
X78540764Y-53828528D01*
X78538000Y-53800460D01*
X78538000Y-53336740D01*
X78540764Y-53308672D01*
X78547160Y-53287591D01*
X78557548Y-53268155D01*
X78571524Y-53251124D01*
X78588555Y-53237148D01*
X78607991Y-53226760D01*
X78629072Y-53220364D01*
X78657140Y-53217600D01*
X80470860Y-53217600D01*
X80498928Y-53220364D01*
G37*
G36*
X75548928Y-53220364D02*
G01*
X75570009Y-53226760D01*
X75589445Y-53237148D01*
X75606476Y-53251124D01*
X75620452Y-53268155D01*
X75630840Y-53287591D01*
X75637236Y-53308672D01*
X75640000Y-53336740D01*
X75640000Y-53800460D01*
X75637236Y-53828528D01*
X75630840Y-53849609D01*
X75620452Y-53869045D01*
X75606476Y-53886076D01*
X75589445Y-53900052D01*
X75570009Y-53910440D01*
X75548928Y-53916836D01*
X75520860Y-53919600D01*
X73707140Y-53919600D01*
X73679072Y-53916836D01*
X73657991Y-53910440D01*
X73638555Y-53900052D01*
X73621524Y-53886076D01*
X73607548Y-53869045D01*
X73597160Y-53849609D01*
X73590764Y-53828528D01*
X73588000Y-53800460D01*
X73588000Y-53336740D01*
X73590764Y-53308672D01*
X73597160Y-53287591D01*
X73607548Y-53268155D01*
X73621524Y-53251124D01*
X73638555Y-53237148D01*
X73657991Y-53226760D01*
X73679072Y-53220364D01*
X73707140Y-53217600D01*
X75520860Y-53217600D01*
X75548928Y-53220364D01*
G37*
G36*
X80498928Y-51950364D02*
G01*
X80520009Y-51956760D01*
X80539445Y-51967148D01*
X80556476Y-51981124D01*
X80570452Y-51998155D01*
X80580840Y-52017591D01*
X80587236Y-52038672D01*
X80590000Y-52066740D01*
X80590000Y-52530460D01*
X80587236Y-52558528D01*
X80580840Y-52579609D01*
X80570452Y-52599045D01*
X80556476Y-52616076D01*
X80539445Y-52630052D01*
X80520009Y-52640440D01*
X80498928Y-52646836D01*
X80470860Y-52649600D01*
X78657140Y-52649600D01*
X78629072Y-52646836D01*
X78607991Y-52640440D01*
X78588555Y-52630052D01*
X78571524Y-52616076D01*
X78557548Y-52599045D01*
X78547160Y-52579609D01*
X78540764Y-52558528D01*
X78538000Y-52530460D01*
X78538000Y-52066740D01*
X78540764Y-52038672D01*
X78547160Y-52017591D01*
X78557548Y-51998155D01*
X78571524Y-51981124D01*
X78588555Y-51967148D01*
X78607991Y-51956760D01*
X78629072Y-51950364D01*
X78657140Y-51947600D01*
X80470860Y-51947600D01*
X80498928Y-51950364D01*
G37*
G36*
X75548928Y-51950364D02*
G01*
X75570009Y-51956760D01*
X75589445Y-51967148D01*
X75606476Y-51981124D01*
X75620452Y-51998155D01*
X75630840Y-52017591D01*
X75637236Y-52038672D01*
X75640000Y-52066740D01*
X75640000Y-52530460D01*
X75637236Y-52558528D01*
X75630840Y-52579609D01*
X75620452Y-52599045D01*
X75606476Y-52616076D01*
X75589445Y-52630052D01*
X75570009Y-52640440D01*
X75548928Y-52646836D01*
X75520860Y-52649600D01*
X73707140Y-52649600D01*
X73679072Y-52646836D01*
X73657991Y-52640440D01*
X73638555Y-52630052D01*
X73621524Y-52616076D01*
X73607548Y-52599045D01*
X73597160Y-52579609D01*
X73590764Y-52558528D01*
X73588000Y-52530460D01*
X73588000Y-52066740D01*
X73590764Y-52038672D01*
X73597160Y-52017591D01*
X73607548Y-51998155D01*
X73621524Y-51981124D01*
X73638555Y-51967148D01*
X73657991Y-51956760D01*
X73679072Y-51950364D01*
X73707140Y-51947600D01*
X75520860Y-51947600D01*
X75548928Y-51950364D01*
G37*
G36*
X72077562Y-50348081D02*
G01*
X72112481Y-50358674D01*
X72144663Y-50375876D01*
X72172873Y-50399027D01*
X72196024Y-50427237D01*
X72213226Y-50459419D01*
X72223819Y-50494338D01*
X72228000Y-50536795D01*
X72228000Y-52003005D01*
X72223819Y-52045462D01*
X72213226Y-52080381D01*
X72196024Y-52112563D01*
X72172873Y-52140773D01*
X72144663Y-52163924D01*
X72112481Y-52181126D01*
X72077562Y-52191719D01*
X72035105Y-52195900D01*
X70893895Y-52195900D01*
X70851438Y-52191719D01*
X70816519Y-52181126D01*
X70784337Y-52163924D01*
X70756127Y-52140773D01*
X70732976Y-52112563D01*
X70715774Y-52080381D01*
X70705181Y-52045462D01*
X70701000Y-52003005D01*
X70701000Y-50536795D01*
X70705181Y-50494338D01*
X70715774Y-50459419D01*
X70732976Y-50427237D01*
X70756127Y-50399027D01*
X70784337Y-50375876D01*
X70816519Y-50358674D01*
X70851438Y-50348081D01*
X70893895Y-50343900D01*
X72035105Y-50343900D01*
X72077562Y-50348081D01*
G37*
G36*
X69102562Y-50348081D02*
G01*
X69137481Y-50358674D01*
X69169663Y-50375876D01*
X69197873Y-50399027D01*
X69221024Y-50427237D01*
X69238226Y-50459419D01*
X69248819Y-50494338D01*
X69253000Y-50536795D01*
X69253000Y-52003005D01*
X69248819Y-52045462D01*
X69238226Y-52080381D01*
X69221024Y-52112563D01*
X69197873Y-52140773D01*
X69169663Y-52163924D01*
X69137481Y-52181126D01*
X69102562Y-52191719D01*
X69060105Y-52195900D01*
X67918895Y-52195900D01*
X67876438Y-52191719D01*
X67841519Y-52181126D01*
X67809337Y-52163924D01*
X67781127Y-52140773D01*
X67757976Y-52112563D01*
X67740774Y-52080381D01*
X67730181Y-52045462D01*
X67726000Y-52003005D01*
X67726000Y-50536795D01*
X67730181Y-50494338D01*
X67740774Y-50459419D01*
X67757976Y-50427237D01*
X67781127Y-50399027D01*
X67809337Y-50375876D01*
X67841519Y-50358674D01*
X67876438Y-50348081D01*
X67918895Y-50343900D01*
X69060105Y-50343900D01*
X69102562Y-50348081D01*
G37*
G36*
X84492312Y-49700727D02*
G01*
X84641612Y-49730424D01*
X84805584Y-49798344D01*
X84953154Y-49896947D01*
X85078653Y-50022446D01*
X85177256Y-50170016D01*
X85245176Y-50333988D01*
X85279800Y-50508059D01*
X85279800Y-50685541D01*
X85245176Y-50859612D01*
X85177256Y-51023584D01*
X85078653Y-51171154D01*
X84953154Y-51296653D01*
X84805584Y-51395256D01*
X84641612Y-51463176D01*
X84492312Y-51492873D01*
X84467542Y-51497800D01*
X84290058Y-51497800D01*
X84265288Y-51492873D01*
X84115988Y-51463176D01*
X83952016Y-51395256D01*
X83804446Y-51296653D01*
X83678947Y-51171154D01*
X83580344Y-51023584D01*
X83512424Y-50859612D01*
X83477800Y-50685541D01*
X83477800Y-50508059D01*
X83512424Y-50333988D01*
X83580344Y-50170016D01*
X83678947Y-50022446D01*
X83804446Y-49896947D01*
X83952016Y-49798344D01*
X84115988Y-49730424D01*
X84265288Y-49700727D01*
X84290058Y-49695800D01*
X84467542Y-49695800D01*
X84492312Y-49700727D01*
G37*
G36*
X87032312Y-49700727D02*
G01*
X87181612Y-49730424D01*
X87345584Y-49798344D01*
X87493154Y-49896947D01*
X87618653Y-50022446D01*
X87717256Y-50170016D01*
X87785176Y-50333988D01*
X87819800Y-50508059D01*
X87819800Y-50685541D01*
X87785176Y-50859612D01*
X87717256Y-51023584D01*
X87618653Y-51171154D01*
X87493154Y-51296653D01*
X87345584Y-51395256D01*
X87181612Y-51463176D01*
X87032312Y-51492873D01*
X87007542Y-51497800D01*
X86830058Y-51497800D01*
X86805288Y-51492873D01*
X86655988Y-51463176D01*
X86492016Y-51395256D01*
X86344446Y-51296653D01*
X86218947Y-51171154D01*
X86120344Y-51023584D01*
X86052424Y-50859612D01*
X86017800Y-50685541D01*
X86017800Y-50508059D01*
X86052424Y-50333988D01*
X86120344Y-50170016D01*
X86218947Y-50022446D01*
X86344446Y-49896947D01*
X86492016Y-49798344D01*
X86655988Y-49730424D01*
X86805288Y-49700727D01*
X86830058Y-49695800D01*
X87007542Y-49695800D01*
X87032312Y-49700727D01*
G37*
G36*
X89572312Y-49700727D02*
G01*
X89721612Y-49730424D01*
X89885584Y-49798344D01*
X90033154Y-49896947D01*
X90158653Y-50022446D01*
X90257256Y-50170016D01*
X90325176Y-50333988D01*
X90359800Y-50508059D01*
X90359800Y-50685541D01*
X90325176Y-50859612D01*
X90257256Y-51023584D01*
X90158653Y-51171154D01*
X90033154Y-51296653D01*
X89885584Y-51395256D01*
X89721612Y-51463176D01*
X89572312Y-51492873D01*
X89547542Y-51497800D01*
X89370058Y-51497800D01*
X89345288Y-51492873D01*
X89195988Y-51463176D01*
X89032016Y-51395256D01*
X88884446Y-51296653D01*
X88758947Y-51171154D01*
X88660344Y-51023584D01*
X88592424Y-50859612D01*
X88557800Y-50685541D01*
X88557800Y-50508059D01*
X88592424Y-50333988D01*
X88660344Y-50170016D01*
X88758947Y-50022446D01*
X88884446Y-49896947D01*
X89032016Y-49798344D01*
X89195988Y-49730424D01*
X89345288Y-49700727D01*
X89370058Y-49695800D01*
X89547542Y-49695800D01*
X89572312Y-49700727D01*
G37*
G36*
X80498928Y-50680364D02*
G01*
X80520009Y-50686760D01*
X80539445Y-50697148D01*
X80556476Y-50711124D01*
X80570452Y-50728155D01*
X80580840Y-50747591D01*
X80587236Y-50768672D01*
X80590000Y-50796740D01*
X80590000Y-51260460D01*
X80587236Y-51288528D01*
X80580840Y-51309609D01*
X80570452Y-51329045D01*
X80556476Y-51346076D01*
X80539445Y-51360052D01*
X80520009Y-51370440D01*
X80498928Y-51376836D01*
X80470860Y-51379600D01*
X78657140Y-51379600D01*
X78629072Y-51376836D01*
X78607991Y-51370440D01*
X78588555Y-51360052D01*
X78571524Y-51346076D01*
X78557548Y-51329045D01*
X78547160Y-51309609D01*
X78540764Y-51288528D01*
X78538000Y-51260460D01*
X78538000Y-50796740D01*
X78540764Y-50768672D01*
X78547160Y-50747591D01*
X78557548Y-50728155D01*
X78571524Y-50711124D01*
X78588555Y-50697148D01*
X78607991Y-50686760D01*
X78629072Y-50680364D01*
X78657140Y-50677600D01*
X80470860Y-50677600D01*
X80498928Y-50680364D01*
G37*
G36*
X75548928Y-50680364D02*
G01*
X75570009Y-50686760D01*
X75589445Y-50697148D01*
X75606476Y-50711124D01*
X75620452Y-50728155D01*
X75630840Y-50747591D01*
X75637236Y-50768672D01*
X75640000Y-50796740D01*
X75640000Y-51260460D01*
X75637236Y-51288528D01*
X75630840Y-51309609D01*
X75620452Y-51329045D01*
X75606476Y-51346076D01*
X75589445Y-51360052D01*
X75570009Y-51370440D01*
X75548928Y-51376836D01*
X75520860Y-51379600D01*
X73707140Y-51379600D01*
X73679072Y-51376836D01*
X73657991Y-51370440D01*
X73638555Y-51360052D01*
X73621524Y-51346076D01*
X73607548Y-51329045D01*
X73597160Y-51309609D01*
X73590764Y-51288528D01*
X73588000Y-51260460D01*
X73588000Y-50796740D01*
X73590764Y-50768672D01*
X73597160Y-50747591D01*
X73607548Y-50728155D01*
X73621524Y-50711124D01*
X73638555Y-50697148D01*
X73657991Y-50686760D01*
X73679072Y-50680364D01*
X73707140Y-50677600D01*
X75520860Y-50677600D01*
X75548928Y-50680364D01*
G37*
G36*
X75548928Y-49410364D02*
G01*
X75570009Y-49416760D01*
X75589445Y-49427148D01*
X75606476Y-49441124D01*
X75620452Y-49458155D01*
X75630840Y-49477591D01*
X75637236Y-49498672D01*
X75640000Y-49526740D01*
X75640000Y-49990460D01*
X75637236Y-50018528D01*
X75630840Y-50039609D01*
X75620452Y-50059045D01*
X75606476Y-50076076D01*
X75589445Y-50090052D01*
X75570009Y-50100440D01*
X75548928Y-50106836D01*
X75520860Y-50109600D01*
X73707140Y-50109600D01*
X73679072Y-50106836D01*
X73657991Y-50100440D01*
X73638555Y-50090052D01*
X73621524Y-50076076D01*
X73607548Y-50059045D01*
X73597160Y-50039609D01*
X73590764Y-50018528D01*
X73588000Y-49990460D01*
X73588000Y-49526740D01*
X73590764Y-49498672D01*
X73597160Y-49477591D01*
X73607548Y-49458155D01*
X73621524Y-49441124D01*
X73638555Y-49427148D01*
X73657991Y-49416760D01*
X73679072Y-49410364D01*
X73707140Y-49407600D01*
X75520860Y-49407600D01*
X75548928Y-49410364D01*
G37*
G36*
X80498928Y-49410364D02*
G01*
X80520009Y-49416760D01*
X80539445Y-49427148D01*
X80556476Y-49441124D01*
X80570452Y-49458155D01*
X80580840Y-49477591D01*
X80587236Y-49498672D01*
X80590000Y-49526740D01*
X80590000Y-49990460D01*
X80587236Y-50018528D01*
X80580840Y-50039609D01*
X80570452Y-50059045D01*
X80556476Y-50076076D01*
X80539445Y-50090052D01*
X80520009Y-50100440D01*
X80498928Y-50106836D01*
X80470860Y-50109600D01*
X78657140Y-50109600D01*
X78629072Y-50106836D01*
X78607991Y-50100440D01*
X78588555Y-50090052D01*
X78571524Y-50076076D01*
X78557548Y-50059045D01*
X78547160Y-50039609D01*
X78540764Y-50018528D01*
X78538000Y-49990460D01*
X78538000Y-49526740D01*
X78540764Y-49498672D01*
X78547160Y-49477591D01*
X78557548Y-49458155D01*
X78571524Y-49441124D01*
X78588555Y-49427148D01*
X78607991Y-49416760D01*
X78629072Y-49410364D01*
X78657140Y-49407600D01*
X80470860Y-49407600D01*
X80498928Y-49410364D01*
G37*
G36*
X69102562Y-47211181D02*
G01*
X69137481Y-47221774D01*
X69169663Y-47238976D01*
X69197873Y-47262127D01*
X69221024Y-47290337D01*
X69238226Y-47322519D01*
X69248819Y-47357438D01*
X69253000Y-47399895D01*
X69253000Y-48866105D01*
X69248819Y-48908562D01*
X69238226Y-48943481D01*
X69221024Y-48975663D01*
X69197873Y-49003873D01*
X69169663Y-49027024D01*
X69137481Y-49044226D01*
X69102562Y-49054819D01*
X69060105Y-49059000D01*
X67918895Y-49059000D01*
X67876438Y-49054819D01*
X67841519Y-49044226D01*
X67809337Y-49027024D01*
X67781127Y-49003873D01*
X67757976Y-48975663D01*
X67740774Y-48943481D01*
X67730181Y-48908562D01*
X67726000Y-48866105D01*
X67726000Y-47399895D01*
X67730181Y-47357438D01*
X67740774Y-47322519D01*
X67757976Y-47290337D01*
X67781127Y-47262127D01*
X67809337Y-47238976D01*
X67841519Y-47221774D01*
X67876438Y-47211181D01*
X67918895Y-47207000D01*
X69060105Y-47207000D01*
X69102562Y-47211181D01*
G37*
G36*
X72077562Y-47211181D02*
G01*
X72112481Y-47221774D01*
X72144663Y-47238976D01*
X72172873Y-47262127D01*
X72196024Y-47290337D01*
X72213226Y-47322519D01*
X72223819Y-47357438D01*
X72228000Y-47399895D01*
X72228000Y-48866105D01*
X72223819Y-48908562D01*
X72213226Y-48943481D01*
X72196024Y-48975663D01*
X72172873Y-49003873D01*
X72144663Y-49027024D01*
X72112481Y-49044226D01*
X72077562Y-49054819D01*
X72035105Y-49059000D01*
X70893895Y-49059000D01*
X70851438Y-49054819D01*
X70816519Y-49044226D01*
X70784337Y-49027024D01*
X70756127Y-49003873D01*
X70732976Y-48975663D01*
X70715774Y-48943481D01*
X70705181Y-48908562D01*
X70701000Y-48866105D01*
X70701000Y-47399895D01*
X70705181Y-47357438D01*
X70715774Y-47322519D01*
X70732976Y-47290337D01*
X70756127Y-47262127D01*
X70784337Y-47238976D01*
X70816519Y-47221774D01*
X70851438Y-47211181D01*
X70893895Y-47207000D01*
X72035105Y-47207000D01*
X72077562Y-47211181D01*
G37*
G36*
X84492312Y-47160727D02*
G01*
X84641612Y-47190424D01*
X84805584Y-47258344D01*
X84953154Y-47356947D01*
X85078653Y-47482446D01*
X85177256Y-47630016D01*
X85245176Y-47793988D01*
X85279800Y-47968059D01*
X85279800Y-48145541D01*
X85245176Y-48319612D01*
X85177256Y-48483584D01*
X85078653Y-48631154D01*
X84953154Y-48756653D01*
X84805584Y-48855256D01*
X84641612Y-48923176D01*
X84492312Y-48952873D01*
X84467542Y-48957800D01*
X84290058Y-48957800D01*
X84265288Y-48952873D01*
X84115988Y-48923176D01*
X83952016Y-48855256D01*
X83804446Y-48756653D01*
X83678947Y-48631154D01*
X83580344Y-48483584D01*
X83512424Y-48319612D01*
X83477800Y-48145541D01*
X83477800Y-47968059D01*
X83512424Y-47793988D01*
X83580344Y-47630016D01*
X83678947Y-47482446D01*
X83804446Y-47356947D01*
X83952016Y-47258344D01*
X84115988Y-47190424D01*
X84265288Y-47160727D01*
X84290058Y-47155800D01*
X84467542Y-47155800D01*
X84492312Y-47160727D01*
G37*
G36*
X87032312Y-47160727D02*
G01*
X87181612Y-47190424D01*
X87345584Y-47258344D01*
X87493154Y-47356947D01*
X87618653Y-47482446D01*
X87717256Y-47630016D01*
X87785176Y-47793988D01*
X87819800Y-47968059D01*
X87819800Y-48145541D01*
X87785176Y-48319612D01*
X87717256Y-48483584D01*
X87618653Y-48631154D01*
X87493154Y-48756653D01*
X87345584Y-48855256D01*
X87181612Y-48923176D01*
X87032312Y-48952873D01*
X87007542Y-48957800D01*
X86830058Y-48957800D01*
X86805288Y-48952873D01*
X86655988Y-48923176D01*
X86492016Y-48855256D01*
X86344446Y-48756653D01*
X86218947Y-48631154D01*
X86120344Y-48483584D01*
X86052424Y-48319612D01*
X86017800Y-48145541D01*
X86017800Y-47968059D01*
X86052424Y-47793988D01*
X86120344Y-47630016D01*
X86218947Y-47482446D01*
X86344446Y-47356947D01*
X86492016Y-47258344D01*
X86655988Y-47190424D01*
X86805288Y-47160727D01*
X86830058Y-47155800D01*
X87007542Y-47155800D01*
X87032312Y-47160727D01*
G37*
G36*
X90359800Y-48957800D02*
G01*
X88557800Y-48957800D01*
X88557800Y-47155800D01*
X90359800Y-47155800D01*
X90359800Y-48957800D01*
G37*
G36*
X80498928Y-48140364D02*
G01*
X80520009Y-48146760D01*
X80539445Y-48157148D01*
X80556476Y-48171124D01*
X80570452Y-48188155D01*
X80580840Y-48207591D01*
X80587236Y-48228672D01*
X80590000Y-48256740D01*
X80590000Y-48720460D01*
X80587236Y-48748528D01*
X80580840Y-48769609D01*
X80570452Y-48789045D01*
X80556476Y-48806076D01*
X80539445Y-48820052D01*
X80520009Y-48830440D01*
X80498928Y-48836836D01*
X80470860Y-48839600D01*
X78657140Y-48839600D01*
X78629072Y-48836836D01*
X78607991Y-48830440D01*
X78588555Y-48820052D01*
X78571524Y-48806076D01*
X78557548Y-48789045D01*
X78547160Y-48769609D01*
X78540764Y-48748528D01*
X78538000Y-48720460D01*
X78538000Y-48256740D01*
X78540764Y-48228672D01*
X78547160Y-48207591D01*
X78557548Y-48188155D01*
X78571524Y-48171124D01*
X78588555Y-48157148D01*
X78607991Y-48146760D01*
X78629072Y-48140364D01*
X78657140Y-48137600D01*
X80470860Y-48137600D01*
X80498928Y-48140364D01*
G37*
G36*
X75548928Y-48140364D02*
G01*
X75570009Y-48146760D01*
X75589445Y-48157148D01*
X75606476Y-48171124D01*
X75620452Y-48188155D01*
X75630840Y-48207591D01*
X75637236Y-48228672D01*
X75640000Y-48256740D01*
X75640000Y-48720460D01*
X75637236Y-48748528D01*
X75630840Y-48769609D01*
X75620452Y-48789045D01*
X75606476Y-48806076D01*
X75589445Y-48820052D01*
X75570009Y-48830440D01*
X75548928Y-48836836D01*
X75520860Y-48839600D01*
X73707140Y-48839600D01*
X73679072Y-48836836D01*
X73657991Y-48830440D01*
X73638555Y-48820052D01*
X73621524Y-48806076D01*
X73607548Y-48789045D01*
X73597160Y-48769609D01*
X73590764Y-48748528D01*
X73588000Y-48720460D01*
X73588000Y-48256740D01*
X73590764Y-48228672D01*
X73597160Y-48207591D01*
X73607548Y-48188155D01*
X73621524Y-48171124D01*
X73638555Y-48157148D01*
X73657991Y-48146760D01*
X73679072Y-48140364D01*
X73707140Y-48137600D01*
X75520860Y-48137600D01*
X75548928Y-48140364D01*
G37*
G36*
X75548928Y-46870364D02*
G01*
X75570009Y-46876760D01*
X75589445Y-46887148D01*
X75606476Y-46901124D01*
X75620452Y-46918155D01*
X75630840Y-46937591D01*
X75637236Y-46958672D01*
X75640000Y-46986740D01*
X75640000Y-47450460D01*
X75637236Y-47478528D01*
X75630840Y-47499609D01*
X75620452Y-47519045D01*
X75606476Y-47536076D01*
X75589445Y-47550052D01*
X75570009Y-47560440D01*
X75548928Y-47566836D01*
X75520860Y-47569600D01*
X73707140Y-47569600D01*
X73679072Y-47566836D01*
X73657991Y-47560440D01*
X73638555Y-47550052D01*
X73621524Y-47536076D01*
X73607548Y-47519045D01*
X73597160Y-47499609D01*
X73590764Y-47478528D01*
X73588000Y-47450460D01*
X73588000Y-46986740D01*
X73590764Y-46958672D01*
X73597160Y-46937591D01*
X73607548Y-46918155D01*
X73621524Y-46901124D01*
X73638555Y-46887148D01*
X73657991Y-46876760D01*
X73679072Y-46870364D01*
X73707140Y-46867600D01*
X75520860Y-46867600D01*
X75548928Y-46870364D01*
G37*
G36*
X80498928Y-46870364D02*
G01*
X80520009Y-46876760D01*
X80539445Y-46887148D01*
X80556476Y-46901124D01*
X80570452Y-46918155D01*
X80580840Y-46937591D01*
X80587236Y-46958672D01*
X80590000Y-46986740D01*
X80590000Y-47450460D01*
X80587236Y-47478528D01*
X80580840Y-47499609D01*
X80570452Y-47519045D01*
X80556476Y-47536076D01*
X80539445Y-47550052D01*
X80520009Y-47560440D01*
X80498928Y-47566836D01*
X80470860Y-47569600D01*
X78657140Y-47569600D01*
X78629072Y-47566836D01*
X78607991Y-47560440D01*
X78588555Y-47550052D01*
X78571524Y-47536076D01*
X78557548Y-47519045D01*
X78547160Y-47499609D01*
X78540764Y-47478528D01*
X78538000Y-47450460D01*
X78538000Y-46986740D01*
X78540764Y-46958672D01*
X78547160Y-46937591D01*
X78557548Y-46918155D01*
X78571524Y-46901124D01*
X78588555Y-46887148D01*
X78607991Y-46876760D01*
X78629072Y-46870364D01*
X78657140Y-46867600D01*
X80470860Y-46867600D01*
X80498928Y-46870364D01*
G37*
M02*
