G04 #@! TF.GenerationSoftware,KiCad,Pcbnew,5.1.6*
G04 #@! TF.CreationDate,2020-09-10T16:33:30+02:00*
G04 #@! TF.ProjectId,LORA_ATTINY84,4c4f5241-5f41-4545-9449-4e5938342e6b,rev?*
G04 #@! TF.SameCoordinates,Original*
G04 #@! TF.FileFunction,Legend,Bot*
G04 #@! TF.FilePolarity,Positive*
%FSLAX46Y46*%
G04 Gerber Fmt 4.6, Leading zero omitted, Abs format (unit mm)*
G04 Created by KiCad (PCBNEW 5.1.6) date 2020-09-10 16:33:30*
%MOMM*%
%LPD*%
G01*
G04 APERTURE LIST*
%ADD10C,0.150000*%
%ADD11C,0.120000*%
%ADD12C,0.100000*%
G04 APERTURE END LIST*
D10*
X67603714Y-57515714D02*
X68270380Y-57706190D01*
X67794190Y-57896666D01*
X68270380Y-58087142D01*
X67603714Y-58277619D01*
X67603714Y-58563333D02*
X68270380Y-58753809D01*
X67794190Y-58944285D01*
X68270380Y-59134761D01*
X67603714Y-59325238D01*
X67603714Y-59610952D02*
X68270380Y-59801428D01*
X67794190Y-59991904D01*
X68270380Y-60182380D01*
X67603714Y-60372857D01*
X68175142Y-60753809D02*
X68222761Y-60801428D01*
X68270380Y-60753809D01*
X68222761Y-60706190D01*
X68175142Y-60753809D01*
X68270380Y-60753809D01*
X68270380Y-61658571D02*
X67746571Y-61658571D01*
X67651333Y-61610952D01*
X67603714Y-61515714D01*
X67603714Y-61325238D01*
X67651333Y-61230000D01*
X68222761Y-61658571D02*
X68270380Y-61563333D01*
X68270380Y-61325238D01*
X68222761Y-61230000D01*
X68127523Y-61182380D01*
X68032285Y-61182380D01*
X67937047Y-61230000D01*
X67889428Y-61325238D01*
X67889428Y-61563333D01*
X67841809Y-61658571D01*
X67603714Y-61991904D02*
X67603714Y-62372857D01*
X67270380Y-62134761D02*
X68127523Y-62134761D01*
X68222761Y-62182380D01*
X68270380Y-62277619D01*
X68270380Y-62372857D01*
X67603714Y-62563333D02*
X67603714Y-62944285D01*
X67270380Y-62706190D02*
X68127523Y-62706190D01*
X68222761Y-62753809D01*
X68270380Y-62849047D01*
X68270380Y-62944285D01*
X67603714Y-63277619D02*
X68270380Y-63277619D01*
X67698952Y-63277619D02*
X67651333Y-63325238D01*
X67603714Y-63420476D01*
X67603714Y-63563333D01*
X67651333Y-63658571D01*
X67746571Y-63706190D01*
X68270380Y-63706190D01*
X68270380Y-64325238D02*
X68222761Y-64230000D01*
X68175142Y-64182380D01*
X68079904Y-64134761D01*
X67794190Y-64134761D01*
X67698952Y-64182380D01*
X67651333Y-64230000D01*
X67603714Y-64325238D01*
X67603714Y-64468095D01*
X67651333Y-64563333D01*
X67698952Y-64610952D01*
X67794190Y-64658571D01*
X68079904Y-64658571D01*
X68175142Y-64610952D01*
X68222761Y-64563333D01*
X68270380Y-64468095D01*
X68270380Y-64325238D01*
X68175142Y-65087142D02*
X68222761Y-65134761D01*
X68270380Y-65087142D01*
X68222761Y-65039523D01*
X68175142Y-65087142D01*
X68270380Y-65087142D01*
X68270380Y-65991904D02*
X67270380Y-65991904D01*
X68222761Y-65991904D02*
X68270380Y-65896666D01*
X68270380Y-65706190D01*
X68222761Y-65610952D01*
X68175142Y-65563333D01*
X68079904Y-65515714D01*
X67794190Y-65515714D01*
X67698952Y-65563333D01*
X67651333Y-65610952D01*
X67603714Y-65706190D01*
X67603714Y-65896666D01*
X67651333Y-65991904D01*
X68222761Y-66849047D02*
X68270380Y-66753809D01*
X68270380Y-66563333D01*
X68222761Y-66468095D01*
X68127523Y-66420476D01*
X67746571Y-66420476D01*
X67651333Y-66468095D01*
X67603714Y-66563333D01*
X67603714Y-66753809D01*
X67651333Y-66849047D01*
X67746571Y-66896666D01*
X67841809Y-66896666D01*
X67937047Y-66420476D01*
X76541380Y-58499952D02*
X77255666Y-58499952D01*
X77398523Y-58452333D01*
X77493761Y-58357095D01*
X77541380Y-58214238D01*
X77541380Y-58119000D01*
X77541380Y-59452333D02*
X77541380Y-58976142D01*
X76541380Y-58976142D01*
X77446142Y-60357095D02*
X77493761Y-60309476D01*
X77541380Y-60166619D01*
X77541380Y-60071380D01*
X77493761Y-59928523D01*
X77398523Y-59833285D01*
X77303285Y-59785666D01*
X77112809Y-59738047D01*
X76969952Y-59738047D01*
X76779476Y-59785666D01*
X76684238Y-59833285D01*
X76589000Y-59928523D01*
X76541380Y-60071380D01*
X76541380Y-60166619D01*
X76589000Y-60309476D01*
X76636619Y-60357095D01*
X76541380Y-61071380D02*
X77255666Y-61071380D01*
X77398523Y-61023761D01*
X77493761Y-60928523D01*
X77541380Y-60785666D01*
X77541380Y-60690428D01*
X77541380Y-62023761D02*
X77541380Y-61547571D01*
X76541380Y-61547571D01*
X77446142Y-62928523D02*
X77493761Y-62880904D01*
X77541380Y-62738047D01*
X77541380Y-62642809D01*
X77493761Y-62499952D01*
X77398523Y-62404714D01*
X77303285Y-62357095D01*
X77112809Y-62309476D01*
X76969952Y-62309476D01*
X76779476Y-62357095D01*
X76684238Y-62404714D01*
X76589000Y-62499952D01*
X76541380Y-62642809D01*
X76541380Y-62738047D01*
X76589000Y-62880904D01*
X76636619Y-62928523D01*
X76541380Y-63642809D02*
X77255666Y-63642809D01*
X77398523Y-63595190D01*
X77493761Y-63499952D01*
X77541380Y-63357095D01*
X77541380Y-63261857D01*
X77541380Y-64595190D02*
X77541380Y-64119000D01*
X76541380Y-64119000D01*
X77446142Y-65499952D02*
X77493761Y-65452333D01*
X77541380Y-65309476D01*
X77541380Y-65214238D01*
X77493761Y-65071380D01*
X77398523Y-64976142D01*
X77303285Y-64928523D01*
X77112809Y-64880904D01*
X76969952Y-64880904D01*
X76779476Y-64928523D01*
X76684238Y-64976142D01*
X76589000Y-65071380D01*
X76541380Y-65214238D01*
X76541380Y-65309476D01*
X76589000Y-65452333D01*
X76636619Y-65499952D01*
X76541380Y-66214238D02*
X77255666Y-66214238D01*
X77398523Y-66166619D01*
X77493761Y-66071380D01*
X77541380Y-65928523D01*
X77541380Y-65833285D01*
X77541380Y-67166619D02*
X77541380Y-66690428D01*
X76541380Y-66690428D01*
X77446142Y-68071380D02*
X77493761Y-68023761D01*
X77541380Y-67880904D01*
X77541380Y-67785666D01*
X77493761Y-67642809D01*
X77398523Y-67547571D01*
X77303285Y-67499952D01*
X77112809Y-67452333D01*
X76969952Y-67452333D01*
X76779476Y-67499952D01*
X76684238Y-67547571D01*
X76589000Y-67642809D01*
X76541380Y-67785666D01*
X76541380Y-67880904D01*
X76589000Y-68023761D01*
X76636619Y-68071380D01*
D11*
X80913600Y-74240400D02*
X80913600Y-77440400D01*
X80913600Y-77440400D02*
X79363600Y-77440400D01*
X85413600Y-74240400D02*
X80913600Y-74240400D01*
X85413600Y-74240400D02*
X85413600Y-53340400D01*
X83613600Y-51540400D02*
X80913600Y-51540400D01*
X85413600Y-53340400D02*
X83613600Y-51540400D01*
X80913600Y-51540400D02*
X80913600Y-48340400D01*
X80913600Y-48340400D02*
X79363600Y-48340400D01*
X73213600Y-51540400D02*
X73213600Y-48340400D01*
X73213600Y-48340400D02*
X74763600Y-48340400D01*
X73213600Y-74240400D02*
X73213600Y-77440400D01*
X73213600Y-77440400D02*
X74763600Y-77440400D01*
X68713600Y-51540400D02*
X68713600Y-74240400D01*
X68713600Y-51540400D02*
X73213600Y-51540400D01*
X68713600Y-74240400D02*
X73213600Y-74240400D01*
X81591400Y-49916080D02*
X83591400Y-49916080D01*
X82610960Y-50905160D02*
X82610960Y-48905160D01*
D12*
X71812028Y-49371257D02*
X71697742Y-49409352D01*
X71659647Y-49447447D01*
X71621552Y-49523638D01*
X71621552Y-49637923D01*
X71659647Y-49714114D01*
X71697742Y-49752209D01*
X71773933Y-49790304D01*
X72078695Y-49790304D01*
X72078695Y-48990304D01*
X71812028Y-48990304D01*
X71735838Y-49028400D01*
X71697742Y-49066495D01*
X71659647Y-49142685D01*
X71659647Y-49218876D01*
X71697742Y-49295066D01*
X71735838Y-49333161D01*
X71812028Y-49371257D01*
X72078695Y-49371257D01*
X71316790Y-49561733D02*
X70935838Y-49561733D01*
X71392980Y-49790304D02*
X71126314Y-48990304D01*
X70859647Y-49790304D01*
X70707266Y-48990304D02*
X70250123Y-48990304D01*
X70478695Y-49790304D02*
X70478695Y-48990304D01*
X69564409Y-49790304D02*
X70021552Y-49790304D01*
X69792980Y-49790304D02*
X69792980Y-48990304D01*
X69869171Y-49104590D01*
X69945361Y-49180780D01*
X70021552Y-49218876D01*
M02*
