G04 #@! TF.GenerationSoftware,KiCad,Pcbnew,5.1.6*
G04 #@! TF.CreationDate,2020-09-10T16:33:30+02:00*
G04 #@! TF.ProjectId,LORA_ATTINY84,4c4f5241-5f41-4545-9449-4e5938342e6b,rev?*
G04 #@! TF.SameCoordinates,Original*
G04 #@! TF.FileFunction,Soldermask,Bot*
G04 #@! TF.FilePolarity,Negative*
%FSLAX46Y46*%
G04 Gerber Fmt 4.6, Leading zero omitted, Abs format (unit mm)*
G04 Created by KiCad (PCBNEW 5.1.6) date 2020-09-10 16:33:30*
%MOMM*%
%LPD*%
G01*
G04 APERTURE LIST*
%ADD10C,0.100000*%
G04 APERTURE END LIST*
D10*
G36*
X91638200Y-79544800D02*
G01*
X90186200Y-79544800D01*
X90186200Y-75242800D01*
X91638200Y-75242800D01*
X91638200Y-79544800D01*
G37*
G36*
X85988200Y-79544800D02*
G01*
X84536200Y-79544800D01*
X84536200Y-75242800D01*
X85988200Y-75242800D01*
X85988200Y-79544800D01*
G37*
G36*
X88738200Y-79485400D02*
G01*
X87436200Y-79485400D01*
X87436200Y-77283400D01*
X88738200Y-77283400D01*
X88738200Y-79485400D01*
G37*
G36*
X78914600Y-78937400D02*
G01*
X75212600Y-78937400D01*
X75212600Y-71735400D01*
X78914600Y-71735400D01*
X78914600Y-78937400D01*
G37*
G36*
X90359800Y-73062400D02*
G01*
X88557800Y-73062400D01*
X88557800Y-71260400D01*
X90359800Y-71260400D01*
X90359800Y-73062400D01*
G37*
G36*
X89572312Y-68725327D02*
G01*
X89721612Y-68755024D01*
X89885584Y-68822944D01*
X90033154Y-68921547D01*
X90158653Y-69047046D01*
X90257256Y-69194616D01*
X90325176Y-69358588D01*
X90359800Y-69532659D01*
X90359800Y-69710141D01*
X90325176Y-69884212D01*
X90257256Y-70048184D01*
X90158653Y-70195754D01*
X90033154Y-70321253D01*
X89885584Y-70419856D01*
X89721612Y-70487776D01*
X89572312Y-70517473D01*
X89547542Y-70522400D01*
X89370058Y-70522400D01*
X89345288Y-70517473D01*
X89195988Y-70487776D01*
X89032016Y-70419856D01*
X88884446Y-70321253D01*
X88758947Y-70195754D01*
X88660344Y-70048184D01*
X88592424Y-69884212D01*
X88557800Y-69710141D01*
X88557800Y-69532659D01*
X88592424Y-69358588D01*
X88660344Y-69194616D01*
X88758947Y-69047046D01*
X88884446Y-68921547D01*
X89032016Y-68822944D01*
X89195988Y-68755024D01*
X89345288Y-68725327D01*
X89370058Y-68720400D01*
X89547542Y-68720400D01*
X89572312Y-68725327D01*
G37*
G36*
X89572312Y-66185327D02*
G01*
X89721612Y-66215024D01*
X89885584Y-66282944D01*
X90033154Y-66381547D01*
X90158653Y-66507046D01*
X90257256Y-66654616D01*
X90325176Y-66818588D01*
X90359800Y-66992659D01*
X90359800Y-67170141D01*
X90325176Y-67344212D01*
X90257256Y-67508184D01*
X90158653Y-67655754D01*
X90033154Y-67781253D01*
X89885584Y-67879856D01*
X89721612Y-67947776D01*
X89572312Y-67977473D01*
X89547542Y-67982400D01*
X89370058Y-67982400D01*
X89345288Y-67977473D01*
X89195988Y-67947776D01*
X89032016Y-67879856D01*
X88884446Y-67781253D01*
X88758947Y-67655754D01*
X88660344Y-67508184D01*
X88592424Y-67344212D01*
X88557800Y-67170141D01*
X88557800Y-66992659D01*
X88592424Y-66818588D01*
X88660344Y-66654616D01*
X88758947Y-66507046D01*
X88884446Y-66381547D01*
X89032016Y-66282944D01*
X89195988Y-66215024D01*
X89345288Y-66185327D01*
X89370058Y-66180400D01*
X89547542Y-66180400D01*
X89572312Y-66185327D01*
G37*
G36*
X89572312Y-63645327D02*
G01*
X89721612Y-63675024D01*
X89885584Y-63742944D01*
X90033154Y-63841547D01*
X90158653Y-63967046D01*
X90257256Y-64114616D01*
X90325176Y-64278588D01*
X90359800Y-64452659D01*
X90359800Y-64630141D01*
X90325176Y-64804212D01*
X90257256Y-64968184D01*
X90158653Y-65115754D01*
X90033154Y-65241253D01*
X89885584Y-65339856D01*
X89721612Y-65407776D01*
X89572312Y-65437473D01*
X89547542Y-65442400D01*
X89370058Y-65442400D01*
X89345288Y-65437473D01*
X89195988Y-65407776D01*
X89032016Y-65339856D01*
X88884446Y-65241253D01*
X88758947Y-65115754D01*
X88660344Y-64968184D01*
X88592424Y-64804212D01*
X88557800Y-64630141D01*
X88557800Y-64452659D01*
X88592424Y-64278588D01*
X88660344Y-64114616D01*
X88758947Y-63967046D01*
X88884446Y-63841547D01*
X89032016Y-63742944D01*
X89195988Y-63675024D01*
X89345288Y-63645327D01*
X89370058Y-63640400D01*
X89547542Y-63640400D01*
X89572312Y-63645327D01*
G37*
G36*
X89572312Y-61105327D02*
G01*
X89721612Y-61135024D01*
X89885584Y-61202944D01*
X90033154Y-61301547D01*
X90158653Y-61427046D01*
X90257256Y-61574616D01*
X90325176Y-61738588D01*
X90359800Y-61912659D01*
X90359800Y-62090141D01*
X90325176Y-62264212D01*
X90257256Y-62428184D01*
X90158653Y-62575754D01*
X90033154Y-62701253D01*
X89885584Y-62799856D01*
X89721612Y-62867776D01*
X89572312Y-62897473D01*
X89547542Y-62902400D01*
X89370058Y-62902400D01*
X89345288Y-62897473D01*
X89195988Y-62867776D01*
X89032016Y-62799856D01*
X88884446Y-62701253D01*
X88758947Y-62575754D01*
X88660344Y-62428184D01*
X88592424Y-62264212D01*
X88557800Y-62090141D01*
X88557800Y-61912659D01*
X88592424Y-61738588D01*
X88660344Y-61574616D01*
X88758947Y-61427046D01*
X88884446Y-61301547D01*
X89032016Y-61202944D01*
X89195988Y-61135024D01*
X89345288Y-61105327D01*
X89370058Y-61100400D01*
X89547542Y-61100400D01*
X89572312Y-61105327D01*
G37*
G36*
X89572312Y-58565327D02*
G01*
X89721612Y-58595024D01*
X89885584Y-58662944D01*
X90033154Y-58761547D01*
X90158653Y-58887046D01*
X90257256Y-59034616D01*
X90325176Y-59198588D01*
X90359800Y-59372659D01*
X90359800Y-59550141D01*
X90325176Y-59724212D01*
X90257256Y-59888184D01*
X90158653Y-60035754D01*
X90033154Y-60161253D01*
X89885584Y-60259856D01*
X89721612Y-60327776D01*
X89572312Y-60357473D01*
X89547542Y-60362400D01*
X89370058Y-60362400D01*
X89345288Y-60357473D01*
X89195988Y-60327776D01*
X89032016Y-60259856D01*
X88884446Y-60161253D01*
X88758947Y-60035754D01*
X88660344Y-59888184D01*
X88592424Y-59724212D01*
X88557800Y-59550141D01*
X88557800Y-59372659D01*
X88592424Y-59198588D01*
X88660344Y-59034616D01*
X88758947Y-58887046D01*
X88884446Y-58761547D01*
X89032016Y-58662944D01*
X89195988Y-58595024D01*
X89345288Y-58565327D01*
X89370058Y-58560400D01*
X89547542Y-58560400D01*
X89572312Y-58565327D01*
G37*
G36*
X89572312Y-56025327D02*
G01*
X89721612Y-56055024D01*
X89885584Y-56122944D01*
X90033154Y-56221547D01*
X90158653Y-56347046D01*
X90257256Y-56494616D01*
X90325176Y-56658588D01*
X90359800Y-56832659D01*
X90359800Y-57010141D01*
X90325176Y-57184212D01*
X90257256Y-57348184D01*
X90158653Y-57495754D01*
X90033154Y-57621253D01*
X89885584Y-57719856D01*
X89721612Y-57787776D01*
X89572312Y-57817473D01*
X89547542Y-57822400D01*
X89370058Y-57822400D01*
X89345288Y-57817473D01*
X89195988Y-57787776D01*
X89032016Y-57719856D01*
X88884446Y-57621253D01*
X88758947Y-57495754D01*
X88660344Y-57348184D01*
X88592424Y-57184212D01*
X88557800Y-57010141D01*
X88557800Y-56832659D01*
X88592424Y-56658588D01*
X88660344Y-56494616D01*
X88758947Y-56347046D01*
X88884446Y-56221547D01*
X89032016Y-56122944D01*
X89195988Y-56055024D01*
X89345288Y-56025327D01*
X89370058Y-56020400D01*
X89547542Y-56020400D01*
X89572312Y-56025327D01*
G37*
G36*
X89572312Y-53485327D02*
G01*
X89721612Y-53515024D01*
X89885584Y-53582944D01*
X90033154Y-53681547D01*
X90158653Y-53807046D01*
X90257256Y-53954616D01*
X90325176Y-54118588D01*
X90359800Y-54292659D01*
X90359800Y-54470141D01*
X90325176Y-54644212D01*
X90257256Y-54808184D01*
X90158653Y-54955754D01*
X90033154Y-55081253D01*
X89885584Y-55179856D01*
X89721612Y-55247776D01*
X89572312Y-55277473D01*
X89547542Y-55282400D01*
X89370058Y-55282400D01*
X89345288Y-55277473D01*
X89195988Y-55247776D01*
X89032016Y-55179856D01*
X88884446Y-55081253D01*
X88758947Y-54955754D01*
X88660344Y-54808184D01*
X88592424Y-54644212D01*
X88557800Y-54470141D01*
X88557800Y-54292659D01*
X88592424Y-54118588D01*
X88660344Y-53954616D01*
X88758947Y-53807046D01*
X88884446Y-53681547D01*
X89032016Y-53582944D01*
X89195988Y-53515024D01*
X89345288Y-53485327D01*
X89370058Y-53480400D01*
X89547542Y-53480400D01*
X89572312Y-53485327D01*
G37*
G36*
X78914600Y-54045400D02*
G01*
X75212600Y-54045400D01*
X75212600Y-46843400D01*
X78914600Y-46843400D01*
X78914600Y-54045400D01*
G37*
G36*
X89572312Y-49700727D02*
G01*
X89721612Y-49730424D01*
X89885584Y-49798344D01*
X90033154Y-49896947D01*
X90158653Y-50022446D01*
X90257256Y-50170016D01*
X90325176Y-50333988D01*
X90359800Y-50508059D01*
X90359800Y-50685541D01*
X90325176Y-50859612D01*
X90257256Y-51023584D01*
X90158653Y-51171154D01*
X90033154Y-51296653D01*
X89885584Y-51395256D01*
X89721612Y-51463176D01*
X89572312Y-51492873D01*
X89547542Y-51497800D01*
X89370058Y-51497800D01*
X89345288Y-51492873D01*
X89195988Y-51463176D01*
X89032016Y-51395256D01*
X88884446Y-51296653D01*
X88758947Y-51171154D01*
X88660344Y-51023584D01*
X88592424Y-50859612D01*
X88557800Y-50685541D01*
X88557800Y-50508059D01*
X88592424Y-50333988D01*
X88660344Y-50170016D01*
X88758947Y-50022446D01*
X88884446Y-49896947D01*
X89032016Y-49798344D01*
X89195988Y-49730424D01*
X89345288Y-49700727D01*
X89370058Y-49695800D01*
X89547542Y-49695800D01*
X89572312Y-49700727D01*
G37*
G36*
X87032312Y-49700727D02*
G01*
X87181612Y-49730424D01*
X87345584Y-49798344D01*
X87493154Y-49896947D01*
X87618653Y-50022446D01*
X87717256Y-50170016D01*
X87785176Y-50333988D01*
X87819800Y-50508059D01*
X87819800Y-50685541D01*
X87785176Y-50859612D01*
X87717256Y-51023584D01*
X87618653Y-51171154D01*
X87493154Y-51296653D01*
X87345584Y-51395256D01*
X87181612Y-51463176D01*
X87032312Y-51492873D01*
X87007542Y-51497800D01*
X86830058Y-51497800D01*
X86805288Y-51492873D01*
X86655988Y-51463176D01*
X86492016Y-51395256D01*
X86344446Y-51296653D01*
X86218947Y-51171154D01*
X86120344Y-51023584D01*
X86052424Y-50859612D01*
X86017800Y-50685541D01*
X86017800Y-50508059D01*
X86052424Y-50333988D01*
X86120344Y-50170016D01*
X86218947Y-50022446D01*
X86344446Y-49896947D01*
X86492016Y-49798344D01*
X86655988Y-49730424D01*
X86805288Y-49700727D01*
X86830058Y-49695800D01*
X87007542Y-49695800D01*
X87032312Y-49700727D01*
G37*
G36*
X84492312Y-49700727D02*
G01*
X84641612Y-49730424D01*
X84805584Y-49798344D01*
X84953154Y-49896947D01*
X85078653Y-50022446D01*
X85177256Y-50170016D01*
X85245176Y-50333988D01*
X85279800Y-50508059D01*
X85279800Y-50685541D01*
X85245176Y-50859612D01*
X85177256Y-51023584D01*
X85078653Y-51171154D01*
X84953154Y-51296653D01*
X84805584Y-51395256D01*
X84641612Y-51463176D01*
X84492312Y-51492873D01*
X84467542Y-51497800D01*
X84290058Y-51497800D01*
X84265288Y-51492873D01*
X84115988Y-51463176D01*
X83952016Y-51395256D01*
X83804446Y-51296653D01*
X83678947Y-51171154D01*
X83580344Y-51023584D01*
X83512424Y-50859612D01*
X83477800Y-50685541D01*
X83477800Y-50508059D01*
X83512424Y-50333988D01*
X83580344Y-50170016D01*
X83678947Y-50022446D01*
X83804446Y-49896947D01*
X83952016Y-49798344D01*
X84115988Y-49730424D01*
X84265288Y-49700727D01*
X84290058Y-49695800D01*
X84467542Y-49695800D01*
X84492312Y-49700727D01*
G37*
G36*
X87032312Y-47160727D02*
G01*
X87181612Y-47190424D01*
X87345584Y-47258344D01*
X87493154Y-47356947D01*
X87618653Y-47482446D01*
X87717256Y-47630016D01*
X87785176Y-47793988D01*
X87819800Y-47968059D01*
X87819800Y-48145541D01*
X87785176Y-48319612D01*
X87717256Y-48483584D01*
X87618653Y-48631154D01*
X87493154Y-48756653D01*
X87345584Y-48855256D01*
X87181612Y-48923176D01*
X87032312Y-48952873D01*
X87007542Y-48957800D01*
X86830058Y-48957800D01*
X86805288Y-48952873D01*
X86655988Y-48923176D01*
X86492016Y-48855256D01*
X86344446Y-48756653D01*
X86218947Y-48631154D01*
X86120344Y-48483584D01*
X86052424Y-48319612D01*
X86017800Y-48145541D01*
X86017800Y-47968059D01*
X86052424Y-47793988D01*
X86120344Y-47630016D01*
X86218947Y-47482446D01*
X86344446Y-47356947D01*
X86492016Y-47258344D01*
X86655988Y-47190424D01*
X86805288Y-47160727D01*
X86830058Y-47155800D01*
X87007542Y-47155800D01*
X87032312Y-47160727D01*
G37*
G36*
X90359800Y-48957800D02*
G01*
X88557800Y-48957800D01*
X88557800Y-47155800D01*
X90359800Y-47155800D01*
X90359800Y-48957800D01*
G37*
G36*
X84492312Y-47160727D02*
G01*
X84641612Y-47190424D01*
X84805584Y-47258344D01*
X84953154Y-47356947D01*
X85078653Y-47482446D01*
X85177256Y-47630016D01*
X85245176Y-47793988D01*
X85279800Y-47968059D01*
X85279800Y-48145541D01*
X85245176Y-48319612D01*
X85177256Y-48483584D01*
X85078653Y-48631154D01*
X84953154Y-48756653D01*
X84805584Y-48855256D01*
X84641612Y-48923176D01*
X84492312Y-48952873D01*
X84467542Y-48957800D01*
X84290058Y-48957800D01*
X84265288Y-48952873D01*
X84115988Y-48923176D01*
X83952016Y-48855256D01*
X83804446Y-48756653D01*
X83678947Y-48631154D01*
X83580344Y-48483584D01*
X83512424Y-48319612D01*
X83477800Y-48145541D01*
X83477800Y-47968059D01*
X83512424Y-47793988D01*
X83580344Y-47630016D01*
X83678947Y-47482446D01*
X83804446Y-47356947D01*
X83952016Y-47258344D01*
X84115988Y-47190424D01*
X84265288Y-47160727D01*
X84290058Y-47155800D01*
X84467542Y-47155800D01*
X84492312Y-47160727D01*
G37*
M02*
