G04 #@! TF.GenerationSoftware,KiCad,Pcbnew,5.1.6*
G04 #@! TF.CreationDate,2020-09-10T16:33:30+02:00*
G04 #@! TF.ProjectId,LORA_ATTINY84,4c4f5241-5f41-4545-9449-4e5938342e6b,rev?*
G04 #@! TF.SameCoordinates,Original*
G04 #@! TF.FileFunction,Paste,Top*
G04 #@! TF.FilePolarity,Positive*
%FSLAX46Y46*%
G04 Gerber Fmt 4.6, Leading zero omitted, Abs format (unit mm)*
G04 Created by KiCad (PCBNEW 5.1.6) date 2020-09-10 16:33:30*
%MOMM*%
%LPD*%
G01*
G04 APERTURE LIST*
%ADD10C,0.100000*%
%ADD11O,2.000000X1.000000*%
G04 APERTURE END LIST*
D10*
G36*
X91586600Y-79493600D02*
G01*
X90236600Y-79493600D01*
X90236600Y-77293600D01*
X89136600Y-77293600D01*
X89136600Y-75293600D01*
X91586600Y-75293600D01*
X91586600Y-79493600D01*
G37*
G36*
X87034920Y-77293600D02*
G01*
X85934920Y-77293600D01*
X85934920Y-79493600D01*
X84584920Y-79493600D01*
X84584920Y-75293600D01*
X87034920Y-75293600D01*
X87034920Y-77293600D01*
G37*
G36*
G01*
X70791700Y-76723400D02*
X70791700Y-75473400D01*
G75*
G02*
X71041700Y-75223400I250000J0D01*
G01*
X71966700Y-75223400D01*
G75*
G02*
X72216700Y-75473400I0J-250000D01*
G01*
X72216700Y-76723400D01*
G75*
G02*
X71966700Y-76973400I-250000J0D01*
G01*
X71041700Y-76973400D01*
G75*
G02*
X70791700Y-76723400I0J250000D01*
G01*
G37*
G36*
G01*
X67816700Y-76723400D02*
X67816700Y-75473400D01*
G75*
G02*
X68066700Y-75223400I250000J0D01*
G01*
X68991700Y-75223400D01*
G75*
G02*
X69241700Y-75473400I0J-250000D01*
G01*
X69241700Y-76723400D01*
G75*
G02*
X68991700Y-76973400I-250000J0D01*
G01*
X68066700Y-76973400D01*
G75*
G02*
X67816700Y-76723400I0J250000D01*
G01*
G37*
G36*
G01*
X75069400Y-75448000D02*
X75069400Y-76698000D01*
G75*
G02*
X74819400Y-76948000I-250000J0D01*
G01*
X73894400Y-76948000D01*
G75*
G02*
X73644400Y-76698000I0J250000D01*
G01*
X73644400Y-75448000D01*
G75*
G02*
X73894400Y-75198000I250000J0D01*
G01*
X74819400Y-75198000D01*
G75*
G02*
X75069400Y-75448000I0J-250000D01*
G01*
G37*
G36*
G01*
X78044400Y-75448000D02*
X78044400Y-76698000D01*
G75*
G02*
X77794400Y-76948000I-250000J0D01*
G01*
X76869400Y-76948000D01*
G75*
G02*
X76619400Y-76698000I0J250000D01*
G01*
X76619400Y-75448000D01*
G75*
G02*
X76869400Y-75198000I250000J0D01*
G01*
X77794400Y-75198000D01*
G75*
G02*
X78044400Y-75448000I0J-250000D01*
G01*
G37*
G36*
G01*
X69202000Y-53731000D02*
X69202000Y-54981000D01*
G75*
G02*
X68952000Y-55231000I-250000J0D01*
G01*
X68027000Y-55231000D01*
G75*
G02*
X67777000Y-54981000I0J250000D01*
G01*
X67777000Y-53731000D01*
G75*
G02*
X68027000Y-53481000I250000J0D01*
G01*
X68952000Y-53481000D01*
G75*
G02*
X69202000Y-53731000I0J-250000D01*
G01*
G37*
G36*
G01*
X72177000Y-53731000D02*
X72177000Y-54981000D01*
G75*
G02*
X71927000Y-55231000I-250000J0D01*
G01*
X71002000Y-55231000D01*
G75*
G02*
X70752000Y-54981000I0J250000D01*
G01*
X70752000Y-53731000D01*
G75*
G02*
X71002000Y-53481000I250000J0D01*
G01*
X71927000Y-53481000D01*
G75*
G02*
X72177000Y-53731000I0J-250000D01*
G01*
G37*
G36*
G01*
X69202000Y-50644900D02*
X69202000Y-51894900D01*
G75*
G02*
X68952000Y-52144900I-250000J0D01*
G01*
X68027000Y-52144900D01*
G75*
G02*
X67777000Y-51894900I0J250000D01*
G01*
X67777000Y-50644900D01*
G75*
G02*
X68027000Y-50394900I250000J0D01*
G01*
X68952000Y-50394900D01*
G75*
G02*
X69202000Y-50644900I0J-250000D01*
G01*
G37*
G36*
G01*
X72177000Y-50644900D02*
X72177000Y-51894900D01*
G75*
G02*
X71927000Y-52144900I-250000J0D01*
G01*
X71002000Y-52144900D01*
G75*
G02*
X70752000Y-51894900I0J250000D01*
G01*
X70752000Y-50644900D01*
G75*
G02*
X71002000Y-50394900I250000J0D01*
G01*
X71927000Y-50394900D01*
G75*
G02*
X72177000Y-50644900I0J-250000D01*
G01*
G37*
G36*
G01*
X70752000Y-48758000D02*
X70752000Y-47508000D01*
G75*
G02*
X71002000Y-47258000I250000J0D01*
G01*
X71927000Y-47258000D01*
G75*
G02*
X72177000Y-47508000I0J-250000D01*
G01*
X72177000Y-48758000D01*
G75*
G02*
X71927000Y-49008000I-250000J0D01*
G01*
X71002000Y-49008000D01*
G75*
G02*
X70752000Y-48758000I0J250000D01*
G01*
G37*
G36*
G01*
X67777000Y-48758000D02*
X67777000Y-47508000D01*
G75*
G02*
X68027000Y-47258000I250000J0D01*
G01*
X68952000Y-47258000D01*
G75*
G02*
X69202000Y-47508000I0J-250000D01*
G01*
X69202000Y-48758000D01*
G75*
G02*
X68952000Y-49008000I-250000J0D01*
G01*
X68027000Y-49008000D01*
G75*
G02*
X67777000Y-48758000I0J250000D01*
G01*
G37*
G36*
G01*
X75589000Y-54688600D02*
X75589000Y-54988600D01*
G75*
G02*
X75439000Y-55138600I-150000J0D01*
G01*
X73789000Y-55138600D01*
G75*
G02*
X73639000Y-54988600I0J150000D01*
G01*
X73639000Y-54688600D01*
G75*
G02*
X73789000Y-54538600I150000J0D01*
G01*
X75439000Y-54538600D01*
G75*
G02*
X75589000Y-54688600I0J-150000D01*
G01*
G37*
G36*
G01*
X75589000Y-53418600D02*
X75589000Y-53718600D01*
G75*
G02*
X75439000Y-53868600I-150000J0D01*
G01*
X73789000Y-53868600D01*
G75*
G02*
X73639000Y-53718600I0J150000D01*
G01*
X73639000Y-53418600D01*
G75*
G02*
X73789000Y-53268600I150000J0D01*
G01*
X75439000Y-53268600D01*
G75*
G02*
X75589000Y-53418600I0J-150000D01*
G01*
G37*
G36*
G01*
X75589000Y-52148600D02*
X75589000Y-52448600D01*
G75*
G02*
X75439000Y-52598600I-150000J0D01*
G01*
X73789000Y-52598600D01*
G75*
G02*
X73639000Y-52448600I0J150000D01*
G01*
X73639000Y-52148600D01*
G75*
G02*
X73789000Y-51998600I150000J0D01*
G01*
X75439000Y-51998600D01*
G75*
G02*
X75589000Y-52148600I0J-150000D01*
G01*
G37*
G36*
G01*
X75589000Y-50878600D02*
X75589000Y-51178600D01*
G75*
G02*
X75439000Y-51328600I-150000J0D01*
G01*
X73789000Y-51328600D01*
G75*
G02*
X73639000Y-51178600I0J150000D01*
G01*
X73639000Y-50878600D01*
G75*
G02*
X73789000Y-50728600I150000J0D01*
G01*
X75439000Y-50728600D01*
G75*
G02*
X75589000Y-50878600I0J-150000D01*
G01*
G37*
G36*
G01*
X75589000Y-49608600D02*
X75589000Y-49908600D01*
G75*
G02*
X75439000Y-50058600I-150000J0D01*
G01*
X73789000Y-50058600D01*
G75*
G02*
X73639000Y-49908600I0J150000D01*
G01*
X73639000Y-49608600D01*
G75*
G02*
X73789000Y-49458600I150000J0D01*
G01*
X75439000Y-49458600D01*
G75*
G02*
X75589000Y-49608600I0J-150000D01*
G01*
G37*
G36*
G01*
X75589000Y-48338600D02*
X75589000Y-48638600D01*
G75*
G02*
X75439000Y-48788600I-150000J0D01*
G01*
X73789000Y-48788600D01*
G75*
G02*
X73639000Y-48638600I0J150000D01*
G01*
X73639000Y-48338600D01*
G75*
G02*
X73789000Y-48188600I150000J0D01*
G01*
X75439000Y-48188600D01*
G75*
G02*
X75589000Y-48338600I0J-150000D01*
G01*
G37*
G36*
G01*
X75589000Y-47068600D02*
X75589000Y-47368600D01*
G75*
G02*
X75439000Y-47518600I-150000J0D01*
G01*
X73789000Y-47518600D01*
G75*
G02*
X73639000Y-47368600I0J150000D01*
G01*
X73639000Y-47068600D01*
G75*
G02*
X73789000Y-46918600I150000J0D01*
G01*
X75439000Y-46918600D01*
G75*
G02*
X75589000Y-47068600I0J-150000D01*
G01*
G37*
G36*
G01*
X80539000Y-47068600D02*
X80539000Y-47368600D01*
G75*
G02*
X80389000Y-47518600I-150000J0D01*
G01*
X78739000Y-47518600D01*
G75*
G02*
X78589000Y-47368600I0J150000D01*
G01*
X78589000Y-47068600D01*
G75*
G02*
X78739000Y-46918600I150000J0D01*
G01*
X80389000Y-46918600D01*
G75*
G02*
X80539000Y-47068600I0J-150000D01*
G01*
G37*
G36*
G01*
X80539000Y-48338600D02*
X80539000Y-48638600D01*
G75*
G02*
X80389000Y-48788600I-150000J0D01*
G01*
X78739000Y-48788600D01*
G75*
G02*
X78589000Y-48638600I0J150000D01*
G01*
X78589000Y-48338600D01*
G75*
G02*
X78739000Y-48188600I150000J0D01*
G01*
X80389000Y-48188600D01*
G75*
G02*
X80539000Y-48338600I0J-150000D01*
G01*
G37*
G36*
G01*
X80539000Y-49608600D02*
X80539000Y-49908600D01*
G75*
G02*
X80389000Y-50058600I-150000J0D01*
G01*
X78739000Y-50058600D01*
G75*
G02*
X78589000Y-49908600I0J150000D01*
G01*
X78589000Y-49608600D01*
G75*
G02*
X78739000Y-49458600I150000J0D01*
G01*
X80389000Y-49458600D01*
G75*
G02*
X80539000Y-49608600I0J-150000D01*
G01*
G37*
G36*
G01*
X80539000Y-50878600D02*
X80539000Y-51178600D01*
G75*
G02*
X80389000Y-51328600I-150000J0D01*
G01*
X78739000Y-51328600D01*
G75*
G02*
X78589000Y-51178600I0J150000D01*
G01*
X78589000Y-50878600D01*
G75*
G02*
X78739000Y-50728600I150000J0D01*
G01*
X80389000Y-50728600D01*
G75*
G02*
X80539000Y-50878600I0J-150000D01*
G01*
G37*
G36*
G01*
X80539000Y-52148600D02*
X80539000Y-52448600D01*
G75*
G02*
X80389000Y-52598600I-150000J0D01*
G01*
X78739000Y-52598600D01*
G75*
G02*
X78589000Y-52448600I0J150000D01*
G01*
X78589000Y-52148600D01*
G75*
G02*
X78739000Y-51998600I150000J0D01*
G01*
X80389000Y-51998600D01*
G75*
G02*
X80539000Y-52148600I0J-150000D01*
G01*
G37*
G36*
G01*
X80539000Y-53418600D02*
X80539000Y-53718600D01*
G75*
G02*
X80389000Y-53868600I-150000J0D01*
G01*
X78739000Y-53868600D01*
G75*
G02*
X78589000Y-53718600I0J150000D01*
G01*
X78589000Y-53418600D01*
G75*
G02*
X78739000Y-53268600I150000J0D01*
G01*
X80389000Y-53268600D01*
G75*
G02*
X80539000Y-53418600I0J-150000D01*
G01*
G37*
G36*
G01*
X80539000Y-54688600D02*
X80539000Y-54988600D01*
G75*
G02*
X80389000Y-55138600I-150000J0D01*
G01*
X78739000Y-55138600D01*
G75*
G02*
X78589000Y-54988600I0J150000D01*
G01*
X78589000Y-54688600D01*
G75*
G02*
X78739000Y-54538600I150000J0D01*
G01*
X80389000Y-54538600D01*
G75*
G02*
X80539000Y-54688600I0J-150000D01*
G01*
G37*
D11*
X84529200Y-58267600D03*
X84529200Y-60267600D03*
X84529200Y-62267600D03*
X84529200Y-64267600D03*
X84529200Y-66267600D03*
X84529200Y-68267600D03*
X84529200Y-70267600D03*
X84529200Y-72267600D03*
X68529200Y-72267600D03*
X68529200Y-70267600D03*
X68529200Y-68267600D03*
X68529200Y-66267600D03*
X68529200Y-64267600D03*
X68529200Y-62267600D03*
X68529200Y-60267600D03*
X68529200Y-58267600D03*
M02*
