G04 #@! TF.GenerationSoftware,KiCad,Pcbnew,(5.1.8)-1*
G04 #@! TF.CreationDate,2020-11-16T17:21:50+01:00*
G04 #@! TF.ProjectId,LORA_ATTINY84,4c4f5241-5f41-4545-9449-4e5938342e6b,rev?*
G04 #@! TF.SameCoordinates,Original*
G04 #@! TF.FileFunction,Legend,Top*
G04 #@! TF.FilePolarity,Positive*
%FSLAX46Y46*%
G04 Gerber Fmt 4.6, Leading zero omitted, Abs format (unit mm)*
G04 Created by KiCad (PCBNEW (5.1.8)-1) date 2020-11-16 17:21:50*
%MOMM*%
%LPD*%
G01*
G04 APERTURE LIST*
%ADD10C,0.150000*%
%ADD11C,0.100000*%
%ADD12C,0.125000*%
%ADD13C,0.010000*%
%ADD14C,0.120000*%
G04 APERTURE END LIST*
D10*
X66482980Y-64596590D02*
X67292504Y-64596590D01*
X67387742Y-64548971D01*
X67435361Y-64501352D01*
X67482980Y-64406114D01*
X67482980Y-64215638D01*
X67435361Y-64120400D01*
X67387742Y-64072780D01*
X67292504Y-64025161D01*
X66482980Y-64025161D01*
X66816314Y-63548971D02*
X67482980Y-63548971D01*
X66911552Y-63548971D02*
X66863933Y-63501352D01*
X66816314Y-63406114D01*
X66816314Y-63263257D01*
X66863933Y-63168019D01*
X66959171Y-63120400D01*
X67482980Y-63120400D01*
X66816314Y-62787066D02*
X66816314Y-62406114D01*
X66482980Y-62644209D02*
X67340123Y-62644209D01*
X67435361Y-62596590D01*
X67482980Y-62501352D01*
X67482980Y-62406114D01*
X67435361Y-61691828D02*
X67482980Y-61787066D01*
X67482980Y-61977542D01*
X67435361Y-62072780D01*
X67340123Y-62120400D01*
X66959171Y-62120400D01*
X66863933Y-62072780D01*
X66816314Y-61977542D01*
X66816314Y-61787066D01*
X66863933Y-61691828D01*
X66959171Y-61644209D01*
X67054409Y-61644209D01*
X67149647Y-62120400D01*
X67482980Y-61215638D02*
X66816314Y-61215638D01*
X67006790Y-61215638D02*
X66911552Y-61168019D01*
X66863933Y-61120400D01*
X66816314Y-61025161D01*
X66816314Y-60929923D01*
X66816314Y-60739447D02*
X66816314Y-60358495D01*
X66482980Y-60596590D02*
X67340123Y-60596590D01*
X67435361Y-60548971D01*
X67482980Y-60453733D01*
X67482980Y-60358495D01*
X67435361Y-59644209D02*
X67482980Y-59739447D01*
X67482980Y-59929923D01*
X67435361Y-60025161D01*
X67340123Y-60072780D01*
X66959171Y-60072780D01*
X66863933Y-60025161D01*
X66816314Y-59929923D01*
X66816314Y-59739447D01*
X66863933Y-59644209D01*
X66959171Y-59596590D01*
X67054409Y-59596590D01*
X67149647Y-60072780D01*
X67482980Y-59168019D02*
X66816314Y-59168019D01*
X66482980Y-59168019D02*
X66530600Y-59215638D01*
X66578219Y-59168019D01*
X66530600Y-59120400D01*
X66482980Y-59168019D01*
X66578219Y-59168019D01*
X67482980Y-58548971D02*
X67435361Y-58644209D01*
X67340123Y-58691828D01*
X66482980Y-58691828D01*
D11*
X66802047Y-76305600D02*
X66754428Y-76281790D01*
X66683000Y-76281790D01*
X66611571Y-76305600D01*
X66563952Y-76353219D01*
X66540142Y-76400838D01*
X66516333Y-76496076D01*
X66516333Y-76567504D01*
X66540142Y-76662742D01*
X66563952Y-76710361D01*
X66611571Y-76757980D01*
X66683000Y-76781790D01*
X66730619Y-76781790D01*
X66802047Y-76757980D01*
X66825857Y-76734171D01*
X66825857Y-76567504D01*
X66730619Y-76567504D01*
X67040142Y-76781790D02*
X67040142Y-76281790D01*
X67325857Y-76781790D01*
X67325857Y-76281790D01*
X67563952Y-76781790D02*
X67563952Y-76281790D01*
X67683000Y-76281790D01*
X67754428Y-76305600D01*
X67802047Y-76353219D01*
X67825857Y-76400838D01*
X67849666Y-76496076D01*
X67849666Y-76567504D01*
X67825857Y-76662742D01*
X67802047Y-76710361D01*
X67754428Y-76757980D01*
X67683000Y-76781790D01*
X67563952Y-76781790D01*
X63730285Y-76781790D02*
X63730285Y-76281790D01*
X63896952Y-76638933D01*
X64063619Y-76281790D01*
X64063619Y-76781790D01*
X64396952Y-76281790D02*
X64492190Y-76281790D01*
X64539809Y-76305600D01*
X64587428Y-76353219D01*
X64611238Y-76448457D01*
X64611238Y-76615123D01*
X64587428Y-76710361D01*
X64539809Y-76757980D01*
X64492190Y-76781790D01*
X64396952Y-76781790D01*
X64349333Y-76757980D01*
X64301714Y-76710361D01*
X64277904Y-76615123D01*
X64277904Y-76448457D01*
X64301714Y-76353219D01*
X64349333Y-76305600D01*
X64396952Y-76281790D01*
X64801714Y-76757980D02*
X64873142Y-76781790D01*
X64992190Y-76781790D01*
X65039809Y-76757980D01*
X65063619Y-76734171D01*
X65087428Y-76686552D01*
X65087428Y-76638933D01*
X65063619Y-76591314D01*
X65039809Y-76567504D01*
X64992190Y-76543695D01*
X64896952Y-76519885D01*
X64849333Y-76496076D01*
X64825523Y-76472266D01*
X64801714Y-76424647D01*
X64801714Y-76377028D01*
X64825523Y-76329409D01*
X64849333Y-76305600D01*
X64896952Y-76281790D01*
X65016000Y-76281790D01*
X65087428Y-76305600D01*
X65301714Y-76781790D02*
X65301714Y-76281790D01*
X66858390Y-69923790D02*
X66691723Y-69685695D01*
X66572676Y-69923790D02*
X66572676Y-69423790D01*
X66763152Y-69423790D01*
X66810771Y-69447600D01*
X66834580Y-69471409D01*
X66858390Y-69519028D01*
X66858390Y-69590457D01*
X66834580Y-69638076D01*
X66810771Y-69661885D01*
X66763152Y-69685695D01*
X66572676Y-69685695D01*
X67048866Y-69899980D02*
X67120295Y-69923790D01*
X67239342Y-69923790D01*
X67286961Y-69899980D01*
X67310771Y-69876171D01*
X67334580Y-69828552D01*
X67334580Y-69780933D01*
X67310771Y-69733314D01*
X67286961Y-69709504D01*
X67239342Y-69685695D01*
X67144104Y-69661885D01*
X67096485Y-69638076D01*
X67072676Y-69614266D01*
X67048866Y-69566647D01*
X67048866Y-69519028D01*
X67072676Y-69471409D01*
X67096485Y-69447600D01*
X67144104Y-69423790D01*
X67263152Y-69423790D01*
X67334580Y-69447600D01*
X67477438Y-69423790D02*
X67763152Y-69423790D01*
X67620295Y-69923790D02*
X67620295Y-69423790D01*
X64025542Y-69899980D02*
X64096971Y-69923790D01*
X64216019Y-69923790D01*
X64263638Y-69899980D01*
X64287447Y-69876171D01*
X64311257Y-69828552D01*
X64311257Y-69780933D01*
X64287447Y-69733314D01*
X64263638Y-69709504D01*
X64216019Y-69685695D01*
X64120780Y-69661885D01*
X64073161Y-69638076D01*
X64049352Y-69614266D01*
X64025542Y-69566647D01*
X64025542Y-69519028D01*
X64049352Y-69471409D01*
X64073161Y-69447600D01*
X64120780Y-69423790D01*
X64239828Y-69423790D01*
X64311257Y-69447600D01*
X64811257Y-69876171D02*
X64787447Y-69899980D01*
X64716019Y-69923790D01*
X64668400Y-69923790D01*
X64596971Y-69899980D01*
X64549352Y-69852361D01*
X64525542Y-69804742D01*
X64501733Y-69709504D01*
X64501733Y-69638076D01*
X64525542Y-69542838D01*
X64549352Y-69495219D01*
X64596971Y-69447600D01*
X64668400Y-69423790D01*
X64716019Y-69423790D01*
X64787447Y-69447600D01*
X64811257Y-69471409D01*
X65025542Y-69923790D02*
X65025542Y-69423790D01*
X65311257Y-69923790D02*
X65096971Y-69638076D01*
X65311257Y-69423790D02*
X65025542Y-69709504D01*
X61616495Y-76281790D02*
X61783161Y-76781790D01*
X61949828Y-76281790D01*
X62116495Y-76781790D02*
X62116495Y-76448457D01*
X62116495Y-76281790D02*
X62092685Y-76305600D01*
X62116495Y-76329409D01*
X62140304Y-76305600D01*
X62116495Y-76281790D01*
X62116495Y-76329409D01*
X62354590Y-76448457D02*
X62354590Y-76781790D01*
X62354590Y-76496076D02*
X62378400Y-76472266D01*
X62426019Y-76448457D01*
X62497447Y-76448457D01*
X62545066Y-76472266D01*
X62568876Y-76519885D01*
X62568876Y-76781790D01*
X61317285Y-69923790D02*
X61317285Y-69423790D01*
X61483952Y-69780933D01*
X61650619Y-69423790D01*
X61650619Y-69923790D01*
X61888714Y-69923790D02*
X61888714Y-69423790D01*
X62103000Y-69899980D02*
X62174428Y-69923790D01*
X62293476Y-69923790D01*
X62341095Y-69899980D01*
X62364904Y-69876171D01*
X62388714Y-69828552D01*
X62388714Y-69780933D01*
X62364904Y-69733314D01*
X62341095Y-69709504D01*
X62293476Y-69685695D01*
X62198238Y-69661885D01*
X62150619Y-69638076D01*
X62126809Y-69614266D01*
X62103000Y-69566647D01*
X62103000Y-69519028D01*
X62126809Y-69471409D01*
X62150619Y-69447600D01*
X62198238Y-69423790D01*
X62317285Y-69423790D01*
X62388714Y-69447600D01*
X62698238Y-69423790D02*
X62793476Y-69423790D01*
X62841095Y-69447600D01*
X62888714Y-69495219D01*
X62912523Y-69590457D01*
X62912523Y-69757123D01*
X62888714Y-69852361D01*
X62841095Y-69899980D01*
X62793476Y-69923790D01*
X62698238Y-69923790D01*
X62650619Y-69899980D01*
X62603000Y-69852361D01*
X62579190Y-69757123D01*
X62579190Y-69590457D01*
X62603000Y-69495219D01*
X62650619Y-69447600D01*
X62698238Y-69423790D01*
D12*
X66446104Y-87012290D02*
X66446104Y-86512290D01*
X66636580Y-86512290D01*
X66684200Y-86536100D01*
X66708009Y-86559909D01*
X66731819Y-86607528D01*
X66731819Y-86678957D01*
X66708009Y-86726576D01*
X66684200Y-86750385D01*
X66636580Y-86774195D01*
X66446104Y-86774195D01*
X66946104Y-87012290D02*
X66946104Y-86678957D01*
X66946104Y-86774195D02*
X66969914Y-86726576D01*
X66993723Y-86702766D01*
X67041342Y-86678957D01*
X67088961Y-86678957D01*
X67327057Y-87012290D02*
X67279438Y-86988480D01*
X67255628Y-86964671D01*
X67231819Y-86917052D01*
X67231819Y-86774195D01*
X67255628Y-86726576D01*
X67279438Y-86702766D01*
X67327057Y-86678957D01*
X67398485Y-86678957D01*
X67446104Y-86702766D01*
X67469914Y-86726576D01*
X67493723Y-86774195D01*
X67493723Y-86917052D01*
X67469914Y-86964671D01*
X67446104Y-86988480D01*
X67398485Y-87012290D01*
X67327057Y-87012290D01*
X67922295Y-86678957D02*
X67922295Y-87083719D01*
X67898485Y-87131338D01*
X67874676Y-87155147D01*
X67827057Y-87178957D01*
X67755628Y-87178957D01*
X67708009Y-87155147D01*
X67922295Y-86988480D02*
X67874676Y-87012290D01*
X67779438Y-87012290D01*
X67731819Y-86988480D01*
X67708009Y-86964671D01*
X67684200Y-86917052D01*
X67684200Y-86774195D01*
X67708009Y-86726576D01*
X67731819Y-86702766D01*
X67779438Y-86678957D01*
X67874676Y-86678957D01*
X67922295Y-86702766D01*
X68374676Y-87012290D02*
X68374676Y-86750385D01*
X68350866Y-86702766D01*
X68303247Y-86678957D01*
X68208009Y-86678957D01*
X68160390Y-86702766D01*
X68374676Y-86988480D02*
X68327057Y-87012290D01*
X68208009Y-87012290D01*
X68160390Y-86988480D01*
X68136580Y-86940861D01*
X68136580Y-86893242D01*
X68160390Y-86845623D01*
X68208009Y-86821814D01*
X68327057Y-86821814D01*
X68374676Y-86798004D01*
X68827057Y-87012290D02*
X68827057Y-86512290D01*
X68827057Y-86988480D02*
X68779438Y-87012290D01*
X68684200Y-87012290D01*
X68636580Y-86988480D01*
X68612771Y-86964671D01*
X68588961Y-86917052D01*
X68588961Y-86774195D01*
X68612771Y-86726576D01*
X68636580Y-86702766D01*
X68684200Y-86678957D01*
X68779438Y-86678957D01*
X68827057Y-86702766D01*
X69279438Y-87012290D02*
X69279438Y-86750385D01*
X69255628Y-86702766D01*
X69208009Y-86678957D01*
X69112771Y-86678957D01*
X69065152Y-86702766D01*
X69279438Y-86988480D02*
X69231819Y-87012290D01*
X69112771Y-87012290D01*
X69065152Y-86988480D01*
X69041342Y-86940861D01*
X69041342Y-86893242D01*
X69065152Y-86845623D01*
X69112771Y-86821814D01*
X69231819Y-86821814D01*
X69279438Y-86798004D01*
X69517533Y-86678957D02*
X69517533Y-87178957D01*
X69517533Y-86702766D02*
X69565152Y-86678957D01*
X69660390Y-86678957D01*
X69708009Y-86702766D01*
X69731819Y-86726576D01*
X69755628Y-86774195D01*
X69755628Y-86917052D01*
X69731819Y-86964671D01*
X69708009Y-86988480D01*
X69660390Y-87012290D01*
X69565152Y-87012290D01*
X69517533Y-86988480D01*
X69898485Y-86678957D02*
X70088961Y-86678957D01*
X69969914Y-86512290D02*
X69969914Y-86940861D01*
X69993723Y-86988480D01*
X70041342Y-87012290D01*
X70088961Y-87012290D01*
X70446104Y-86988480D02*
X70398485Y-87012290D01*
X70303247Y-87012290D01*
X70255628Y-86988480D01*
X70231819Y-86940861D01*
X70231819Y-86750385D01*
X70255628Y-86702766D01*
X70303247Y-86678957D01*
X70398485Y-86678957D01*
X70446104Y-86702766D01*
X70469914Y-86750385D01*
X70469914Y-86798004D01*
X70231819Y-86845623D01*
X70684200Y-87012290D02*
X70684200Y-86678957D01*
X70684200Y-86774195D02*
X70708009Y-86726576D01*
X70731819Y-86702766D01*
X70779438Y-86678957D01*
X70827057Y-86678957D01*
X71350866Y-86988480D02*
X71398485Y-87012290D01*
X71493723Y-87012290D01*
X71541342Y-86988480D01*
X71565152Y-86940861D01*
X71565152Y-86917052D01*
X71541342Y-86869433D01*
X71493723Y-86845623D01*
X71422295Y-86845623D01*
X71374676Y-86821814D01*
X71350866Y-86774195D01*
X71350866Y-86750385D01*
X71374676Y-86702766D01*
X71422295Y-86678957D01*
X71493723Y-86678957D01*
X71541342Y-86702766D01*
X71779438Y-87012290D02*
X71779438Y-86678957D01*
X71779438Y-86726576D02*
X71803247Y-86702766D01*
X71850866Y-86678957D01*
X71922295Y-86678957D01*
X71969914Y-86702766D01*
X71993723Y-86750385D01*
X71993723Y-87012290D01*
X71993723Y-86750385D02*
X72017533Y-86702766D01*
X72065152Y-86678957D01*
X72136580Y-86678957D01*
X72184200Y-86702766D01*
X72208009Y-86750385D01*
X72208009Y-87012290D01*
X72517533Y-87012290D02*
X72469914Y-86988480D01*
X72446104Y-86940861D01*
X72446104Y-86512290D01*
X73041342Y-86678957D02*
X73160390Y-87012290D01*
X73279438Y-86678957D01*
X73565152Y-86512290D02*
X73612771Y-86512290D01*
X73660390Y-86536100D01*
X73684200Y-86559909D01*
X73708009Y-86607528D01*
X73731819Y-86702766D01*
X73731819Y-86821814D01*
X73708009Y-86917052D01*
X73684200Y-86964671D01*
X73660390Y-86988480D01*
X73612771Y-87012290D01*
X73565152Y-87012290D01*
X73517533Y-86988480D01*
X73493723Y-86964671D01*
X73469914Y-86917052D01*
X73446104Y-86821814D01*
X73446104Y-86702766D01*
X73469914Y-86607528D01*
X73493723Y-86559909D01*
X73517533Y-86536100D01*
X73565152Y-86512290D01*
X73946104Y-86964671D02*
X73969914Y-86988480D01*
X73946104Y-87012290D01*
X73922295Y-86988480D01*
X73946104Y-86964671D01*
X73946104Y-87012290D01*
X74446104Y-87012290D02*
X74160390Y-87012290D01*
X74303247Y-87012290D02*
X74303247Y-86512290D01*
X74255628Y-86583719D01*
X74208009Y-86631338D01*
X74160390Y-86655147D01*
X68743723Y-87887290D02*
X68743723Y-87625385D01*
X68719914Y-87577766D01*
X68672295Y-87553957D01*
X68577057Y-87553957D01*
X68529438Y-87577766D01*
X68743723Y-87863480D02*
X68696104Y-87887290D01*
X68577057Y-87887290D01*
X68529438Y-87863480D01*
X68505628Y-87815861D01*
X68505628Y-87768242D01*
X68529438Y-87720623D01*
X68577057Y-87696814D01*
X68696104Y-87696814D01*
X68743723Y-87673004D01*
X68910390Y-87553957D02*
X69100866Y-87553957D01*
X68981819Y-87387290D02*
X68981819Y-87815861D01*
X69005628Y-87863480D01*
X69053247Y-87887290D01*
X69100866Y-87887290D01*
X69196104Y-87553957D02*
X69386580Y-87553957D01*
X69267533Y-87387290D02*
X69267533Y-87815861D01*
X69291342Y-87863480D01*
X69338961Y-87887290D01*
X69386580Y-87887290D01*
X69553247Y-87553957D02*
X69553247Y-87887290D01*
X69553247Y-87601576D02*
X69577057Y-87577766D01*
X69624676Y-87553957D01*
X69696104Y-87553957D01*
X69743723Y-87577766D01*
X69767533Y-87625385D01*
X69767533Y-87887290D01*
X70077057Y-87887290D02*
X70029438Y-87863480D01*
X70005628Y-87839671D01*
X69981819Y-87792052D01*
X69981819Y-87649195D01*
X70005628Y-87601576D01*
X70029438Y-87577766D01*
X70077057Y-87553957D01*
X70148485Y-87553957D01*
X70196104Y-87577766D01*
X70219914Y-87601576D01*
X70243723Y-87649195D01*
X70243723Y-87792052D01*
X70219914Y-87839671D01*
X70196104Y-87863480D01*
X70148485Y-87887290D01*
X70077057Y-87887290D01*
X70672295Y-87887290D02*
X70672295Y-87387290D01*
X70672295Y-87863480D02*
X70624676Y-87887290D01*
X70529438Y-87887290D01*
X70481819Y-87863480D01*
X70458009Y-87839671D01*
X70434200Y-87792052D01*
X70434200Y-87649195D01*
X70458009Y-87601576D01*
X70481819Y-87577766D01*
X70529438Y-87553957D01*
X70624676Y-87553957D01*
X70672295Y-87577766D01*
X71100866Y-87863480D02*
X71053247Y-87887290D01*
X70958009Y-87887290D01*
X70910390Y-87863480D01*
X70886580Y-87815861D01*
X70886580Y-87625385D01*
X70910390Y-87577766D01*
X70958009Y-87553957D01*
X71053247Y-87553957D01*
X71100866Y-87577766D01*
X71124676Y-87625385D01*
X71124676Y-87673004D01*
X70886580Y-87720623D01*
X71672295Y-87553957D02*
X71791342Y-87887290D01*
X71910390Y-87553957D01*
X72077057Y-87434909D02*
X72100866Y-87411100D01*
X72148485Y-87387290D01*
X72267533Y-87387290D01*
X72315152Y-87411100D01*
X72338961Y-87434909D01*
X72362771Y-87482528D01*
X72362771Y-87530147D01*
X72338961Y-87601576D01*
X72053247Y-87887290D01*
X72362771Y-87887290D01*
D13*
G36*
X72065147Y-83424295D02*
G01*
X71931463Y-83557979D01*
X71797778Y-83424295D01*
X71931463Y-83290610D01*
X72065147Y-83424295D01*
G37*
X72065147Y-83424295D02*
X71931463Y-83557979D01*
X71797778Y-83424295D01*
X71931463Y-83290610D01*
X72065147Y-83424295D01*
G36*
X74016016Y-77090421D02*
G01*
X74360935Y-77583600D01*
X74376082Y-78073521D01*
X74014367Y-78405500D01*
X73476460Y-78448996D01*
X73035236Y-78203350D01*
X72963940Y-78076926D01*
X72931579Y-77675874D01*
X73268305Y-77675874D01*
X73328917Y-77904768D01*
X73519894Y-77943242D01*
X73885711Y-77803649D01*
X73936726Y-77675874D01*
X73744828Y-77416158D01*
X73685137Y-77408505D01*
X73323030Y-77602855D01*
X73268305Y-77675874D01*
X72931579Y-77675874D01*
X72915038Y-77470883D01*
X73167100Y-77003145D01*
X73494544Y-76873768D01*
X74016016Y-77090421D01*
G37*
X74016016Y-77090421D02*
X74360935Y-77583600D01*
X74376082Y-78073521D01*
X74014367Y-78405500D01*
X73476460Y-78448996D01*
X73035236Y-78203350D01*
X72963940Y-78076926D01*
X72931579Y-77675874D01*
X73268305Y-77675874D01*
X73328917Y-77904768D01*
X73519894Y-77943242D01*
X73885711Y-77803649D01*
X73936726Y-77675874D01*
X73744828Y-77416158D01*
X73685137Y-77408505D01*
X73323030Y-77602855D01*
X73268305Y-77675874D01*
X72931579Y-77675874D01*
X72915038Y-77470883D01*
X73167100Y-77003145D01*
X73494544Y-76873768D01*
X74016016Y-77090421D01*
G36*
X71423415Y-77021779D02*
G01*
X71447908Y-77036592D01*
X71884271Y-77512679D01*
X71887582Y-78013685D01*
X71484973Y-78366391D01*
X71230355Y-78425600D01*
X70614150Y-78351954D01*
X70379772Y-78117378D01*
X70402976Y-77675874D01*
X70728305Y-77675874D01*
X70944862Y-77913077D01*
X71129357Y-77943242D01*
X71485163Y-77798871D01*
X71530410Y-77675874D01*
X71313853Y-77438670D01*
X71129357Y-77408505D01*
X70773552Y-77552876D01*
X70728305Y-77675874D01*
X70402976Y-77675874D01*
X70406369Y-77611317D01*
X70597325Y-77233967D01*
X70979607Y-76901362D01*
X71423415Y-77021779D01*
G37*
X71423415Y-77021779D02*
X71447908Y-77036592D01*
X71884271Y-77512679D01*
X71887582Y-78013685D01*
X71484973Y-78366391D01*
X71230355Y-78425600D01*
X70614150Y-78351954D01*
X70379772Y-78117378D01*
X70402976Y-77675874D01*
X70728305Y-77675874D01*
X70944862Y-77913077D01*
X71129357Y-77943242D01*
X71485163Y-77798871D01*
X71530410Y-77675874D01*
X71313853Y-77438670D01*
X71129357Y-77408505D01*
X70773552Y-77552876D01*
X70728305Y-77675874D01*
X70402976Y-77675874D01*
X70406369Y-77611317D01*
X70597325Y-77233967D01*
X70979607Y-76901362D01*
X71423415Y-77021779D01*
G36*
X69227263Y-77099001D02*
G01*
X69521318Y-77610093D01*
X69501154Y-78043038D01*
X69130336Y-78390417D01*
X68567708Y-78455598D01*
X68075673Y-78238580D01*
X67944929Y-78043038D01*
X67958162Y-77675874D01*
X68321989Y-77675874D01*
X68538546Y-77913077D01*
X68723042Y-77943242D01*
X69078847Y-77798871D01*
X69124094Y-77675874D01*
X68907537Y-77438670D01*
X68723042Y-77408505D01*
X68367236Y-77552876D01*
X68321989Y-77675874D01*
X67958162Y-77675874D01*
X67965219Y-77480087D01*
X68322181Y-77012895D01*
X68723042Y-76873768D01*
X69227263Y-77099001D01*
G37*
X69227263Y-77099001D02*
X69521318Y-77610093D01*
X69501154Y-78043038D01*
X69130336Y-78390417D01*
X68567708Y-78455598D01*
X68075673Y-78238580D01*
X67944929Y-78043038D01*
X67958162Y-77675874D01*
X68321989Y-77675874D01*
X68538546Y-77913077D01*
X68723042Y-77943242D01*
X69078847Y-77798871D01*
X69124094Y-77675874D01*
X68907537Y-77438670D01*
X68723042Y-77408505D01*
X68367236Y-77552876D01*
X68321989Y-77675874D01*
X67958162Y-77675874D01*
X67965219Y-77480087D01*
X68322181Y-77012895D01*
X68723042Y-76873768D01*
X69227263Y-77099001D01*
G36*
X66729229Y-77069477D02*
G01*
X66946274Y-77546005D01*
X66937057Y-77741520D01*
X66673911Y-78223992D01*
X66194934Y-78447202D01*
X65711923Y-78362785D01*
X65476864Y-78074946D01*
X65503018Y-77675874D01*
X65915673Y-77675874D01*
X66132230Y-77913077D01*
X66316726Y-77943242D01*
X66672531Y-77798871D01*
X66717778Y-77675874D01*
X66501221Y-77438670D01*
X66316726Y-77408505D01*
X65960920Y-77552876D01*
X65915673Y-77675874D01*
X65503018Y-77675874D01*
X65511635Y-77544398D01*
X65724696Y-77217528D01*
X66263536Y-76934700D01*
X66729229Y-77069477D01*
G37*
X66729229Y-77069477D02*
X66946274Y-77546005D01*
X66937057Y-77741520D01*
X66673911Y-78223992D01*
X66194934Y-78447202D01*
X65711923Y-78362785D01*
X65476864Y-78074946D01*
X65503018Y-77675874D01*
X65915673Y-77675874D01*
X66132230Y-77913077D01*
X66316726Y-77943242D01*
X66672531Y-77798871D01*
X66717778Y-77675874D01*
X66501221Y-77438670D01*
X66316726Y-77408505D01*
X65960920Y-77552876D01*
X65915673Y-77675874D01*
X65503018Y-77675874D01*
X65511635Y-77544398D01*
X65724696Y-77217528D01*
X66263536Y-76934700D01*
X66729229Y-77069477D01*
G36*
X74738831Y-84360084D02*
G01*
X65380936Y-84360084D01*
X65380936Y-83543110D01*
X68081060Y-83543110D01*
X68285223Y-83773236D01*
X68856726Y-83825347D01*
X69477007Y-83718684D01*
X69689286Y-83365269D01*
X69689846Y-83357453D01*
X69727192Y-83027936D01*
X69806114Y-83217801D01*
X69843135Y-83357453D01*
X70063374Y-83753951D01*
X70213172Y-83825347D01*
X70438431Y-83603340D01*
X70491951Y-83357453D01*
X70529297Y-83027936D01*
X70608219Y-83217801D01*
X70645240Y-83357453D01*
X70950083Y-83629069D01*
X71587829Y-83801600D01*
X72394628Y-83873287D01*
X73206631Y-83842369D01*
X73859985Y-83707085D01*
X74190841Y-83465675D01*
X74204094Y-83395689D01*
X74039699Y-83092106D01*
X73803042Y-83119930D01*
X73459145Y-83118065D01*
X73401989Y-82999071D01*
X73237110Y-82848477D01*
X73130259Y-82892253D01*
X72966608Y-83197910D01*
X72997849Y-83285614D01*
X72909508Y-83432126D01*
X72667999Y-83421280D01*
X72271173Y-83319811D01*
X72198831Y-83276945D01*
X71944138Y-83179166D01*
X71225122Y-83039499D01*
X70109384Y-82870876D01*
X69990566Y-82854550D01*
X69288064Y-82782306D01*
X68991391Y-82851074D01*
X68980982Y-83102344D01*
X69008122Y-83195449D01*
X69104383Y-83538158D01*
X68999273Y-83429386D01*
X68845676Y-83191690D01*
X68560313Y-82867079D01*
X68331053Y-83003481D01*
X68294846Y-83058006D01*
X68081060Y-83543110D01*
X65380936Y-83543110D01*
X65380936Y-79012716D01*
X74738831Y-79012716D01*
X74738831Y-84360084D01*
G37*
X74738831Y-84360084D02*
X65380936Y-84360084D01*
X65380936Y-83543110D01*
X68081060Y-83543110D01*
X68285223Y-83773236D01*
X68856726Y-83825347D01*
X69477007Y-83718684D01*
X69689286Y-83365269D01*
X69689846Y-83357453D01*
X69727192Y-83027936D01*
X69806114Y-83217801D01*
X69843135Y-83357453D01*
X70063374Y-83753951D01*
X70213172Y-83825347D01*
X70438431Y-83603340D01*
X70491951Y-83357453D01*
X70529297Y-83027936D01*
X70608219Y-83217801D01*
X70645240Y-83357453D01*
X70950083Y-83629069D01*
X71587829Y-83801600D01*
X72394628Y-83873287D01*
X73206631Y-83842369D01*
X73859985Y-83707085D01*
X74190841Y-83465675D01*
X74204094Y-83395689D01*
X74039699Y-83092106D01*
X73803042Y-83119930D01*
X73459145Y-83118065D01*
X73401989Y-82999071D01*
X73237110Y-82848477D01*
X73130259Y-82892253D01*
X72966608Y-83197910D01*
X72997849Y-83285614D01*
X72909508Y-83432126D01*
X72667999Y-83421280D01*
X72271173Y-83319811D01*
X72198831Y-83276945D01*
X71944138Y-83179166D01*
X71225122Y-83039499D01*
X70109384Y-82870876D01*
X69990566Y-82854550D01*
X69288064Y-82782306D01*
X68991391Y-82851074D01*
X68980982Y-83102344D01*
X69008122Y-83195449D01*
X69104383Y-83538158D01*
X68999273Y-83429386D01*
X68845676Y-83191690D01*
X68560313Y-82867079D01*
X68331053Y-83003481D01*
X68294846Y-83058006D01*
X68081060Y-83543110D01*
X65380936Y-83543110D01*
X65380936Y-79012716D01*
X74738831Y-79012716D01*
X74738831Y-84360084D01*
G36*
X74215304Y-85095280D02*
G01*
X74412054Y-85570373D01*
X74201268Y-86101384D01*
X73686498Y-86457367D01*
X73198211Y-86398738D01*
X72963940Y-86097979D01*
X72932155Y-85610058D01*
X73247953Y-85610058D01*
X73461929Y-85900469D01*
X73685137Y-85964295D01*
X73931898Y-85784905D01*
X73936726Y-85741488D01*
X73762312Y-85354014D01*
X73400260Y-85300207D01*
X73360335Y-85321617D01*
X73247953Y-85610058D01*
X72932155Y-85610058D01*
X72921331Y-85443907D01*
X73266992Y-84996289D01*
X73669357Y-84894821D01*
X74215304Y-85095280D01*
G37*
X74215304Y-85095280D02*
X74412054Y-85570373D01*
X74201268Y-86101384D01*
X73686498Y-86457367D01*
X73198211Y-86398738D01*
X72963940Y-86097979D01*
X72932155Y-85610058D01*
X73247953Y-85610058D01*
X73461929Y-85900469D01*
X73685137Y-85964295D01*
X73931898Y-85784905D01*
X73936726Y-85741488D01*
X73762312Y-85354014D01*
X73400260Y-85300207D01*
X73360335Y-85321617D01*
X73247953Y-85610058D01*
X72932155Y-85610058D01*
X72921331Y-85443907D01*
X73266992Y-84996289D01*
X73669357Y-84894821D01*
X74215304Y-85095280D01*
G36*
X71756689Y-85107244D02*
G01*
X71949285Y-85592585D01*
X71776949Y-86122947D01*
X71769654Y-86131867D01*
X71234809Y-86475002D01*
X70715563Y-86309862D01*
X70482857Y-86005254D01*
X70438681Y-85676874D01*
X70779550Y-85676874D01*
X70908614Y-85920671D01*
X71129357Y-85964295D01*
X71462116Y-85828632D01*
X71479164Y-85676874D01*
X71203138Y-85400639D01*
X71129357Y-85389453D01*
X70815859Y-85597604D01*
X70779550Y-85676874D01*
X70438681Y-85676874D01*
X70405201Y-85428010D01*
X70760994Y-85014456D01*
X71287910Y-84894821D01*
X71756689Y-85107244D01*
G37*
X71756689Y-85107244D02*
X71949285Y-85592585D01*
X71776949Y-86122947D01*
X71769654Y-86131867D01*
X71234809Y-86475002D01*
X70715563Y-86309862D01*
X70482857Y-86005254D01*
X70438681Y-85676874D01*
X70779550Y-85676874D01*
X70908614Y-85920671D01*
X71129357Y-85964295D01*
X71462116Y-85828632D01*
X71479164Y-85676874D01*
X71203138Y-85400639D01*
X71129357Y-85389453D01*
X70815859Y-85597604D01*
X70779550Y-85676874D01*
X70438681Y-85676874D01*
X70405201Y-85428010D01*
X70760994Y-85014456D01*
X71287910Y-84894821D01*
X71756689Y-85107244D01*
G36*
X69271482Y-85064359D02*
G01*
X69501154Y-85329762D01*
X69480864Y-85892713D01*
X69123902Y-86359905D01*
X68723042Y-86499032D01*
X68275955Y-86312196D01*
X68082745Y-86131867D01*
X67926377Y-85676874D01*
X68373235Y-85676874D01*
X68502299Y-85920671D01*
X68723042Y-85964295D01*
X69055801Y-85828632D01*
X69072849Y-85676874D01*
X68796822Y-85400639D01*
X68723042Y-85389453D01*
X68409543Y-85597604D01*
X68373235Y-85676874D01*
X67926377Y-85676874D01*
X67894313Y-85583579D01*
X68130345Y-85108480D01*
X68693188Y-84895237D01*
X68723042Y-84894821D01*
X69271482Y-85064359D01*
G37*
X69271482Y-85064359D02*
X69501154Y-85329762D01*
X69480864Y-85892713D01*
X69123902Y-86359905D01*
X68723042Y-86499032D01*
X68275955Y-86312196D01*
X68082745Y-86131867D01*
X67926377Y-85676874D01*
X68373235Y-85676874D01*
X68502299Y-85920671D01*
X68723042Y-85964295D01*
X69055801Y-85828632D01*
X69072849Y-85676874D01*
X68796822Y-85400639D01*
X68723042Y-85389453D01*
X68409543Y-85597604D01*
X68373235Y-85676874D01*
X67926377Y-85676874D01*
X67894313Y-85583579D01*
X68130345Y-85108480D01*
X68693188Y-84895237D01*
X68723042Y-84894821D01*
X69271482Y-85064359D01*
G36*
X66751172Y-84961071D02*
G01*
X66960574Y-85273578D01*
X66985147Y-85696926D01*
X66918896Y-86265057D01*
X66606389Y-86474459D01*
X66183042Y-86499032D01*
X65614911Y-86432781D01*
X65405509Y-86120274D01*
X65380936Y-85696926D01*
X65383274Y-85676874D01*
X65966919Y-85676874D01*
X66095983Y-85920671D01*
X66316726Y-85964295D01*
X66649485Y-85828632D01*
X66666533Y-85676874D01*
X66390507Y-85400639D01*
X66316726Y-85389453D01*
X66003227Y-85597604D01*
X65966919Y-85676874D01*
X65383274Y-85676874D01*
X65447187Y-85128795D01*
X65759694Y-84919394D01*
X66183042Y-84894821D01*
X66751172Y-84961071D01*
G37*
X66751172Y-84961071D02*
X66960574Y-85273578D01*
X66985147Y-85696926D01*
X66918896Y-86265057D01*
X66606389Y-86474459D01*
X66183042Y-86499032D01*
X65614911Y-86432781D01*
X65405509Y-86120274D01*
X65380936Y-85696926D01*
X65383274Y-85676874D01*
X65966919Y-85676874D01*
X66095983Y-85920671D01*
X66316726Y-85964295D01*
X66649485Y-85828632D01*
X66666533Y-85676874D01*
X66390507Y-85400639D01*
X66316726Y-85389453D01*
X66003227Y-85597604D01*
X65966919Y-85676874D01*
X65383274Y-85676874D01*
X65447187Y-85128795D01*
X65759694Y-84919394D01*
X66183042Y-84894821D01*
X66751172Y-84961071D01*
D14*
X60620600Y-75670000D02*
X60620600Y-73070000D01*
X60620600Y-75670000D02*
X68360600Y-75670000D01*
X68360600Y-75670000D02*
X68360600Y-70470000D01*
X63220600Y-70470000D02*
X68360600Y-70470000D01*
X63220600Y-73070000D02*
X63220600Y-70470000D01*
X60620600Y-73070000D02*
X63220600Y-73070000D01*
X60620600Y-70470000D02*
X61950600Y-70470000D01*
X60620600Y-71800000D02*
X60620600Y-70470000D01*
X65769800Y-57598000D02*
X60569800Y-57598000D01*
X65769800Y-62738000D02*
X65769800Y-57598000D01*
X60569800Y-65338000D02*
X60569800Y-57598000D01*
X65769800Y-62738000D02*
X63169800Y-62738000D01*
X63169800Y-62738000D02*
X63169800Y-65338000D01*
X63169800Y-65338000D02*
X60569800Y-65338000D01*
X65769800Y-64008000D02*
X65769800Y-65338000D01*
X65769800Y-65338000D02*
X64439800Y-65338000D01*
D10*
X60182714Y-69235580D02*
X60182714Y-68235580D01*
X60182714Y-68711771D02*
X60754142Y-68711771D01*
X60754142Y-69235580D02*
X60754142Y-68235580D01*
X61611285Y-69187961D02*
X61516047Y-69235580D01*
X61325571Y-69235580D01*
X61230333Y-69187961D01*
X61182714Y-69092723D01*
X61182714Y-68711771D01*
X61230333Y-68616533D01*
X61325571Y-68568914D01*
X61516047Y-68568914D01*
X61611285Y-68616533D01*
X61658904Y-68711771D01*
X61658904Y-68807009D01*
X61182714Y-68902247D01*
X62516047Y-69235580D02*
X62516047Y-68711771D01*
X62468428Y-68616533D01*
X62373190Y-68568914D01*
X62182714Y-68568914D01*
X62087476Y-68616533D01*
X62516047Y-69187961D02*
X62420809Y-69235580D01*
X62182714Y-69235580D01*
X62087476Y-69187961D01*
X62039857Y-69092723D01*
X62039857Y-68997485D01*
X62087476Y-68902247D01*
X62182714Y-68854628D01*
X62420809Y-68854628D01*
X62516047Y-68807009D01*
X63420809Y-69235580D02*
X63420809Y-68235580D01*
X63420809Y-69187961D02*
X63325571Y-69235580D01*
X63135095Y-69235580D01*
X63039857Y-69187961D01*
X62992238Y-69140342D01*
X62944619Y-69045104D01*
X62944619Y-68759390D01*
X62992238Y-68664152D01*
X63039857Y-68616533D01*
X63135095Y-68568914D01*
X63325571Y-68568914D01*
X63420809Y-68616533D01*
X64277952Y-69187961D02*
X64182714Y-69235580D01*
X63992238Y-69235580D01*
X63897000Y-69187961D01*
X63849380Y-69092723D01*
X63849380Y-68711771D01*
X63897000Y-68616533D01*
X63992238Y-68568914D01*
X64182714Y-68568914D01*
X64277952Y-68616533D01*
X64325571Y-68711771D01*
X64325571Y-68807009D01*
X63849380Y-68902247D01*
X64754142Y-69235580D02*
X64754142Y-68568914D01*
X64754142Y-68759390D02*
X64801761Y-68664152D01*
X64849380Y-68616533D01*
X64944619Y-68568914D01*
X65039857Y-68568914D01*
X66135095Y-69235580D02*
X66135095Y-68235580D01*
X66516047Y-68235580D01*
X66611285Y-68283200D01*
X66658904Y-68330819D01*
X66706523Y-68426057D01*
X66706523Y-68568914D01*
X66658904Y-68664152D01*
X66611285Y-68711771D01*
X66516047Y-68759390D01*
X66135095Y-68759390D01*
X67706523Y-69235580D02*
X67373190Y-68759390D01*
X67135095Y-69235580D02*
X67135095Y-68235580D01*
X67516047Y-68235580D01*
X67611285Y-68283200D01*
X67658904Y-68330819D01*
X67706523Y-68426057D01*
X67706523Y-68568914D01*
X67658904Y-68664152D01*
X67611285Y-68711771D01*
X67516047Y-68759390D01*
X67135095Y-68759390D01*
X68658904Y-68283200D02*
X68563666Y-68235580D01*
X68420809Y-68235580D01*
X68277952Y-68283200D01*
X68182714Y-68378438D01*
X68135095Y-68473676D01*
X68087476Y-68664152D01*
X68087476Y-68807009D01*
X68135095Y-68997485D01*
X68182714Y-69092723D01*
X68277952Y-69187961D01*
X68420809Y-69235580D01*
X68516047Y-69235580D01*
X68658904Y-69187961D01*
X68706523Y-69140342D01*
X68706523Y-68807009D01*
X68516047Y-68807009D01*
X69658904Y-69235580D02*
X69087476Y-69235580D01*
X69373190Y-69235580D02*
X69373190Y-68235580D01*
X69277952Y-68378438D01*
X69182714Y-68473676D01*
X69087476Y-68521295D01*
M02*
