M48
; DRILL file {KiCad (5.1.8)-1} date 02/09/21 21:10:19
; FORMAT={-:-/ absolute / inch / decimal}
; #@! TF.CreationDate,2021-02-09T21:10:19+01:00
; #@! TF.GenerationSoftware,Kicad,Pcbnew,(5.1.8)-1
FMAT,2
INCH
T1C0.0433
T2C0.1181
T3C0.1260
T4C0.1693
%
G90
G05
T1
X3.129Y-2.34
X3.129Y-2.44
X3.129Y-2.54
X3.229Y-2.34
X3.229Y-2.44
X3.229Y-2.54
X2.28Y-2.54
X2.38Y-2.54
X2.48Y-2.54
X2.58Y-2.54
X2.68Y-2.54
X2.78Y-2.54
X2.88Y-2.54
X2.98Y-2.54
T2
X2.5109Y-3.2717
X3.0227Y-3.2717
T3
X2.501Y-3.272
X3.031Y-3.276
T4
X3.142Y-2.9528
X2.358Y-2.9528
T0
M30
