G04 #@! TF.GenerationSoftware,KiCad,Pcbnew,5.1.5*
G04 #@! TF.CreationDate,2020-01-01T11:05:53+01:00*
G04 #@! TF.ProjectId,LORA_ATTINY84,4c4f5241-5f41-4545-9449-4e5938342e6b,rev?*
G04 #@! TF.SameCoordinates,Original*
G04 #@! TF.FileFunction,Copper,L1,Top*
G04 #@! TF.FilePolarity,Positive*
%FSLAX46Y46*%
G04 Gerber Fmt 4.6, Leading zero omitted, Abs format (unit mm)*
G04 Created by KiCad (PCBNEW 5.1.5) date 2020-01-01 11:05:53*
%MOMM*%
%LPD*%
G04 APERTURE LIST*
%ADD10C,0.100000*%
%ADD11O,1.700000X1.700000*%
%ADD12R,1.700000X1.700000*%
%ADD13R,3.600000X7.100000*%
%ADD14O,2.000000X1.000000*%
%ADD15C,0.800000*%
%ADD16C,0.250000*%
%ADD17C,0.254000*%
G04 APERTURE END LIST*
G04 #@! TA.AperFunction,SMDPad,CuDef*
D10*
G36*
X90184504Y-68921204D02*
G01*
X90208773Y-68924804D01*
X90232571Y-68930765D01*
X90255671Y-68939030D01*
X90277849Y-68949520D01*
X90298893Y-68962133D01*
X90318598Y-68976747D01*
X90336777Y-68993223D01*
X90353253Y-69011402D01*
X90367867Y-69031107D01*
X90380480Y-69052151D01*
X90390970Y-69074329D01*
X90399235Y-69097429D01*
X90405196Y-69121227D01*
X90408796Y-69145496D01*
X90410000Y-69170000D01*
X90410000Y-70095000D01*
X90408796Y-70119504D01*
X90405196Y-70143773D01*
X90399235Y-70167571D01*
X90390970Y-70190671D01*
X90380480Y-70212849D01*
X90367867Y-70233893D01*
X90353253Y-70253598D01*
X90336777Y-70271777D01*
X90318598Y-70288253D01*
X90298893Y-70302867D01*
X90277849Y-70315480D01*
X90255671Y-70325970D01*
X90232571Y-70334235D01*
X90208773Y-70340196D01*
X90184504Y-70343796D01*
X90160000Y-70345000D01*
X88910000Y-70345000D01*
X88885496Y-70343796D01*
X88861227Y-70340196D01*
X88837429Y-70334235D01*
X88814329Y-70325970D01*
X88792151Y-70315480D01*
X88771107Y-70302867D01*
X88751402Y-70288253D01*
X88733223Y-70271777D01*
X88716747Y-70253598D01*
X88702133Y-70233893D01*
X88689520Y-70212849D01*
X88679030Y-70190671D01*
X88670765Y-70167571D01*
X88664804Y-70143773D01*
X88661204Y-70119504D01*
X88660000Y-70095000D01*
X88660000Y-69170000D01*
X88661204Y-69145496D01*
X88664804Y-69121227D01*
X88670765Y-69097429D01*
X88679030Y-69074329D01*
X88689520Y-69052151D01*
X88702133Y-69031107D01*
X88716747Y-69011402D01*
X88733223Y-68993223D01*
X88751402Y-68976747D01*
X88771107Y-68962133D01*
X88792151Y-68949520D01*
X88814329Y-68939030D01*
X88837429Y-68930765D01*
X88861227Y-68924804D01*
X88885496Y-68921204D01*
X88910000Y-68920000D01*
X90160000Y-68920000D01*
X90184504Y-68921204D01*
G37*
G04 #@! TD.AperFunction*
G04 #@! TA.AperFunction,SMDPad,CuDef*
G36*
X90184504Y-71896204D02*
G01*
X90208773Y-71899804D01*
X90232571Y-71905765D01*
X90255671Y-71914030D01*
X90277849Y-71924520D01*
X90298893Y-71937133D01*
X90318598Y-71951747D01*
X90336777Y-71968223D01*
X90353253Y-71986402D01*
X90367867Y-72006107D01*
X90380480Y-72027151D01*
X90390970Y-72049329D01*
X90399235Y-72072429D01*
X90405196Y-72096227D01*
X90408796Y-72120496D01*
X90410000Y-72145000D01*
X90410000Y-73070000D01*
X90408796Y-73094504D01*
X90405196Y-73118773D01*
X90399235Y-73142571D01*
X90390970Y-73165671D01*
X90380480Y-73187849D01*
X90367867Y-73208893D01*
X90353253Y-73228598D01*
X90336777Y-73246777D01*
X90318598Y-73263253D01*
X90298893Y-73277867D01*
X90277849Y-73290480D01*
X90255671Y-73300970D01*
X90232571Y-73309235D01*
X90208773Y-73315196D01*
X90184504Y-73318796D01*
X90160000Y-73320000D01*
X88910000Y-73320000D01*
X88885496Y-73318796D01*
X88861227Y-73315196D01*
X88837429Y-73309235D01*
X88814329Y-73300970D01*
X88792151Y-73290480D01*
X88771107Y-73277867D01*
X88751402Y-73263253D01*
X88733223Y-73246777D01*
X88716747Y-73228598D01*
X88702133Y-73208893D01*
X88689520Y-73187849D01*
X88679030Y-73165671D01*
X88670765Y-73142571D01*
X88664804Y-73118773D01*
X88661204Y-73094504D01*
X88660000Y-73070000D01*
X88660000Y-72145000D01*
X88661204Y-72120496D01*
X88664804Y-72096227D01*
X88670765Y-72072429D01*
X88679030Y-72049329D01*
X88689520Y-72027151D01*
X88702133Y-72006107D01*
X88716747Y-71986402D01*
X88733223Y-71968223D01*
X88751402Y-71951747D01*
X88771107Y-71937133D01*
X88792151Y-71924520D01*
X88814329Y-71914030D01*
X88837429Y-71905765D01*
X88861227Y-71899804D01*
X88885496Y-71896204D01*
X88910000Y-71895000D01*
X90160000Y-71895000D01*
X90184504Y-71896204D01*
G37*
G04 #@! TD.AperFunction*
G04 #@! TA.AperFunction,SMDPad,CuDef*
G36*
X84778504Y-75453204D02*
G01*
X84802773Y-75456804D01*
X84826571Y-75462765D01*
X84849671Y-75471030D01*
X84871849Y-75481520D01*
X84892893Y-75494133D01*
X84912598Y-75508747D01*
X84930777Y-75525223D01*
X84947253Y-75543402D01*
X84961867Y-75563107D01*
X84974480Y-75584151D01*
X84984970Y-75606329D01*
X84993235Y-75629429D01*
X84999196Y-75653227D01*
X85002796Y-75677496D01*
X85004000Y-75702000D01*
X85004000Y-76952000D01*
X85002796Y-76976504D01*
X84999196Y-77000773D01*
X84993235Y-77024571D01*
X84984970Y-77047671D01*
X84974480Y-77069849D01*
X84961867Y-77090893D01*
X84947253Y-77110598D01*
X84930777Y-77128777D01*
X84912598Y-77145253D01*
X84892893Y-77159867D01*
X84871849Y-77172480D01*
X84849671Y-77182970D01*
X84826571Y-77191235D01*
X84802773Y-77197196D01*
X84778504Y-77200796D01*
X84754000Y-77202000D01*
X83829000Y-77202000D01*
X83804496Y-77200796D01*
X83780227Y-77197196D01*
X83756429Y-77191235D01*
X83733329Y-77182970D01*
X83711151Y-77172480D01*
X83690107Y-77159867D01*
X83670402Y-77145253D01*
X83652223Y-77128777D01*
X83635747Y-77110598D01*
X83621133Y-77090893D01*
X83608520Y-77069849D01*
X83598030Y-77047671D01*
X83589765Y-77024571D01*
X83583804Y-77000773D01*
X83580204Y-76976504D01*
X83579000Y-76952000D01*
X83579000Y-75702000D01*
X83580204Y-75677496D01*
X83583804Y-75653227D01*
X83589765Y-75629429D01*
X83598030Y-75606329D01*
X83608520Y-75584151D01*
X83621133Y-75563107D01*
X83635747Y-75543402D01*
X83652223Y-75525223D01*
X83670402Y-75508747D01*
X83690107Y-75494133D01*
X83711151Y-75481520D01*
X83733329Y-75471030D01*
X83756429Y-75462765D01*
X83780227Y-75456804D01*
X83804496Y-75453204D01*
X83829000Y-75452000D01*
X84754000Y-75452000D01*
X84778504Y-75453204D01*
G37*
G04 #@! TD.AperFunction*
G04 #@! TA.AperFunction,SMDPad,CuDef*
G36*
X81803504Y-75453204D02*
G01*
X81827773Y-75456804D01*
X81851571Y-75462765D01*
X81874671Y-75471030D01*
X81896849Y-75481520D01*
X81917893Y-75494133D01*
X81937598Y-75508747D01*
X81955777Y-75525223D01*
X81972253Y-75543402D01*
X81986867Y-75563107D01*
X81999480Y-75584151D01*
X82009970Y-75606329D01*
X82018235Y-75629429D01*
X82024196Y-75653227D01*
X82027796Y-75677496D01*
X82029000Y-75702000D01*
X82029000Y-76952000D01*
X82027796Y-76976504D01*
X82024196Y-77000773D01*
X82018235Y-77024571D01*
X82009970Y-77047671D01*
X81999480Y-77069849D01*
X81986867Y-77090893D01*
X81972253Y-77110598D01*
X81955777Y-77128777D01*
X81937598Y-77145253D01*
X81917893Y-77159867D01*
X81896849Y-77172480D01*
X81874671Y-77182970D01*
X81851571Y-77191235D01*
X81827773Y-77197196D01*
X81803504Y-77200796D01*
X81779000Y-77202000D01*
X80854000Y-77202000D01*
X80829496Y-77200796D01*
X80805227Y-77197196D01*
X80781429Y-77191235D01*
X80758329Y-77182970D01*
X80736151Y-77172480D01*
X80715107Y-77159867D01*
X80695402Y-77145253D01*
X80677223Y-77128777D01*
X80660747Y-77110598D01*
X80646133Y-77090893D01*
X80633520Y-77069849D01*
X80623030Y-77047671D01*
X80614765Y-77024571D01*
X80608804Y-77000773D01*
X80605204Y-76976504D01*
X80604000Y-76952000D01*
X80604000Y-75702000D01*
X80605204Y-75677496D01*
X80608804Y-75653227D01*
X80614765Y-75629429D01*
X80623030Y-75606329D01*
X80633520Y-75584151D01*
X80646133Y-75563107D01*
X80660747Y-75543402D01*
X80677223Y-75525223D01*
X80695402Y-75508747D01*
X80715107Y-75494133D01*
X80736151Y-75481520D01*
X80758329Y-75471030D01*
X80781429Y-75462765D01*
X80805227Y-75456804D01*
X80829496Y-75453204D01*
X80854000Y-75452000D01*
X81779000Y-75452000D01*
X81803504Y-75453204D01*
G37*
G04 #@! TD.AperFunction*
G04 #@! TA.AperFunction,SMDPad,CuDef*
G36*
X86692004Y-50941204D02*
G01*
X86716273Y-50944804D01*
X86740071Y-50950765D01*
X86763171Y-50959030D01*
X86785349Y-50969520D01*
X86806393Y-50982133D01*
X86826098Y-50996747D01*
X86844277Y-51013223D01*
X86860753Y-51031402D01*
X86875367Y-51051107D01*
X86887980Y-51072151D01*
X86898470Y-51094329D01*
X86906735Y-51117429D01*
X86912696Y-51141227D01*
X86916296Y-51165496D01*
X86917500Y-51190000D01*
X86917500Y-52115000D01*
X86916296Y-52139504D01*
X86912696Y-52163773D01*
X86906735Y-52187571D01*
X86898470Y-52210671D01*
X86887980Y-52232849D01*
X86875367Y-52253893D01*
X86860753Y-52273598D01*
X86844277Y-52291777D01*
X86826098Y-52308253D01*
X86806393Y-52322867D01*
X86785349Y-52335480D01*
X86763171Y-52345970D01*
X86740071Y-52354235D01*
X86716273Y-52360196D01*
X86692004Y-52363796D01*
X86667500Y-52365000D01*
X85417500Y-52365000D01*
X85392996Y-52363796D01*
X85368727Y-52360196D01*
X85344929Y-52354235D01*
X85321829Y-52345970D01*
X85299651Y-52335480D01*
X85278607Y-52322867D01*
X85258902Y-52308253D01*
X85240723Y-52291777D01*
X85224247Y-52273598D01*
X85209633Y-52253893D01*
X85197020Y-52232849D01*
X85186530Y-52210671D01*
X85178265Y-52187571D01*
X85172304Y-52163773D01*
X85168704Y-52139504D01*
X85167500Y-52115000D01*
X85167500Y-51190000D01*
X85168704Y-51165496D01*
X85172304Y-51141227D01*
X85178265Y-51117429D01*
X85186530Y-51094329D01*
X85197020Y-51072151D01*
X85209633Y-51051107D01*
X85224247Y-51031402D01*
X85240723Y-51013223D01*
X85258902Y-50996747D01*
X85278607Y-50982133D01*
X85299651Y-50969520D01*
X85321829Y-50959030D01*
X85344929Y-50950765D01*
X85368727Y-50944804D01*
X85392996Y-50941204D01*
X85417500Y-50940000D01*
X86667500Y-50940000D01*
X86692004Y-50941204D01*
G37*
G04 #@! TD.AperFunction*
G04 #@! TA.AperFunction,SMDPad,CuDef*
G36*
X86692004Y-47966204D02*
G01*
X86716273Y-47969804D01*
X86740071Y-47975765D01*
X86763171Y-47984030D01*
X86785349Y-47994520D01*
X86806393Y-48007133D01*
X86826098Y-48021747D01*
X86844277Y-48038223D01*
X86860753Y-48056402D01*
X86875367Y-48076107D01*
X86887980Y-48097151D01*
X86898470Y-48119329D01*
X86906735Y-48142429D01*
X86912696Y-48166227D01*
X86916296Y-48190496D01*
X86917500Y-48215000D01*
X86917500Y-49140000D01*
X86916296Y-49164504D01*
X86912696Y-49188773D01*
X86906735Y-49212571D01*
X86898470Y-49235671D01*
X86887980Y-49257849D01*
X86875367Y-49278893D01*
X86860753Y-49298598D01*
X86844277Y-49316777D01*
X86826098Y-49333253D01*
X86806393Y-49347867D01*
X86785349Y-49360480D01*
X86763171Y-49370970D01*
X86740071Y-49379235D01*
X86716273Y-49385196D01*
X86692004Y-49388796D01*
X86667500Y-49390000D01*
X85417500Y-49390000D01*
X85392996Y-49388796D01*
X85368727Y-49385196D01*
X85344929Y-49379235D01*
X85321829Y-49370970D01*
X85299651Y-49360480D01*
X85278607Y-49347867D01*
X85258902Y-49333253D01*
X85240723Y-49316777D01*
X85224247Y-49298598D01*
X85209633Y-49278893D01*
X85197020Y-49257849D01*
X85186530Y-49235671D01*
X85178265Y-49212571D01*
X85172304Y-49188773D01*
X85168704Y-49164504D01*
X85167500Y-49140000D01*
X85167500Y-48215000D01*
X85168704Y-48190496D01*
X85172304Y-48166227D01*
X85178265Y-48142429D01*
X85186530Y-48119329D01*
X85197020Y-48097151D01*
X85209633Y-48076107D01*
X85224247Y-48056402D01*
X85240723Y-48038223D01*
X85258902Y-48021747D01*
X85278607Y-48007133D01*
X85299651Y-47994520D01*
X85321829Y-47984030D01*
X85344929Y-47975765D01*
X85368727Y-47969804D01*
X85392996Y-47966204D01*
X85417500Y-47965000D01*
X86667500Y-47965000D01*
X86692004Y-47966204D01*
G37*
G04 #@! TD.AperFunction*
D11*
X71882000Y-53340000D03*
X69342000Y-53340000D03*
X71882000Y-50800000D03*
X69342000Y-50800000D03*
X71882000Y-48260000D03*
D12*
X69342000Y-48260000D03*
D11*
X89535000Y-66040000D03*
X89535000Y-63500000D03*
X89535000Y-60960000D03*
X89535000Y-58420000D03*
X89535000Y-55880000D03*
X89535000Y-53340000D03*
X89535000Y-50800000D03*
D12*
X89535000Y-48260000D03*
G04 #@! TA.AperFunction,SMDPad,CuDef*
D10*
G36*
X78301504Y-75453204D02*
G01*
X78325773Y-75456804D01*
X78349571Y-75462765D01*
X78372671Y-75471030D01*
X78394849Y-75481520D01*
X78415893Y-75494133D01*
X78435598Y-75508747D01*
X78453777Y-75525223D01*
X78470253Y-75543402D01*
X78484867Y-75563107D01*
X78497480Y-75584151D01*
X78507970Y-75606329D01*
X78516235Y-75629429D01*
X78522196Y-75653227D01*
X78525796Y-75677496D01*
X78527000Y-75702000D01*
X78527000Y-76952000D01*
X78525796Y-76976504D01*
X78522196Y-77000773D01*
X78516235Y-77024571D01*
X78507970Y-77047671D01*
X78497480Y-77069849D01*
X78484867Y-77090893D01*
X78470253Y-77110598D01*
X78453777Y-77128777D01*
X78435598Y-77145253D01*
X78415893Y-77159867D01*
X78394849Y-77172480D01*
X78372671Y-77182970D01*
X78349571Y-77191235D01*
X78325773Y-77197196D01*
X78301504Y-77200796D01*
X78277000Y-77202000D01*
X77352000Y-77202000D01*
X77327496Y-77200796D01*
X77303227Y-77197196D01*
X77279429Y-77191235D01*
X77256329Y-77182970D01*
X77234151Y-77172480D01*
X77213107Y-77159867D01*
X77193402Y-77145253D01*
X77175223Y-77128777D01*
X77158747Y-77110598D01*
X77144133Y-77090893D01*
X77131520Y-77069849D01*
X77121030Y-77047671D01*
X77112765Y-77024571D01*
X77106804Y-77000773D01*
X77103204Y-76976504D01*
X77102000Y-76952000D01*
X77102000Y-75702000D01*
X77103204Y-75677496D01*
X77106804Y-75653227D01*
X77112765Y-75629429D01*
X77121030Y-75606329D01*
X77131520Y-75584151D01*
X77144133Y-75563107D01*
X77158747Y-75543402D01*
X77175223Y-75525223D01*
X77193402Y-75508747D01*
X77213107Y-75494133D01*
X77234151Y-75481520D01*
X77256329Y-75471030D01*
X77279429Y-75462765D01*
X77303227Y-75456804D01*
X77327496Y-75453204D01*
X77352000Y-75452000D01*
X78277000Y-75452000D01*
X78301504Y-75453204D01*
G37*
G04 #@! TD.AperFunction*
G04 #@! TA.AperFunction,SMDPad,CuDef*
G36*
X75326504Y-75453204D02*
G01*
X75350773Y-75456804D01*
X75374571Y-75462765D01*
X75397671Y-75471030D01*
X75419849Y-75481520D01*
X75440893Y-75494133D01*
X75460598Y-75508747D01*
X75478777Y-75525223D01*
X75495253Y-75543402D01*
X75509867Y-75563107D01*
X75522480Y-75584151D01*
X75532970Y-75606329D01*
X75541235Y-75629429D01*
X75547196Y-75653227D01*
X75550796Y-75677496D01*
X75552000Y-75702000D01*
X75552000Y-76952000D01*
X75550796Y-76976504D01*
X75547196Y-77000773D01*
X75541235Y-77024571D01*
X75532970Y-77047671D01*
X75522480Y-77069849D01*
X75509867Y-77090893D01*
X75495253Y-77110598D01*
X75478777Y-77128777D01*
X75460598Y-77145253D01*
X75440893Y-77159867D01*
X75419849Y-77172480D01*
X75397671Y-77182970D01*
X75374571Y-77191235D01*
X75350773Y-77197196D01*
X75326504Y-77200796D01*
X75302000Y-77202000D01*
X74377000Y-77202000D01*
X74352496Y-77200796D01*
X74328227Y-77197196D01*
X74304429Y-77191235D01*
X74281329Y-77182970D01*
X74259151Y-77172480D01*
X74238107Y-77159867D01*
X74218402Y-77145253D01*
X74200223Y-77128777D01*
X74183747Y-77110598D01*
X74169133Y-77090893D01*
X74156520Y-77069849D01*
X74146030Y-77047671D01*
X74137765Y-77024571D01*
X74131804Y-77000773D01*
X74128204Y-76976504D01*
X74127000Y-76952000D01*
X74127000Y-75702000D01*
X74128204Y-75677496D01*
X74131804Y-75653227D01*
X74137765Y-75629429D01*
X74146030Y-75606329D01*
X74156520Y-75584151D01*
X74169133Y-75563107D01*
X74183747Y-75543402D01*
X74200223Y-75525223D01*
X74218402Y-75508747D01*
X74238107Y-75494133D01*
X74259151Y-75481520D01*
X74281329Y-75471030D01*
X74304429Y-75462765D01*
X74328227Y-75456804D01*
X74352496Y-75453204D01*
X74377000Y-75452000D01*
X75302000Y-75452000D01*
X75326504Y-75453204D01*
G37*
G04 #@! TD.AperFunction*
G04 #@! TA.AperFunction,SMDPad,CuDef*
G36*
X71951504Y-75453204D02*
G01*
X71975773Y-75456804D01*
X71999571Y-75462765D01*
X72022671Y-75471030D01*
X72044849Y-75481520D01*
X72065893Y-75494133D01*
X72085598Y-75508747D01*
X72103777Y-75525223D01*
X72120253Y-75543402D01*
X72134867Y-75563107D01*
X72147480Y-75584151D01*
X72157970Y-75606329D01*
X72166235Y-75629429D01*
X72172196Y-75653227D01*
X72175796Y-75677496D01*
X72177000Y-75702000D01*
X72177000Y-76952000D01*
X72175796Y-76976504D01*
X72172196Y-77000773D01*
X72166235Y-77024571D01*
X72157970Y-77047671D01*
X72147480Y-77069849D01*
X72134867Y-77090893D01*
X72120253Y-77110598D01*
X72103777Y-77128777D01*
X72085598Y-77145253D01*
X72065893Y-77159867D01*
X72044849Y-77172480D01*
X72022671Y-77182970D01*
X71999571Y-77191235D01*
X71975773Y-77197196D01*
X71951504Y-77200796D01*
X71927000Y-77202000D01*
X71002000Y-77202000D01*
X70977496Y-77200796D01*
X70953227Y-77197196D01*
X70929429Y-77191235D01*
X70906329Y-77182970D01*
X70884151Y-77172480D01*
X70863107Y-77159867D01*
X70843402Y-77145253D01*
X70825223Y-77128777D01*
X70808747Y-77110598D01*
X70794133Y-77090893D01*
X70781520Y-77069849D01*
X70771030Y-77047671D01*
X70762765Y-77024571D01*
X70756804Y-77000773D01*
X70753204Y-76976504D01*
X70752000Y-76952000D01*
X70752000Y-75702000D01*
X70753204Y-75677496D01*
X70756804Y-75653227D01*
X70762765Y-75629429D01*
X70771030Y-75606329D01*
X70781520Y-75584151D01*
X70794133Y-75563107D01*
X70808747Y-75543402D01*
X70825223Y-75525223D01*
X70843402Y-75508747D01*
X70863107Y-75494133D01*
X70884151Y-75481520D01*
X70906329Y-75471030D01*
X70929429Y-75462765D01*
X70953227Y-75456804D01*
X70977496Y-75453204D01*
X71002000Y-75452000D01*
X71927000Y-75452000D01*
X71951504Y-75453204D01*
G37*
G04 #@! TD.AperFunction*
G04 #@! TA.AperFunction,SMDPad,CuDef*
G36*
X68976504Y-75453204D02*
G01*
X69000773Y-75456804D01*
X69024571Y-75462765D01*
X69047671Y-75471030D01*
X69069849Y-75481520D01*
X69090893Y-75494133D01*
X69110598Y-75508747D01*
X69128777Y-75525223D01*
X69145253Y-75543402D01*
X69159867Y-75563107D01*
X69172480Y-75584151D01*
X69182970Y-75606329D01*
X69191235Y-75629429D01*
X69197196Y-75653227D01*
X69200796Y-75677496D01*
X69202000Y-75702000D01*
X69202000Y-76952000D01*
X69200796Y-76976504D01*
X69197196Y-77000773D01*
X69191235Y-77024571D01*
X69182970Y-77047671D01*
X69172480Y-77069849D01*
X69159867Y-77090893D01*
X69145253Y-77110598D01*
X69128777Y-77128777D01*
X69110598Y-77145253D01*
X69090893Y-77159867D01*
X69069849Y-77172480D01*
X69047671Y-77182970D01*
X69024571Y-77191235D01*
X69000773Y-77197196D01*
X68976504Y-77200796D01*
X68952000Y-77202000D01*
X68027000Y-77202000D01*
X68002496Y-77200796D01*
X67978227Y-77197196D01*
X67954429Y-77191235D01*
X67931329Y-77182970D01*
X67909151Y-77172480D01*
X67888107Y-77159867D01*
X67868402Y-77145253D01*
X67850223Y-77128777D01*
X67833747Y-77110598D01*
X67819133Y-77090893D01*
X67806520Y-77069849D01*
X67796030Y-77047671D01*
X67787765Y-77024571D01*
X67781804Y-77000773D01*
X67778204Y-76976504D01*
X67777000Y-76952000D01*
X67777000Y-75702000D01*
X67778204Y-75677496D01*
X67781804Y-75653227D01*
X67787765Y-75629429D01*
X67796030Y-75606329D01*
X67806520Y-75584151D01*
X67819133Y-75563107D01*
X67833747Y-75543402D01*
X67850223Y-75525223D01*
X67868402Y-75508747D01*
X67888107Y-75494133D01*
X67909151Y-75481520D01*
X67931329Y-75471030D01*
X67954429Y-75462765D01*
X67978227Y-75456804D01*
X68002496Y-75453204D01*
X68027000Y-75452000D01*
X68952000Y-75452000D01*
X68976504Y-75453204D01*
G37*
G04 #@! TD.AperFunction*
D13*
X56515000Y-48514000D03*
X56515000Y-73406000D03*
G04 #@! TA.AperFunction,SMDPad,CuDef*
D10*
G36*
X83984703Y-51665722D02*
G01*
X83999264Y-51667882D01*
X84013543Y-51671459D01*
X84027403Y-51676418D01*
X84040710Y-51682712D01*
X84053336Y-51690280D01*
X84065159Y-51699048D01*
X84076066Y-51708934D01*
X84085952Y-51719841D01*
X84094720Y-51731664D01*
X84102288Y-51744290D01*
X84108582Y-51757597D01*
X84113541Y-51771457D01*
X84117118Y-51785736D01*
X84119278Y-51800297D01*
X84120000Y-51815000D01*
X84120000Y-53465000D01*
X84119278Y-53479703D01*
X84117118Y-53494264D01*
X84113541Y-53508543D01*
X84108582Y-53522403D01*
X84102288Y-53535710D01*
X84094720Y-53548336D01*
X84085952Y-53560159D01*
X84076066Y-53571066D01*
X84065159Y-53580952D01*
X84053336Y-53589720D01*
X84040710Y-53597288D01*
X84027403Y-53603582D01*
X84013543Y-53608541D01*
X83999264Y-53612118D01*
X83984703Y-53614278D01*
X83970000Y-53615000D01*
X83670000Y-53615000D01*
X83655297Y-53614278D01*
X83640736Y-53612118D01*
X83626457Y-53608541D01*
X83612597Y-53603582D01*
X83599290Y-53597288D01*
X83586664Y-53589720D01*
X83574841Y-53580952D01*
X83563934Y-53571066D01*
X83554048Y-53560159D01*
X83545280Y-53548336D01*
X83537712Y-53535710D01*
X83531418Y-53522403D01*
X83526459Y-53508543D01*
X83522882Y-53494264D01*
X83520722Y-53479703D01*
X83520000Y-53465000D01*
X83520000Y-51815000D01*
X83520722Y-51800297D01*
X83522882Y-51785736D01*
X83526459Y-51771457D01*
X83531418Y-51757597D01*
X83537712Y-51744290D01*
X83545280Y-51731664D01*
X83554048Y-51719841D01*
X83563934Y-51708934D01*
X83574841Y-51699048D01*
X83586664Y-51690280D01*
X83599290Y-51682712D01*
X83612597Y-51676418D01*
X83626457Y-51671459D01*
X83640736Y-51667882D01*
X83655297Y-51665722D01*
X83670000Y-51665000D01*
X83970000Y-51665000D01*
X83984703Y-51665722D01*
G37*
G04 #@! TD.AperFunction*
G04 #@! TA.AperFunction,SMDPad,CuDef*
G36*
X82714703Y-51665722D02*
G01*
X82729264Y-51667882D01*
X82743543Y-51671459D01*
X82757403Y-51676418D01*
X82770710Y-51682712D01*
X82783336Y-51690280D01*
X82795159Y-51699048D01*
X82806066Y-51708934D01*
X82815952Y-51719841D01*
X82824720Y-51731664D01*
X82832288Y-51744290D01*
X82838582Y-51757597D01*
X82843541Y-51771457D01*
X82847118Y-51785736D01*
X82849278Y-51800297D01*
X82850000Y-51815000D01*
X82850000Y-53465000D01*
X82849278Y-53479703D01*
X82847118Y-53494264D01*
X82843541Y-53508543D01*
X82838582Y-53522403D01*
X82832288Y-53535710D01*
X82824720Y-53548336D01*
X82815952Y-53560159D01*
X82806066Y-53571066D01*
X82795159Y-53580952D01*
X82783336Y-53589720D01*
X82770710Y-53597288D01*
X82757403Y-53603582D01*
X82743543Y-53608541D01*
X82729264Y-53612118D01*
X82714703Y-53614278D01*
X82700000Y-53615000D01*
X82400000Y-53615000D01*
X82385297Y-53614278D01*
X82370736Y-53612118D01*
X82356457Y-53608541D01*
X82342597Y-53603582D01*
X82329290Y-53597288D01*
X82316664Y-53589720D01*
X82304841Y-53580952D01*
X82293934Y-53571066D01*
X82284048Y-53560159D01*
X82275280Y-53548336D01*
X82267712Y-53535710D01*
X82261418Y-53522403D01*
X82256459Y-53508543D01*
X82252882Y-53494264D01*
X82250722Y-53479703D01*
X82250000Y-53465000D01*
X82250000Y-51815000D01*
X82250722Y-51800297D01*
X82252882Y-51785736D01*
X82256459Y-51771457D01*
X82261418Y-51757597D01*
X82267712Y-51744290D01*
X82275280Y-51731664D01*
X82284048Y-51719841D01*
X82293934Y-51708934D01*
X82304841Y-51699048D01*
X82316664Y-51690280D01*
X82329290Y-51682712D01*
X82342597Y-51676418D01*
X82356457Y-51671459D01*
X82370736Y-51667882D01*
X82385297Y-51665722D01*
X82400000Y-51665000D01*
X82700000Y-51665000D01*
X82714703Y-51665722D01*
G37*
G04 #@! TD.AperFunction*
G04 #@! TA.AperFunction,SMDPad,CuDef*
G36*
X81444703Y-51665722D02*
G01*
X81459264Y-51667882D01*
X81473543Y-51671459D01*
X81487403Y-51676418D01*
X81500710Y-51682712D01*
X81513336Y-51690280D01*
X81525159Y-51699048D01*
X81536066Y-51708934D01*
X81545952Y-51719841D01*
X81554720Y-51731664D01*
X81562288Y-51744290D01*
X81568582Y-51757597D01*
X81573541Y-51771457D01*
X81577118Y-51785736D01*
X81579278Y-51800297D01*
X81580000Y-51815000D01*
X81580000Y-53465000D01*
X81579278Y-53479703D01*
X81577118Y-53494264D01*
X81573541Y-53508543D01*
X81568582Y-53522403D01*
X81562288Y-53535710D01*
X81554720Y-53548336D01*
X81545952Y-53560159D01*
X81536066Y-53571066D01*
X81525159Y-53580952D01*
X81513336Y-53589720D01*
X81500710Y-53597288D01*
X81487403Y-53603582D01*
X81473543Y-53608541D01*
X81459264Y-53612118D01*
X81444703Y-53614278D01*
X81430000Y-53615000D01*
X81130000Y-53615000D01*
X81115297Y-53614278D01*
X81100736Y-53612118D01*
X81086457Y-53608541D01*
X81072597Y-53603582D01*
X81059290Y-53597288D01*
X81046664Y-53589720D01*
X81034841Y-53580952D01*
X81023934Y-53571066D01*
X81014048Y-53560159D01*
X81005280Y-53548336D01*
X80997712Y-53535710D01*
X80991418Y-53522403D01*
X80986459Y-53508543D01*
X80982882Y-53494264D01*
X80980722Y-53479703D01*
X80980000Y-53465000D01*
X80980000Y-51815000D01*
X80980722Y-51800297D01*
X80982882Y-51785736D01*
X80986459Y-51771457D01*
X80991418Y-51757597D01*
X80997712Y-51744290D01*
X81005280Y-51731664D01*
X81014048Y-51719841D01*
X81023934Y-51708934D01*
X81034841Y-51699048D01*
X81046664Y-51690280D01*
X81059290Y-51682712D01*
X81072597Y-51676418D01*
X81086457Y-51671459D01*
X81100736Y-51667882D01*
X81115297Y-51665722D01*
X81130000Y-51665000D01*
X81430000Y-51665000D01*
X81444703Y-51665722D01*
G37*
G04 #@! TD.AperFunction*
G04 #@! TA.AperFunction,SMDPad,CuDef*
G36*
X80174703Y-51665722D02*
G01*
X80189264Y-51667882D01*
X80203543Y-51671459D01*
X80217403Y-51676418D01*
X80230710Y-51682712D01*
X80243336Y-51690280D01*
X80255159Y-51699048D01*
X80266066Y-51708934D01*
X80275952Y-51719841D01*
X80284720Y-51731664D01*
X80292288Y-51744290D01*
X80298582Y-51757597D01*
X80303541Y-51771457D01*
X80307118Y-51785736D01*
X80309278Y-51800297D01*
X80310000Y-51815000D01*
X80310000Y-53465000D01*
X80309278Y-53479703D01*
X80307118Y-53494264D01*
X80303541Y-53508543D01*
X80298582Y-53522403D01*
X80292288Y-53535710D01*
X80284720Y-53548336D01*
X80275952Y-53560159D01*
X80266066Y-53571066D01*
X80255159Y-53580952D01*
X80243336Y-53589720D01*
X80230710Y-53597288D01*
X80217403Y-53603582D01*
X80203543Y-53608541D01*
X80189264Y-53612118D01*
X80174703Y-53614278D01*
X80160000Y-53615000D01*
X79860000Y-53615000D01*
X79845297Y-53614278D01*
X79830736Y-53612118D01*
X79816457Y-53608541D01*
X79802597Y-53603582D01*
X79789290Y-53597288D01*
X79776664Y-53589720D01*
X79764841Y-53580952D01*
X79753934Y-53571066D01*
X79744048Y-53560159D01*
X79735280Y-53548336D01*
X79727712Y-53535710D01*
X79721418Y-53522403D01*
X79716459Y-53508543D01*
X79712882Y-53494264D01*
X79710722Y-53479703D01*
X79710000Y-53465000D01*
X79710000Y-51815000D01*
X79710722Y-51800297D01*
X79712882Y-51785736D01*
X79716459Y-51771457D01*
X79721418Y-51757597D01*
X79727712Y-51744290D01*
X79735280Y-51731664D01*
X79744048Y-51719841D01*
X79753934Y-51708934D01*
X79764841Y-51699048D01*
X79776664Y-51690280D01*
X79789290Y-51682712D01*
X79802597Y-51676418D01*
X79816457Y-51671459D01*
X79830736Y-51667882D01*
X79845297Y-51665722D01*
X79860000Y-51665000D01*
X80160000Y-51665000D01*
X80174703Y-51665722D01*
G37*
G04 #@! TD.AperFunction*
G04 #@! TA.AperFunction,SMDPad,CuDef*
G36*
X78904703Y-51665722D02*
G01*
X78919264Y-51667882D01*
X78933543Y-51671459D01*
X78947403Y-51676418D01*
X78960710Y-51682712D01*
X78973336Y-51690280D01*
X78985159Y-51699048D01*
X78996066Y-51708934D01*
X79005952Y-51719841D01*
X79014720Y-51731664D01*
X79022288Y-51744290D01*
X79028582Y-51757597D01*
X79033541Y-51771457D01*
X79037118Y-51785736D01*
X79039278Y-51800297D01*
X79040000Y-51815000D01*
X79040000Y-53465000D01*
X79039278Y-53479703D01*
X79037118Y-53494264D01*
X79033541Y-53508543D01*
X79028582Y-53522403D01*
X79022288Y-53535710D01*
X79014720Y-53548336D01*
X79005952Y-53560159D01*
X78996066Y-53571066D01*
X78985159Y-53580952D01*
X78973336Y-53589720D01*
X78960710Y-53597288D01*
X78947403Y-53603582D01*
X78933543Y-53608541D01*
X78919264Y-53612118D01*
X78904703Y-53614278D01*
X78890000Y-53615000D01*
X78590000Y-53615000D01*
X78575297Y-53614278D01*
X78560736Y-53612118D01*
X78546457Y-53608541D01*
X78532597Y-53603582D01*
X78519290Y-53597288D01*
X78506664Y-53589720D01*
X78494841Y-53580952D01*
X78483934Y-53571066D01*
X78474048Y-53560159D01*
X78465280Y-53548336D01*
X78457712Y-53535710D01*
X78451418Y-53522403D01*
X78446459Y-53508543D01*
X78442882Y-53494264D01*
X78440722Y-53479703D01*
X78440000Y-53465000D01*
X78440000Y-51815000D01*
X78440722Y-51800297D01*
X78442882Y-51785736D01*
X78446459Y-51771457D01*
X78451418Y-51757597D01*
X78457712Y-51744290D01*
X78465280Y-51731664D01*
X78474048Y-51719841D01*
X78483934Y-51708934D01*
X78494841Y-51699048D01*
X78506664Y-51690280D01*
X78519290Y-51682712D01*
X78532597Y-51676418D01*
X78546457Y-51671459D01*
X78560736Y-51667882D01*
X78575297Y-51665722D01*
X78590000Y-51665000D01*
X78890000Y-51665000D01*
X78904703Y-51665722D01*
G37*
G04 #@! TD.AperFunction*
G04 #@! TA.AperFunction,SMDPad,CuDef*
G36*
X77634703Y-51665722D02*
G01*
X77649264Y-51667882D01*
X77663543Y-51671459D01*
X77677403Y-51676418D01*
X77690710Y-51682712D01*
X77703336Y-51690280D01*
X77715159Y-51699048D01*
X77726066Y-51708934D01*
X77735952Y-51719841D01*
X77744720Y-51731664D01*
X77752288Y-51744290D01*
X77758582Y-51757597D01*
X77763541Y-51771457D01*
X77767118Y-51785736D01*
X77769278Y-51800297D01*
X77770000Y-51815000D01*
X77770000Y-53465000D01*
X77769278Y-53479703D01*
X77767118Y-53494264D01*
X77763541Y-53508543D01*
X77758582Y-53522403D01*
X77752288Y-53535710D01*
X77744720Y-53548336D01*
X77735952Y-53560159D01*
X77726066Y-53571066D01*
X77715159Y-53580952D01*
X77703336Y-53589720D01*
X77690710Y-53597288D01*
X77677403Y-53603582D01*
X77663543Y-53608541D01*
X77649264Y-53612118D01*
X77634703Y-53614278D01*
X77620000Y-53615000D01*
X77320000Y-53615000D01*
X77305297Y-53614278D01*
X77290736Y-53612118D01*
X77276457Y-53608541D01*
X77262597Y-53603582D01*
X77249290Y-53597288D01*
X77236664Y-53589720D01*
X77224841Y-53580952D01*
X77213934Y-53571066D01*
X77204048Y-53560159D01*
X77195280Y-53548336D01*
X77187712Y-53535710D01*
X77181418Y-53522403D01*
X77176459Y-53508543D01*
X77172882Y-53494264D01*
X77170722Y-53479703D01*
X77170000Y-53465000D01*
X77170000Y-51815000D01*
X77170722Y-51800297D01*
X77172882Y-51785736D01*
X77176459Y-51771457D01*
X77181418Y-51757597D01*
X77187712Y-51744290D01*
X77195280Y-51731664D01*
X77204048Y-51719841D01*
X77213934Y-51708934D01*
X77224841Y-51699048D01*
X77236664Y-51690280D01*
X77249290Y-51682712D01*
X77262597Y-51676418D01*
X77276457Y-51671459D01*
X77290736Y-51667882D01*
X77305297Y-51665722D01*
X77320000Y-51665000D01*
X77620000Y-51665000D01*
X77634703Y-51665722D01*
G37*
G04 #@! TD.AperFunction*
G04 #@! TA.AperFunction,SMDPad,CuDef*
G36*
X76364703Y-51665722D02*
G01*
X76379264Y-51667882D01*
X76393543Y-51671459D01*
X76407403Y-51676418D01*
X76420710Y-51682712D01*
X76433336Y-51690280D01*
X76445159Y-51699048D01*
X76456066Y-51708934D01*
X76465952Y-51719841D01*
X76474720Y-51731664D01*
X76482288Y-51744290D01*
X76488582Y-51757597D01*
X76493541Y-51771457D01*
X76497118Y-51785736D01*
X76499278Y-51800297D01*
X76500000Y-51815000D01*
X76500000Y-53465000D01*
X76499278Y-53479703D01*
X76497118Y-53494264D01*
X76493541Y-53508543D01*
X76488582Y-53522403D01*
X76482288Y-53535710D01*
X76474720Y-53548336D01*
X76465952Y-53560159D01*
X76456066Y-53571066D01*
X76445159Y-53580952D01*
X76433336Y-53589720D01*
X76420710Y-53597288D01*
X76407403Y-53603582D01*
X76393543Y-53608541D01*
X76379264Y-53612118D01*
X76364703Y-53614278D01*
X76350000Y-53615000D01*
X76050000Y-53615000D01*
X76035297Y-53614278D01*
X76020736Y-53612118D01*
X76006457Y-53608541D01*
X75992597Y-53603582D01*
X75979290Y-53597288D01*
X75966664Y-53589720D01*
X75954841Y-53580952D01*
X75943934Y-53571066D01*
X75934048Y-53560159D01*
X75925280Y-53548336D01*
X75917712Y-53535710D01*
X75911418Y-53522403D01*
X75906459Y-53508543D01*
X75902882Y-53494264D01*
X75900722Y-53479703D01*
X75900000Y-53465000D01*
X75900000Y-51815000D01*
X75900722Y-51800297D01*
X75902882Y-51785736D01*
X75906459Y-51771457D01*
X75911418Y-51757597D01*
X75917712Y-51744290D01*
X75925280Y-51731664D01*
X75934048Y-51719841D01*
X75943934Y-51708934D01*
X75954841Y-51699048D01*
X75966664Y-51690280D01*
X75979290Y-51682712D01*
X75992597Y-51676418D01*
X76006457Y-51671459D01*
X76020736Y-51667882D01*
X76035297Y-51665722D01*
X76050000Y-51665000D01*
X76350000Y-51665000D01*
X76364703Y-51665722D01*
G37*
G04 #@! TD.AperFunction*
G04 #@! TA.AperFunction,SMDPad,CuDef*
G36*
X76364703Y-46715722D02*
G01*
X76379264Y-46717882D01*
X76393543Y-46721459D01*
X76407403Y-46726418D01*
X76420710Y-46732712D01*
X76433336Y-46740280D01*
X76445159Y-46749048D01*
X76456066Y-46758934D01*
X76465952Y-46769841D01*
X76474720Y-46781664D01*
X76482288Y-46794290D01*
X76488582Y-46807597D01*
X76493541Y-46821457D01*
X76497118Y-46835736D01*
X76499278Y-46850297D01*
X76500000Y-46865000D01*
X76500000Y-48515000D01*
X76499278Y-48529703D01*
X76497118Y-48544264D01*
X76493541Y-48558543D01*
X76488582Y-48572403D01*
X76482288Y-48585710D01*
X76474720Y-48598336D01*
X76465952Y-48610159D01*
X76456066Y-48621066D01*
X76445159Y-48630952D01*
X76433336Y-48639720D01*
X76420710Y-48647288D01*
X76407403Y-48653582D01*
X76393543Y-48658541D01*
X76379264Y-48662118D01*
X76364703Y-48664278D01*
X76350000Y-48665000D01*
X76050000Y-48665000D01*
X76035297Y-48664278D01*
X76020736Y-48662118D01*
X76006457Y-48658541D01*
X75992597Y-48653582D01*
X75979290Y-48647288D01*
X75966664Y-48639720D01*
X75954841Y-48630952D01*
X75943934Y-48621066D01*
X75934048Y-48610159D01*
X75925280Y-48598336D01*
X75917712Y-48585710D01*
X75911418Y-48572403D01*
X75906459Y-48558543D01*
X75902882Y-48544264D01*
X75900722Y-48529703D01*
X75900000Y-48515000D01*
X75900000Y-46865000D01*
X75900722Y-46850297D01*
X75902882Y-46835736D01*
X75906459Y-46821457D01*
X75911418Y-46807597D01*
X75917712Y-46794290D01*
X75925280Y-46781664D01*
X75934048Y-46769841D01*
X75943934Y-46758934D01*
X75954841Y-46749048D01*
X75966664Y-46740280D01*
X75979290Y-46732712D01*
X75992597Y-46726418D01*
X76006457Y-46721459D01*
X76020736Y-46717882D01*
X76035297Y-46715722D01*
X76050000Y-46715000D01*
X76350000Y-46715000D01*
X76364703Y-46715722D01*
G37*
G04 #@! TD.AperFunction*
G04 #@! TA.AperFunction,SMDPad,CuDef*
G36*
X77634703Y-46715722D02*
G01*
X77649264Y-46717882D01*
X77663543Y-46721459D01*
X77677403Y-46726418D01*
X77690710Y-46732712D01*
X77703336Y-46740280D01*
X77715159Y-46749048D01*
X77726066Y-46758934D01*
X77735952Y-46769841D01*
X77744720Y-46781664D01*
X77752288Y-46794290D01*
X77758582Y-46807597D01*
X77763541Y-46821457D01*
X77767118Y-46835736D01*
X77769278Y-46850297D01*
X77770000Y-46865000D01*
X77770000Y-48515000D01*
X77769278Y-48529703D01*
X77767118Y-48544264D01*
X77763541Y-48558543D01*
X77758582Y-48572403D01*
X77752288Y-48585710D01*
X77744720Y-48598336D01*
X77735952Y-48610159D01*
X77726066Y-48621066D01*
X77715159Y-48630952D01*
X77703336Y-48639720D01*
X77690710Y-48647288D01*
X77677403Y-48653582D01*
X77663543Y-48658541D01*
X77649264Y-48662118D01*
X77634703Y-48664278D01*
X77620000Y-48665000D01*
X77320000Y-48665000D01*
X77305297Y-48664278D01*
X77290736Y-48662118D01*
X77276457Y-48658541D01*
X77262597Y-48653582D01*
X77249290Y-48647288D01*
X77236664Y-48639720D01*
X77224841Y-48630952D01*
X77213934Y-48621066D01*
X77204048Y-48610159D01*
X77195280Y-48598336D01*
X77187712Y-48585710D01*
X77181418Y-48572403D01*
X77176459Y-48558543D01*
X77172882Y-48544264D01*
X77170722Y-48529703D01*
X77170000Y-48515000D01*
X77170000Y-46865000D01*
X77170722Y-46850297D01*
X77172882Y-46835736D01*
X77176459Y-46821457D01*
X77181418Y-46807597D01*
X77187712Y-46794290D01*
X77195280Y-46781664D01*
X77204048Y-46769841D01*
X77213934Y-46758934D01*
X77224841Y-46749048D01*
X77236664Y-46740280D01*
X77249290Y-46732712D01*
X77262597Y-46726418D01*
X77276457Y-46721459D01*
X77290736Y-46717882D01*
X77305297Y-46715722D01*
X77320000Y-46715000D01*
X77620000Y-46715000D01*
X77634703Y-46715722D01*
G37*
G04 #@! TD.AperFunction*
G04 #@! TA.AperFunction,SMDPad,CuDef*
G36*
X78904703Y-46715722D02*
G01*
X78919264Y-46717882D01*
X78933543Y-46721459D01*
X78947403Y-46726418D01*
X78960710Y-46732712D01*
X78973336Y-46740280D01*
X78985159Y-46749048D01*
X78996066Y-46758934D01*
X79005952Y-46769841D01*
X79014720Y-46781664D01*
X79022288Y-46794290D01*
X79028582Y-46807597D01*
X79033541Y-46821457D01*
X79037118Y-46835736D01*
X79039278Y-46850297D01*
X79040000Y-46865000D01*
X79040000Y-48515000D01*
X79039278Y-48529703D01*
X79037118Y-48544264D01*
X79033541Y-48558543D01*
X79028582Y-48572403D01*
X79022288Y-48585710D01*
X79014720Y-48598336D01*
X79005952Y-48610159D01*
X78996066Y-48621066D01*
X78985159Y-48630952D01*
X78973336Y-48639720D01*
X78960710Y-48647288D01*
X78947403Y-48653582D01*
X78933543Y-48658541D01*
X78919264Y-48662118D01*
X78904703Y-48664278D01*
X78890000Y-48665000D01*
X78590000Y-48665000D01*
X78575297Y-48664278D01*
X78560736Y-48662118D01*
X78546457Y-48658541D01*
X78532597Y-48653582D01*
X78519290Y-48647288D01*
X78506664Y-48639720D01*
X78494841Y-48630952D01*
X78483934Y-48621066D01*
X78474048Y-48610159D01*
X78465280Y-48598336D01*
X78457712Y-48585710D01*
X78451418Y-48572403D01*
X78446459Y-48558543D01*
X78442882Y-48544264D01*
X78440722Y-48529703D01*
X78440000Y-48515000D01*
X78440000Y-46865000D01*
X78440722Y-46850297D01*
X78442882Y-46835736D01*
X78446459Y-46821457D01*
X78451418Y-46807597D01*
X78457712Y-46794290D01*
X78465280Y-46781664D01*
X78474048Y-46769841D01*
X78483934Y-46758934D01*
X78494841Y-46749048D01*
X78506664Y-46740280D01*
X78519290Y-46732712D01*
X78532597Y-46726418D01*
X78546457Y-46721459D01*
X78560736Y-46717882D01*
X78575297Y-46715722D01*
X78590000Y-46715000D01*
X78890000Y-46715000D01*
X78904703Y-46715722D01*
G37*
G04 #@! TD.AperFunction*
G04 #@! TA.AperFunction,SMDPad,CuDef*
G36*
X80174703Y-46715722D02*
G01*
X80189264Y-46717882D01*
X80203543Y-46721459D01*
X80217403Y-46726418D01*
X80230710Y-46732712D01*
X80243336Y-46740280D01*
X80255159Y-46749048D01*
X80266066Y-46758934D01*
X80275952Y-46769841D01*
X80284720Y-46781664D01*
X80292288Y-46794290D01*
X80298582Y-46807597D01*
X80303541Y-46821457D01*
X80307118Y-46835736D01*
X80309278Y-46850297D01*
X80310000Y-46865000D01*
X80310000Y-48515000D01*
X80309278Y-48529703D01*
X80307118Y-48544264D01*
X80303541Y-48558543D01*
X80298582Y-48572403D01*
X80292288Y-48585710D01*
X80284720Y-48598336D01*
X80275952Y-48610159D01*
X80266066Y-48621066D01*
X80255159Y-48630952D01*
X80243336Y-48639720D01*
X80230710Y-48647288D01*
X80217403Y-48653582D01*
X80203543Y-48658541D01*
X80189264Y-48662118D01*
X80174703Y-48664278D01*
X80160000Y-48665000D01*
X79860000Y-48665000D01*
X79845297Y-48664278D01*
X79830736Y-48662118D01*
X79816457Y-48658541D01*
X79802597Y-48653582D01*
X79789290Y-48647288D01*
X79776664Y-48639720D01*
X79764841Y-48630952D01*
X79753934Y-48621066D01*
X79744048Y-48610159D01*
X79735280Y-48598336D01*
X79727712Y-48585710D01*
X79721418Y-48572403D01*
X79716459Y-48558543D01*
X79712882Y-48544264D01*
X79710722Y-48529703D01*
X79710000Y-48515000D01*
X79710000Y-46865000D01*
X79710722Y-46850297D01*
X79712882Y-46835736D01*
X79716459Y-46821457D01*
X79721418Y-46807597D01*
X79727712Y-46794290D01*
X79735280Y-46781664D01*
X79744048Y-46769841D01*
X79753934Y-46758934D01*
X79764841Y-46749048D01*
X79776664Y-46740280D01*
X79789290Y-46732712D01*
X79802597Y-46726418D01*
X79816457Y-46721459D01*
X79830736Y-46717882D01*
X79845297Y-46715722D01*
X79860000Y-46715000D01*
X80160000Y-46715000D01*
X80174703Y-46715722D01*
G37*
G04 #@! TD.AperFunction*
G04 #@! TA.AperFunction,SMDPad,CuDef*
G36*
X81444703Y-46715722D02*
G01*
X81459264Y-46717882D01*
X81473543Y-46721459D01*
X81487403Y-46726418D01*
X81500710Y-46732712D01*
X81513336Y-46740280D01*
X81525159Y-46749048D01*
X81536066Y-46758934D01*
X81545952Y-46769841D01*
X81554720Y-46781664D01*
X81562288Y-46794290D01*
X81568582Y-46807597D01*
X81573541Y-46821457D01*
X81577118Y-46835736D01*
X81579278Y-46850297D01*
X81580000Y-46865000D01*
X81580000Y-48515000D01*
X81579278Y-48529703D01*
X81577118Y-48544264D01*
X81573541Y-48558543D01*
X81568582Y-48572403D01*
X81562288Y-48585710D01*
X81554720Y-48598336D01*
X81545952Y-48610159D01*
X81536066Y-48621066D01*
X81525159Y-48630952D01*
X81513336Y-48639720D01*
X81500710Y-48647288D01*
X81487403Y-48653582D01*
X81473543Y-48658541D01*
X81459264Y-48662118D01*
X81444703Y-48664278D01*
X81430000Y-48665000D01*
X81130000Y-48665000D01*
X81115297Y-48664278D01*
X81100736Y-48662118D01*
X81086457Y-48658541D01*
X81072597Y-48653582D01*
X81059290Y-48647288D01*
X81046664Y-48639720D01*
X81034841Y-48630952D01*
X81023934Y-48621066D01*
X81014048Y-48610159D01*
X81005280Y-48598336D01*
X80997712Y-48585710D01*
X80991418Y-48572403D01*
X80986459Y-48558543D01*
X80982882Y-48544264D01*
X80980722Y-48529703D01*
X80980000Y-48515000D01*
X80980000Y-46865000D01*
X80980722Y-46850297D01*
X80982882Y-46835736D01*
X80986459Y-46821457D01*
X80991418Y-46807597D01*
X80997712Y-46794290D01*
X81005280Y-46781664D01*
X81014048Y-46769841D01*
X81023934Y-46758934D01*
X81034841Y-46749048D01*
X81046664Y-46740280D01*
X81059290Y-46732712D01*
X81072597Y-46726418D01*
X81086457Y-46721459D01*
X81100736Y-46717882D01*
X81115297Y-46715722D01*
X81130000Y-46715000D01*
X81430000Y-46715000D01*
X81444703Y-46715722D01*
G37*
G04 #@! TD.AperFunction*
G04 #@! TA.AperFunction,SMDPad,CuDef*
G36*
X82714703Y-46715722D02*
G01*
X82729264Y-46717882D01*
X82743543Y-46721459D01*
X82757403Y-46726418D01*
X82770710Y-46732712D01*
X82783336Y-46740280D01*
X82795159Y-46749048D01*
X82806066Y-46758934D01*
X82815952Y-46769841D01*
X82824720Y-46781664D01*
X82832288Y-46794290D01*
X82838582Y-46807597D01*
X82843541Y-46821457D01*
X82847118Y-46835736D01*
X82849278Y-46850297D01*
X82850000Y-46865000D01*
X82850000Y-48515000D01*
X82849278Y-48529703D01*
X82847118Y-48544264D01*
X82843541Y-48558543D01*
X82838582Y-48572403D01*
X82832288Y-48585710D01*
X82824720Y-48598336D01*
X82815952Y-48610159D01*
X82806066Y-48621066D01*
X82795159Y-48630952D01*
X82783336Y-48639720D01*
X82770710Y-48647288D01*
X82757403Y-48653582D01*
X82743543Y-48658541D01*
X82729264Y-48662118D01*
X82714703Y-48664278D01*
X82700000Y-48665000D01*
X82400000Y-48665000D01*
X82385297Y-48664278D01*
X82370736Y-48662118D01*
X82356457Y-48658541D01*
X82342597Y-48653582D01*
X82329290Y-48647288D01*
X82316664Y-48639720D01*
X82304841Y-48630952D01*
X82293934Y-48621066D01*
X82284048Y-48610159D01*
X82275280Y-48598336D01*
X82267712Y-48585710D01*
X82261418Y-48572403D01*
X82256459Y-48558543D01*
X82252882Y-48544264D01*
X82250722Y-48529703D01*
X82250000Y-48515000D01*
X82250000Y-46865000D01*
X82250722Y-46850297D01*
X82252882Y-46835736D01*
X82256459Y-46821457D01*
X82261418Y-46807597D01*
X82267712Y-46794290D01*
X82275280Y-46781664D01*
X82284048Y-46769841D01*
X82293934Y-46758934D01*
X82304841Y-46749048D01*
X82316664Y-46740280D01*
X82329290Y-46732712D01*
X82342597Y-46726418D01*
X82356457Y-46721459D01*
X82370736Y-46717882D01*
X82385297Y-46715722D01*
X82400000Y-46715000D01*
X82700000Y-46715000D01*
X82714703Y-46715722D01*
G37*
G04 #@! TD.AperFunction*
G04 #@! TA.AperFunction,SMDPad,CuDef*
G36*
X83984703Y-46715722D02*
G01*
X83999264Y-46717882D01*
X84013543Y-46721459D01*
X84027403Y-46726418D01*
X84040710Y-46732712D01*
X84053336Y-46740280D01*
X84065159Y-46749048D01*
X84076066Y-46758934D01*
X84085952Y-46769841D01*
X84094720Y-46781664D01*
X84102288Y-46794290D01*
X84108582Y-46807597D01*
X84113541Y-46821457D01*
X84117118Y-46835736D01*
X84119278Y-46850297D01*
X84120000Y-46865000D01*
X84120000Y-48515000D01*
X84119278Y-48529703D01*
X84117118Y-48544264D01*
X84113541Y-48558543D01*
X84108582Y-48572403D01*
X84102288Y-48585710D01*
X84094720Y-48598336D01*
X84085952Y-48610159D01*
X84076066Y-48621066D01*
X84065159Y-48630952D01*
X84053336Y-48639720D01*
X84040710Y-48647288D01*
X84027403Y-48653582D01*
X84013543Y-48658541D01*
X83999264Y-48662118D01*
X83984703Y-48664278D01*
X83970000Y-48665000D01*
X83670000Y-48665000D01*
X83655297Y-48664278D01*
X83640736Y-48662118D01*
X83626457Y-48658541D01*
X83612597Y-48653582D01*
X83599290Y-48647288D01*
X83586664Y-48639720D01*
X83574841Y-48630952D01*
X83563934Y-48621066D01*
X83554048Y-48610159D01*
X83545280Y-48598336D01*
X83537712Y-48585710D01*
X83531418Y-48572403D01*
X83526459Y-48558543D01*
X83522882Y-48544264D01*
X83520722Y-48529703D01*
X83520000Y-48515000D01*
X83520000Y-46865000D01*
X83520722Y-46850297D01*
X83522882Y-46835736D01*
X83526459Y-46821457D01*
X83531418Y-46807597D01*
X83537712Y-46794290D01*
X83545280Y-46781664D01*
X83554048Y-46769841D01*
X83563934Y-46758934D01*
X83574841Y-46749048D01*
X83586664Y-46740280D01*
X83599290Y-46732712D01*
X83612597Y-46726418D01*
X83626457Y-46721459D01*
X83640736Y-46717882D01*
X83655297Y-46715722D01*
X83670000Y-46715000D01*
X83970000Y-46715000D01*
X83984703Y-46715722D01*
G37*
G04 #@! TD.AperFunction*
D14*
X84580000Y-58420000D03*
X84580000Y-60420000D03*
X84580000Y-62420000D03*
X84580000Y-64420000D03*
X84580000Y-66420000D03*
X84580000Y-68420000D03*
X84580000Y-70420000D03*
X84580000Y-72420000D03*
X68580000Y-72420000D03*
X68580000Y-70420000D03*
X68580000Y-68420000D03*
X68580000Y-66420000D03*
X68580000Y-64420000D03*
X68580000Y-62420000D03*
X68580000Y-60420000D03*
X68580000Y-58420000D03*
D12*
X89535000Y-76200000D03*
D15*
X83185000Y-70485000D03*
X69850000Y-72390000D03*
X69850000Y-58420000D03*
X56515000Y-53340000D03*
X67310000Y-76327000D03*
X71882000Y-55626000D03*
X86042500Y-53086000D03*
X83820000Y-46355000D03*
X82595720Y-64414400D03*
X78740000Y-55118000D03*
X78740000Y-49530000D03*
X77851000Y-74676000D03*
X77851000Y-50038000D03*
X75057000Y-54483000D03*
X82550000Y-46355000D03*
X82550000Y-62357000D03*
X81280000Y-46355000D03*
X81280000Y-62357000D03*
X80010000Y-46355000D03*
D16*
X84580000Y-70420000D02*
X83250000Y-70420000D01*
X83250000Y-70420000D02*
X83185000Y-70485000D01*
X68580000Y-72420000D02*
X69820000Y-72420000D01*
X69820000Y-72420000D02*
X69850000Y-72390000D01*
X68580000Y-58420000D02*
X69850000Y-58420000D01*
X56515000Y-48514000D02*
X56515000Y-53340000D01*
X68489500Y-76327000D02*
X67310000Y-76327000D01*
X71882000Y-53340000D02*
X71882000Y-55626000D01*
X83185000Y-71050685D02*
X83185000Y-70485000D01*
X84291500Y-75352000D02*
X83185000Y-74245500D01*
X83185000Y-74245500D02*
X83185000Y-71050685D01*
X84291500Y-76327000D02*
X84291500Y-75352000D01*
X85055000Y-52640000D02*
X86042500Y-51652500D01*
X83820000Y-52640000D02*
X85055000Y-52640000D01*
X86042500Y-51652500D02*
X86042500Y-53086000D01*
X83820000Y-47690000D02*
X83820000Y-46355000D01*
X81316500Y-75352000D02*
X81316500Y-76327000D01*
X85055000Y-47690000D02*
X86042500Y-48677500D01*
X83820000Y-47690000D02*
X85055000Y-47690000D01*
X84580000Y-64420000D02*
X82601320Y-64420000D01*
X82601320Y-64420000D02*
X82595720Y-64414400D01*
X82595720Y-64414400D02*
X81316500Y-65693620D01*
X81316500Y-65693620D02*
X81316500Y-66183180D01*
X81316500Y-66072815D02*
X81316500Y-66183180D01*
X81316500Y-66183180D02*
X81316500Y-75352000D01*
X89535000Y-66040000D02*
X87433990Y-63938990D01*
X87433990Y-59759010D02*
X87433990Y-57717400D01*
X87433990Y-59759010D02*
X87433990Y-59495400D01*
X87433990Y-63938990D02*
X87433990Y-59759010D01*
X87433990Y-57717400D02*
X85480610Y-55764020D01*
X85480610Y-55764020D02*
X79386020Y-55764020D01*
X79386020Y-55764020D02*
X78740000Y-55118000D01*
X78740000Y-49530000D02*
X78740000Y-47690000D01*
X77695010Y-48990010D02*
X77470000Y-48765000D01*
X77470000Y-48765000D02*
X77470000Y-47690000D01*
X77851000Y-76290500D02*
X77814500Y-76327000D01*
X77851000Y-74676000D02*
X77851000Y-76290500D01*
X77695010Y-48990010D02*
X77695010Y-49882010D01*
X77695010Y-49882010D02*
X77851000Y-50038000D01*
X89535000Y-60960000D02*
X87884000Y-59309000D01*
X87884000Y-59309000D02*
X87884000Y-57531000D01*
X87884000Y-57531000D02*
X85667010Y-55314010D01*
X78740000Y-53715000D02*
X78740000Y-52640000D01*
X80339010Y-55314010D02*
X78740000Y-53715000D01*
X85667010Y-55314010D02*
X80339010Y-55314010D01*
X80010000Y-53715000D02*
X80010000Y-52640000D01*
X85979000Y-54864000D02*
X81159000Y-54864000D01*
X81159000Y-54864000D02*
X80010000Y-53715000D01*
X89535000Y-58420000D02*
X85979000Y-54864000D01*
X89535000Y-55880000D02*
X89535000Y-55079002D01*
X81650710Y-53010710D02*
X81650710Y-53456710D01*
X81280000Y-52640000D02*
X81650710Y-53010710D01*
X81280000Y-53715000D02*
X81280000Y-52640000D01*
X81955019Y-54390019D02*
X81280000Y-53715000D01*
X88045019Y-54390019D02*
X81955019Y-54390019D01*
X89535000Y-55880000D02*
X88045019Y-54390019D01*
X88332919Y-53340000D02*
X89535000Y-53340000D01*
X82550000Y-53715000D02*
X82775010Y-53940010D01*
X87732909Y-53940010D02*
X88332919Y-53340000D01*
X82775010Y-53940010D02*
X87732909Y-53940010D01*
X82550000Y-52640000D02*
X82550000Y-53715000D01*
X70442000Y-48260000D02*
X69342000Y-48260000D01*
X70517001Y-48335001D02*
X70442000Y-48260000D01*
X70517001Y-51213001D02*
X70517001Y-48335001D01*
X71279001Y-51975001D02*
X70517001Y-51213001D01*
X75535001Y-51975001D02*
X71279001Y-51975001D01*
X76200000Y-52640000D02*
X75535001Y-51975001D01*
X76200000Y-53715000D02*
X76200000Y-52640000D01*
X76200000Y-55300000D02*
X76200000Y-53715000D01*
X69080000Y-62420000D02*
X76200000Y-55300000D01*
X68580000Y-62420000D02*
X69080000Y-62420000D01*
X69080000Y-64420000D02*
X68580000Y-64420000D01*
X77470000Y-56030000D02*
X69080000Y-64420000D01*
X77470000Y-52640000D02*
X77470000Y-56030000D01*
X68492001Y-51649999D02*
X69342000Y-50800000D01*
X67254990Y-64344990D02*
X67254990Y-52887010D01*
X67254990Y-52887010D02*
X68492001Y-51649999D01*
X67330000Y-64420000D02*
X67254990Y-64344990D01*
X68580000Y-64420000D02*
X67330000Y-64420000D01*
X69495000Y-60420000D02*
X68580000Y-60420000D01*
X74992000Y-47690000D02*
X71882000Y-50800000D01*
X76200000Y-47690000D02*
X74992000Y-47690000D01*
X68580000Y-60420000D02*
X69080000Y-60420000D01*
X75017000Y-54483000D02*
X75057000Y-54483000D01*
X69080000Y-60420000D02*
X75017000Y-54483000D01*
X82550000Y-47690000D02*
X82550000Y-46355000D01*
X84517000Y-62357000D02*
X84580000Y-62420000D01*
X82550000Y-62357000D02*
X84517000Y-62357000D01*
X81280000Y-47690000D02*
X81280000Y-46355000D01*
X77217000Y-66420000D02*
X81280000Y-62357000D01*
X68580000Y-66420000D02*
X77217000Y-66420000D01*
X88660000Y-72607500D02*
X89535000Y-72607500D01*
X81280000Y-62357000D02*
X82296000Y-63373000D01*
X82296000Y-63373000D02*
X85979000Y-63373000D01*
X86868000Y-64262000D02*
X86868000Y-70815500D01*
X86868000Y-70815500D02*
X88660000Y-72607500D01*
X85979000Y-63373000D02*
X86868000Y-64262000D01*
X80010000Y-47690000D02*
X80010000Y-46355000D01*
X74027000Y-76327000D02*
X71464500Y-76327000D01*
X74839500Y-76327000D02*
X74027000Y-76327000D01*
X84580000Y-73170000D02*
X87610000Y-76200000D01*
X88435000Y-76200000D02*
X89535000Y-76200000D01*
X87610000Y-76200000D02*
X88435000Y-76200000D01*
X84580000Y-72420000D02*
X84580000Y-73170000D01*
D17*
G36*
X91948000Y-77978000D02*
G01*
X46482000Y-77978000D01*
X46482000Y-76956000D01*
X54076928Y-76956000D01*
X54089188Y-77080482D01*
X54125498Y-77200180D01*
X54184463Y-77310494D01*
X54263815Y-77407185D01*
X54360506Y-77486537D01*
X54470820Y-77545502D01*
X54590518Y-77581812D01*
X54715000Y-77594072D01*
X56229250Y-77591000D01*
X56388000Y-77432250D01*
X56388000Y-73533000D01*
X56642000Y-73533000D01*
X56642000Y-77432250D01*
X56800750Y-77591000D01*
X58315000Y-77594072D01*
X58439482Y-77581812D01*
X58559180Y-77545502D01*
X58669494Y-77486537D01*
X58766185Y-77407185D01*
X58845537Y-77310494D01*
X58904502Y-77200180D01*
X58940812Y-77080482D01*
X58953072Y-76956000D01*
X58952385Y-76225061D01*
X66275000Y-76225061D01*
X66275000Y-76428939D01*
X66314774Y-76628898D01*
X66392795Y-76817256D01*
X66506063Y-76986774D01*
X66650226Y-77130937D01*
X66819744Y-77244205D01*
X67008102Y-77322226D01*
X67208061Y-77362000D01*
X67244024Y-77362000D01*
X67288595Y-77445386D01*
X67399038Y-77579962D01*
X67533614Y-77690405D01*
X67687150Y-77772472D01*
X67853746Y-77823008D01*
X68027000Y-77840072D01*
X68952000Y-77840072D01*
X69125254Y-77823008D01*
X69291850Y-77772472D01*
X69445386Y-77690405D01*
X69579962Y-77579962D01*
X69690405Y-77445386D01*
X69772472Y-77291850D01*
X69823008Y-77125254D01*
X69840072Y-76952000D01*
X69840072Y-75702000D01*
X70113928Y-75702000D01*
X70113928Y-76952000D01*
X70130992Y-77125254D01*
X70181528Y-77291850D01*
X70263595Y-77445386D01*
X70374038Y-77579962D01*
X70508614Y-77690405D01*
X70662150Y-77772472D01*
X70828746Y-77823008D01*
X71002000Y-77840072D01*
X71927000Y-77840072D01*
X72100254Y-77823008D01*
X72266850Y-77772472D01*
X72420386Y-77690405D01*
X72554962Y-77579962D01*
X72665405Y-77445386D01*
X72747472Y-77291850D01*
X72798008Y-77125254D01*
X72801776Y-77087000D01*
X73502224Y-77087000D01*
X73505992Y-77125254D01*
X73556528Y-77291850D01*
X73638595Y-77445386D01*
X73749038Y-77579962D01*
X73883614Y-77690405D01*
X74037150Y-77772472D01*
X74203746Y-77823008D01*
X74377000Y-77840072D01*
X75302000Y-77840072D01*
X75475254Y-77823008D01*
X75641850Y-77772472D01*
X75795386Y-77690405D01*
X75929962Y-77579962D01*
X76040405Y-77445386D01*
X76122472Y-77291850D01*
X76173008Y-77125254D01*
X76190072Y-76952000D01*
X76190072Y-75702000D01*
X76463928Y-75702000D01*
X76463928Y-76952000D01*
X76480992Y-77125254D01*
X76531528Y-77291850D01*
X76613595Y-77445386D01*
X76724038Y-77579962D01*
X76858614Y-77690405D01*
X77012150Y-77772472D01*
X77178746Y-77823008D01*
X77352000Y-77840072D01*
X78277000Y-77840072D01*
X78450254Y-77823008D01*
X78616850Y-77772472D01*
X78770386Y-77690405D01*
X78904962Y-77579962D01*
X79015405Y-77445386D01*
X79097472Y-77291850D01*
X79124727Y-77202000D01*
X79965928Y-77202000D01*
X79978188Y-77326482D01*
X80014498Y-77446180D01*
X80073463Y-77556494D01*
X80152815Y-77653185D01*
X80249506Y-77732537D01*
X80359820Y-77791502D01*
X80479518Y-77827812D01*
X80604000Y-77840072D01*
X81030750Y-77837000D01*
X81189500Y-77678250D01*
X81189500Y-76454000D01*
X81443500Y-76454000D01*
X81443500Y-77678250D01*
X81602250Y-77837000D01*
X82029000Y-77840072D01*
X82153482Y-77827812D01*
X82273180Y-77791502D01*
X82383494Y-77732537D01*
X82480185Y-77653185D01*
X82559537Y-77556494D01*
X82618502Y-77446180D01*
X82654812Y-77326482D01*
X82667072Y-77202000D01*
X82664000Y-76612750D01*
X82505250Y-76454000D01*
X81443500Y-76454000D01*
X81189500Y-76454000D01*
X80127750Y-76454000D01*
X79969000Y-76612750D01*
X79965928Y-77202000D01*
X79124727Y-77202000D01*
X79148008Y-77125254D01*
X79165072Y-76952000D01*
X79165072Y-75702000D01*
X79148008Y-75528746D01*
X79124728Y-75452000D01*
X79965928Y-75452000D01*
X79969000Y-76041250D01*
X80127750Y-76200000D01*
X81189500Y-76200000D01*
X81189500Y-74975750D01*
X81443500Y-74975750D01*
X81443500Y-76200000D01*
X82505250Y-76200000D01*
X82664000Y-76041250D01*
X82667072Y-75452000D01*
X82654812Y-75327518D01*
X82618502Y-75207820D01*
X82559537Y-75097506D01*
X82480185Y-75000815D01*
X82383494Y-74921463D01*
X82273180Y-74862498D01*
X82153482Y-74826188D01*
X82029000Y-74813928D01*
X81602250Y-74817000D01*
X81443500Y-74975750D01*
X81189500Y-74975750D01*
X81030750Y-74817000D01*
X80604000Y-74813928D01*
X80479518Y-74826188D01*
X80359820Y-74862498D01*
X80249506Y-74921463D01*
X80152815Y-75000815D01*
X80073463Y-75097506D01*
X80014498Y-75207820D01*
X79978188Y-75327518D01*
X79965928Y-75452000D01*
X79124728Y-75452000D01*
X79097472Y-75362150D01*
X79015405Y-75208614D01*
X78904962Y-75074038D01*
X78831407Y-75013673D01*
X78846226Y-74977898D01*
X78886000Y-74777939D01*
X78886000Y-74574061D01*
X78846226Y-74374102D01*
X78768205Y-74185744D01*
X78654937Y-74016226D01*
X78510774Y-73872063D01*
X78341256Y-73758795D01*
X78152898Y-73680774D01*
X77952939Y-73641000D01*
X77749061Y-73641000D01*
X77549102Y-73680774D01*
X77360744Y-73758795D01*
X77191226Y-73872063D01*
X77047063Y-74016226D01*
X76933795Y-74185744D01*
X76855774Y-74374102D01*
X76816000Y-74574061D01*
X76816000Y-74777939D01*
X76853727Y-74967606D01*
X76724038Y-75074038D01*
X76613595Y-75208614D01*
X76531528Y-75362150D01*
X76480992Y-75528746D01*
X76463928Y-75702000D01*
X76190072Y-75702000D01*
X76173008Y-75528746D01*
X76122472Y-75362150D01*
X76040405Y-75208614D01*
X75929962Y-75074038D01*
X75795386Y-74963595D01*
X75641850Y-74881528D01*
X75475254Y-74830992D01*
X75302000Y-74813928D01*
X74377000Y-74813928D01*
X74203746Y-74830992D01*
X74037150Y-74881528D01*
X73883614Y-74963595D01*
X73749038Y-75074038D01*
X73638595Y-75208614D01*
X73556528Y-75362150D01*
X73505992Y-75528746D01*
X73502224Y-75567000D01*
X72801776Y-75567000D01*
X72798008Y-75528746D01*
X72747472Y-75362150D01*
X72665405Y-75208614D01*
X72554962Y-75074038D01*
X72420386Y-74963595D01*
X72266850Y-74881528D01*
X72100254Y-74830992D01*
X71927000Y-74813928D01*
X71002000Y-74813928D01*
X70828746Y-74830992D01*
X70662150Y-74881528D01*
X70508614Y-74963595D01*
X70374038Y-75074038D01*
X70263595Y-75208614D01*
X70181528Y-75362150D01*
X70130992Y-75528746D01*
X70113928Y-75702000D01*
X69840072Y-75702000D01*
X69823008Y-75528746D01*
X69772472Y-75362150D01*
X69690405Y-75208614D01*
X69579962Y-75074038D01*
X69445386Y-74963595D01*
X69291850Y-74881528D01*
X69125254Y-74830992D01*
X68952000Y-74813928D01*
X68027000Y-74813928D01*
X67853746Y-74830992D01*
X67687150Y-74881528D01*
X67533614Y-74963595D01*
X67399038Y-75074038D01*
X67288595Y-75208614D01*
X67244024Y-75292000D01*
X67208061Y-75292000D01*
X67008102Y-75331774D01*
X66819744Y-75409795D01*
X66650226Y-75523063D01*
X66506063Y-75667226D01*
X66392795Y-75836744D01*
X66314774Y-76025102D01*
X66275000Y-76225061D01*
X58952385Y-76225061D01*
X58950000Y-73691750D01*
X58791250Y-73533000D01*
X56642000Y-73533000D01*
X56388000Y-73533000D01*
X54238750Y-73533000D01*
X54080000Y-73691750D01*
X54076928Y-76956000D01*
X46482000Y-76956000D01*
X46482000Y-69856000D01*
X54076928Y-69856000D01*
X54080000Y-73120250D01*
X54238750Y-73279000D01*
X56388000Y-73279000D01*
X56388000Y-69379750D01*
X56642000Y-69379750D01*
X56642000Y-73279000D01*
X58791250Y-73279000D01*
X58950000Y-73120250D01*
X58953072Y-69856000D01*
X58940812Y-69731518D01*
X58904502Y-69611820D01*
X58845537Y-69501506D01*
X58766185Y-69404815D01*
X58669494Y-69325463D01*
X58559180Y-69266498D01*
X58439482Y-69230188D01*
X58315000Y-69217928D01*
X56800750Y-69221000D01*
X56642000Y-69379750D01*
X56388000Y-69379750D01*
X56229250Y-69221000D01*
X54715000Y-69217928D01*
X54590518Y-69230188D01*
X54470820Y-69266498D01*
X54360506Y-69325463D01*
X54263815Y-69404815D01*
X54184463Y-69501506D01*
X54125498Y-69611820D01*
X54089188Y-69731518D01*
X54076928Y-69856000D01*
X46482000Y-69856000D01*
X46482000Y-44964000D01*
X54076928Y-44964000D01*
X54076928Y-52064000D01*
X54089188Y-52188482D01*
X54125498Y-52308180D01*
X54184463Y-52418494D01*
X54263815Y-52515185D01*
X54360506Y-52594537D01*
X54470820Y-52653502D01*
X54590518Y-52689812D01*
X54715000Y-52702072D01*
X55696466Y-52702072D01*
X55597795Y-52849744D01*
X55519774Y-53038102D01*
X55480000Y-53238061D01*
X55480000Y-53441939D01*
X55519774Y-53641898D01*
X55597795Y-53830256D01*
X55711063Y-53999774D01*
X55855226Y-54143937D01*
X56024744Y-54257205D01*
X56213102Y-54335226D01*
X56413061Y-54375000D01*
X56616939Y-54375000D01*
X56816898Y-54335226D01*
X57005256Y-54257205D01*
X57174774Y-54143937D01*
X57318937Y-53999774D01*
X57432205Y-53830256D01*
X57510226Y-53641898D01*
X57550000Y-53441939D01*
X57550000Y-53238061D01*
X57510226Y-53038102D01*
X57447642Y-52887010D01*
X66491314Y-52887010D01*
X66494991Y-52924342D01*
X66494990Y-64307668D01*
X66491314Y-64344990D01*
X66494990Y-64382312D01*
X66494990Y-64382322D01*
X66505987Y-64493975D01*
X66528741Y-64568985D01*
X66549444Y-64637236D01*
X66620016Y-64769266D01*
X66646881Y-64802001D01*
X66714989Y-64884991D01*
X66743993Y-64908794D01*
X66766196Y-64930997D01*
X66789999Y-64960001D01*
X66905724Y-65054974D01*
X67037753Y-65125546D01*
X67181014Y-65169003D01*
X67230398Y-65173867D01*
X67273551Y-65226449D01*
X67446377Y-65368284D01*
X67543132Y-65420000D01*
X67446377Y-65471716D01*
X67273551Y-65613551D01*
X67131716Y-65786377D01*
X67026324Y-65983553D01*
X66961423Y-66197501D01*
X66939509Y-66420000D01*
X66961423Y-66642499D01*
X67026324Y-66856447D01*
X67131716Y-67053623D01*
X67273551Y-67226449D01*
X67446377Y-67368284D01*
X67543132Y-67420000D01*
X67446377Y-67471716D01*
X67273551Y-67613551D01*
X67131716Y-67786377D01*
X67026324Y-67983553D01*
X66961423Y-68197501D01*
X66939509Y-68420000D01*
X66961423Y-68642499D01*
X67026324Y-68856447D01*
X67131716Y-69053623D01*
X67273551Y-69226449D01*
X67446377Y-69368284D01*
X67543132Y-69420000D01*
X67446377Y-69471716D01*
X67273551Y-69613551D01*
X67131716Y-69786377D01*
X67026324Y-69983553D01*
X66961423Y-70197501D01*
X66939509Y-70420000D01*
X66961423Y-70642499D01*
X67026324Y-70856447D01*
X67131716Y-71053623D01*
X67273551Y-71226449D01*
X67446377Y-71368284D01*
X67543132Y-71420000D01*
X67446377Y-71471716D01*
X67273551Y-71613551D01*
X67131716Y-71786377D01*
X67026324Y-71983553D01*
X66961423Y-72197501D01*
X66939509Y-72420000D01*
X66961423Y-72642499D01*
X67026324Y-72856447D01*
X67131716Y-73053623D01*
X67273551Y-73226449D01*
X67446377Y-73368284D01*
X67643553Y-73473676D01*
X67857501Y-73538577D01*
X68024248Y-73555000D01*
X69135752Y-73555000D01*
X69302499Y-73538577D01*
X69516447Y-73473676D01*
X69645632Y-73404626D01*
X69748061Y-73425000D01*
X69951939Y-73425000D01*
X70151898Y-73385226D01*
X70340256Y-73307205D01*
X70509774Y-73193937D01*
X70653937Y-73049774D01*
X70767205Y-72880256D01*
X70845226Y-72691898D01*
X70885000Y-72491939D01*
X70885000Y-72288061D01*
X70845226Y-72088102D01*
X70767205Y-71899744D01*
X70653937Y-71730226D01*
X70509774Y-71586063D01*
X70340256Y-71472795D01*
X70151898Y-71394774D01*
X69951939Y-71355000D01*
X69748061Y-71355000D01*
X69723971Y-71359792D01*
X69886449Y-71226449D01*
X70028284Y-71053623D01*
X70133676Y-70856447D01*
X70198577Y-70642499D01*
X70220491Y-70420000D01*
X70198577Y-70197501D01*
X70133676Y-69983553D01*
X70028284Y-69786377D01*
X69886449Y-69613551D01*
X69713623Y-69471716D01*
X69616868Y-69420000D01*
X69713623Y-69368284D01*
X69886449Y-69226449D01*
X70028284Y-69053623D01*
X70133676Y-68856447D01*
X70198577Y-68642499D01*
X70220491Y-68420000D01*
X70198577Y-68197501D01*
X70133676Y-67983553D01*
X70028284Y-67786377D01*
X69886449Y-67613551D01*
X69713623Y-67471716D01*
X69616868Y-67420000D01*
X69713623Y-67368284D01*
X69886449Y-67226449D01*
X69924569Y-67180000D01*
X77179678Y-67180000D01*
X77217000Y-67183676D01*
X77254322Y-67180000D01*
X77254333Y-67180000D01*
X77365986Y-67169003D01*
X77509247Y-67125546D01*
X77641276Y-67054974D01*
X77757001Y-66960001D01*
X77780804Y-66930997D01*
X81280000Y-63431802D01*
X81732200Y-63884002D01*
X81755999Y-63913001D01*
X81784997Y-63936799D01*
X81871723Y-64007974D01*
X82003753Y-64078546D01*
X82147014Y-64122003D01*
X82258667Y-64133000D01*
X82258677Y-64133000D01*
X82296000Y-64136676D01*
X82333322Y-64133000D01*
X82996612Y-64133000D01*
X83112046Y-64293000D01*
X84453000Y-64293000D01*
X84453000Y-64273000D01*
X84707000Y-64273000D01*
X84707000Y-64293000D01*
X84727000Y-64293000D01*
X84727000Y-64547000D01*
X84707000Y-64547000D01*
X84707000Y-64567000D01*
X84453000Y-64567000D01*
X84453000Y-64547000D01*
X83112046Y-64547000D01*
X82985881Y-64721874D01*
X83065724Y-64944976D01*
X83187631Y-65132764D01*
X83343831Y-65293161D01*
X83528322Y-65420003D01*
X83536527Y-65423530D01*
X83446377Y-65471716D01*
X83273551Y-65613551D01*
X83131716Y-65786377D01*
X83026324Y-65983553D01*
X82961423Y-66197501D01*
X82939509Y-66420000D01*
X82961423Y-66642499D01*
X83026324Y-66856447D01*
X83131716Y-67053623D01*
X83273551Y-67226449D01*
X83446377Y-67368284D01*
X83543132Y-67420000D01*
X83446377Y-67471716D01*
X83273551Y-67613551D01*
X83131716Y-67786377D01*
X83026324Y-67983553D01*
X82961423Y-68197501D01*
X82939509Y-68420000D01*
X82961423Y-68642499D01*
X83026324Y-68856447D01*
X83131716Y-69053623D01*
X83273551Y-69226449D01*
X83446377Y-69368284D01*
X83543132Y-69420000D01*
X83446377Y-69471716D01*
X83436571Y-69479763D01*
X83286939Y-69450000D01*
X83083061Y-69450000D01*
X82883102Y-69489774D01*
X82694744Y-69567795D01*
X82525226Y-69681063D01*
X82381063Y-69825226D01*
X82267795Y-69994744D01*
X82189774Y-70183102D01*
X82150000Y-70383061D01*
X82150000Y-70586939D01*
X82189774Y-70786898D01*
X82267795Y-70975256D01*
X82381063Y-71144774D01*
X82425001Y-71188712D01*
X82425000Y-74208177D01*
X82421324Y-74245500D01*
X82425000Y-74282822D01*
X82425000Y-74282832D01*
X82435997Y-74394485D01*
X82476199Y-74527014D01*
X82479454Y-74537746D01*
X82550026Y-74669776D01*
X82584620Y-74711928D01*
X82644999Y-74785501D01*
X82674002Y-74809304D01*
X83084575Y-75219876D01*
X83008528Y-75362150D01*
X82957992Y-75528746D01*
X82940928Y-75702000D01*
X82940928Y-76952000D01*
X82957992Y-77125254D01*
X83008528Y-77291850D01*
X83090595Y-77445386D01*
X83201038Y-77579962D01*
X83335614Y-77690405D01*
X83489150Y-77772472D01*
X83655746Y-77823008D01*
X83829000Y-77840072D01*
X84754000Y-77840072D01*
X84927254Y-77823008D01*
X85093850Y-77772472D01*
X85247386Y-77690405D01*
X85381962Y-77579962D01*
X85492405Y-77445386D01*
X85574472Y-77291850D01*
X85625008Y-77125254D01*
X85642072Y-76952000D01*
X85642072Y-75702000D01*
X85625008Y-75528746D01*
X85574472Y-75362150D01*
X85492405Y-75208614D01*
X85381962Y-75074038D01*
X85247386Y-74963595D01*
X85093850Y-74881528D01*
X84927254Y-74830992D01*
X84840039Y-74822402D01*
X84831501Y-74811999D01*
X84802503Y-74788201D01*
X83945000Y-73930699D01*
X83945000Y-73594227D01*
X83945026Y-73594276D01*
X83983372Y-73641000D01*
X84040000Y-73710001D01*
X84068998Y-73733799D01*
X87046201Y-76711003D01*
X87069999Y-76740001D01*
X87098997Y-76763799D01*
X87185723Y-76834974D01*
X87317753Y-76905546D01*
X87461014Y-76949003D01*
X87572667Y-76960000D01*
X87572676Y-76960000D01*
X87609999Y-76963676D01*
X87647322Y-76960000D01*
X88046928Y-76960000D01*
X88046928Y-77050000D01*
X88059188Y-77174482D01*
X88095498Y-77294180D01*
X88154463Y-77404494D01*
X88233815Y-77501185D01*
X88330506Y-77580537D01*
X88440820Y-77639502D01*
X88560518Y-77675812D01*
X88685000Y-77688072D01*
X90385000Y-77688072D01*
X90509482Y-77675812D01*
X90629180Y-77639502D01*
X90739494Y-77580537D01*
X90836185Y-77501185D01*
X90915537Y-77404494D01*
X90974502Y-77294180D01*
X91010812Y-77174482D01*
X91023072Y-77050000D01*
X91023072Y-75350000D01*
X91010812Y-75225518D01*
X90974502Y-75105820D01*
X90915537Y-74995506D01*
X90836185Y-74898815D01*
X90739494Y-74819463D01*
X90629180Y-74760498D01*
X90509482Y-74724188D01*
X90385000Y-74711928D01*
X88685000Y-74711928D01*
X88560518Y-74724188D01*
X88440820Y-74760498D01*
X88330506Y-74819463D01*
X88233815Y-74898815D01*
X88154463Y-74995506D01*
X88095498Y-75105820D01*
X88059188Y-75225518D01*
X88046928Y-75350000D01*
X88046928Y-75440000D01*
X87924802Y-75440000D01*
X85790222Y-73305421D01*
X85886449Y-73226449D01*
X86028284Y-73053623D01*
X86133676Y-72856447D01*
X86198577Y-72642499D01*
X86220491Y-72420000D01*
X86198577Y-72197501D01*
X86133676Y-71983553D01*
X86028284Y-71786377D01*
X85886449Y-71613551D01*
X85713623Y-71471716D01*
X85616868Y-71420000D01*
X85713623Y-71368284D01*
X85886449Y-71226449D01*
X86028284Y-71053623D01*
X86112297Y-70896445D01*
X86118998Y-70964485D01*
X86162454Y-71107746D01*
X86233026Y-71239776D01*
X86261107Y-71273992D01*
X86328000Y-71355501D01*
X86356998Y-71379299D01*
X88021928Y-73044230D01*
X88021928Y-73070000D01*
X88038992Y-73243254D01*
X88089528Y-73409850D01*
X88171595Y-73563386D01*
X88282038Y-73697962D01*
X88416614Y-73808405D01*
X88570150Y-73890472D01*
X88736746Y-73941008D01*
X88910000Y-73958072D01*
X90160000Y-73958072D01*
X90333254Y-73941008D01*
X90499850Y-73890472D01*
X90653386Y-73808405D01*
X90787962Y-73697962D01*
X90898405Y-73563386D01*
X90980472Y-73409850D01*
X91031008Y-73243254D01*
X91048072Y-73070000D01*
X91048072Y-72145000D01*
X91031008Y-71971746D01*
X90980472Y-71805150D01*
X90898405Y-71651614D01*
X90787962Y-71517038D01*
X90653386Y-71406595D01*
X90499850Y-71324528D01*
X90333254Y-71273992D01*
X90160000Y-71256928D01*
X88910000Y-71256928D01*
X88736746Y-71273992D01*
X88570150Y-71324528D01*
X88493044Y-71365742D01*
X87628000Y-70500699D01*
X87628000Y-70345000D01*
X88021928Y-70345000D01*
X88034188Y-70469482D01*
X88070498Y-70589180D01*
X88129463Y-70699494D01*
X88208815Y-70796185D01*
X88305506Y-70875537D01*
X88415820Y-70934502D01*
X88535518Y-70970812D01*
X88660000Y-70983072D01*
X89249250Y-70980000D01*
X89408000Y-70821250D01*
X89408000Y-69759500D01*
X89662000Y-69759500D01*
X89662000Y-70821250D01*
X89820750Y-70980000D01*
X90410000Y-70983072D01*
X90534482Y-70970812D01*
X90654180Y-70934502D01*
X90764494Y-70875537D01*
X90861185Y-70796185D01*
X90940537Y-70699494D01*
X90999502Y-70589180D01*
X91035812Y-70469482D01*
X91048072Y-70345000D01*
X91045000Y-69918250D01*
X90886250Y-69759500D01*
X89662000Y-69759500D01*
X89408000Y-69759500D01*
X88183750Y-69759500D01*
X88025000Y-69918250D01*
X88021928Y-70345000D01*
X87628000Y-70345000D01*
X87628000Y-68920000D01*
X88021928Y-68920000D01*
X88025000Y-69346750D01*
X88183750Y-69505500D01*
X89408000Y-69505500D01*
X89408000Y-68443750D01*
X89662000Y-68443750D01*
X89662000Y-69505500D01*
X90886250Y-69505500D01*
X91045000Y-69346750D01*
X91048072Y-68920000D01*
X91035812Y-68795518D01*
X90999502Y-68675820D01*
X90940537Y-68565506D01*
X90861185Y-68468815D01*
X90764494Y-68389463D01*
X90654180Y-68330498D01*
X90534482Y-68294188D01*
X90410000Y-68281928D01*
X89820750Y-68285000D01*
X89662000Y-68443750D01*
X89408000Y-68443750D01*
X89249250Y-68285000D01*
X88660000Y-68281928D01*
X88535518Y-68294188D01*
X88415820Y-68330498D01*
X88305506Y-68389463D01*
X88208815Y-68468815D01*
X88129463Y-68565506D01*
X88070498Y-68675820D01*
X88034188Y-68795518D01*
X88021928Y-68920000D01*
X87628000Y-68920000D01*
X87628000Y-65207801D01*
X88093790Y-65673592D01*
X88050000Y-65893740D01*
X88050000Y-66186260D01*
X88107068Y-66473158D01*
X88219010Y-66743411D01*
X88381525Y-66986632D01*
X88588368Y-67193475D01*
X88831589Y-67355990D01*
X89101842Y-67467932D01*
X89388740Y-67525000D01*
X89681260Y-67525000D01*
X89968158Y-67467932D01*
X90238411Y-67355990D01*
X90481632Y-67193475D01*
X90688475Y-66986632D01*
X90850990Y-66743411D01*
X90962932Y-66473158D01*
X91020000Y-66186260D01*
X91020000Y-65893740D01*
X90962932Y-65606842D01*
X90850990Y-65336589D01*
X90688475Y-65093368D01*
X90481632Y-64886525D01*
X90307240Y-64770000D01*
X90481632Y-64653475D01*
X90688475Y-64446632D01*
X90850990Y-64203411D01*
X90962932Y-63933158D01*
X91020000Y-63646260D01*
X91020000Y-63353740D01*
X90962932Y-63066842D01*
X90850990Y-62796589D01*
X90688475Y-62553368D01*
X90481632Y-62346525D01*
X90307240Y-62230000D01*
X90481632Y-62113475D01*
X90688475Y-61906632D01*
X90850990Y-61663411D01*
X90962932Y-61393158D01*
X91020000Y-61106260D01*
X91020000Y-60813740D01*
X90962932Y-60526842D01*
X90850990Y-60256589D01*
X90688475Y-60013368D01*
X90481632Y-59806525D01*
X90307240Y-59690000D01*
X90481632Y-59573475D01*
X90688475Y-59366632D01*
X90850990Y-59123411D01*
X90962932Y-58853158D01*
X91020000Y-58566260D01*
X91020000Y-58273740D01*
X90962932Y-57986842D01*
X90850990Y-57716589D01*
X90688475Y-57473368D01*
X90481632Y-57266525D01*
X90307240Y-57150000D01*
X90481632Y-57033475D01*
X90688475Y-56826632D01*
X90850990Y-56583411D01*
X90962932Y-56313158D01*
X91020000Y-56026260D01*
X91020000Y-55733740D01*
X90962932Y-55446842D01*
X90850990Y-55176589D01*
X90688475Y-54933368D01*
X90481632Y-54726525D01*
X90307240Y-54610000D01*
X90481632Y-54493475D01*
X90688475Y-54286632D01*
X90850990Y-54043411D01*
X90962932Y-53773158D01*
X91020000Y-53486260D01*
X91020000Y-53193740D01*
X90962932Y-52906842D01*
X90850990Y-52636589D01*
X90688475Y-52393368D01*
X90481632Y-52186525D01*
X90307240Y-52070000D01*
X90481632Y-51953475D01*
X90688475Y-51746632D01*
X90850990Y-51503411D01*
X90962932Y-51233158D01*
X91020000Y-50946260D01*
X91020000Y-50653740D01*
X90962932Y-50366842D01*
X90850990Y-50096589D01*
X90688475Y-49853368D01*
X90556620Y-49721513D01*
X90629180Y-49699502D01*
X90739494Y-49640537D01*
X90836185Y-49561185D01*
X90915537Y-49464494D01*
X90974502Y-49354180D01*
X91010812Y-49234482D01*
X91023072Y-49110000D01*
X91020000Y-48545750D01*
X90861250Y-48387000D01*
X89662000Y-48387000D01*
X89662000Y-48407000D01*
X89408000Y-48407000D01*
X89408000Y-48387000D01*
X88208750Y-48387000D01*
X88050000Y-48545750D01*
X88046928Y-49110000D01*
X88059188Y-49234482D01*
X88095498Y-49354180D01*
X88154463Y-49464494D01*
X88233815Y-49561185D01*
X88330506Y-49640537D01*
X88440820Y-49699502D01*
X88513380Y-49721513D01*
X88381525Y-49853368D01*
X88219010Y-50096589D01*
X88107068Y-50366842D01*
X88050000Y-50653740D01*
X88050000Y-50946260D01*
X88107068Y-51233158D01*
X88219010Y-51503411D01*
X88381525Y-51746632D01*
X88588368Y-51953475D01*
X88762760Y-52070000D01*
X88588368Y-52186525D01*
X88381525Y-52393368D01*
X88254091Y-52584087D01*
X88183933Y-52590997D01*
X88040672Y-52634454D01*
X87908643Y-52705026D01*
X87792918Y-52799999D01*
X87769119Y-52828998D01*
X87418108Y-53180010D01*
X87077500Y-53180010D01*
X87077500Y-52984061D01*
X87062022Y-52906249D01*
X87160886Y-52853405D01*
X87295462Y-52742962D01*
X87405905Y-52608386D01*
X87487972Y-52454850D01*
X87538508Y-52288254D01*
X87555572Y-52115000D01*
X87555572Y-51190000D01*
X87538508Y-51016746D01*
X87487972Y-50850150D01*
X87405905Y-50696614D01*
X87295462Y-50562038D01*
X87160886Y-50451595D01*
X87007350Y-50369528D01*
X86840754Y-50318992D01*
X86667500Y-50301928D01*
X85417500Y-50301928D01*
X85244246Y-50318992D01*
X85077650Y-50369528D01*
X84924114Y-50451595D01*
X84789538Y-50562038D01*
X84679095Y-50696614D01*
X84597028Y-50850150D01*
X84546492Y-51016746D01*
X84529428Y-51190000D01*
X84529428Y-51260402D01*
X84527251Y-51257749D01*
X84407829Y-51159742D01*
X84271582Y-51086916D01*
X84123745Y-51042071D01*
X83970000Y-51026928D01*
X83670000Y-51026928D01*
X83516255Y-51042071D01*
X83368418Y-51086916D01*
X83232171Y-51159742D01*
X83185000Y-51198454D01*
X83137829Y-51159742D01*
X83001582Y-51086916D01*
X82853745Y-51042071D01*
X82700000Y-51026928D01*
X82400000Y-51026928D01*
X82246255Y-51042071D01*
X82098418Y-51086916D01*
X81962171Y-51159742D01*
X81915000Y-51198454D01*
X81867829Y-51159742D01*
X81731582Y-51086916D01*
X81583745Y-51042071D01*
X81430000Y-51026928D01*
X81130000Y-51026928D01*
X80976255Y-51042071D01*
X80828418Y-51086916D01*
X80692171Y-51159742D01*
X80645000Y-51198454D01*
X80597829Y-51159742D01*
X80461582Y-51086916D01*
X80313745Y-51042071D01*
X80160000Y-51026928D01*
X79860000Y-51026928D01*
X79706255Y-51042071D01*
X79558418Y-51086916D01*
X79422171Y-51159742D01*
X79375000Y-51198454D01*
X79327829Y-51159742D01*
X79191582Y-51086916D01*
X79043745Y-51042071D01*
X78890000Y-51026928D01*
X78590000Y-51026928D01*
X78436255Y-51042071D01*
X78288418Y-51086916D01*
X78152171Y-51159742D01*
X78105000Y-51198454D01*
X78057829Y-51159742D01*
X77921582Y-51086916D01*
X77875706Y-51073000D01*
X77952939Y-51073000D01*
X78152898Y-51033226D01*
X78341256Y-50955205D01*
X78510774Y-50841937D01*
X78654937Y-50697774D01*
X78743654Y-50565000D01*
X78841939Y-50565000D01*
X79041898Y-50525226D01*
X79230256Y-50447205D01*
X79399774Y-50333937D01*
X79543937Y-50189774D01*
X79657205Y-50020256D01*
X79735226Y-49831898D01*
X79775000Y-49631939D01*
X79775000Y-49428061D01*
X79747943Y-49292035D01*
X79860000Y-49303072D01*
X80160000Y-49303072D01*
X80313745Y-49287929D01*
X80461582Y-49243084D01*
X80597829Y-49170258D01*
X80645000Y-49131546D01*
X80692171Y-49170258D01*
X80828418Y-49243084D01*
X80976255Y-49287929D01*
X81130000Y-49303072D01*
X81430000Y-49303072D01*
X81583745Y-49287929D01*
X81731582Y-49243084D01*
X81867829Y-49170258D01*
X81915000Y-49131546D01*
X81962171Y-49170258D01*
X82098418Y-49243084D01*
X82246255Y-49287929D01*
X82400000Y-49303072D01*
X82700000Y-49303072D01*
X82853745Y-49287929D01*
X83001582Y-49243084D01*
X83135936Y-49171270D01*
X83165506Y-49195537D01*
X83275820Y-49254502D01*
X83395518Y-49290812D01*
X83520000Y-49303072D01*
X83534250Y-49300000D01*
X83693000Y-49141250D01*
X83693000Y-47817000D01*
X83673000Y-47817000D01*
X83673000Y-47563000D01*
X83693000Y-47563000D01*
X83693000Y-46238750D01*
X83947000Y-46238750D01*
X83947000Y-47563000D01*
X83967000Y-47563000D01*
X83967000Y-47817000D01*
X83947000Y-47817000D01*
X83947000Y-49141250D01*
X84105750Y-49300000D01*
X84120000Y-49303072D01*
X84244482Y-49290812D01*
X84364180Y-49254502D01*
X84474494Y-49195537D01*
X84531163Y-49149030D01*
X84529428Y-49390000D01*
X84541688Y-49514482D01*
X84577998Y-49634180D01*
X84636963Y-49744494D01*
X84716315Y-49841185D01*
X84813006Y-49920537D01*
X84923320Y-49979502D01*
X85043018Y-50015812D01*
X85167500Y-50028072D01*
X85756750Y-50025000D01*
X85915500Y-49866250D01*
X85915500Y-48804500D01*
X86169500Y-48804500D01*
X86169500Y-49866250D01*
X86328250Y-50025000D01*
X86917500Y-50028072D01*
X87041982Y-50015812D01*
X87161680Y-49979502D01*
X87271994Y-49920537D01*
X87368685Y-49841185D01*
X87448037Y-49744494D01*
X87507002Y-49634180D01*
X87543312Y-49514482D01*
X87555572Y-49390000D01*
X87552500Y-48963250D01*
X87393750Y-48804500D01*
X86169500Y-48804500D01*
X85915500Y-48804500D01*
X85895500Y-48804500D01*
X85895500Y-48550500D01*
X85915500Y-48550500D01*
X85915500Y-47488750D01*
X86169500Y-47488750D01*
X86169500Y-48550500D01*
X87393750Y-48550500D01*
X87552500Y-48391750D01*
X87555572Y-47965000D01*
X87543312Y-47840518D01*
X87507002Y-47720820D01*
X87448037Y-47610506D01*
X87368685Y-47513815D01*
X87271994Y-47434463D01*
X87226228Y-47410000D01*
X88046928Y-47410000D01*
X88050000Y-47974250D01*
X88208750Y-48133000D01*
X89408000Y-48133000D01*
X89408000Y-46933750D01*
X89662000Y-46933750D01*
X89662000Y-48133000D01*
X90861250Y-48133000D01*
X91020000Y-47974250D01*
X91023072Y-47410000D01*
X91010812Y-47285518D01*
X90974502Y-47165820D01*
X90915537Y-47055506D01*
X90836185Y-46958815D01*
X90739494Y-46879463D01*
X90629180Y-46820498D01*
X90509482Y-46784188D01*
X90385000Y-46771928D01*
X89820750Y-46775000D01*
X89662000Y-46933750D01*
X89408000Y-46933750D01*
X89249250Y-46775000D01*
X88685000Y-46771928D01*
X88560518Y-46784188D01*
X88440820Y-46820498D01*
X88330506Y-46879463D01*
X88233815Y-46958815D01*
X88154463Y-47055506D01*
X88095498Y-47165820D01*
X88059188Y-47285518D01*
X88046928Y-47410000D01*
X87226228Y-47410000D01*
X87161680Y-47375498D01*
X87041982Y-47339188D01*
X86917500Y-47326928D01*
X86328250Y-47330000D01*
X86169500Y-47488750D01*
X85915500Y-47488750D01*
X85756750Y-47330000D01*
X85167500Y-47326928D01*
X85043018Y-47339188D01*
X84923320Y-47375498D01*
X84813006Y-47434463D01*
X84716315Y-47513815D01*
X84675952Y-47562998D01*
X84596252Y-47562998D01*
X84755000Y-47404250D01*
X84758072Y-46715000D01*
X84745812Y-46590518D01*
X84709502Y-46470820D01*
X84650537Y-46360506D01*
X84571185Y-46263815D01*
X84474494Y-46184463D01*
X84364180Y-46125498D01*
X84244482Y-46089188D01*
X84120000Y-46076928D01*
X84105750Y-46080000D01*
X83947000Y-46238750D01*
X83693000Y-46238750D01*
X83554630Y-46100380D01*
X83545226Y-46053102D01*
X83467205Y-45864744D01*
X83353937Y-45695226D01*
X83209774Y-45551063D01*
X83040256Y-45437795D01*
X82851898Y-45359774D01*
X82651939Y-45320000D01*
X82448061Y-45320000D01*
X82248102Y-45359774D01*
X82059744Y-45437795D01*
X81915000Y-45534510D01*
X81770256Y-45437795D01*
X81581898Y-45359774D01*
X81381939Y-45320000D01*
X81178061Y-45320000D01*
X80978102Y-45359774D01*
X80789744Y-45437795D01*
X80645000Y-45534510D01*
X80500256Y-45437795D01*
X80311898Y-45359774D01*
X80111939Y-45320000D01*
X79908061Y-45320000D01*
X79708102Y-45359774D01*
X79519744Y-45437795D01*
X79350226Y-45551063D01*
X79206063Y-45695226D01*
X79092795Y-45864744D01*
X79014774Y-46053102D01*
X79007728Y-46088524D01*
X78890000Y-46076928D01*
X78590000Y-46076928D01*
X78436255Y-46092071D01*
X78288418Y-46136916D01*
X78152171Y-46209742D01*
X78105000Y-46248454D01*
X78057829Y-46209742D01*
X77921582Y-46136916D01*
X77773745Y-46092071D01*
X77620000Y-46076928D01*
X77320000Y-46076928D01*
X77166255Y-46092071D01*
X77018418Y-46136916D01*
X76882171Y-46209742D01*
X76835000Y-46248454D01*
X76787829Y-46209742D01*
X76651582Y-46136916D01*
X76503745Y-46092071D01*
X76350000Y-46076928D01*
X76050000Y-46076928D01*
X75896255Y-46092071D01*
X75748418Y-46136916D01*
X75612171Y-46209742D01*
X75492749Y-46307749D01*
X75394742Y-46427171D01*
X75321916Y-46563418D01*
X75277071Y-46711255D01*
X75261928Y-46865000D01*
X75261928Y-46930000D01*
X75029322Y-46930000D01*
X74991999Y-46926324D01*
X74954676Y-46930000D01*
X74954667Y-46930000D01*
X74843014Y-46940997D01*
X74699753Y-46984454D01*
X74567724Y-47055026D01*
X74451999Y-47149999D01*
X74428201Y-47178997D01*
X73367000Y-48240199D01*
X73367000Y-48132998D01*
X73202156Y-48132998D01*
X73323476Y-47903110D01*
X73278825Y-47755901D01*
X73153641Y-47493080D01*
X72979588Y-47259731D01*
X72763355Y-47064822D01*
X72513252Y-46915843D01*
X72238891Y-46818519D01*
X72009000Y-46939186D01*
X72009000Y-48133000D01*
X72029000Y-48133000D01*
X72029000Y-48387000D01*
X72009000Y-48387000D01*
X72009000Y-48407000D01*
X71755000Y-48407000D01*
X71755000Y-48387000D01*
X71735000Y-48387000D01*
X71735000Y-48133000D01*
X71755000Y-48133000D01*
X71755000Y-46939186D01*
X71525109Y-46818519D01*
X71250748Y-46915843D01*
X71000645Y-47064822D01*
X70804498Y-47241626D01*
X70781502Y-47165820D01*
X70722537Y-47055506D01*
X70643185Y-46958815D01*
X70546494Y-46879463D01*
X70436180Y-46820498D01*
X70316482Y-46784188D01*
X70192000Y-46771928D01*
X68492000Y-46771928D01*
X68367518Y-46784188D01*
X68247820Y-46820498D01*
X68137506Y-46879463D01*
X68040815Y-46958815D01*
X67961463Y-47055506D01*
X67902498Y-47165820D01*
X67866188Y-47285518D01*
X67853928Y-47410000D01*
X67853928Y-49110000D01*
X67866188Y-49234482D01*
X67902498Y-49354180D01*
X67961463Y-49464494D01*
X68040815Y-49561185D01*
X68137506Y-49640537D01*
X68247820Y-49699502D01*
X68320380Y-49721513D01*
X68188525Y-49853368D01*
X68026010Y-50096589D01*
X67914068Y-50366842D01*
X67857000Y-50653740D01*
X67857000Y-50946260D01*
X67900790Y-51166408D01*
X66743988Y-52323211D01*
X66714990Y-52347009D01*
X66691192Y-52376007D01*
X66691191Y-52376008D01*
X66620016Y-52462734D01*
X66549444Y-52594764D01*
X66523423Y-52680547D01*
X66511922Y-52718464D01*
X66505988Y-52738025D01*
X66491314Y-52887010D01*
X57447642Y-52887010D01*
X57432205Y-52849744D01*
X57333534Y-52702072D01*
X58315000Y-52702072D01*
X58439482Y-52689812D01*
X58559180Y-52653502D01*
X58669494Y-52594537D01*
X58766185Y-52515185D01*
X58845537Y-52418494D01*
X58904502Y-52308180D01*
X58940812Y-52188482D01*
X58953072Y-52064000D01*
X58953072Y-44964000D01*
X58940812Y-44839518D01*
X58904502Y-44719820D01*
X58845537Y-44609506D01*
X58766185Y-44512815D01*
X58669494Y-44433463D01*
X58559180Y-44374498D01*
X58439482Y-44338188D01*
X58315000Y-44325928D01*
X54715000Y-44325928D01*
X54590518Y-44338188D01*
X54470820Y-44374498D01*
X54360506Y-44433463D01*
X54263815Y-44512815D01*
X54184463Y-44609506D01*
X54125498Y-44719820D01*
X54089188Y-44839518D01*
X54076928Y-44964000D01*
X46482000Y-44964000D01*
X46482000Y-43942000D01*
X91948000Y-43942000D01*
X91948000Y-77978000D01*
G37*
X91948000Y-77978000D02*
X46482000Y-77978000D01*
X46482000Y-76956000D01*
X54076928Y-76956000D01*
X54089188Y-77080482D01*
X54125498Y-77200180D01*
X54184463Y-77310494D01*
X54263815Y-77407185D01*
X54360506Y-77486537D01*
X54470820Y-77545502D01*
X54590518Y-77581812D01*
X54715000Y-77594072D01*
X56229250Y-77591000D01*
X56388000Y-77432250D01*
X56388000Y-73533000D01*
X56642000Y-73533000D01*
X56642000Y-77432250D01*
X56800750Y-77591000D01*
X58315000Y-77594072D01*
X58439482Y-77581812D01*
X58559180Y-77545502D01*
X58669494Y-77486537D01*
X58766185Y-77407185D01*
X58845537Y-77310494D01*
X58904502Y-77200180D01*
X58940812Y-77080482D01*
X58953072Y-76956000D01*
X58952385Y-76225061D01*
X66275000Y-76225061D01*
X66275000Y-76428939D01*
X66314774Y-76628898D01*
X66392795Y-76817256D01*
X66506063Y-76986774D01*
X66650226Y-77130937D01*
X66819744Y-77244205D01*
X67008102Y-77322226D01*
X67208061Y-77362000D01*
X67244024Y-77362000D01*
X67288595Y-77445386D01*
X67399038Y-77579962D01*
X67533614Y-77690405D01*
X67687150Y-77772472D01*
X67853746Y-77823008D01*
X68027000Y-77840072D01*
X68952000Y-77840072D01*
X69125254Y-77823008D01*
X69291850Y-77772472D01*
X69445386Y-77690405D01*
X69579962Y-77579962D01*
X69690405Y-77445386D01*
X69772472Y-77291850D01*
X69823008Y-77125254D01*
X69840072Y-76952000D01*
X69840072Y-75702000D01*
X70113928Y-75702000D01*
X70113928Y-76952000D01*
X70130992Y-77125254D01*
X70181528Y-77291850D01*
X70263595Y-77445386D01*
X70374038Y-77579962D01*
X70508614Y-77690405D01*
X70662150Y-77772472D01*
X70828746Y-77823008D01*
X71002000Y-77840072D01*
X71927000Y-77840072D01*
X72100254Y-77823008D01*
X72266850Y-77772472D01*
X72420386Y-77690405D01*
X72554962Y-77579962D01*
X72665405Y-77445386D01*
X72747472Y-77291850D01*
X72798008Y-77125254D01*
X72801776Y-77087000D01*
X73502224Y-77087000D01*
X73505992Y-77125254D01*
X73556528Y-77291850D01*
X73638595Y-77445386D01*
X73749038Y-77579962D01*
X73883614Y-77690405D01*
X74037150Y-77772472D01*
X74203746Y-77823008D01*
X74377000Y-77840072D01*
X75302000Y-77840072D01*
X75475254Y-77823008D01*
X75641850Y-77772472D01*
X75795386Y-77690405D01*
X75929962Y-77579962D01*
X76040405Y-77445386D01*
X76122472Y-77291850D01*
X76173008Y-77125254D01*
X76190072Y-76952000D01*
X76190072Y-75702000D01*
X76463928Y-75702000D01*
X76463928Y-76952000D01*
X76480992Y-77125254D01*
X76531528Y-77291850D01*
X76613595Y-77445386D01*
X76724038Y-77579962D01*
X76858614Y-77690405D01*
X77012150Y-77772472D01*
X77178746Y-77823008D01*
X77352000Y-77840072D01*
X78277000Y-77840072D01*
X78450254Y-77823008D01*
X78616850Y-77772472D01*
X78770386Y-77690405D01*
X78904962Y-77579962D01*
X79015405Y-77445386D01*
X79097472Y-77291850D01*
X79124727Y-77202000D01*
X79965928Y-77202000D01*
X79978188Y-77326482D01*
X80014498Y-77446180D01*
X80073463Y-77556494D01*
X80152815Y-77653185D01*
X80249506Y-77732537D01*
X80359820Y-77791502D01*
X80479518Y-77827812D01*
X80604000Y-77840072D01*
X81030750Y-77837000D01*
X81189500Y-77678250D01*
X81189500Y-76454000D01*
X81443500Y-76454000D01*
X81443500Y-77678250D01*
X81602250Y-77837000D01*
X82029000Y-77840072D01*
X82153482Y-77827812D01*
X82273180Y-77791502D01*
X82383494Y-77732537D01*
X82480185Y-77653185D01*
X82559537Y-77556494D01*
X82618502Y-77446180D01*
X82654812Y-77326482D01*
X82667072Y-77202000D01*
X82664000Y-76612750D01*
X82505250Y-76454000D01*
X81443500Y-76454000D01*
X81189500Y-76454000D01*
X80127750Y-76454000D01*
X79969000Y-76612750D01*
X79965928Y-77202000D01*
X79124727Y-77202000D01*
X79148008Y-77125254D01*
X79165072Y-76952000D01*
X79165072Y-75702000D01*
X79148008Y-75528746D01*
X79124728Y-75452000D01*
X79965928Y-75452000D01*
X79969000Y-76041250D01*
X80127750Y-76200000D01*
X81189500Y-76200000D01*
X81189500Y-74975750D01*
X81443500Y-74975750D01*
X81443500Y-76200000D01*
X82505250Y-76200000D01*
X82664000Y-76041250D01*
X82667072Y-75452000D01*
X82654812Y-75327518D01*
X82618502Y-75207820D01*
X82559537Y-75097506D01*
X82480185Y-75000815D01*
X82383494Y-74921463D01*
X82273180Y-74862498D01*
X82153482Y-74826188D01*
X82029000Y-74813928D01*
X81602250Y-74817000D01*
X81443500Y-74975750D01*
X81189500Y-74975750D01*
X81030750Y-74817000D01*
X80604000Y-74813928D01*
X80479518Y-74826188D01*
X80359820Y-74862498D01*
X80249506Y-74921463D01*
X80152815Y-75000815D01*
X80073463Y-75097506D01*
X80014498Y-75207820D01*
X79978188Y-75327518D01*
X79965928Y-75452000D01*
X79124728Y-75452000D01*
X79097472Y-75362150D01*
X79015405Y-75208614D01*
X78904962Y-75074038D01*
X78831407Y-75013673D01*
X78846226Y-74977898D01*
X78886000Y-74777939D01*
X78886000Y-74574061D01*
X78846226Y-74374102D01*
X78768205Y-74185744D01*
X78654937Y-74016226D01*
X78510774Y-73872063D01*
X78341256Y-73758795D01*
X78152898Y-73680774D01*
X77952939Y-73641000D01*
X77749061Y-73641000D01*
X77549102Y-73680774D01*
X77360744Y-73758795D01*
X77191226Y-73872063D01*
X77047063Y-74016226D01*
X76933795Y-74185744D01*
X76855774Y-74374102D01*
X76816000Y-74574061D01*
X76816000Y-74777939D01*
X76853727Y-74967606D01*
X76724038Y-75074038D01*
X76613595Y-75208614D01*
X76531528Y-75362150D01*
X76480992Y-75528746D01*
X76463928Y-75702000D01*
X76190072Y-75702000D01*
X76173008Y-75528746D01*
X76122472Y-75362150D01*
X76040405Y-75208614D01*
X75929962Y-75074038D01*
X75795386Y-74963595D01*
X75641850Y-74881528D01*
X75475254Y-74830992D01*
X75302000Y-74813928D01*
X74377000Y-74813928D01*
X74203746Y-74830992D01*
X74037150Y-74881528D01*
X73883614Y-74963595D01*
X73749038Y-75074038D01*
X73638595Y-75208614D01*
X73556528Y-75362150D01*
X73505992Y-75528746D01*
X73502224Y-75567000D01*
X72801776Y-75567000D01*
X72798008Y-75528746D01*
X72747472Y-75362150D01*
X72665405Y-75208614D01*
X72554962Y-75074038D01*
X72420386Y-74963595D01*
X72266850Y-74881528D01*
X72100254Y-74830992D01*
X71927000Y-74813928D01*
X71002000Y-74813928D01*
X70828746Y-74830992D01*
X70662150Y-74881528D01*
X70508614Y-74963595D01*
X70374038Y-75074038D01*
X70263595Y-75208614D01*
X70181528Y-75362150D01*
X70130992Y-75528746D01*
X70113928Y-75702000D01*
X69840072Y-75702000D01*
X69823008Y-75528746D01*
X69772472Y-75362150D01*
X69690405Y-75208614D01*
X69579962Y-75074038D01*
X69445386Y-74963595D01*
X69291850Y-74881528D01*
X69125254Y-74830992D01*
X68952000Y-74813928D01*
X68027000Y-74813928D01*
X67853746Y-74830992D01*
X67687150Y-74881528D01*
X67533614Y-74963595D01*
X67399038Y-75074038D01*
X67288595Y-75208614D01*
X67244024Y-75292000D01*
X67208061Y-75292000D01*
X67008102Y-75331774D01*
X66819744Y-75409795D01*
X66650226Y-75523063D01*
X66506063Y-75667226D01*
X66392795Y-75836744D01*
X66314774Y-76025102D01*
X66275000Y-76225061D01*
X58952385Y-76225061D01*
X58950000Y-73691750D01*
X58791250Y-73533000D01*
X56642000Y-73533000D01*
X56388000Y-73533000D01*
X54238750Y-73533000D01*
X54080000Y-73691750D01*
X54076928Y-76956000D01*
X46482000Y-76956000D01*
X46482000Y-69856000D01*
X54076928Y-69856000D01*
X54080000Y-73120250D01*
X54238750Y-73279000D01*
X56388000Y-73279000D01*
X56388000Y-69379750D01*
X56642000Y-69379750D01*
X56642000Y-73279000D01*
X58791250Y-73279000D01*
X58950000Y-73120250D01*
X58953072Y-69856000D01*
X58940812Y-69731518D01*
X58904502Y-69611820D01*
X58845537Y-69501506D01*
X58766185Y-69404815D01*
X58669494Y-69325463D01*
X58559180Y-69266498D01*
X58439482Y-69230188D01*
X58315000Y-69217928D01*
X56800750Y-69221000D01*
X56642000Y-69379750D01*
X56388000Y-69379750D01*
X56229250Y-69221000D01*
X54715000Y-69217928D01*
X54590518Y-69230188D01*
X54470820Y-69266498D01*
X54360506Y-69325463D01*
X54263815Y-69404815D01*
X54184463Y-69501506D01*
X54125498Y-69611820D01*
X54089188Y-69731518D01*
X54076928Y-69856000D01*
X46482000Y-69856000D01*
X46482000Y-44964000D01*
X54076928Y-44964000D01*
X54076928Y-52064000D01*
X54089188Y-52188482D01*
X54125498Y-52308180D01*
X54184463Y-52418494D01*
X54263815Y-52515185D01*
X54360506Y-52594537D01*
X54470820Y-52653502D01*
X54590518Y-52689812D01*
X54715000Y-52702072D01*
X55696466Y-52702072D01*
X55597795Y-52849744D01*
X55519774Y-53038102D01*
X55480000Y-53238061D01*
X55480000Y-53441939D01*
X55519774Y-53641898D01*
X55597795Y-53830256D01*
X55711063Y-53999774D01*
X55855226Y-54143937D01*
X56024744Y-54257205D01*
X56213102Y-54335226D01*
X56413061Y-54375000D01*
X56616939Y-54375000D01*
X56816898Y-54335226D01*
X57005256Y-54257205D01*
X57174774Y-54143937D01*
X57318937Y-53999774D01*
X57432205Y-53830256D01*
X57510226Y-53641898D01*
X57550000Y-53441939D01*
X57550000Y-53238061D01*
X57510226Y-53038102D01*
X57447642Y-52887010D01*
X66491314Y-52887010D01*
X66494991Y-52924342D01*
X66494990Y-64307668D01*
X66491314Y-64344990D01*
X66494990Y-64382312D01*
X66494990Y-64382322D01*
X66505987Y-64493975D01*
X66528741Y-64568985D01*
X66549444Y-64637236D01*
X66620016Y-64769266D01*
X66646881Y-64802001D01*
X66714989Y-64884991D01*
X66743993Y-64908794D01*
X66766196Y-64930997D01*
X66789999Y-64960001D01*
X66905724Y-65054974D01*
X67037753Y-65125546D01*
X67181014Y-65169003D01*
X67230398Y-65173867D01*
X67273551Y-65226449D01*
X67446377Y-65368284D01*
X67543132Y-65420000D01*
X67446377Y-65471716D01*
X67273551Y-65613551D01*
X67131716Y-65786377D01*
X67026324Y-65983553D01*
X66961423Y-66197501D01*
X66939509Y-66420000D01*
X66961423Y-66642499D01*
X67026324Y-66856447D01*
X67131716Y-67053623D01*
X67273551Y-67226449D01*
X67446377Y-67368284D01*
X67543132Y-67420000D01*
X67446377Y-67471716D01*
X67273551Y-67613551D01*
X67131716Y-67786377D01*
X67026324Y-67983553D01*
X66961423Y-68197501D01*
X66939509Y-68420000D01*
X66961423Y-68642499D01*
X67026324Y-68856447D01*
X67131716Y-69053623D01*
X67273551Y-69226449D01*
X67446377Y-69368284D01*
X67543132Y-69420000D01*
X67446377Y-69471716D01*
X67273551Y-69613551D01*
X67131716Y-69786377D01*
X67026324Y-69983553D01*
X66961423Y-70197501D01*
X66939509Y-70420000D01*
X66961423Y-70642499D01*
X67026324Y-70856447D01*
X67131716Y-71053623D01*
X67273551Y-71226449D01*
X67446377Y-71368284D01*
X67543132Y-71420000D01*
X67446377Y-71471716D01*
X67273551Y-71613551D01*
X67131716Y-71786377D01*
X67026324Y-71983553D01*
X66961423Y-72197501D01*
X66939509Y-72420000D01*
X66961423Y-72642499D01*
X67026324Y-72856447D01*
X67131716Y-73053623D01*
X67273551Y-73226449D01*
X67446377Y-73368284D01*
X67643553Y-73473676D01*
X67857501Y-73538577D01*
X68024248Y-73555000D01*
X69135752Y-73555000D01*
X69302499Y-73538577D01*
X69516447Y-73473676D01*
X69645632Y-73404626D01*
X69748061Y-73425000D01*
X69951939Y-73425000D01*
X70151898Y-73385226D01*
X70340256Y-73307205D01*
X70509774Y-73193937D01*
X70653937Y-73049774D01*
X70767205Y-72880256D01*
X70845226Y-72691898D01*
X70885000Y-72491939D01*
X70885000Y-72288061D01*
X70845226Y-72088102D01*
X70767205Y-71899744D01*
X70653937Y-71730226D01*
X70509774Y-71586063D01*
X70340256Y-71472795D01*
X70151898Y-71394774D01*
X69951939Y-71355000D01*
X69748061Y-71355000D01*
X69723971Y-71359792D01*
X69886449Y-71226449D01*
X70028284Y-71053623D01*
X70133676Y-70856447D01*
X70198577Y-70642499D01*
X70220491Y-70420000D01*
X70198577Y-70197501D01*
X70133676Y-69983553D01*
X70028284Y-69786377D01*
X69886449Y-69613551D01*
X69713623Y-69471716D01*
X69616868Y-69420000D01*
X69713623Y-69368284D01*
X69886449Y-69226449D01*
X70028284Y-69053623D01*
X70133676Y-68856447D01*
X70198577Y-68642499D01*
X70220491Y-68420000D01*
X70198577Y-68197501D01*
X70133676Y-67983553D01*
X70028284Y-67786377D01*
X69886449Y-67613551D01*
X69713623Y-67471716D01*
X69616868Y-67420000D01*
X69713623Y-67368284D01*
X69886449Y-67226449D01*
X69924569Y-67180000D01*
X77179678Y-67180000D01*
X77217000Y-67183676D01*
X77254322Y-67180000D01*
X77254333Y-67180000D01*
X77365986Y-67169003D01*
X77509247Y-67125546D01*
X77641276Y-67054974D01*
X77757001Y-66960001D01*
X77780804Y-66930997D01*
X81280000Y-63431802D01*
X81732200Y-63884002D01*
X81755999Y-63913001D01*
X81784997Y-63936799D01*
X81871723Y-64007974D01*
X82003753Y-64078546D01*
X82147014Y-64122003D01*
X82258667Y-64133000D01*
X82258677Y-64133000D01*
X82296000Y-64136676D01*
X82333322Y-64133000D01*
X82996612Y-64133000D01*
X83112046Y-64293000D01*
X84453000Y-64293000D01*
X84453000Y-64273000D01*
X84707000Y-64273000D01*
X84707000Y-64293000D01*
X84727000Y-64293000D01*
X84727000Y-64547000D01*
X84707000Y-64547000D01*
X84707000Y-64567000D01*
X84453000Y-64567000D01*
X84453000Y-64547000D01*
X83112046Y-64547000D01*
X82985881Y-64721874D01*
X83065724Y-64944976D01*
X83187631Y-65132764D01*
X83343831Y-65293161D01*
X83528322Y-65420003D01*
X83536527Y-65423530D01*
X83446377Y-65471716D01*
X83273551Y-65613551D01*
X83131716Y-65786377D01*
X83026324Y-65983553D01*
X82961423Y-66197501D01*
X82939509Y-66420000D01*
X82961423Y-66642499D01*
X83026324Y-66856447D01*
X83131716Y-67053623D01*
X83273551Y-67226449D01*
X83446377Y-67368284D01*
X83543132Y-67420000D01*
X83446377Y-67471716D01*
X83273551Y-67613551D01*
X83131716Y-67786377D01*
X83026324Y-67983553D01*
X82961423Y-68197501D01*
X82939509Y-68420000D01*
X82961423Y-68642499D01*
X83026324Y-68856447D01*
X83131716Y-69053623D01*
X83273551Y-69226449D01*
X83446377Y-69368284D01*
X83543132Y-69420000D01*
X83446377Y-69471716D01*
X83436571Y-69479763D01*
X83286939Y-69450000D01*
X83083061Y-69450000D01*
X82883102Y-69489774D01*
X82694744Y-69567795D01*
X82525226Y-69681063D01*
X82381063Y-69825226D01*
X82267795Y-69994744D01*
X82189774Y-70183102D01*
X82150000Y-70383061D01*
X82150000Y-70586939D01*
X82189774Y-70786898D01*
X82267795Y-70975256D01*
X82381063Y-71144774D01*
X82425001Y-71188712D01*
X82425000Y-74208177D01*
X82421324Y-74245500D01*
X82425000Y-74282822D01*
X82425000Y-74282832D01*
X82435997Y-74394485D01*
X82476199Y-74527014D01*
X82479454Y-74537746D01*
X82550026Y-74669776D01*
X82584620Y-74711928D01*
X82644999Y-74785501D01*
X82674002Y-74809304D01*
X83084575Y-75219876D01*
X83008528Y-75362150D01*
X82957992Y-75528746D01*
X82940928Y-75702000D01*
X82940928Y-76952000D01*
X82957992Y-77125254D01*
X83008528Y-77291850D01*
X83090595Y-77445386D01*
X83201038Y-77579962D01*
X83335614Y-77690405D01*
X83489150Y-77772472D01*
X83655746Y-77823008D01*
X83829000Y-77840072D01*
X84754000Y-77840072D01*
X84927254Y-77823008D01*
X85093850Y-77772472D01*
X85247386Y-77690405D01*
X85381962Y-77579962D01*
X85492405Y-77445386D01*
X85574472Y-77291850D01*
X85625008Y-77125254D01*
X85642072Y-76952000D01*
X85642072Y-75702000D01*
X85625008Y-75528746D01*
X85574472Y-75362150D01*
X85492405Y-75208614D01*
X85381962Y-75074038D01*
X85247386Y-74963595D01*
X85093850Y-74881528D01*
X84927254Y-74830992D01*
X84840039Y-74822402D01*
X84831501Y-74811999D01*
X84802503Y-74788201D01*
X83945000Y-73930699D01*
X83945000Y-73594227D01*
X83945026Y-73594276D01*
X83983372Y-73641000D01*
X84040000Y-73710001D01*
X84068998Y-73733799D01*
X87046201Y-76711003D01*
X87069999Y-76740001D01*
X87098997Y-76763799D01*
X87185723Y-76834974D01*
X87317753Y-76905546D01*
X87461014Y-76949003D01*
X87572667Y-76960000D01*
X87572676Y-76960000D01*
X87609999Y-76963676D01*
X87647322Y-76960000D01*
X88046928Y-76960000D01*
X88046928Y-77050000D01*
X88059188Y-77174482D01*
X88095498Y-77294180D01*
X88154463Y-77404494D01*
X88233815Y-77501185D01*
X88330506Y-77580537D01*
X88440820Y-77639502D01*
X88560518Y-77675812D01*
X88685000Y-77688072D01*
X90385000Y-77688072D01*
X90509482Y-77675812D01*
X90629180Y-77639502D01*
X90739494Y-77580537D01*
X90836185Y-77501185D01*
X90915537Y-77404494D01*
X90974502Y-77294180D01*
X91010812Y-77174482D01*
X91023072Y-77050000D01*
X91023072Y-75350000D01*
X91010812Y-75225518D01*
X90974502Y-75105820D01*
X90915537Y-74995506D01*
X90836185Y-74898815D01*
X90739494Y-74819463D01*
X90629180Y-74760498D01*
X90509482Y-74724188D01*
X90385000Y-74711928D01*
X88685000Y-74711928D01*
X88560518Y-74724188D01*
X88440820Y-74760498D01*
X88330506Y-74819463D01*
X88233815Y-74898815D01*
X88154463Y-74995506D01*
X88095498Y-75105820D01*
X88059188Y-75225518D01*
X88046928Y-75350000D01*
X88046928Y-75440000D01*
X87924802Y-75440000D01*
X85790222Y-73305421D01*
X85886449Y-73226449D01*
X86028284Y-73053623D01*
X86133676Y-72856447D01*
X86198577Y-72642499D01*
X86220491Y-72420000D01*
X86198577Y-72197501D01*
X86133676Y-71983553D01*
X86028284Y-71786377D01*
X85886449Y-71613551D01*
X85713623Y-71471716D01*
X85616868Y-71420000D01*
X85713623Y-71368284D01*
X85886449Y-71226449D01*
X86028284Y-71053623D01*
X86112297Y-70896445D01*
X86118998Y-70964485D01*
X86162454Y-71107746D01*
X86233026Y-71239776D01*
X86261107Y-71273992D01*
X86328000Y-71355501D01*
X86356998Y-71379299D01*
X88021928Y-73044230D01*
X88021928Y-73070000D01*
X88038992Y-73243254D01*
X88089528Y-73409850D01*
X88171595Y-73563386D01*
X88282038Y-73697962D01*
X88416614Y-73808405D01*
X88570150Y-73890472D01*
X88736746Y-73941008D01*
X88910000Y-73958072D01*
X90160000Y-73958072D01*
X90333254Y-73941008D01*
X90499850Y-73890472D01*
X90653386Y-73808405D01*
X90787962Y-73697962D01*
X90898405Y-73563386D01*
X90980472Y-73409850D01*
X91031008Y-73243254D01*
X91048072Y-73070000D01*
X91048072Y-72145000D01*
X91031008Y-71971746D01*
X90980472Y-71805150D01*
X90898405Y-71651614D01*
X90787962Y-71517038D01*
X90653386Y-71406595D01*
X90499850Y-71324528D01*
X90333254Y-71273992D01*
X90160000Y-71256928D01*
X88910000Y-71256928D01*
X88736746Y-71273992D01*
X88570150Y-71324528D01*
X88493044Y-71365742D01*
X87628000Y-70500699D01*
X87628000Y-70345000D01*
X88021928Y-70345000D01*
X88034188Y-70469482D01*
X88070498Y-70589180D01*
X88129463Y-70699494D01*
X88208815Y-70796185D01*
X88305506Y-70875537D01*
X88415820Y-70934502D01*
X88535518Y-70970812D01*
X88660000Y-70983072D01*
X89249250Y-70980000D01*
X89408000Y-70821250D01*
X89408000Y-69759500D01*
X89662000Y-69759500D01*
X89662000Y-70821250D01*
X89820750Y-70980000D01*
X90410000Y-70983072D01*
X90534482Y-70970812D01*
X90654180Y-70934502D01*
X90764494Y-70875537D01*
X90861185Y-70796185D01*
X90940537Y-70699494D01*
X90999502Y-70589180D01*
X91035812Y-70469482D01*
X91048072Y-70345000D01*
X91045000Y-69918250D01*
X90886250Y-69759500D01*
X89662000Y-69759500D01*
X89408000Y-69759500D01*
X88183750Y-69759500D01*
X88025000Y-69918250D01*
X88021928Y-70345000D01*
X87628000Y-70345000D01*
X87628000Y-68920000D01*
X88021928Y-68920000D01*
X88025000Y-69346750D01*
X88183750Y-69505500D01*
X89408000Y-69505500D01*
X89408000Y-68443750D01*
X89662000Y-68443750D01*
X89662000Y-69505500D01*
X90886250Y-69505500D01*
X91045000Y-69346750D01*
X91048072Y-68920000D01*
X91035812Y-68795518D01*
X90999502Y-68675820D01*
X90940537Y-68565506D01*
X90861185Y-68468815D01*
X90764494Y-68389463D01*
X90654180Y-68330498D01*
X90534482Y-68294188D01*
X90410000Y-68281928D01*
X89820750Y-68285000D01*
X89662000Y-68443750D01*
X89408000Y-68443750D01*
X89249250Y-68285000D01*
X88660000Y-68281928D01*
X88535518Y-68294188D01*
X88415820Y-68330498D01*
X88305506Y-68389463D01*
X88208815Y-68468815D01*
X88129463Y-68565506D01*
X88070498Y-68675820D01*
X88034188Y-68795518D01*
X88021928Y-68920000D01*
X87628000Y-68920000D01*
X87628000Y-65207801D01*
X88093790Y-65673592D01*
X88050000Y-65893740D01*
X88050000Y-66186260D01*
X88107068Y-66473158D01*
X88219010Y-66743411D01*
X88381525Y-66986632D01*
X88588368Y-67193475D01*
X88831589Y-67355990D01*
X89101842Y-67467932D01*
X89388740Y-67525000D01*
X89681260Y-67525000D01*
X89968158Y-67467932D01*
X90238411Y-67355990D01*
X90481632Y-67193475D01*
X90688475Y-66986632D01*
X90850990Y-66743411D01*
X90962932Y-66473158D01*
X91020000Y-66186260D01*
X91020000Y-65893740D01*
X90962932Y-65606842D01*
X90850990Y-65336589D01*
X90688475Y-65093368D01*
X90481632Y-64886525D01*
X90307240Y-64770000D01*
X90481632Y-64653475D01*
X90688475Y-64446632D01*
X90850990Y-64203411D01*
X90962932Y-63933158D01*
X91020000Y-63646260D01*
X91020000Y-63353740D01*
X90962932Y-63066842D01*
X90850990Y-62796589D01*
X90688475Y-62553368D01*
X90481632Y-62346525D01*
X90307240Y-62230000D01*
X90481632Y-62113475D01*
X90688475Y-61906632D01*
X90850990Y-61663411D01*
X90962932Y-61393158D01*
X91020000Y-61106260D01*
X91020000Y-60813740D01*
X90962932Y-60526842D01*
X90850990Y-60256589D01*
X90688475Y-60013368D01*
X90481632Y-59806525D01*
X90307240Y-59690000D01*
X90481632Y-59573475D01*
X90688475Y-59366632D01*
X90850990Y-59123411D01*
X90962932Y-58853158D01*
X91020000Y-58566260D01*
X91020000Y-58273740D01*
X90962932Y-57986842D01*
X90850990Y-57716589D01*
X90688475Y-57473368D01*
X90481632Y-57266525D01*
X90307240Y-57150000D01*
X90481632Y-57033475D01*
X90688475Y-56826632D01*
X90850990Y-56583411D01*
X90962932Y-56313158D01*
X91020000Y-56026260D01*
X91020000Y-55733740D01*
X90962932Y-55446842D01*
X90850990Y-55176589D01*
X90688475Y-54933368D01*
X90481632Y-54726525D01*
X90307240Y-54610000D01*
X90481632Y-54493475D01*
X90688475Y-54286632D01*
X90850990Y-54043411D01*
X90962932Y-53773158D01*
X91020000Y-53486260D01*
X91020000Y-53193740D01*
X90962932Y-52906842D01*
X90850990Y-52636589D01*
X90688475Y-52393368D01*
X90481632Y-52186525D01*
X90307240Y-52070000D01*
X90481632Y-51953475D01*
X90688475Y-51746632D01*
X90850990Y-51503411D01*
X90962932Y-51233158D01*
X91020000Y-50946260D01*
X91020000Y-50653740D01*
X90962932Y-50366842D01*
X90850990Y-50096589D01*
X90688475Y-49853368D01*
X90556620Y-49721513D01*
X90629180Y-49699502D01*
X90739494Y-49640537D01*
X90836185Y-49561185D01*
X90915537Y-49464494D01*
X90974502Y-49354180D01*
X91010812Y-49234482D01*
X91023072Y-49110000D01*
X91020000Y-48545750D01*
X90861250Y-48387000D01*
X89662000Y-48387000D01*
X89662000Y-48407000D01*
X89408000Y-48407000D01*
X89408000Y-48387000D01*
X88208750Y-48387000D01*
X88050000Y-48545750D01*
X88046928Y-49110000D01*
X88059188Y-49234482D01*
X88095498Y-49354180D01*
X88154463Y-49464494D01*
X88233815Y-49561185D01*
X88330506Y-49640537D01*
X88440820Y-49699502D01*
X88513380Y-49721513D01*
X88381525Y-49853368D01*
X88219010Y-50096589D01*
X88107068Y-50366842D01*
X88050000Y-50653740D01*
X88050000Y-50946260D01*
X88107068Y-51233158D01*
X88219010Y-51503411D01*
X88381525Y-51746632D01*
X88588368Y-51953475D01*
X88762760Y-52070000D01*
X88588368Y-52186525D01*
X88381525Y-52393368D01*
X88254091Y-52584087D01*
X88183933Y-52590997D01*
X88040672Y-52634454D01*
X87908643Y-52705026D01*
X87792918Y-52799999D01*
X87769119Y-52828998D01*
X87418108Y-53180010D01*
X87077500Y-53180010D01*
X87077500Y-52984061D01*
X87062022Y-52906249D01*
X87160886Y-52853405D01*
X87295462Y-52742962D01*
X87405905Y-52608386D01*
X87487972Y-52454850D01*
X87538508Y-52288254D01*
X87555572Y-52115000D01*
X87555572Y-51190000D01*
X87538508Y-51016746D01*
X87487972Y-50850150D01*
X87405905Y-50696614D01*
X87295462Y-50562038D01*
X87160886Y-50451595D01*
X87007350Y-50369528D01*
X86840754Y-50318992D01*
X86667500Y-50301928D01*
X85417500Y-50301928D01*
X85244246Y-50318992D01*
X85077650Y-50369528D01*
X84924114Y-50451595D01*
X84789538Y-50562038D01*
X84679095Y-50696614D01*
X84597028Y-50850150D01*
X84546492Y-51016746D01*
X84529428Y-51190000D01*
X84529428Y-51260402D01*
X84527251Y-51257749D01*
X84407829Y-51159742D01*
X84271582Y-51086916D01*
X84123745Y-51042071D01*
X83970000Y-51026928D01*
X83670000Y-51026928D01*
X83516255Y-51042071D01*
X83368418Y-51086916D01*
X83232171Y-51159742D01*
X83185000Y-51198454D01*
X83137829Y-51159742D01*
X83001582Y-51086916D01*
X82853745Y-51042071D01*
X82700000Y-51026928D01*
X82400000Y-51026928D01*
X82246255Y-51042071D01*
X82098418Y-51086916D01*
X81962171Y-51159742D01*
X81915000Y-51198454D01*
X81867829Y-51159742D01*
X81731582Y-51086916D01*
X81583745Y-51042071D01*
X81430000Y-51026928D01*
X81130000Y-51026928D01*
X80976255Y-51042071D01*
X80828418Y-51086916D01*
X80692171Y-51159742D01*
X80645000Y-51198454D01*
X80597829Y-51159742D01*
X80461582Y-51086916D01*
X80313745Y-51042071D01*
X80160000Y-51026928D01*
X79860000Y-51026928D01*
X79706255Y-51042071D01*
X79558418Y-51086916D01*
X79422171Y-51159742D01*
X79375000Y-51198454D01*
X79327829Y-51159742D01*
X79191582Y-51086916D01*
X79043745Y-51042071D01*
X78890000Y-51026928D01*
X78590000Y-51026928D01*
X78436255Y-51042071D01*
X78288418Y-51086916D01*
X78152171Y-51159742D01*
X78105000Y-51198454D01*
X78057829Y-51159742D01*
X77921582Y-51086916D01*
X77875706Y-51073000D01*
X77952939Y-51073000D01*
X78152898Y-51033226D01*
X78341256Y-50955205D01*
X78510774Y-50841937D01*
X78654937Y-50697774D01*
X78743654Y-50565000D01*
X78841939Y-50565000D01*
X79041898Y-50525226D01*
X79230256Y-50447205D01*
X79399774Y-50333937D01*
X79543937Y-50189774D01*
X79657205Y-50020256D01*
X79735226Y-49831898D01*
X79775000Y-49631939D01*
X79775000Y-49428061D01*
X79747943Y-49292035D01*
X79860000Y-49303072D01*
X80160000Y-49303072D01*
X80313745Y-49287929D01*
X80461582Y-49243084D01*
X80597829Y-49170258D01*
X80645000Y-49131546D01*
X80692171Y-49170258D01*
X80828418Y-49243084D01*
X80976255Y-49287929D01*
X81130000Y-49303072D01*
X81430000Y-49303072D01*
X81583745Y-49287929D01*
X81731582Y-49243084D01*
X81867829Y-49170258D01*
X81915000Y-49131546D01*
X81962171Y-49170258D01*
X82098418Y-49243084D01*
X82246255Y-49287929D01*
X82400000Y-49303072D01*
X82700000Y-49303072D01*
X82853745Y-49287929D01*
X83001582Y-49243084D01*
X83135936Y-49171270D01*
X83165506Y-49195537D01*
X83275820Y-49254502D01*
X83395518Y-49290812D01*
X83520000Y-49303072D01*
X83534250Y-49300000D01*
X83693000Y-49141250D01*
X83693000Y-47817000D01*
X83673000Y-47817000D01*
X83673000Y-47563000D01*
X83693000Y-47563000D01*
X83693000Y-46238750D01*
X83947000Y-46238750D01*
X83947000Y-47563000D01*
X83967000Y-47563000D01*
X83967000Y-47817000D01*
X83947000Y-47817000D01*
X83947000Y-49141250D01*
X84105750Y-49300000D01*
X84120000Y-49303072D01*
X84244482Y-49290812D01*
X84364180Y-49254502D01*
X84474494Y-49195537D01*
X84531163Y-49149030D01*
X84529428Y-49390000D01*
X84541688Y-49514482D01*
X84577998Y-49634180D01*
X84636963Y-49744494D01*
X84716315Y-49841185D01*
X84813006Y-49920537D01*
X84923320Y-49979502D01*
X85043018Y-50015812D01*
X85167500Y-50028072D01*
X85756750Y-50025000D01*
X85915500Y-49866250D01*
X85915500Y-48804500D01*
X86169500Y-48804500D01*
X86169500Y-49866250D01*
X86328250Y-50025000D01*
X86917500Y-50028072D01*
X87041982Y-50015812D01*
X87161680Y-49979502D01*
X87271994Y-49920537D01*
X87368685Y-49841185D01*
X87448037Y-49744494D01*
X87507002Y-49634180D01*
X87543312Y-49514482D01*
X87555572Y-49390000D01*
X87552500Y-48963250D01*
X87393750Y-48804500D01*
X86169500Y-48804500D01*
X85915500Y-48804500D01*
X85895500Y-48804500D01*
X85895500Y-48550500D01*
X85915500Y-48550500D01*
X85915500Y-47488750D01*
X86169500Y-47488750D01*
X86169500Y-48550500D01*
X87393750Y-48550500D01*
X87552500Y-48391750D01*
X87555572Y-47965000D01*
X87543312Y-47840518D01*
X87507002Y-47720820D01*
X87448037Y-47610506D01*
X87368685Y-47513815D01*
X87271994Y-47434463D01*
X87226228Y-47410000D01*
X88046928Y-47410000D01*
X88050000Y-47974250D01*
X88208750Y-48133000D01*
X89408000Y-48133000D01*
X89408000Y-46933750D01*
X89662000Y-46933750D01*
X89662000Y-48133000D01*
X90861250Y-48133000D01*
X91020000Y-47974250D01*
X91023072Y-47410000D01*
X91010812Y-47285518D01*
X90974502Y-47165820D01*
X90915537Y-47055506D01*
X90836185Y-46958815D01*
X90739494Y-46879463D01*
X90629180Y-46820498D01*
X90509482Y-46784188D01*
X90385000Y-46771928D01*
X89820750Y-46775000D01*
X89662000Y-46933750D01*
X89408000Y-46933750D01*
X89249250Y-46775000D01*
X88685000Y-46771928D01*
X88560518Y-46784188D01*
X88440820Y-46820498D01*
X88330506Y-46879463D01*
X88233815Y-46958815D01*
X88154463Y-47055506D01*
X88095498Y-47165820D01*
X88059188Y-47285518D01*
X88046928Y-47410000D01*
X87226228Y-47410000D01*
X87161680Y-47375498D01*
X87041982Y-47339188D01*
X86917500Y-47326928D01*
X86328250Y-47330000D01*
X86169500Y-47488750D01*
X85915500Y-47488750D01*
X85756750Y-47330000D01*
X85167500Y-47326928D01*
X85043018Y-47339188D01*
X84923320Y-47375498D01*
X84813006Y-47434463D01*
X84716315Y-47513815D01*
X84675952Y-47562998D01*
X84596252Y-47562998D01*
X84755000Y-47404250D01*
X84758072Y-46715000D01*
X84745812Y-46590518D01*
X84709502Y-46470820D01*
X84650537Y-46360506D01*
X84571185Y-46263815D01*
X84474494Y-46184463D01*
X84364180Y-46125498D01*
X84244482Y-46089188D01*
X84120000Y-46076928D01*
X84105750Y-46080000D01*
X83947000Y-46238750D01*
X83693000Y-46238750D01*
X83554630Y-46100380D01*
X83545226Y-46053102D01*
X83467205Y-45864744D01*
X83353937Y-45695226D01*
X83209774Y-45551063D01*
X83040256Y-45437795D01*
X82851898Y-45359774D01*
X82651939Y-45320000D01*
X82448061Y-45320000D01*
X82248102Y-45359774D01*
X82059744Y-45437795D01*
X81915000Y-45534510D01*
X81770256Y-45437795D01*
X81581898Y-45359774D01*
X81381939Y-45320000D01*
X81178061Y-45320000D01*
X80978102Y-45359774D01*
X80789744Y-45437795D01*
X80645000Y-45534510D01*
X80500256Y-45437795D01*
X80311898Y-45359774D01*
X80111939Y-45320000D01*
X79908061Y-45320000D01*
X79708102Y-45359774D01*
X79519744Y-45437795D01*
X79350226Y-45551063D01*
X79206063Y-45695226D01*
X79092795Y-45864744D01*
X79014774Y-46053102D01*
X79007728Y-46088524D01*
X78890000Y-46076928D01*
X78590000Y-46076928D01*
X78436255Y-46092071D01*
X78288418Y-46136916D01*
X78152171Y-46209742D01*
X78105000Y-46248454D01*
X78057829Y-46209742D01*
X77921582Y-46136916D01*
X77773745Y-46092071D01*
X77620000Y-46076928D01*
X77320000Y-46076928D01*
X77166255Y-46092071D01*
X77018418Y-46136916D01*
X76882171Y-46209742D01*
X76835000Y-46248454D01*
X76787829Y-46209742D01*
X76651582Y-46136916D01*
X76503745Y-46092071D01*
X76350000Y-46076928D01*
X76050000Y-46076928D01*
X75896255Y-46092071D01*
X75748418Y-46136916D01*
X75612171Y-46209742D01*
X75492749Y-46307749D01*
X75394742Y-46427171D01*
X75321916Y-46563418D01*
X75277071Y-46711255D01*
X75261928Y-46865000D01*
X75261928Y-46930000D01*
X75029322Y-46930000D01*
X74991999Y-46926324D01*
X74954676Y-46930000D01*
X74954667Y-46930000D01*
X74843014Y-46940997D01*
X74699753Y-46984454D01*
X74567724Y-47055026D01*
X74451999Y-47149999D01*
X74428201Y-47178997D01*
X73367000Y-48240199D01*
X73367000Y-48132998D01*
X73202156Y-48132998D01*
X73323476Y-47903110D01*
X73278825Y-47755901D01*
X73153641Y-47493080D01*
X72979588Y-47259731D01*
X72763355Y-47064822D01*
X72513252Y-46915843D01*
X72238891Y-46818519D01*
X72009000Y-46939186D01*
X72009000Y-48133000D01*
X72029000Y-48133000D01*
X72029000Y-48387000D01*
X72009000Y-48387000D01*
X72009000Y-48407000D01*
X71755000Y-48407000D01*
X71755000Y-48387000D01*
X71735000Y-48387000D01*
X71735000Y-48133000D01*
X71755000Y-48133000D01*
X71755000Y-46939186D01*
X71525109Y-46818519D01*
X71250748Y-46915843D01*
X71000645Y-47064822D01*
X70804498Y-47241626D01*
X70781502Y-47165820D01*
X70722537Y-47055506D01*
X70643185Y-46958815D01*
X70546494Y-46879463D01*
X70436180Y-46820498D01*
X70316482Y-46784188D01*
X70192000Y-46771928D01*
X68492000Y-46771928D01*
X68367518Y-46784188D01*
X68247820Y-46820498D01*
X68137506Y-46879463D01*
X68040815Y-46958815D01*
X67961463Y-47055506D01*
X67902498Y-47165820D01*
X67866188Y-47285518D01*
X67853928Y-47410000D01*
X67853928Y-49110000D01*
X67866188Y-49234482D01*
X67902498Y-49354180D01*
X67961463Y-49464494D01*
X68040815Y-49561185D01*
X68137506Y-49640537D01*
X68247820Y-49699502D01*
X68320380Y-49721513D01*
X68188525Y-49853368D01*
X68026010Y-50096589D01*
X67914068Y-50366842D01*
X67857000Y-50653740D01*
X67857000Y-50946260D01*
X67900790Y-51166408D01*
X66743988Y-52323211D01*
X66714990Y-52347009D01*
X66691192Y-52376007D01*
X66691191Y-52376008D01*
X66620016Y-52462734D01*
X66549444Y-52594764D01*
X66523423Y-52680547D01*
X66511922Y-52718464D01*
X66505988Y-52738025D01*
X66491314Y-52887010D01*
X57447642Y-52887010D01*
X57432205Y-52849744D01*
X57333534Y-52702072D01*
X58315000Y-52702072D01*
X58439482Y-52689812D01*
X58559180Y-52653502D01*
X58669494Y-52594537D01*
X58766185Y-52515185D01*
X58845537Y-52418494D01*
X58904502Y-52308180D01*
X58940812Y-52188482D01*
X58953072Y-52064000D01*
X58953072Y-44964000D01*
X58940812Y-44839518D01*
X58904502Y-44719820D01*
X58845537Y-44609506D01*
X58766185Y-44512815D01*
X58669494Y-44433463D01*
X58559180Y-44374498D01*
X58439482Y-44338188D01*
X58315000Y-44325928D01*
X54715000Y-44325928D01*
X54590518Y-44338188D01*
X54470820Y-44374498D01*
X54360506Y-44433463D01*
X54263815Y-44512815D01*
X54184463Y-44609506D01*
X54125498Y-44719820D01*
X54089188Y-44839518D01*
X54076928Y-44964000D01*
X46482000Y-44964000D01*
X46482000Y-43942000D01*
X91948000Y-43942000D01*
X91948000Y-77978000D01*
M02*
