M48
; DRILL file {KiCad 5.1.5} date Mi 01 Jan 2020 10:59:17 CET
; FORMAT={-:-/ absolute / inch / decimal}
; #@! TF.CreationDate,2020-01-01T10:59:17+01:00
; #@! TF.GenerationSoftware,Kicad,Pcbnew,5.1.5
; #@! TF.FileFunction,Plated,1,2,PTH
FMAT,2
INCH
T1C0.0157
T2C0.0394
%
G90
G05
T1
X2.225Y-2.1
X2.65Y-3.005
X2.75Y-2.3
X2.75Y-2.85
X2.83Y-2.19
X2.955Y-2.145
X3.065Y-1.97
X3.065Y-2.94
X3.1Y-1.95
X3.1Y-2.17
X3.15Y-1.825
X3.2Y-1.825
X3.2Y-2.455
X3.25Y-1.825
X3.25Y-2.455
X3.2518Y-2.536
X3.275Y-2.775
X3.3Y-1.825
X3.3875Y-2.09
T2
X3.525Y-1.9
X3.525Y-2.0
X3.525Y-2.1
X3.525Y-2.2
X3.525Y-2.3
X3.525Y-2.4
X3.525Y-2.5
X3.525Y-2.6
X3.525Y-3.0
X2.73Y-1.9
X2.73Y-2.0
X2.73Y-2.1
X2.83Y-1.9
X2.83Y-2.0
X2.83Y-2.1
T0
M30
