M48
; DRILL file {KiCad (5.1.8)-1} date 02/09/21 21:04:36
; FORMAT={-:-/ absolute / inch / decimal}
; #@! TF.CreationDate,2021-02-09T21:04:36+01:00
; #@! TF.GenerationSoftware,Kicad,Pcbnew,(5.1.8)-1
FMAT,2
INCH
T1C0.0394
T2C0.0433
T3C0.1260
%
G90
G05
T1
X2.3543Y-2.8268
X2.3543Y-2.9268
X2.4543Y-2.8268
X2.4543Y-2.9268
X2.5543Y-2.8268
X2.5543Y-2.9268
X2.6543Y-2.8268
X2.6543Y-2.9268
X2.9606Y-2.8268
X2.9606Y-2.9268
X3.0606Y-2.8268
X3.0606Y-2.9268
X3.1606Y-2.8268
X3.1606Y-2.9268
T2
X3.129Y-2.34
X3.129Y-2.44
X3.129Y-2.54
X3.229Y-2.34
X3.229Y-2.44
X3.229Y-2.54
X2.28Y-2.54
X2.38Y-2.54
X2.48Y-2.54
X2.58Y-2.54
X2.68Y-2.54
X2.78Y-2.54
X2.88Y-2.54
X2.98Y-2.54
T3
X3.0227Y-3.2717
X2.5109Y-3.2717
T0
M30
