G04 #@! TF.GenerationSoftware,KiCad,Pcbnew,(5.1.8)-1*
G04 #@! TF.CreationDate,2020-11-18T10:28:03+01:00*
G04 #@! TF.ProjectId,LORA_ATTINY84,4c4f5241-5f41-4545-9449-4e5938342e6b,rev?*
G04 #@! TF.SameCoordinates,Original*
G04 #@! TF.FileFunction,Copper,L1,Top*
G04 #@! TF.FilePolarity,Positive*
%FSLAX46Y46*%
G04 Gerber Fmt 4.6, Leading zero omitted, Abs format (unit mm)*
G04 Created by KiCad (PCBNEW (5.1.8)-1) date 2020-11-18 10:28:03*
%MOMM*%
%LPD*%
G01*
G04 APERTURE LIST*
G04 #@! TA.AperFunction,ComponentPad*
%ADD10O,1.700000X1.700000*%
G04 #@! TD*
G04 #@! TA.AperFunction,ComponentPad*
%ADD11R,1.700000X1.700000*%
G04 #@! TD*
G04 #@! TA.AperFunction,Conductor*
%ADD12C,0.250000*%
G04 #@! TD*
G04 #@! TA.AperFunction,Conductor*
%ADD13C,0.254000*%
G04 #@! TD*
G04 #@! TA.AperFunction,Conductor*
%ADD14C,0.100000*%
G04 #@! TD*
G04 APERTURE END LIST*
D10*
X73863200Y-73837800D03*
X71323200Y-73837800D03*
X68783200Y-73837800D03*
D11*
X66243200Y-73837800D03*
X66243200Y-68580000D03*
D10*
X68783200Y-68580000D03*
X71323200Y-68580000D03*
X73863200Y-68580000D03*
D12*
X66294000Y-68630800D02*
X66243200Y-68580000D01*
X66294000Y-74422000D02*
X66294000Y-68630800D01*
X73914000Y-68630800D02*
X73863200Y-68580000D01*
X73914000Y-74422000D02*
X73914000Y-68630800D01*
X71374000Y-68630800D02*
X71323200Y-68580000D01*
X71374000Y-74422000D02*
X71374000Y-68630800D01*
D13*
X65038706Y-67199463D02*
X64942015Y-67278815D01*
X64862663Y-67375506D01*
X64803698Y-67485820D01*
X64767388Y-67605518D01*
X64755128Y-67730000D01*
X64755128Y-69430000D01*
X64767388Y-69554482D01*
X64803698Y-69674180D01*
X64862663Y-69784494D01*
X64942015Y-69881185D01*
X65038706Y-69960537D01*
X65149020Y-70019502D01*
X65268718Y-70055812D01*
X65393200Y-70068072D01*
X65534001Y-70068072D01*
X65534000Y-72349728D01*
X65393200Y-72349728D01*
X65268718Y-72361988D01*
X65149020Y-72398298D01*
X65038706Y-72457263D01*
X64942015Y-72536615D01*
X64862663Y-72633306D01*
X64803698Y-72743620D01*
X64767388Y-72863318D01*
X64755128Y-72987800D01*
X64755128Y-74687800D01*
X64767388Y-74812282D01*
X64803698Y-74931980D01*
X64862663Y-75042294D01*
X64942015Y-75138985D01*
X65038706Y-75218337D01*
X65149020Y-75277302D01*
X65268718Y-75313612D01*
X65393200Y-75325872D01*
X67093200Y-75325872D01*
X67217682Y-75313612D01*
X67337380Y-75277302D01*
X67447694Y-75218337D01*
X67544385Y-75138985D01*
X67623737Y-75042294D01*
X67682702Y-74931980D01*
X67707166Y-74851334D01*
X67782931Y-74935388D01*
X68016280Y-75109441D01*
X68279101Y-75234625D01*
X68426310Y-75279276D01*
X68656200Y-75157955D01*
X68656200Y-73964800D01*
X68636200Y-73964800D01*
X68636200Y-73710800D01*
X68656200Y-73710800D01*
X68656200Y-72517645D01*
X68426310Y-72396324D01*
X68279101Y-72440975D01*
X68016280Y-72566159D01*
X67782931Y-72740212D01*
X67707166Y-72824266D01*
X67682702Y-72743620D01*
X67623737Y-72633306D01*
X67544385Y-72536615D01*
X67447694Y-72457263D01*
X67337380Y-72398298D01*
X67217682Y-72361988D01*
X67093200Y-72349728D01*
X67054000Y-72349728D01*
X67054000Y-70068072D01*
X67093200Y-70068072D01*
X67217682Y-70055812D01*
X67337380Y-70019502D01*
X67447694Y-69960537D01*
X67544385Y-69881185D01*
X67623737Y-69784494D01*
X67682702Y-69674180D01*
X67707166Y-69593534D01*
X67782931Y-69677588D01*
X68016280Y-69851641D01*
X68279101Y-69976825D01*
X68426310Y-70021476D01*
X68656200Y-69900155D01*
X68656200Y-68707000D01*
X68636200Y-68707000D01*
X68636200Y-68453000D01*
X68656200Y-68453000D01*
X68656200Y-68433000D01*
X68910200Y-68433000D01*
X68910200Y-68453000D01*
X68930200Y-68453000D01*
X68930200Y-68707000D01*
X68910200Y-68707000D01*
X68910200Y-69900155D01*
X69140090Y-70021476D01*
X69287299Y-69976825D01*
X69550120Y-69851641D01*
X69783469Y-69677588D01*
X69978378Y-69461355D01*
X70048005Y-69344466D01*
X70169725Y-69526632D01*
X70376568Y-69733475D01*
X70614001Y-69892122D01*
X70614000Y-72525678D01*
X70376568Y-72684325D01*
X70169725Y-72891168D01*
X70048005Y-73073334D01*
X69978378Y-72956445D01*
X69783469Y-72740212D01*
X69550120Y-72566159D01*
X69287299Y-72440975D01*
X69140090Y-72396324D01*
X68910200Y-72517645D01*
X68910200Y-73710800D01*
X68930200Y-73710800D01*
X68930200Y-73964800D01*
X68910200Y-73964800D01*
X68910200Y-75157955D01*
X69140090Y-75279276D01*
X69287299Y-75234625D01*
X69550120Y-75109441D01*
X69783469Y-74935388D01*
X69978378Y-74719155D01*
X70048005Y-74602266D01*
X70169725Y-74784432D01*
X70376568Y-74991275D01*
X70619789Y-75153790D01*
X70890042Y-75265732D01*
X71176940Y-75322800D01*
X71469460Y-75322800D01*
X71756358Y-75265732D01*
X72026611Y-75153790D01*
X72269832Y-74991275D01*
X72476675Y-74784432D01*
X72593200Y-74610040D01*
X72709725Y-74784432D01*
X72916568Y-74991275D01*
X73159789Y-75153790D01*
X73430042Y-75265732D01*
X73716940Y-75322800D01*
X74009460Y-75322800D01*
X74296358Y-75265732D01*
X74566611Y-75153790D01*
X74809832Y-74991275D01*
X75016675Y-74784432D01*
X75179190Y-74541211D01*
X75291132Y-74270958D01*
X75348200Y-73984060D01*
X75348200Y-73691540D01*
X75291132Y-73404642D01*
X75179190Y-73134389D01*
X75016675Y-72891168D01*
X74809832Y-72684325D01*
X74674000Y-72593565D01*
X74674000Y-69824235D01*
X74809832Y-69733475D01*
X75016675Y-69526632D01*
X75179190Y-69283411D01*
X75291132Y-69013158D01*
X75348200Y-68726260D01*
X75348200Y-68433740D01*
X75291132Y-68146842D01*
X75179190Y-67876589D01*
X75016675Y-67633368D01*
X74809832Y-67426525D01*
X74566611Y-67264010D01*
X74308748Y-67157200D01*
X75844801Y-67157200D01*
X75844800Y-77056748D01*
X75841608Y-77089317D01*
X75847816Y-77152039D01*
X75854350Y-77218382D01*
X75854398Y-77218539D01*
X75854413Y-77218694D01*
X75872970Y-77279762D01*
X75892090Y-77342792D01*
X75892166Y-77342934D01*
X75892212Y-77343086D01*
X75922560Y-77399798D01*
X75953375Y-77457449D01*
X75953478Y-77457574D01*
X75953552Y-77457713D01*
X75994043Y-77507004D01*
X76035852Y-77557948D01*
X76035978Y-77558051D01*
X76036077Y-77558172D01*
X76085018Y-77598298D01*
X76136350Y-77640425D01*
X76136495Y-77640502D01*
X76136615Y-77640601D01*
X76192502Y-77670439D01*
X76251007Y-77701710D01*
X76251163Y-77701757D01*
X76251301Y-77701831D01*
X76311775Y-77720144D01*
X76375417Y-77739450D01*
X76375581Y-77739466D01*
X76375729Y-77739511D01*
X76438817Y-77745694D01*
X76504800Y-77752193D01*
X76537381Y-77748984D01*
X79604001Y-77747516D01*
X79604000Y-87427200D01*
X60908800Y-87427200D01*
X60908800Y-82779872D01*
X61442800Y-82779872D01*
X61442800Y-83220128D01*
X61528690Y-83651925D01*
X61697169Y-84058669D01*
X61941762Y-84424729D01*
X62253071Y-84736038D01*
X62619131Y-84980631D01*
X63025875Y-85149110D01*
X63457672Y-85235000D01*
X63897928Y-85235000D01*
X64329725Y-85149110D01*
X64736469Y-84980631D01*
X65102529Y-84736038D01*
X65413838Y-84424729D01*
X65658431Y-84058669D01*
X65826910Y-83651925D01*
X65912800Y-83220128D01*
X65912800Y-82779872D01*
X74541000Y-82779872D01*
X74541000Y-83220128D01*
X74626890Y-83651925D01*
X74795369Y-84058669D01*
X75039962Y-84424729D01*
X75351271Y-84736038D01*
X75717331Y-84980631D01*
X76124075Y-85149110D01*
X76555872Y-85235000D01*
X76996128Y-85235000D01*
X77427925Y-85149110D01*
X77834669Y-84980631D01*
X78200729Y-84736038D01*
X78512038Y-84424729D01*
X78756631Y-84058669D01*
X78925110Y-83651925D01*
X79011000Y-83220128D01*
X79011000Y-82779872D01*
X78925110Y-82348075D01*
X78756631Y-81941331D01*
X78512038Y-81575271D01*
X78200729Y-81263962D01*
X77834669Y-81019369D01*
X77427925Y-80850890D01*
X76996128Y-80765000D01*
X76555872Y-80765000D01*
X76124075Y-80850890D01*
X75717331Y-81019369D01*
X75351271Y-81263962D01*
X75039962Y-81575271D01*
X74795369Y-81941331D01*
X74626890Y-82348075D01*
X74541000Y-82779872D01*
X65912800Y-82779872D01*
X65826910Y-82348075D01*
X65658431Y-81941331D01*
X65413838Y-81575271D01*
X65102529Y-81263962D01*
X64736469Y-81019369D01*
X64329725Y-80850890D01*
X63897928Y-80765000D01*
X63457672Y-80765000D01*
X63025875Y-80850890D01*
X62619131Y-81019369D01*
X62253071Y-81263962D01*
X61941762Y-81575271D01*
X61697169Y-81941331D01*
X61528690Y-82348075D01*
X61442800Y-82779872D01*
X60908800Y-82779872D01*
X60908800Y-77747551D01*
X63594403Y-77748983D01*
X63627000Y-77752193D01*
X63692475Y-77745744D01*
X63756035Y-77739518D01*
X63756201Y-77739468D01*
X63756382Y-77739450D01*
X63819231Y-77720385D01*
X63880466Y-77701845D01*
X63880623Y-77701761D01*
X63880792Y-77701710D01*
X63938100Y-77671078D01*
X63995155Y-77640621D01*
X63995291Y-77640509D01*
X63995449Y-77640425D01*
X64046717Y-77598350D01*
X64095697Y-77558197D01*
X64095805Y-77558065D01*
X64095948Y-77557948D01*
X64138423Y-77506192D01*
X64178228Y-77457743D01*
X64178309Y-77457591D01*
X64178425Y-77457450D01*
X64209736Y-77398871D01*
X64239574Y-77343119D01*
X64239624Y-77342953D01*
X64239710Y-77342793D01*
X64259040Y-77279071D01*
X64277380Y-77218729D01*
X64277397Y-77218558D01*
X64277450Y-77218383D01*
X64283980Y-77152086D01*
X64290192Y-77089353D01*
X64287000Y-77056766D01*
X64287000Y-67157200D01*
X65117773Y-67157200D01*
X65038706Y-67199463D01*
G04 #@! TA.AperFunction,Conductor*
D14*
G36*
X65038706Y-67199463D02*
G01*
X64942015Y-67278815D01*
X64862663Y-67375506D01*
X64803698Y-67485820D01*
X64767388Y-67605518D01*
X64755128Y-67730000D01*
X64755128Y-69430000D01*
X64767388Y-69554482D01*
X64803698Y-69674180D01*
X64862663Y-69784494D01*
X64942015Y-69881185D01*
X65038706Y-69960537D01*
X65149020Y-70019502D01*
X65268718Y-70055812D01*
X65393200Y-70068072D01*
X65534001Y-70068072D01*
X65534000Y-72349728D01*
X65393200Y-72349728D01*
X65268718Y-72361988D01*
X65149020Y-72398298D01*
X65038706Y-72457263D01*
X64942015Y-72536615D01*
X64862663Y-72633306D01*
X64803698Y-72743620D01*
X64767388Y-72863318D01*
X64755128Y-72987800D01*
X64755128Y-74687800D01*
X64767388Y-74812282D01*
X64803698Y-74931980D01*
X64862663Y-75042294D01*
X64942015Y-75138985D01*
X65038706Y-75218337D01*
X65149020Y-75277302D01*
X65268718Y-75313612D01*
X65393200Y-75325872D01*
X67093200Y-75325872D01*
X67217682Y-75313612D01*
X67337380Y-75277302D01*
X67447694Y-75218337D01*
X67544385Y-75138985D01*
X67623737Y-75042294D01*
X67682702Y-74931980D01*
X67707166Y-74851334D01*
X67782931Y-74935388D01*
X68016280Y-75109441D01*
X68279101Y-75234625D01*
X68426310Y-75279276D01*
X68656200Y-75157955D01*
X68656200Y-73964800D01*
X68636200Y-73964800D01*
X68636200Y-73710800D01*
X68656200Y-73710800D01*
X68656200Y-72517645D01*
X68426310Y-72396324D01*
X68279101Y-72440975D01*
X68016280Y-72566159D01*
X67782931Y-72740212D01*
X67707166Y-72824266D01*
X67682702Y-72743620D01*
X67623737Y-72633306D01*
X67544385Y-72536615D01*
X67447694Y-72457263D01*
X67337380Y-72398298D01*
X67217682Y-72361988D01*
X67093200Y-72349728D01*
X67054000Y-72349728D01*
X67054000Y-70068072D01*
X67093200Y-70068072D01*
X67217682Y-70055812D01*
X67337380Y-70019502D01*
X67447694Y-69960537D01*
X67544385Y-69881185D01*
X67623737Y-69784494D01*
X67682702Y-69674180D01*
X67707166Y-69593534D01*
X67782931Y-69677588D01*
X68016280Y-69851641D01*
X68279101Y-69976825D01*
X68426310Y-70021476D01*
X68656200Y-69900155D01*
X68656200Y-68707000D01*
X68636200Y-68707000D01*
X68636200Y-68453000D01*
X68656200Y-68453000D01*
X68656200Y-68433000D01*
X68910200Y-68433000D01*
X68910200Y-68453000D01*
X68930200Y-68453000D01*
X68930200Y-68707000D01*
X68910200Y-68707000D01*
X68910200Y-69900155D01*
X69140090Y-70021476D01*
X69287299Y-69976825D01*
X69550120Y-69851641D01*
X69783469Y-69677588D01*
X69978378Y-69461355D01*
X70048005Y-69344466D01*
X70169725Y-69526632D01*
X70376568Y-69733475D01*
X70614001Y-69892122D01*
X70614000Y-72525678D01*
X70376568Y-72684325D01*
X70169725Y-72891168D01*
X70048005Y-73073334D01*
X69978378Y-72956445D01*
X69783469Y-72740212D01*
X69550120Y-72566159D01*
X69287299Y-72440975D01*
X69140090Y-72396324D01*
X68910200Y-72517645D01*
X68910200Y-73710800D01*
X68930200Y-73710800D01*
X68930200Y-73964800D01*
X68910200Y-73964800D01*
X68910200Y-75157955D01*
X69140090Y-75279276D01*
X69287299Y-75234625D01*
X69550120Y-75109441D01*
X69783469Y-74935388D01*
X69978378Y-74719155D01*
X70048005Y-74602266D01*
X70169725Y-74784432D01*
X70376568Y-74991275D01*
X70619789Y-75153790D01*
X70890042Y-75265732D01*
X71176940Y-75322800D01*
X71469460Y-75322800D01*
X71756358Y-75265732D01*
X72026611Y-75153790D01*
X72269832Y-74991275D01*
X72476675Y-74784432D01*
X72593200Y-74610040D01*
X72709725Y-74784432D01*
X72916568Y-74991275D01*
X73159789Y-75153790D01*
X73430042Y-75265732D01*
X73716940Y-75322800D01*
X74009460Y-75322800D01*
X74296358Y-75265732D01*
X74566611Y-75153790D01*
X74809832Y-74991275D01*
X75016675Y-74784432D01*
X75179190Y-74541211D01*
X75291132Y-74270958D01*
X75348200Y-73984060D01*
X75348200Y-73691540D01*
X75291132Y-73404642D01*
X75179190Y-73134389D01*
X75016675Y-72891168D01*
X74809832Y-72684325D01*
X74674000Y-72593565D01*
X74674000Y-69824235D01*
X74809832Y-69733475D01*
X75016675Y-69526632D01*
X75179190Y-69283411D01*
X75291132Y-69013158D01*
X75348200Y-68726260D01*
X75348200Y-68433740D01*
X75291132Y-68146842D01*
X75179190Y-67876589D01*
X75016675Y-67633368D01*
X74809832Y-67426525D01*
X74566611Y-67264010D01*
X74308748Y-67157200D01*
X75844801Y-67157200D01*
X75844800Y-77056748D01*
X75841608Y-77089317D01*
X75847816Y-77152039D01*
X75854350Y-77218382D01*
X75854398Y-77218539D01*
X75854413Y-77218694D01*
X75872970Y-77279762D01*
X75892090Y-77342792D01*
X75892166Y-77342934D01*
X75892212Y-77343086D01*
X75922560Y-77399798D01*
X75953375Y-77457449D01*
X75953478Y-77457574D01*
X75953552Y-77457713D01*
X75994043Y-77507004D01*
X76035852Y-77557948D01*
X76035978Y-77558051D01*
X76036077Y-77558172D01*
X76085018Y-77598298D01*
X76136350Y-77640425D01*
X76136495Y-77640502D01*
X76136615Y-77640601D01*
X76192502Y-77670439D01*
X76251007Y-77701710D01*
X76251163Y-77701757D01*
X76251301Y-77701831D01*
X76311775Y-77720144D01*
X76375417Y-77739450D01*
X76375581Y-77739466D01*
X76375729Y-77739511D01*
X76438817Y-77745694D01*
X76504800Y-77752193D01*
X76537381Y-77748984D01*
X79604001Y-77747516D01*
X79604000Y-87427200D01*
X60908800Y-87427200D01*
X60908800Y-82779872D01*
X61442800Y-82779872D01*
X61442800Y-83220128D01*
X61528690Y-83651925D01*
X61697169Y-84058669D01*
X61941762Y-84424729D01*
X62253071Y-84736038D01*
X62619131Y-84980631D01*
X63025875Y-85149110D01*
X63457672Y-85235000D01*
X63897928Y-85235000D01*
X64329725Y-85149110D01*
X64736469Y-84980631D01*
X65102529Y-84736038D01*
X65413838Y-84424729D01*
X65658431Y-84058669D01*
X65826910Y-83651925D01*
X65912800Y-83220128D01*
X65912800Y-82779872D01*
X74541000Y-82779872D01*
X74541000Y-83220128D01*
X74626890Y-83651925D01*
X74795369Y-84058669D01*
X75039962Y-84424729D01*
X75351271Y-84736038D01*
X75717331Y-84980631D01*
X76124075Y-85149110D01*
X76555872Y-85235000D01*
X76996128Y-85235000D01*
X77427925Y-85149110D01*
X77834669Y-84980631D01*
X78200729Y-84736038D01*
X78512038Y-84424729D01*
X78756631Y-84058669D01*
X78925110Y-83651925D01*
X79011000Y-83220128D01*
X79011000Y-82779872D01*
X78925110Y-82348075D01*
X78756631Y-81941331D01*
X78512038Y-81575271D01*
X78200729Y-81263962D01*
X77834669Y-81019369D01*
X77427925Y-80850890D01*
X76996128Y-80765000D01*
X76555872Y-80765000D01*
X76124075Y-80850890D01*
X75717331Y-81019369D01*
X75351271Y-81263962D01*
X75039962Y-81575271D01*
X74795369Y-81941331D01*
X74626890Y-82348075D01*
X74541000Y-82779872D01*
X65912800Y-82779872D01*
X65826910Y-82348075D01*
X65658431Y-81941331D01*
X65413838Y-81575271D01*
X65102529Y-81263962D01*
X64736469Y-81019369D01*
X64329725Y-80850890D01*
X63897928Y-80765000D01*
X63457672Y-80765000D01*
X63025875Y-80850890D01*
X62619131Y-81019369D01*
X62253071Y-81263962D01*
X61941762Y-81575271D01*
X61697169Y-81941331D01*
X61528690Y-82348075D01*
X61442800Y-82779872D01*
X60908800Y-82779872D01*
X60908800Y-77747551D01*
X63594403Y-77748983D01*
X63627000Y-77752193D01*
X63692475Y-77745744D01*
X63756035Y-77739518D01*
X63756201Y-77739468D01*
X63756382Y-77739450D01*
X63819231Y-77720385D01*
X63880466Y-77701845D01*
X63880623Y-77701761D01*
X63880792Y-77701710D01*
X63938100Y-77671078D01*
X63995155Y-77640621D01*
X63995291Y-77640509D01*
X63995449Y-77640425D01*
X64046717Y-77598350D01*
X64095697Y-77558197D01*
X64095805Y-77558065D01*
X64095948Y-77557948D01*
X64138423Y-77506192D01*
X64178228Y-77457743D01*
X64178309Y-77457591D01*
X64178425Y-77457450D01*
X64209736Y-77398871D01*
X64239574Y-77343119D01*
X64239624Y-77342953D01*
X64239710Y-77342793D01*
X64259040Y-77279071D01*
X64277380Y-77218729D01*
X64277397Y-77218558D01*
X64277450Y-77218383D01*
X64283980Y-77152086D01*
X64290192Y-77089353D01*
X64287000Y-77056766D01*
X64287000Y-67157200D01*
X65117773Y-67157200D01*
X65038706Y-67199463D01*
G37*
G04 #@! TD.AperFunction*
M02*
