G04 #@! TF.GenerationSoftware,KiCad,Pcbnew,(5.1.8)-1*
G04 #@! TF.CreationDate,2020-11-18T10:28:03+01:00*
G04 #@! TF.ProjectId,LORA_ATTINY84,4c4f5241-5f41-4545-9449-4e5938342e6b,rev?*
G04 #@! TF.SameCoordinates,Original*
G04 #@! TF.FileFunction,Legend,Top*
G04 #@! TF.FilePolarity,Positive*
%FSLAX46Y46*%
G04 Gerber Fmt 4.6, Leading zero omitted, Abs format (unit mm)*
G04 Created by KiCad (PCBNEW (5.1.8)-1) date 2020-11-18 10:28:03*
%MOMM*%
%LPD*%
G01*
G04 APERTURE LIST*
%ADD10C,0.100000*%
%ADD11C,0.125000*%
%ADD12C,0.150000*%
%ADD13C,0.010000*%
%ADD14C,0.120000*%
G04 APERTURE END LIST*
D10*
X73054085Y-76554371D02*
X73161228Y-76590085D01*
X73339800Y-76590085D01*
X73411228Y-76554371D01*
X73446942Y-76518657D01*
X73482657Y-76447228D01*
X73482657Y-76375800D01*
X73446942Y-76304371D01*
X73411228Y-76268657D01*
X73339800Y-76232942D01*
X73196942Y-76197228D01*
X73125514Y-76161514D01*
X73089800Y-76125800D01*
X73054085Y-76054371D01*
X73054085Y-75982942D01*
X73089800Y-75911514D01*
X73125514Y-75875800D01*
X73196942Y-75840085D01*
X73375514Y-75840085D01*
X73482657Y-75875800D01*
X73804085Y-76590085D02*
X73804085Y-75840085D01*
X73982657Y-75840085D01*
X74089800Y-75875800D01*
X74161228Y-75947228D01*
X74196942Y-76018657D01*
X74232657Y-76161514D01*
X74232657Y-76268657D01*
X74196942Y-76411514D01*
X74161228Y-76482942D01*
X74089800Y-76554371D01*
X73982657Y-76590085D01*
X73804085Y-76590085D01*
X74518371Y-76375800D02*
X74875514Y-76375800D01*
X74446942Y-76590085D02*
X74696942Y-75840085D01*
X74946942Y-76590085D01*
X70430342Y-76452771D02*
X70537485Y-76488485D01*
X70716057Y-76488485D01*
X70787485Y-76452771D01*
X70823200Y-76417057D01*
X70858914Y-76345628D01*
X70858914Y-76274200D01*
X70823200Y-76202771D01*
X70787485Y-76167057D01*
X70716057Y-76131342D01*
X70573200Y-76095628D01*
X70501771Y-76059914D01*
X70466057Y-76024200D01*
X70430342Y-75952771D01*
X70430342Y-75881342D01*
X70466057Y-75809914D01*
X70501771Y-75774200D01*
X70573200Y-75738485D01*
X70751771Y-75738485D01*
X70858914Y-75774200D01*
X71608914Y-76417057D02*
X71573200Y-76452771D01*
X71466057Y-76488485D01*
X71394628Y-76488485D01*
X71287485Y-76452771D01*
X71216057Y-76381342D01*
X71180342Y-76309914D01*
X71144628Y-76167057D01*
X71144628Y-76059914D01*
X71180342Y-75917057D01*
X71216057Y-75845628D01*
X71287485Y-75774200D01*
X71394628Y-75738485D01*
X71466057Y-75738485D01*
X71573200Y-75774200D01*
X71608914Y-75809914D01*
X72287485Y-76488485D02*
X71930342Y-76488485D01*
X71930342Y-75738485D01*
X68237171Y-75825000D02*
X68165742Y-75789285D01*
X68058600Y-75789285D01*
X67951457Y-75825000D01*
X67880028Y-75896428D01*
X67844314Y-75967857D01*
X67808600Y-76110714D01*
X67808600Y-76217857D01*
X67844314Y-76360714D01*
X67880028Y-76432142D01*
X67951457Y-76503571D01*
X68058600Y-76539285D01*
X68130028Y-76539285D01*
X68237171Y-76503571D01*
X68272885Y-76467857D01*
X68272885Y-76217857D01*
X68130028Y-76217857D01*
X68594314Y-76539285D02*
X68594314Y-75789285D01*
X69022885Y-76539285D01*
X69022885Y-75789285D01*
X69380028Y-76539285D02*
X69380028Y-75789285D01*
X69558600Y-75789285D01*
X69665742Y-75825000D01*
X69737171Y-75896428D01*
X69772885Y-75967857D01*
X69808600Y-76110714D01*
X69808600Y-76217857D01*
X69772885Y-76360714D01*
X69737171Y-76432142D01*
X69665742Y-76503571D01*
X69558600Y-76539285D01*
X69380028Y-76539285D01*
X65526142Y-75738485D02*
X65776142Y-76488485D01*
X66026142Y-75738485D01*
X66276142Y-76488485D02*
X66276142Y-75988485D01*
X66276142Y-75738485D02*
X66240428Y-75774200D01*
X66276142Y-75809914D01*
X66311857Y-75774200D01*
X66276142Y-75738485D01*
X66276142Y-75809914D01*
X66633285Y-75988485D02*
X66633285Y-76488485D01*
X66633285Y-76059914D02*
X66669000Y-76024200D01*
X66740428Y-75988485D01*
X66847571Y-75988485D01*
X66919000Y-76024200D01*
X66954714Y-76095628D01*
X66954714Y-76488485D01*
X68580047Y-83697000D02*
X68532428Y-83673190D01*
X68461000Y-83673190D01*
X68389571Y-83697000D01*
X68341952Y-83744619D01*
X68318142Y-83792238D01*
X68294333Y-83887476D01*
X68294333Y-83958904D01*
X68318142Y-84054142D01*
X68341952Y-84101761D01*
X68389571Y-84149380D01*
X68461000Y-84173190D01*
X68508619Y-84173190D01*
X68580047Y-84149380D01*
X68603857Y-84125571D01*
X68603857Y-83958904D01*
X68508619Y-83958904D01*
X68818142Y-84173190D02*
X68818142Y-83673190D01*
X69103857Y-84173190D01*
X69103857Y-83673190D01*
X69341952Y-84173190D02*
X69341952Y-83673190D01*
X69461000Y-83673190D01*
X69532428Y-83697000D01*
X69580047Y-83744619D01*
X69603857Y-83792238D01*
X69627666Y-83887476D01*
X69627666Y-83958904D01*
X69603857Y-84054142D01*
X69580047Y-84101761D01*
X69532428Y-84149380D01*
X69461000Y-84173190D01*
X69341952Y-84173190D01*
X65508285Y-84173190D02*
X65508285Y-83673190D01*
X65674952Y-84030333D01*
X65841619Y-83673190D01*
X65841619Y-84173190D01*
X66174952Y-83673190D02*
X66270190Y-83673190D01*
X66317809Y-83697000D01*
X66365428Y-83744619D01*
X66389238Y-83839857D01*
X66389238Y-84006523D01*
X66365428Y-84101761D01*
X66317809Y-84149380D01*
X66270190Y-84173190D01*
X66174952Y-84173190D01*
X66127333Y-84149380D01*
X66079714Y-84101761D01*
X66055904Y-84006523D01*
X66055904Y-83839857D01*
X66079714Y-83744619D01*
X66127333Y-83697000D01*
X66174952Y-83673190D01*
X66579714Y-84149380D02*
X66651142Y-84173190D01*
X66770190Y-84173190D01*
X66817809Y-84149380D01*
X66841619Y-84125571D01*
X66865428Y-84077952D01*
X66865428Y-84030333D01*
X66841619Y-83982714D01*
X66817809Y-83958904D01*
X66770190Y-83935095D01*
X66674952Y-83911285D01*
X66627333Y-83887476D01*
X66603523Y-83863666D01*
X66579714Y-83816047D01*
X66579714Y-83768428D01*
X66603523Y-83720809D01*
X66627333Y-83697000D01*
X66674952Y-83673190D01*
X66794000Y-83673190D01*
X66865428Y-83697000D01*
X67079714Y-84173190D02*
X67079714Y-83673190D01*
X63394495Y-83673190D02*
X63561161Y-84173190D01*
X63727828Y-83673190D01*
X63894495Y-84173190D02*
X63894495Y-83839857D01*
X63894495Y-83673190D02*
X63870685Y-83697000D01*
X63894495Y-83720809D01*
X63918304Y-83697000D01*
X63894495Y-83673190D01*
X63894495Y-83720809D01*
X64132590Y-83839857D02*
X64132590Y-84173190D01*
X64132590Y-83887476D02*
X64156400Y-83863666D01*
X64204019Y-83839857D01*
X64275447Y-83839857D01*
X64323066Y-83863666D01*
X64346876Y-83911285D01*
X64346876Y-84173190D01*
X73356885Y-84427190D02*
X73356885Y-83927190D01*
X73523552Y-84284333D01*
X73690219Y-83927190D01*
X73690219Y-84427190D01*
X73928314Y-84427190D02*
X73928314Y-83927190D01*
X74142600Y-84403380D02*
X74214028Y-84427190D01*
X74333076Y-84427190D01*
X74380695Y-84403380D01*
X74404504Y-84379571D01*
X74428314Y-84331952D01*
X74428314Y-84284333D01*
X74404504Y-84236714D01*
X74380695Y-84212904D01*
X74333076Y-84189095D01*
X74237838Y-84165285D01*
X74190219Y-84141476D01*
X74166409Y-84117666D01*
X74142600Y-84070047D01*
X74142600Y-84022428D01*
X74166409Y-83974809D01*
X74190219Y-83951000D01*
X74237838Y-83927190D01*
X74356885Y-83927190D01*
X74428314Y-83951000D01*
X74737838Y-83927190D02*
X74833076Y-83927190D01*
X74880695Y-83951000D01*
X74928314Y-83998619D01*
X74952123Y-84093857D01*
X74952123Y-84260523D01*
X74928314Y-84355761D01*
X74880695Y-84403380D01*
X74833076Y-84427190D01*
X74737838Y-84427190D01*
X74690219Y-84403380D01*
X74642600Y-84355761D01*
X74618790Y-84260523D01*
X74618790Y-84093857D01*
X74642600Y-83998619D01*
X74690219Y-83951000D01*
X74737838Y-83927190D01*
D11*
X67457190Y-87013880D02*
X67528619Y-87037690D01*
X67647666Y-87037690D01*
X67695285Y-87013880D01*
X67719095Y-86990071D01*
X67742904Y-86942452D01*
X67742904Y-86894833D01*
X67719095Y-86847214D01*
X67695285Y-86823404D01*
X67647666Y-86799595D01*
X67552428Y-86775785D01*
X67504809Y-86751976D01*
X67481000Y-86728166D01*
X67457190Y-86680547D01*
X67457190Y-86632928D01*
X67481000Y-86585309D01*
X67504809Y-86561500D01*
X67552428Y-86537690D01*
X67671476Y-86537690D01*
X67742904Y-86561500D01*
X68147666Y-87013880D02*
X68100047Y-87037690D01*
X68004809Y-87037690D01*
X67957190Y-87013880D01*
X67933380Y-86966261D01*
X67933380Y-86775785D01*
X67957190Y-86728166D01*
X68004809Y-86704357D01*
X68100047Y-86704357D01*
X68147666Y-86728166D01*
X68171476Y-86775785D01*
X68171476Y-86823404D01*
X67933380Y-86871023D01*
X68385761Y-86704357D02*
X68385761Y-87037690D01*
X68385761Y-86751976D02*
X68409571Y-86728166D01*
X68457190Y-86704357D01*
X68528619Y-86704357D01*
X68576238Y-86728166D01*
X68600047Y-86775785D01*
X68600047Y-87037690D01*
X68814333Y-87013880D02*
X68861952Y-87037690D01*
X68957190Y-87037690D01*
X69004809Y-87013880D01*
X69028619Y-86966261D01*
X69028619Y-86942452D01*
X69004809Y-86894833D01*
X68957190Y-86871023D01*
X68885761Y-86871023D01*
X68838142Y-86847214D01*
X68814333Y-86799595D01*
X68814333Y-86775785D01*
X68838142Y-86728166D01*
X68885761Y-86704357D01*
X68957190Y-86704357D01*
X69004809Y-86728166D01*
X69314333Y-87037690D02*
X69266714Y-87013880D01*
X69242904Y-86990071D01*
X69219095Y-86942452D01*
X69219095Y-86799595D01*
X69242904Y-86751976D01*
X69266714Y-86728166D01*
X69314333Y-86704357D01*
X69385761Y-86704357D01*
X69433380Y-86728166D01*
X69457190Y-86751976D01*
X69481000Y-86799595D01*
X69481000Y-86942452D01*
X69457190Y-86990071D01*
X69433380Y-87013880D01*
X69385761Y-87037690D01*
X69314333Y-87037690D01*
X69695285Y-87037690D02*
X69695285Y-86704357D01*
X69695285Y-86799595D02*
X69719095Y-86751976D01*
X69742904Y-86728166D01*
X69790523Y-86704357D01*
X69838142Y-86704357D01*
X70219095Y-87037690D02*
X70219095Y-86775785D01*
X70195285Y-86728166D01*
X70147666Y-86704357D01*
X70052428Y-86704357D01*
X70004809Y-86728166D01*
X70219095Y-87013880D02*
X70171476Y-87037690D01*
X70052428Y-87037690D01*
X70004809Y-87013880D01*
X69981000Y-86966261D01*
X69981000Y-86918642D01*
X70004809Y-86871023D01*
X70052428Y-86847214D01*
X70171476Y-86847214D01*
X70219095Y-86823404D01*
X70671476Y-87037690D02*
X70671476Y-86537690D01*
X70671476Y-87013880D02*
X70623857Y-87037690D01*
X70528619Y-87037690D01*
X70481000Y-87013880D01*
X70457190Y-86990071D01*
X70433380Y-86942452D01*
X70433380Y-86799595D01*
X70457190Y-86751976D01*
X70481000Y-86728166D01*
X70528619Y-86704357D01*
X70623857Y-86704357D01*
X70671476Y-86728166D01*
X71123857Y-87037690D02*
X71123857Y-86775785D01*
X71100047Y-86728166D01*
X71052428Y-86704357D01*
X70957190Y-86704357D01*
X70909571Y-86728166D01*
X71123857Y-87013880D02*
X71076238Y-87037690D01*
X70957190Y-87037690D01*
X70909571Y-87013880D01*
X70885761Y-86966261D01*
X70885761Y-86918642D01*
X70909571Y-86871023D01*
X70957190Y-86847214D01*
X71076238Y-86847214D01*
X71123857Y-86823404D01*
X71361952Y-86704357D02*
X71361952Y-87204357D01*
X71361952Y-86728166D02*
X71409571Y-86704357D01*
X71504809Y-86704357D01*
X71552428Y-86728166D01*
X71576238Y-86751976D01*
X71600047Y-86799595D01*
X71600047Y-86942452D01*
X71576238Y-86990071D01*
X71552428Y-87013880D01*
X71504809Y-87037690D01*
X71409571Y-87037690D01*
X71361952Y-87013880D01*
X71742904Y-86704357D02*
X71933380Y-86704357D01*
X71814333Y-86537690D02*
X71814333Y-86966261D01*
X71838142Y-87013880D01*
X71885761Y-87037690D01*
X71933380Y-87037690D01*
X72290523Y-87013880D02*
X72242904Y-87037690D01*
X72147666Y-87037690D01*
X72100047Y-87013880D01*
X72076238Y-86966261D01*
X72076238Y-86775785D01*
X72100047Y-86728166D01*
X72147666Y-86704357D01*
X72242904Y-86704357D01*
X72290523Y-86728166D01*
X72314333Y-86775785D01*
X72314333Y-86823404D01*
X72076238Y-86871023D01*
X72528619Y-87037690D02*
X72528619Y-86704357D01*
X72528619Y-86799595D02*
X72552428Y-86751976D01*
X72576238Y-86728166D01*
X72623857Y-86704357D01*
X72671476Y-86704357D01*
X68766714Y-87912690D02*
X68766714Y-87412690D01*
X68981000Y-87460309D02*
X69004809Y-87436500D01*
X69052428Y-87412690D01*
X69171476Y-87412690D01*
X69219095Y-87436500D01*
X69242904Y-87460309D01*
X69266714Y-87507928D01*
X69266714Y-87555547D01*
X69242904Y-87626976D01*
X68957190Y-87912690D01*
X69266714Y-87912690D01*
X69766714Y-87865071D02*
X69742904Y-87888880D01*
X69671476Y-87912690D01*
X69623857Y-87912690D01*
X69552428Y-87888880D01*
X69504809Y-87841261D01*
X69481000Y-87793642D01*
X69457190Y-87698404D01*
X69457190Y-87626976D01*
X69481000Y-87531738D01*
X69504809Y-87484119D01*
X69552428Y-87436500D01*
X69623857Y-87412690D01*
X69671476Y-87412690D01*
X69742904Y-87436500D01*
X69766714Y-87460309D01*
X70314333Y-87579357D02*
X70433380Y-87912690D01*
X70552428Y-87579357D01*
X70838142Y-87412690D02*
X70885761Y-87412690D01*
X70933380Y-87436500D01*
X70957190Y-87460309D01*
X70981000Y-87507928D01*
X71004809Y-87603166D01*
X71004809Y-87722214D01*
X70981000Y-87817452D01*
X70957190Y-87865071D01*
X70933380Y-87888880D01*
X70885761Y-87912690D01*
X70838142Y-87912690D01*
X70790523Y-87888880D01*
X70766714Y-87865071D01*
X70742904Y-87817452D01*
X70719095Y-87722214D01*
X70719095Y-87603166D01*
X70742904Y-87507928D01*
X70766714Y-87460309D01*
X70790523Y-87436500D01*
X70838142Y-87412690D01*
X71219095Y-87865071D02*
X71242904Y-87888880D01*
X71219095Y-87912690D01*
X71195285Y-87888880D01*
X71219095Y-87865071D01*
X71219095Y-87912690D01*
X71719095Y-87912690D02*
X71433380Y-87912690D01*
X71576238Y-87912690D02*
X71576238Y-87412690D01*
X71528619Y-87484119D01*
X71481000Y-87531738D01*
X71433380Y-87555547D01*
D12*
X60752409Y-86802980D02*
X60752409Y-87612504D01*
X60800028Y-87707742D01*
X60847647Y-87755361D01*
X60942885Y-87802980D01*
X61133361Y-87802980D01*
X61228600Y-87755361D01*
X61276219Y-87707742D01*
X61323838Y-87612504D01*
X61323838Y-86802980D01*
X61800028Y-87136314D02*
X61800028Y-87802980D01*
X61800028Y-87231552D02*
X61847647Y-87183933D01*
X61942885Y-87136314D01*
X62085742Y-87136314D01*
X62180980Y-87183933D01*
X62228600Y-87279171D01*
X62228600Y-87802980D01*
X62561933Y-87136314D02*
X62942885Y-87136314D01*
X62704790Y-86802980D02*
X62704790Y-87660123D01*
X62752409Y-87755361D01*
X62847647Y-87802980D01*
X62942885Y-87802980D01*
X63657171Y-87755361D02*
X63561933Y-87802980D01*
X63371457Y-87802980D01*
X63276219Y-87755361D01*
X63228600Y-87660123D01*
X63228600Y-87279171D01*
X63276219Y-87183933D01*
X63371457Y-87136314D01*
X63561933Y-87136314D01*
X63657171Y-87183933D01*
X63704790Y-87279171D01*
X63704790Y-87374409D01*
X63228600Y-87469647D01*
X64133361Y-87802980D02*
X64133361Y-87136314D01*
X64133361Y-87326790D02*
X64180980Y-87231552D01*
X64228600Y-87183933D01*
X64323838Y-87136314D01*
X64419076Y-87136314D01*
X64609552Y-87136314D02*
X64990504Y-87136314D01*
X64752409Y-86802980D02*
X64752409Y-87660123D01*
X64800028Y-87755361D01*
X64895266Y-87802980D01*
X64990504Y-87802980D01*
X65704790Y-87755361D02*
X65609552Y-87802980D01*
X65419076Y-87802980D01*
X65323838Y-87755361D01*
X65276219Y-87660123D01*
X65276219Y-87279171D01*
X65323838Y-87183933D01*
X65419076Y-87136314D01*
X65609552Y-87136314D01*
X65704790Y-87183933D01*
X65752409Y-87279171D01*
X65752409Y-87374409D01*
X65276219Y-87469647D01*
X66180980Y-87802980D02*
X66180980Y-87136314D01*
X66180980Y-86802980D02*
X66133361Y-86850600D01*
X66180980Y-86898219D01*
X66228600Y-86850600D01*
X66180980Y-86802980D01*
X66180980Y-86898219D01*
X66800028Y-87802980D02*
X66704790Y-87755361D01*
X66657171Y-87660123D01*
X66657171Y-86802980D01*
D13*
G36*
X66903572Y-84910271D02*
G01*
X67112974Y-85222778D01*
X67137547Y-85646126D01*
X67071296Y-86214257D01*
X66758789Y-86423659D01*
X66335442Y-86448232D01*
X65767311Y-86381981D01*
X65557909Y-86069474D01*
X65533336Y-85646126D01*
X65535674Y-85626074D01*
X66119319Y-85626074D01*
X66248383Y-85869871D01*
X66469126Y-85913495D01*
X66801885Y-85777832D01*
X66818933Y-85626074D01*
X66542907Y-85349839D01*
X66469126Y-85338653D01*
X66155627Y-85546804D01*
X66119319Y-85626074D01*
X65535674Y-85626074D01*
X65599587Y-85077995D01*
X65912094Y-84868594D01*
X66335442Y-84844021D01*
X66903572Y-84910271D01*
G37*
X66903572Y-84910271D02*
X67112974Y-85222778D01*
X67137547Y-85646126D01*
X67071296Y-86214257D01*
X66758789Y-86423659D01*
X66335442Y-86448232D01*
X65767311Y-86381981D01*
X65557909Y-86069474D01*
X65533336Y-85646126D01*
X65535674Y-85626074D01*
X66119319Y-85626074D01*
X66248383Y-85869871D01*
X66469126Y-85913495D01*
X66801885Y-85777832D01*
X66818933Y-85626074D01*
X66542907Y-85349839D01*
X66469126Y-85338653D01*
X66155627Y-85546804D01*
X66119319Y-85626074D01*
X65535674Y-85626074D01*
X65599587Y-85077995D01*
X65912094Y-84868594D01*
X66335442Y-84844021D01*
X66903572Y-84910271D01*
G36*
X69423882Y-85013559D02*
G01*
X69653554Y-85278962D01*
X69633264Y-85841913D01*
X69276302Y-86309105D01*
X68875442Y-86448232D01*
X68428355Y-86261396D01*
X68235145Y-86081067D01*
X68078777Y-85626074D01*
X68525635Y-85626074D01*
X68654699Y-85869871D01*
X68875442Y-85913495D01*
X69208201Y-85777832D01*
X69225249Y-85626074D01*
X68949222Y-85349839D01*
X68875442Y-85338653D01*
X68561943Y-85546804D01*
X68525635Y-85626074D01*
X68078777Y-85626074D01*
X68046713Y-85532779D01*
X68282745Y-85057680D01*
X68845588Y-84844437D01*
X68875442Y-84844021D01*
X69423882Y-85013559D01*
G37*
X69423882Y-85013559D02*
X69653554Y-85278962D01*
X69633264Y-85841913D01*
X69276302Y-86309105D01*
X68875442Y-86448232D01*
X68428355Y-86261396D01*
X68235145Y-86081067D01*
X68078777Y-85626074D01*
X68525635Y-85626074D01*
X68654699Y-85869871D01*
X68875442Y-85913495D01*
X69208201Y-85777832D01*
X69225249Y-85626074D01*
X68949222Y-85349839D01*
X68875442Y-85338653D01*
X68561943Y-85546804D01*
X68525635Y-85626074D01*
X68078777Y-85626074D01*
X68046713Y-85532779D01*
X68282745Y-85057680D01*
X68845588Y-84844437D01*
X68875442Y-84844021D01*
X69423882Y-85013559D01*
G36*
X71909089Y-85056444D02*
G01*
X72101685Y-85541785D01*
X71929349Y-86072147D01*
X71922054Y-86081067D01*
X71387209Y-86424202D01*
X70867963Y-86259062D01*
X70635257Y-85954454D01*
X70591081Y-85626074D01*
X70931950Y-85626074D01*
X71061014Y-85869871D01*
X71281757Y-85913495D01*
X71614516Y-85777832D01*
X71631564Y-85626074D01*
X71355538Y-85349839D01*
X71281757Y-85338653D01*
X70968259Y-85546804D01*
X70931950Y-85626074D01*
X70591081Y-85626074D01*
X70557601Y-85377210D01*
X70913394Y-84963656D01*
X71440310Y-84844021D01*
X71909089Y-85056444D01*
G37*
X71909089Y-85056444D02*
X72101685Y-85541785D01*
X71929349Y-86072147D01*
X71922054Y-86081067D01*
X71387209Y-86424202D01*
X70867963Y-86259062D01*
X70635257Y-85954454D01*
X70591081Y-85626074D01*
X70931950Y-85626074D01*
X71061014Y-85869871D01*
X71281757Y-85913495D01*
X71614516Y-85777832D01*
X71631564Y-85626074D01*
X71355538Y-85349839D01*
X71281757Y-85338653D01*
X70968259Y-85546804D01*
X70931950Y-85626074D01*
X70591081Y-85626074D01*
X70557601Y-85377210D01*
X70913394Y-84963656D01*
X71440310Y-84844021D01*
X71909089Y-85056444D01*
G36*
X74367704Y-85044480D02*
G01*
X74564454Y-85519573D01*
X74353668Y-86050584D01*
X73838898Y-86406567D01*
X73350611Y-86347938D01*
X73116340Y-86047179D01*
X73084555Y-85559258D01*
X73400353Y-85559258D01*
X73614329Y-85849669D01*
X73837537Y-85913495D01*
X74084298Y-85734105D01*
X74089126Y-85690688D01*
X73914712Y-85303214D01*
X73552660Y-85249407D01*
X73512735Y-85270817D01*
X73400353Y-85559258D01*
X73084555Y-85559258D01*
X73073731Y-85393107D01*
X73419392Y-84945489D01*
X73821757Y-84844021D01*
X74367704Y-85044480D01*
G37*
X74367704Y-85044480D02*
X74564454Y-85519573D01*
X74353668Y-86050584D01*
X73838898Y-86406567D01*
X73350611Y-86347938D01*
X73116340Y-86047179D01*
X73084555Y-85559258D01*
X73400353Y-85559258D01*
X73614329Y-85849669D01*
X73837537Y-85913495D01*
X74084298Y-85734105D01*
X74089126Y-85690688D01*
X73914712Y-85303214D01*
X73552660Y-85249407D01*
X73512735Y-85270817D01*
X73400353Y-85559258D01*
X73084555Y-85559258D01*
X73073731Y-85393107D01*
X73419392Y-84945489D01*
X73821757Y-84844021D01*
X74367704Y-85044480D01*
G36*
X74891231Y-84309284D02*
G01*
X65533336Y-84309284D01*
X65533336Y-83492310D01*
X68233460Y-83492310D01*
X68437623Y-83722436D01*
X69009126Y-83774547D01*
X69629407Y-83667884D01*
X69841686Y-83314469D01*
X69842246Y-83306653D01*
X69879592Y-82977136D01*
X69958514Y-83167001D01*
X69995535Y-83306653D01*
X70215774Y-83703151D01*
X70365572Y-83774547D01*
X70590831Y-83552540D01*
X70644351Y-83306653D01*
X70681697Y-82977136D01*
X70760619Y-83167001D01*
X70797640Y-83306653D01*
X71102483Y-83578269D01*
X71740229Y-83750800D01*
X72547028Y-83822487D01*
X73359031Y-83791569D01*
X74012385Y-83656285D01*
X74343241Y-83414875D01*
X74356494Y-83344889D01*
X74192099Y-83041306D01*
X73955442Y-83069130D01*
X73611545Y-83067265D01*
X73554389Y-82948271D01*
X73389510Y-82797677D01*
X73282659Y-82841453D01*
X73119008Y-83147110D01*
X73150249Y-83234814D01*
X73061908Y-83381326D01*
X72820399Y-83370480D01*
X72423573Y-83269011D01*
X72351231Y-83226145D01*
X72096538Y-83128366D01*
X71377522Y-82988699D01*
X70261784Y-82820076D01*
X70142966Y-82803750D01*
X69440464Y-82731506D01*
X69143791Y-82800274D01*
X69133382Y-83051544D01*
X69160522Y-83144649D01*
X69256783Y-83487358D01*
X69151673Y-83378586D01*
X68998076Y-83140890D01*
X68712713Y-82816279D01*
X68483453Y-82952681D01*
X68447246Y-83007206D01*
X68233460Y-83492310D01*
X65533336Y-83492310D01*
X65533336Y-78961916D01*
X74891231Y-78961916D01*
X74891231Y-84309284D01*
G37*
X74891231Y-84309284D02*
X65533336Y-84309284D01*
X65533336Y-83492310D01*
X68233460Y-83492310D01*
X68437623Y-83722436D01*
X69009126Y-83774547D01*
X69629407Y-83667884D01*
X69841686Y-83314469D01*
X69842246Y-83306653D01*
X69879592Y-82977136D01*
X69958514Y-83167001D01*
X69995535Y-83306653D01*
X70215774Y-83703151D01*
X70365572Y-83774547D01*
X70590831Y-83552540D01*
X70644351Y-83306653D01*
X70681697Y-82977136D01*
X70760619Y-83167001D01*
X70797640Y-83306653D01*
X71102483Y-83578269D01*
X71740229Y-83750800D01*
X72547028Y-83822487D01*
X73359031Y-83791569D01*
X74012385Y-83656285D01*
X74343241Y-83414875D01*
X74356494Y-83344889D01*
X74192099Y-83041306D01*
X73955442Y-83069130D01*
X73611545Y-83067265D01*
X73554389Y-82948271D01*
X73389510Y-82797677D01*
X73282659Y-82841453D01*
X73119008Y-83147110D01*
X73150249Y-83234814D01*
X73061908Y-83381326D01*
X72820399Y-83370480D01*
X72423573Y-83269011D01*
X72351231Y-83226145D01*
X72096538Y-83128366D01*
X71377522Y-82988699D01*
X70261784Y-82820076D01*
X70142966Y-82803750D01*
X69440464Y-82731506D01*
X69143791Y-82800274D01*
X69133382Y-83051544D01*
X69160522Y-83144649D01*
X69256783Y-83487358D01*
X69151673Y-83378586D01*
X68998076Y-83140890D01*
X68712713Y-82816279D01*
X68483453Y-82952681D01*
X68447246Y-83007206D01*
X68233460Y-83492310D01*
X65533336Y-83492310D01*
X65533336Y-78961916D01*
X74891231Y-78961916D01*
X74891231Y-84309284D01*
G36*
X66881629Y-77018677D02*
G01*
X67098674Y-77495205D01*
X67089457Y-77690720D01*
X66826311Y-78173192D01*
X66347334Y-78396402D01*
X65864323Y-78311985D01*
X65629264Y-78024146D01*
X65655418Y-77625074D01*
X66068073Y-77625074D01*
X66284630Y-77862277D01*
X66469126Y-77892442D01*
X66824931Y-77748071D01*
X66870178Y-77625074D01*
X66653621Y-77387870D01*
X66469126Y-77357705D01*
X66113320Y-77502076D01*
X66068073Y-77625074D01*
X65655418Y-77625074D01*
X65664035Y-77493598D01*
X65877096Y-77166728D01*
X66415936Y-76883900D01*
X66881629Y-77018677D01*
G37*
X66881629Y-77018677D02*
X67098674Y-77495205D01*
X67089457Y-77690720D01*
X66826311Y-78173192D01*
X66347334Y-78396402D01*
X65864323Y-78311985D01*
X65629264Y-78024146D01*
X65655418Y-77625074D01*
X66068073Y-77625074D01*
X66284630Y-77862277D01*
X66469126Y-77892442D01*
X66824931Y-77748071D01*
X66870178Y-77625074D01*
X66653621Y-77387870D01*
X66469126Y-77357705D01*
X66113320Y-77502076D01*
X66068073Y-77625074D01*
X65655418Y-77625074D01*
X65664035Y-77493598D01*
X65877096Y-77166728D01*
X66415936Y-76883900D01*
X66881629Y-77018677D01*
G36*
X69379663Y-77048201D02*
G01*
X69673718Y-77559293D01*
X69653554Y-77992238D01*
X69282736Y-78339617D01*
X68720108Y-78404798D01*
X68228073Y-78187780D01*
X68097329Y-77992238D01*
X68110562Y-77625074D01*
X68474389Y-77625074D01*
X68690946Y-77862277D01*
X68875442Y-77892442D01*
X69231247Y-77748071D01*
X69276494Y-77625074D01*
X69059937Y-77387870D01*
X68875442Y-77357705D01*
X68519636Y-77502076D01*
X68474389Y-77625074D01*
X68110562Y-77625074D01*
X68117619Y-77429287D01*
X68474581Y-76962095D01*
X68875442Y-76822968D01*
X69379663Y-77048201D01*
G37*
X69379663Y-77048201D02*
X69673718Y-77559293D01*
X69653554Y-77992238D01*
X69282736Y-78339617D01*
X68720108Y-78404798D01*
X68228073Y-78187780D01*
X68097329Y-77992238D01*
X68110562Y-77625074D01*
X68474389Y-77625074D01*
X68690946Y-77862277D01*
X68875442Y-77892442D01*
X69231247Y-77748071D01*
X69276494Y-77625074D01*
X69059937Y-77387870D01*
X68875442Y-77357705D01*
X68519636Y-77502076D01*
X68474389Y-77625074D01*
X68110562Y-77625074D01*
X68117619Y-77429287D01*
X68474581Y-76962095D01*
X68875442Y-76822968D01*
X69379663Y-77048201D01*
G36*
X71575815Y-76970979D02*
G01*
X71600308Y-76985792D01*
X72036671Y-77461879D01*
X72039982Y-77962885D01*
X71637373Y-78315591D01*
X71382755Y-78374800D01*
X70766550Y-78301154D01*
X70532172Y-78066578D01*
X70555376Y-77625074D01*
X70880705Y-77625074D01*
X71097262Y-77862277D01*
X71281757Y-77892442D01*
X71637563Y-77748071D01*
X71682810Y-77625074D01*
X71466253Y-77387870D01*
X71281757Y-77357705D01*
X70925952Y-77502076D01*
X70880705Y-77625074D01*
X70555376Y-77625074D01*
X70558769Y-77560517D01*
X70749725Y-77183167D01*
X71132007Y-76850562D01*
X71575815Y-76970979D01*
G37*
X71575815Y-76970979D02*
X71600308Y-76985792D01*
X72036671Y-77461879D01*
X72039982Y-77962885D01*
X71637373Y-78315591D01*
X71382755Y-78374800D01*
X70766550Y-78301154D01*
X70532172Y-78066578D01*
X70555376Y-77625074D01*
X70880705Y-77625074D01*
X71097262Y-77862277D01*
X71281757Y-77892442D01*
X71637563Y-77748071D01*
X71682810Y-77625074D01*
X71466253Y-77387870D01*
X71281757Y-77357705D01*
X70925952Y-77502076D01*
X70880705Y-77625074D01*
X70555376Y-77625074D01*
X70558769Y-77560517D01*
X70749725Y-77183167D01*
X71132007Y-76850562D01*
X71575815Y-76970979D01*
G36*
X74168416Y-77039621D02*
G01*
X74513335Y-77532800D01*
X74528482Y-78022721D01*
X74166767Y-78354700D01*
X73628860Y-78398196D01*
X73187636Y-78152550D01*
X73116340Y-78026126D01*
X73083979Y-77625074D01*
X73420705Y-77625074D01*
X73481317Y-77853968D01*
X73672294Y-77892442D01*
X74038111Y-77752849D01*
X74089126Y-77625074D01*
X73897228Y-77365358D01*
X73837537Y-77357705D01*
X73475430Y-77552055D01*
X73420705Y-77625074D01*
X73083979Y-77625074D01*
X73067438Y-77420083D01*
X73319500Y-76952345D01*
X73646944Y-76822968D01*
X74168416Y-77039621D01*
G37*
X74168416Y-77039621D02*
X74513335Y-77532800D01*
X74528482Y-78022721D01*
X74166767Y-78354700D01*
X73628860Y-78398196D01*
X73187636Y-78152550D01*
X73116340Y-78026126D01*
X73083979Y-77625074D01*
X73420705Y-77625074D01*
X73481317Y-77853968D01*
X73672294Y-77892442D01*
X74038111Y-77752849D01*
X74089126Y-77625074D01*
X73897228Y-77365358D01*
X73837537Y-77357705D01*
X73475430Y-77552055D01*
X73420705Y-77625074D01*
X73083979Y-77625074D01*
X73067438Y-77420083D01*
X73319500Y-76952345D01*
X73646944Y-76822968D01*
X74168416Y-77039621D01*
G36*
X72217547Y-83373495D02*
G01*
X72083863Y-83507179D01*
X71950178Y-83373495D01*
X72083863Y-83239810D01*
X72217547Y-83373495D01*
G37*
X72217547Y-83373495D02*
X72083863Y-83507179D01*
X71950178Y-83373495D01*
X72083863Y-83239810D01*
X72217547Y-83373495D01*
D14*
X75193200Y-75167800D02*
X75193200Y-72507800D01*
X67513200Y-75167800D02*
X75193200Y-75167800D01*
X67513200Y-72507800D02*
X75193200Y-72507800D01*
X67513200Y-75167800D02*
X67513200Y-72507800D01*
X66243200Y-75167800D02*
X64913200Y-75167800D01*
X64913200Y-75167800D02*
X64913200Y-73837800D01*
X64913200Y-69910000D02*
X64913200Y-68580000D01*
X66243200Y-69910000D02*
X64913200Y-69910000D01*
X67513200Y-69910000D02*
X67513200Y-67250000D01*
X67513200Y-67250000D02*
X75193200Y-67250000D01*
X67513200Y-69910000D02*
X75193200Y-69910000D01*
X75193200Y-69910000D02*
X75193200Y-67250000D01*
D12*
X64632580Y-71651761D02*
X64775438Y-71699380D01*
X65013533Y-71699380D01*
X65108771Y-71651761D01*
X65156390Y-71604142D01*
X65204009Y-71508904D01*
X65204009Y-71413666D01*
X65156390Y-71318428D01*
X65108771Y-71270809D01*
X65013533Y-71223190D01*
X64823057Y-71175571D01*
X64727819Y-71127952D01*
X64680200Y-71080333D01*
X64632580Y-70985095D01*
X64632580Y-70889857D01*
X64680200Y-70794619D01*
X64727819Y-70747000D01*
X64823057Y-70699380D01*
X65061152Y-70699380D01*
X65204009Y-70747000D01*
X66013533Y-71651761D02*
X65918295Y-71699380D01*
X65727819Y-71699380D01*
X65632580Y-71651761D01*
X65584961Y-71556523D01*
X65584961Y-71175571D01*
X65632580Y-71080333D01*
X65727819Y-71032714D01*
X65918295Y-71032714D01*
X66013533Y-71080333D01*
X66061152Y-71175571D01*
X66061152Y-71270809D01*
X65584961Y-71366047D01*
X66489723Y-71032714D02*
X66489723Y-71699380D01*
X66489723Y-71127952D02*
X66537342Y-71080333D01*
X66632580Y-71032714D01*
X66775438Y-71032714D01*
X66870676Y-71080333D01*
X66918295Y-71175571D01*
X66918295Y-71699380D01*
X67346866Y-71651761D02*
X67442104Y-71699380D01*
X67632580Y-71699380D01*
X67727819Y-71651761D01*
X67775438Y-71556523D01*
X67775438Y-71508904D01*
X67727819Y-71413666D01*
X67632580Y-71366047D01*
X67489723Y-71366047D01*
X67394485Y-71318428D01*
X67346866Y-71223190D01*
X67346866Y-71175571D01*
X67394485Y-71080333D01*
X67489723Y-71032714D01*
X67632580Y-71032714D01*
X67727819Y-71080333D01*
X68346866Y-71699380D02*
X68251628Y-71651761D01*
X68204009Y-71604142D01*
X68156390Y-71508904D01*
X68156390Y-71223190D01*
X68204009Y-71127952D01*
X68251628Y-71080333D01*
X68346866Y-71032714D01*
X68489723Y-71032714D01*
X68584961Y-71080333D01*
X68632580Y-71127952D01*
X68680200Y-71223190D01*
X68680200Y-71508904D01*
X68632580Y-71604142D01*
X68584961Y-71651761D01*
X68489723Y-71699380D01*
X68346866Y-71699380D01*
X69108771Y-71699380D02*
X69108771Y-71032714D01*
X69108771Y-71223190D02*
X69156390Y-71127952D01*
X69204009Y-71080333D01*
X69299247Y-71032714D01*
X69394485Y-71032714D01*
X69727819Y-71318428D02*
X70489723Y-71318428D01*
X70965914Y-71699380D02*
X70965914Y-70699380D01*
X70965914Y-71175571D02*
X71537342Y-71175571D01*
X71537342Y-71699380D02*
X71537342Y-70699380D01*
X72394485Y-71651761D02*
X72299247Y-71699380D01*
X72108771Y-71699380D01*
X72013533Y-71651761D01*
X71965914Y-71556523D01*
X71965914Y-71175571D01*
X72013533Y-71080333D01*
X72108771Y-71032714D01*
X72299247Y-71032714D01*
X72394485Y-71080333D01*
X72442104Y-71175571D01*
X72442104Y-71270809D01*
X71965914Y-71366047D01*
X73299247Y-71699380D02*
X73299247Y-71175571D01*
X73251628Y-71080333D01*
X73156390Y-71032714D01*
X72965914Y-71032714D01*
X72870676Y-71080333D01*
X73299247Y-71651761D02*
X73204009Y-71699380D01*
X72965914Y-71699380D01*
X72870676Y-71651761D01*
X72823057Y-71556523D01*
X72823057Y-71461285D01*
X72870676Y-71366047D01*
X72965914Y-71318428D01*
X73204009Y-71318428D01*
X73299247Y-71270809D01*
X74204009Y-71699380D02*
X74204009Y-70699380D01*
X74204009Y-71651761D02*
X74108771Y-71699380D01*
X73918295Y-71699380D01*
X73823057Y-71651761D01*
X73775438Y-71604142D01*
X73727819Y-71508904D01*
X73727819Y-71223190D01*
X73775438Y-71127952D01*
X73823057Y-71080333D01*
X73918295Y-71032714D01*
X74108771Y-71032714D01*
X74204009Y-71080333D01*
X75061152Y-71651761D02*
X74965914Y-71699380D01*
X74775438Y-71699380D01*
X74680200Y-71651761D01*
X74632580Y-71556523D01*
X74632580Y-71175571D01*
X74680200Y-71080333D01*
X74775438Y-71032714D01*
X74965914Y-71032714D01*
X75061152Y-71080333D01*
X75108771Y-71175571D01*
X75108771Y-71270809D01*
X74632580Y-71366047D01*
X75537342Y-71699380D02*
X75537342Y-71032714D01*
X75537342Y-71223190D02*
X75584961Y-71127952D01*
X75632580Y-71080333D01*
X75727819Y-71032714D01*
X75823057Y-71032714D01*
M02*
