G04 #@! TF.GenerationSoftware,KiCad,Pcbnew,(5.1.8)-1*
G04 #@! TF.CreationDate,2020-11-20T21:01:47+01:00*
G04 #@! TF.ProjectId,LORA_ATTINY84,4c4f5241-5f41-4545-9449-4e5938342e6b,rev?*
G04 #@! TF.SameCoordinates,Original*
G04 #@! TF.FileFunction,Copper,L1,Top*
G04 #@! TF.FilePolarity,Positive*
%FSLAX46Y46*%
G04 Gerber Fmt 4.6, Leading zero omitted, Abs format (unit mm)*
G04 Created by KiCad (PCBNEW (5.1.8)-1) date 2020-11-20 21:01:47*
%MOMM*%
%LPD*%
G01*
G04 APERTURE LIST*
G04 #@! TA.AperFunction,ComponentPad*
%ADD10O,1.700000X1.700000*%
G04 #@! TD*
G04 #@! TA.AperFunction,ComponentPad*
%ADD11R,1.700000X1.700000*%
G04 #@! TD*
G04 #@! TA.AperFunction,Conductor*
%ADD12C,0.250000*%
G04 #@! TD*
G04 #@! TA.AperFunction,Conductor*
%ADD13C,0.254000*%
G04 #@! TD*
G04 #@! TA.AperFunction,Conductor*
%ADD14C,0.100000*%
G04 #@! TD*
G04 APERTURE END LIST*
D10*
X79476600Y-59436000D03*
X82016600Y-59436000D03*
X79476600Y-61976000D03*
X82016600Y-61976000D03*
X79476600Y-64516000D03*
D11*
X82016600Y-64516000D03*
X75200000Y-71800000D03*
D10*
X75200000Y-74340000D03*
X77740000Y-71800000D03*
X77740000Y-74340000D03*
X80280000Y-71800000D03*
X80280000Y-74340000D03*
X75692000Y-64516000D03*
X73152000Y-64516000D03*
X70612000Y-64516000D03*
X68072000Y-64516000D03*
X65532000Y-64516000D03*
X62992000Y-64516000D03*
X60452000Y-64516000D03*
D11*
X57912000Y-64516000D03*
X59800000Y-71800000D03*
D10*
X59800000Y-74340000D03*
X62340000Y-71800000D03*
X62340000Y-74340000D03*
X64880000Y-71800000D03*
X64880000Y-74340000D03*
X67420000Y-71800000D03*
X67420000Y-74340000D03*
D12*
X80280000Y-74340000D02*
X80219000Y-74340000D01*
X76776000Y-77783000D02*
X76776000Y-83100000D01*
X80219000Y-74340000D02*
X76776000Y-77783000D01*
X76776000Y-83100000D02*
X63776000Y-83100000D01*
X60975001Y-73164999D02*
X59800000Y-74340000D01*
X60975001Y-65039001D02*
X60975001Y-73164999D01*
X60452000Y-64516000D02*
X60975001Y-65039001D01*
X59800000Y-79124000D02*
X63776000Y-83100000D01*
X59800000Y-74340000D02*
X59800000Y-79124000D01*
X78301599Y-60611001D02*
X79476600Y-59436000D01*
X78301599Y-62093389D02*
X78301599Y-60611001D01*
X77544978Y-62850010D02*
X78301599Y-62093389D01*
X62117990Y-62850010D02*
X77544978Y-62850010D01*
X60452000Y-64516000D02*
X62117990Y-62850010D01*
X75692000Y-66068000D02*
X75692000Y-64516000D01*
X67420000Y-74340000D02*
X75692000Y-66068000D01*
X73152000Y-66068000D02*
X73152000Y-64516000D01*
X67420000Y-71800000D02*
X73152000Y-66068000D01*
X70612000Y-66704410D02*
X70612000Y-64516000D01*
X66244999Y-71071411D02*
X70612000Y-66704410D01*
X66244999Y-72975001D02*
X66244999Y-71071411D01*
X64880000Y-74340000D02*
X66244999Y-72975001D01*
X68072000Y-68608000D02*
X64880000Y-71800000D01*
X68072000Y-64516000D02*
X68072000Y-68608000D01*
X63704999Y-66343001D02*
X65532000Y-64516000D01*
X63704999Y-72975001D02*
X63704999Y-66343001D01*
X62340000Y-74340000D02*
X63704999Y-72975001D01*
X62340000Y-65168000D02*
X62992000Y-64516000D01*
X62340000Y-71800000D02*
X62340000Y-65168000D01*
X59800000Y-66404000D02*
X57912000Y-64516000D01*
X59800000Y-71800000D02*
X59800000Y-66404000D01*
X74024999Y-69967601D02*
X79476600Y-64516000D01*
X74024999Y-73164999D02*
X74024999Y-69967601D01*
X75200000Y-74340000D02*
X74024999Y-73164999D01*
X75200000Y-71332600D02*
X82016600Y-64516000D01*
X75200000Y-71800000D02*
X75200000Y-71332600D01*
X78301599Y-63151001D02*
X79476600Y-61976000D01*
X78301599Y-64094811D02*
X78301599Y-63151001D01*
X73574990Y-68821420D02*
X78301599Y-64094811D01*
X73574990Y-74453992D02*
X73574990Y-68821420D01*
X74635999Y-75515001D02*
X73574990Y-74453992D01*
X76564999Y-75515001D02*
X74635999Y-75515001D01*
X77740000Y-74340000D02*
X76564999Y-75515001D01*
X83191601Y-63151001D02*
X82016600Y-61976000D01*
X83191601Y-66348399D02*
X83191601Y-63151001D01*
X77740000Y-71800000D02*
X83191601Y-66348399D01*
X80466401Y-72250009D02*
X80280000Y-72250009D01*
X83641611Y-61061011D02*
X82016600Y-59436000D01*
X83641611Y-68438389D02*
X83641611Y-61061011D01*
X80280000Y-71800000D02*
X83641611Y-68438389D01*
D13*
X56707506Y-65896537D02*
X56817820Y-65955502D01*
X56937518Y-65991812D01*
X57062000Y-66004072D01*
X58325270Y-66004072D01*
X59040001Y-66718803D01*
X59040000Y-70311928D01*
X58950000Y-70311928D01*
X58825518Y-70324188D01*
X58705820Y-70360498D01*
X58595506Y-70419463D01*
X58498815Y-70498815D01*
X58419463Y-70595506D01*
X58360498Y-70705820D01*
X58324188Y-70825518D01*
X58311928Y-70950000D01*
X58311928Y-72650000D01*
X58324188Y-72774482D01*
X58360498Y-72894180D01*
X58419463Y-73004494D01*
X58498815Y-73101185D01*
X58595506Y-73180537D01*
X58705820Y-73239502D01*
X58781626Y-73262498D01*
X58604822Y-73458645D01*
X58455843Y-73708748D01*
X58358519Y-73983109D01*
X58479186Y-74213000D01*
X59673000Y-74213000D01*
X59673000Y-74193000D01*
X59927000Y-74193000D01*
X59927000Y-74213000D01*
X59947000Y-74213000D01*
X59947000Y-74467000D01*
X59927000Y-74467000D01*
X59927000Y-75660155D01*
X60156890Y-75781476D01*
X60304099Y-75736825D01*
X60566920Y-75611641D01*
X60800269Y-75437588D01*
X60995178Y-75221355D01*
X61064805Y-75104466D01*
X61186525Y-75286632D01*
X61393368Y-75493475D01*
X61636589Y-75655990D01*
X61906842Y-75767932D01*
X62193740Y-75825000D01*
X62486260Y-75825000D01*
X62773158Y-75767932D01*
X63043411Y-75655990D01*
X63286632Y-75493475D01*
X63493475Y-75286632D01*
X63610000Y-75112240D01*
X63726525Y-75286632D01*
X63933368Y-75493475D01*
X64176589Y-75655990D01*
X64446842Y-75767932D01*
X64733740Y-75825000D01*
X65026260Y-75825000D01*
X65313158Y-75767932D01*
X65583411Y-75655990D01*
X65826632Y-75493475D01*
X66033475Y-75286632D01*
X66150000Y-75112240D01*
X66266525Y-75286632D01*
X66473368Y-75493475D01*
X66716589Y-75655990D01*
X66986842Y-75767932D01*
X67273740Y-75825000D01*
X67566260Y-75825000D01*
X67853158Y-75767932D01*
X68123411Y-75655990D01*
X68366632Y-75493475D01*
X68573475Y-75286632D01*
X68735990Y-75043411D01*
X68847932Y-74773158D01*
X68905000Y-74486260D01*
X68905000Y-74193740D01*
X68861209Y-73973592D01*
X72814991Y-70019811D01*
X72814990Y-74416669D01*
X72811314Y-74453992D01*
X72814990Y-74491314D01*
X72814990Y-74491324D01*
X72825987Y-74602977D01*
X72854475Y-74696891D01*
X72869444Y-74746238D01*
X72940016Y-74878268D01*
X72941460Y-74880027D01*
X73034989Y-74993993D01*
X73063992Y-75017796D01*
X74072200Y-76026004D01*
X74095998Y-76055002D01*
X74211723Y-76149975D01*
X74343752Y-76220547D01*
X74487013Y-76264004D01*
X74598666Y-76275001D01*
X74598675Y-76275001D01*
X74635998Y-76278677D01*
X74673321Y-76275001D01*
X76527677Y-76275001D01*
X76564999Y-76278677D01*
X76602321Y-76275001D01*
X76602332Y-76275001D01*
X76713985Y-76264004D01*
X76857246Y-76220547D01*
X76989275Y-76149975D01*
X77105000Y-76055002D01*
X77128803Y-76025998D01*
X77373592Y-75781209D01*
X77593740Y-75825000D01*
X77886260Y-75825000D01*
X78173158Y-75767932D01*
X78443411Y-75655990D01*
X78686632Y-75493475D01*
X78893475Y-75286632D01*
X79015195Y-75104466D01*
X79084822Y-75221355D01*
X79279731Y-75437588D01*
X79513080Y-75611641D01*
X79775901Y-75736825D01*
X79923110Y-75781476D01*
X80153000Y-75660155D01*
X80153000Y-74467000D01*
X80407000Y-74467000D01*
X80407000Y-75660155D01*
X80636890Y-75781476D01*
X80784099Y-75736825D01*
X81046920Y-75611641D01*
X81280269Y-75437588D01*
X81475178Y-75221355D01*
X81624157Y-74971252D01*
X81721481Y-74696891D01*
X81600814Y-74467000D01*
X80407000Y-74467000D01*
X80153000Y-74467000D01*
X80133000Y-74467000D01*
X80133000Y-74213000D01*
X80153000Y-74213000D01*
X80153000Y-74193000D01*
X80407000Y-74193000D01*
X80407000Y-74213000D01*
X81600814Y-74213000D01*
X81721481Y-73983109D01*
X81624157Y-73708748D01*
X81475178Y-73458645D01*
X81280269Y-73242412D01*
X81050594Y-73071100D01*
X81226632Y-72953475D01*
X81433475Y-72746632D01*
X81595990Y-72503411D01*
X81707932Y-72233158D01*
X81765000Y-71946260D01*
X81765000Y-71653740D01*
X81721209Y-71433592D01*
X83340000Y-69814801D01*
X83340000Y-76983724D01*
X79537719Y-87440000D01*
X60462282Y-87440000D01*
X58804054Y-82879872D01*
X61541000Y-82879872D01*
X61541000Y-83320128D01*
X61626890Y-83751925D01*
X61795369Y-84158669D01*
X62039962Y-84524729D01*
X62351271Y-84836038D01*
X62717331Y-85080631D01*
X63124075Y-85249110D01*
X63555872Y-85335000D01*
X63996128Y-85335000D01*
X64427925Y-85249110D01*
X64834669Y-85080631D01*
X65200729Y-84836038D01*
X65512038Y-84524729D01*
X65756631Y-84158669D01*
X65925110Y-83751925D01*
X66011000Y-83320128D01*
X66011000Y-82879872D01*
X74541000Y-82879872D01*
X74541000Y-83320128D01*
X74626890Y-83751925D01*
X74795369Y-84158669D01*
X75039962Y-84524729D01*
X75351271Y-84836038D01*
X75717331Y-85080631D01*
X76124075Y-85249110D01*
X76555872Y-85335000D01*
X76996128Y-85335000D01*
X77427925Y-85249110D01*
X77834669Y-85080631D01*
X78200729Y-84836038D01*
X78512038Y-84524729D01*
X78756631Y-84158669D01*
X78925110Y-83751925D01*
X79011000Y-83320128D01*
X79011000Y-82879872D01*
X78925110Y-82448075D01*
X78756631Y-82041331D01*
X78512038Y-81675271D01*
X78200729Y-81363962D01*
X77834669Y-81119369D01*
X77427925Y-80950890D01*
X76996128Y-80865000D01*
X76555872Y-80865000D01*
X76124075Y-80950890D01*
X75717331Y-81119369D01*
X75351271Y-81363962D01*
X75039962Y-81675271D01*
X74795369Y-82041331D01*
X74626890Y-82448075D01*
X74541000Y-82879872D01*
X66011000Y-82879872D01*
X65925110Y-82448075D01*
X65756631Y-82041331D01*
X65512038Y-81675271D01*
X65200729Y-81363962D01*
X64834669Y-81119369D01*
X64427925Y-80950890D01*
X63996128Y-80865000D01*
X63555872Y-80865000D01*
X63124075Y-80950890D01*
X62717331Y-81119369D01*
X62351271Y-81363962D01*
X62039962Y-81675271D01*
X61795369Y-82041331D01*
X61626890Y-82448075D01*
X61541000Y-82879872D01*
X58804054Y-82879872D01*
X56660000Y-76983727D01*
X56660000Y-74696891D01*
X58358519Y-74696891D01*
X58455843Y-74971252D01*
X58604822Y-75221355D01*
X58799731Y-75437588D01*
X59033080Y-75611641D01*
X59295901Y-75736825D01*
X59443110Y-75781476D01*
X59673000Y-75660155D01*
X59673000Y-74467000D01*
X58479186Y-74467000D01*
X58358519Y-74696891D01*
X56660000Y-74696891D01*
X56660000Y-65857550D01*
X56707506Y-65896537D01*
G04 #@! TA.AperFunction,Conductor*
D14*
G36*
X56707506Y-65896537D02*
G01*
X56817820Y-65955502D01*
X56937518Y-65991812D01*
X57062000Y-66004072D01*
X58325270Y-66004072D01*
X59040001Y-66718803D01*
X59040000Y-70311928D01*
X58950000Y-70311928D01*
X58825518Y-70324188D01*
X58705820Y-70360498D01*
X58595506Y-70419463D01*
X58498815Y-70498815D01*
X58419463Y-70595506D01*
X58360498Y-70705820D01*
X58324188Y-70825518D01*
X58311928Y-70950000D01*
X58311928Y-72650000D01*
X58324188Y-72774482D01*
X58360498Y-72894180D01*
X58419463Y-73004494D01*
X58498815Y-73101185D01*
X58595506Y-73180537D01*
X58705820Y-73239502D01*
X58781626Y-73262498D01*
X58604822Y-73458645D01*
X58455843Y-73708748D01*
X58358519Y-73983109D01*
X58479186Y-74213000D01*
X59673000Y-74213000D01*
X59673000Y-74193000D01*
X59927000Y-74193000D01*
X59927000Y-74213000D01*
X59947000Y-74213000D01*
X59947000Y-74467000D01*
X59927000Y-74467000D01*
X59927000Y-75660155D01*
X60156890Y-75781476D01*
X60304099Y-75736825D01*
X60566920Y-75611641D01*
X60800269Y-75437588D01*
X60995178Y-75221355D01*
X61064805Y-75104466D01*
X61186525Y-75286632D01*
X61393368Y-75493475D01*
X61636589Y-75655990D01*
X61906842Y-75767932D01*
X62193740Y-75825000D01*
X62486260Y-75825000D01*
X62773158Y-75767932D01*
X63043411Y-75655990D01*
X63286632Y-75493475D01*
X63493475Y-75286632D01*
X63610000Y-75112240D01*
X63726525Y-75286632D01*
X63933368Y-75493475D01*
X64176589Y-75655990D01*
X64446842Y-75767932D01*
X64733740Y-75825000D01*
X65026260Y-75825000D01*
X65313158Y-75767932D01*
X65583411Y-75655990D01*
X65826632Y-75493475D01*
X66033475Y-75286632D01*
X66150000Y-75112240D01*
X66266525Y-75286632D01*
X66473368Y-75493475D01*
X66716589Y-75655990D01*
X66986842Y-75767932D01*
X67273740Y-75825000D01*
X67566260Y-75825000D01*
X67853158Y-75767932D01*
X68123411Y-75655990D01*
X68366632Y-75493475D01*
X68573475Y-75286632D01*
X68735990Y-75043411D01*
X68847932Y-74773158D01*
X68905000Y-74486260D01*
X68905000Y-74193740D01*
X68861209Y-73973592D01*
X72814991Y-70019811D01*
X72814990Y-74416669D01*
X72811314Y-74453992D01*
X72814990Y-74491314D01*
X72814990Y-74491324D01*
X72825987Y-74602977D01*
X72854475Y-74696891D01*
X72869444Y-74746238D01*
X72940016Y-74878268D01*
X72941460Y-74880027D01*
X73034989Y-74993993D01*
X73063992Y-75017796D01*
X74072200Y-76026004D01*
X74095998Y-76055002D01*
X74211723Y-76149975D01*
X74343752Y-76220547D01*
X74487013Y-76264004D01*
X74598666Y-76275001D01*
X74598675Y-76275001D01*
X74635998Y-76278677D01*
X74673321Y-76275001D01*
X76527677Y-76275001D01*
X76564999Y-76278677D01*
X76602321Y-76275001D01*
X76602332Y-76275001D01*
X76713985Y-76264004D01*
X76857246Y-76220547D01*
X76989275Y-76149975D01*
X77105000Y-76055002D01*
X77128803Y-76025998D01*
X77373592Y-75781209D01*
X77593740Y-75825000D01*
X77886260Y-75825000D01*
X78173158Y-75767932D01*
X78443411Y-75655990D01*
X78686632Y-75493475D01*
X78893475Y-75286632D01*
X79015195Y-75104466D01*
X79084822Y-75221355D01*
X79279731Y-75437588D01*
X79513080Y-75611641D01*
X79775901Y-75736825D01*
X79923110Y-75781476D01*
X80153000Y-75660155D01*
X80153000Y-74467000D01*
X80407000Y-74467000D01*
X80407000Y-75660155D01*
X80636890Y-75781476D01*
X80784099Y-75736825D01*
X81046920Y-75611641D01*
X81280269Y-75437588D01*
X81475178Y-75221355D01*
X81624157Y-74971252D01*
X81721481Y-74696891D01*
X81600814Y-74467000D01*
X80407000Y-74467000D01*
X80153000Y-74467000D01*
X80133000Y-74467000D01*
X80133000Y-74213000D01*
X80153000Y-74213000D01*
X80153000Y-74193000D01*
X80407000Y-74193000D01*
X80407000Y-74213000D01*
X81600814Y-74213000D01*
X81721481Y-73983109D01*
X81624157Y-73708748D01*
X81475178Y-73458645D01*
X81280269Y-73242412D01*
X81050594Y-73071100D01*
X81226632Y-72953475D01*
X81433475Y-72746632D01*
X81595990Y-72503411D01*
X81707932Y-72233158D01*
X81765000Y-71946260D01*
X81765000Y-71653740D01*
X81721209Y-71433592D01*
X83340000Y-69814801D01*
X83340000Y-76983724D01*
X79537719Y-87440000D01*
X60462282Y-87440000D01*
X58804054Y-82879872D01*
X61541000Y-82879872D01*
X61541000Y-83320128D01*
X61626890Y-83751925D01*
X61795369Y-84158669D01*
X62039962Y-84524729D01*
X62351271Y-84836038D01*
X62717331Y-85080631D01*
X63124075Y-85249110D01*
X63555872Y-85335000D01*
X63996128Y-85335000D01*
X64427925Y-85249110D01*
X64834669Y-85080631D01*
X65200729Y-84836038D01*
X65512038Y-84524729D01*
X65756631Y-84158669D01*
X65925110Y-83751925D01*
X66011000Y-83320128D01*
X66011000Y-82879872D01*
X74541000Y-82879872D01*
X74541000Y-83320128D01*
X74626890Y-83751925D01*
X74795369Y-84158669D01*
X75039962Y-84524729D01*
X75351271Y-84836038D01*
X75717331Y-85080631D01*
X76124075Y-85249110D01*
X76555872Y-85335000D01*
X76996128Y-85335000D01*
X77427925Y-85249110D01*
X77834669Y-85080631D01*
X78200729Y-84836038D01*
X78512038Y-84524729D01*
X78756631Y-84158669D01*
X78925110Y-83751925D01*
X79011000Y-83320128D01*
X79011000Y-82879872D01*
X78925110Y-82448075D01*
X78756631Y-82041331D01*
X78512038Y-81675271D01*
X78200729Y-81363962D01*
X77834669Y-81119369D01*
X77427925Y-80950890D01*
X76996128Y-80865000D01*
X76555872Y-80865000D01*
X76124075Y-80950890D01*
X75717331Y-81119369D01*
X75351271Y-81363962D01*
X75039962Y-81675271D01*
X74795369Y-82041331D01*
X74626890Y-82448075D01*
X74541000Y-82879872D01*
X66011000Y-82879872D01*
X65925110Y-82448075D01*
X65756631Y-82041331D01*
X65512038Y-81675271D01*
X65200729Y-81363962D01*
X64834669Y-81119369D01*
X64427925Y-80950890D01*
X63996128Y-80865000D01*
X63555872Y-80865000D01*
X63124075Y-80950890D01*
X62717331Y-81119369D01*
X62351271Y-81363962D01*
X62039962Y-81675271D01*
X61795369Y-82041331D01*
X61626890Y-82448075D01*
X61541000Y-82879872D01*
X58804054Y-82879872D01*
X56660000Y-76983727D01*
X56660000Y-74696891D01*
X58358519Y-74696891D01*
X58455843Y-74971252D01*
X58604822Y-75221355D01*
X58799731Y-75437588D01*
X59033080Y-75611641D01*
X59295901Y-75736825D01*
X59443110Y-75781476D01*
X59673000Y-75660155D01*
X59673000Y-74467000D01*
X58479186Y-74467000D01*
X58358519Y-74696891D01*
X56660000Y-74696891D01*
X56660000Y-65857550D01*
X56707506Y-65896537D01*
G37*
G04 #@! TD.AperFunction*
D13*
X61393368Y-72953475D02*
X61567760Y-73070000D01*
X61393368Y-73186525D01*
X61186525Y-73393368D01*
X61064805Y-73575534D01*
X60995178Y-73458645D01*
X60818374Y-73262498D01*
X60894180Y-73239502D01*
X61004494Y-73180537D01*
X61101185Y-73101185D01*
X61180537Y-73004494D01*
X61239502Y-72894180D01*
X61261513Y-72821620D01*
X61393368Y-72953475D01*
G04 #@! TA.AperFunction,Conductor*
D14*
G36*
X61393368Y-72953475D02*
G01*
X61567760Y-73070000D01*
X61393368Y-73186525D01*
X61186525Y-73393368D01*
X61064805Y-73575534D01*
X60995178Y-73458645D01*
X60818374Y-73262498D01*
X60894180Y-73239502D01*
X61004494Y-73180537D01*
X61101185Y-73101185D01*
X61180537Y-73004494D01*
X61239502Y-72894180D01*
X61261513Y-72821620D01*
X61393368Y-72953475D01*
G37*
G04 #@! TD.AperFunction*
D13*
X60579000Y-64389000D02*
X60599000Y-64389000D01*
X60599000Y-64643000D01*
X60579000Y-64643000D01*
X60579000Y-65836155D01*
X60808890Y-65957476D01*
X60956099Y-65912825D01*
X61218920Y-65787641D01*
X61452269Y-65613588D01*
X61580001Y-65471882D01*
X61580000Y-70521821D01*
X61393368Y-70646525D01*
X61261513Y-70778380D01*
X61239502Y-70705820D01*
X61180537Y-70595506D01*
X61101185Y-70498815D01*
X61004494Y-70419463D01*
X60894180Y-70360498D01*
X60774482Y-70324188D01*
X60650000Y-70311928D01*
X60560000Y-70311928D01*
X60560000Y-66441322D01*
X60563676Y-66403999D01*
X60560000Y-66366676D01*
X60560000Y-66366667D01*
X60549003Y-66255014D01*
X60505546Y-66111753D01*
X60434974Y-65979724D01*
X60340001Y-65863999D01*
X60313481Y-65842234D01*
X60325000Y-65836155D01*
X60325000Y-64643000D01*
X60305000Y-64643000D01*
X60305000Y-64389000D01*
X60325000Y-64389000D01*
X60325000Y-64369000D01*
X60579000Y-64369000D01*
X60579000Y-64389000D01*
G04 #@! TA.AperFunction,Conductor*
D14*
G36*
X60579000Y-64389000D02*
G01*
X60599000Y-64389000D01*
X60599000Y-64643000D01*
X60579000Y-64643000D01*
X60579000Y-65836155D01*
X60808890Y-65957476D01*
X60956099Y-65912825D01*
X61218920Y-65787641D01*
X61452269Y-65613588D01*
X61580001Y-65471882D01*
X61580000Y-70521821D01*
X61393368Y-70646525D01*
X61261513Y-70778380D01*
X61239502Y-70705820D01*
X61180537Y-70595506D01*
X61101185Y-70498815D01*
X61004494Y-70419463D01*
X60894180Y-70360498D01*
X60774482Y-70324188D01*
X60650000Y-70311928D01*
X60560000Y-70311928D01*
X60560000Y-66441322D01*
X60563676Y-66403999D01*
X60560000Y-66366676D01*
X60560000Y-66366667D01*
X60549003Y-66255014D01*
X60505546Y-66111753D01*
X60434974Y-65979724D01*
X60340001Y-65863999D01*
X60313481Y-65842234D01*
X60325000Y-65836155D01*
X60325000Y-64643000D01*
X60305000Y-64643000D01*
X60305000Y-64389000D01*
X60325000Y-64389000D01*
X60325000Y-64369000D01*
X60579000Y-64369000D01*
X60579000Y-64389000D01*
G37*
G04 #@! TD.AperFunction*
D13*
X78079775Y-59940099D02*
X78204959Y-60202920D01*
X78379012Y-60436269D01*
X78595245Y-60631178D01*
X78712134Y-60700805D01*
X78529968Y-60822525D01*
X78323125Y-61029368D01*
X78160610Y-61272589D01*
X78060000Y-61515484D01*
X78060000Y-59874903D01*
X78079775Y-59940099D01*
G04 #@! TA.AperFunction,Conductor*
D14*
G36*
X78079775Y-59940099D02*
G01*
X78204959Y-60202920D01*
X78379012Y-60436269D01*
X78595245Y-60631178D01*
X78712134Y-60700805D01*
X78529968Y-60822525D01*
X78323125Y-61029368D01*
X78160610Y-61272589D01*
X78060000Y-61515484D01*
X78060000Y-59874903D01*
X78079775Y-59940099D01*
G37*
G04 #@! TD.AperFunction*
D13*
X79603600Y-59309000D02*
X79623600Y-59309000D01*
X79623600Y-59563000D01*
X79603600Y-59563000D01*
X79603600Y-59583000D01*
X79349600Y-59583000D01*
X79349600Y-59563000D01*
X79329600Y-59563000D01*
X79329600Y-59309000D01*
X79349600Y-59309000D01*
X79349600Y-59289000D01*
X79603600Y-59289000D01*
X79603600Y-59309000D01*
G04 #@! TA.AperFunction,Conductor*
D14*
G36*
X79603600Y-59309000D02*
G01*
X79623600Y-59309000D01*
X79623600Y-59563000D01*
X79603600Y-59563000D01*
X79603600Y-59583000D01*
X79349600Y-59583000D01*
X79349600Y-59563000D01*
X79329600Y-59563000D01*
X79329600Y-59309000D01*
X79349600Y-59309000D01*
X79349600Y-59289000D01*
X79603600Y-59289000D01*
X79603600Y-59309000D01*
G37*
G04 #@! TD.AperFunction*
M02*
