G04 #@! TF.GenerationSoftware,KiCad,Pcbnew,(5.1.8)-1*
G04 #@! TF.CreationDate,2020-11-18T10:39:23+01:00*
G04 #@! TF.ProjectId,LORA_ATTINY84,4c4f5241-5f41-4545-9449-4e5938342e6b,rev?*
G04 #@! TF.SameCoordinates,Original*
G04 #@! TF.FileFunction,Legend,Top*
G04 #@! TF.FilePolarity,Positive*
%FSLAX46Y46*%
G04 Gerber Fmt 4.6, Leading zero omitted, Abs format (unit mm)*
G04 Created by KiCad (PCBNEW (5.1.8)-1) date 2020-11-18 10:39:23*
%MOMM*%
%LPD*%
G01*
G04 APERTURE LIST*
%ADD10C,0.100000*%
%ADD11C,0.125000*%
%ADD12C,0.150000*%
%ADD13C,0.010000*%
%ADD14C,0.120000*%
G04 APERTURE END LIST*
D10*
X72850885Y-71347371D02*
X72958028Y-71383085D01*
X73136600Y-71383085D01*
X73208028Y-71347371D01*
X73243742Y-71311657D01*
X73279457Y-71240228D01*
X73279457Y-71168800D01*
X73243742Y-71097371D01*
X73208028Y-71061657D01*
X73136600Y-71025942D01*
X72993742Y-70990228D01*
X72922314Y-70954514D01*
X72886600Y-70918800D01*
X72850885Y-70847371D01*
X72850885Y-70775942D01*
X72886600Y-70704514D01*
X72922314Y-70668800D01*
X72993742Y-70633085D01*
X73172314Y-70633085D01*
X73279457Y-70668800D01*
X73600885Y-71383085D02*
X73600885Y-70633085D01*
X73779457Y-70633085D01*
X73886600Y-70668800D01*
X73958028Y-70740228D01*
X73993742Y-70811657D01*
X74029457Y-70954514D01*
X74029457Y-71061657D01*
X73993742Y-71204514D01*
X73958028Y-71275942D01*
X73886600Y-71347371D01*
X73779457Y-71383085D01*
X73600885Y-71383085D01*
X74315171Y-71168800D02*
X74672314Y-71168800D01*
X74243742Y-71383085D02*
X74493742Y-70633085D01*
X74743742Y-71383085D01*
X70227142Y-71245771D02*
X70334285Y-71281485D01*
X70512857Y-71281485D01*
X70584285Y-71245771D01*
X70620000Y-71210057D01*
X70655714Y-71138628D01*
X70655714Y-71067200D01*
X70620000Y-70995771D01*
X70584285Y-70960057D01*
X70512857Y-70924342D01*
X70370000Y-70888628D01*
X70298571Y-70852914D01*
X70262857Y-70817200D01*
X70227142Y-70745771D01*
X70227142Y-70674342D01*
X70262857Y-70602914D01*
X70298571Y-70567200D01*
X70370000Y-70531485D01*
X70548571Y-70531485D01*
X70655714Y-70567200D01*
X71405714Y-71210057D02*
X71370000Y-71245771D01*
X71262857Y-71281485D01*
X71191428Y-71281485D01*
X71084285Y-71245771D01*
X71012857Y-71174342D01*
X70977142Y-71102914D01*
X70941428Y-70960057D01*
X70941428Y-70852914D01*
X70977142Y-70710057D01*
X71012857Y-70638628D01*
X71084285Y-70567200D01*
X71191428Y-70531485D01*
X71262857Y-70531485D01*
X71370000Y-70567200D01*
X71405714Y-70602914D01*
X72084285Y-71281485D02*
X71727142Y-71281485D01*
X71727142Y-70531485D01*
X68033971Y-70618000D02*
X67962542Y-70582285D01*
X67855400Y-70582285D01*
X67748257Y-70618000D01*
X67676828Y-70689428D01*
X67641114Y-70760857D01*
X67605400Y-70903714D01*
X67605400Y-71010857D01*
X67641114Y-71153714D01*
X67676828Y-71225142D01*
X67748257Y-71296571D01*
X67855400Y-71332285D01*
X67926828Y-71332285D01*
X68033971Y-71296571D01*
X68069685Y-71260857D01*
X68069685Y-71010857D01*
X67926828Y-71010857D01*
X68391114Y-71332285D02*
X68391114Y-70582285D01*
X68819685Y-71332285D01*
X68819685Y-70582285D01*
X69176828Y-71332285D02*
X69176828Y-70582285D01*
X69355400Y-70582285D01*
X69462542Y-70618000D01*
X69533971Y-70689428D01*
X69569685Y-70760857D01*
X69605400Y-70903714D01*
X69605400Y-71010857D01*
X69569685Y-71153714D01*
X69533971Y-71225142D01*
X69462542Y-71296571D01*
X69355400Y-71332285D01*
X69176828Y-71332285D01*
X65322942Y-70531485D02*
X65572942Y-71281485D01*
X65822942Y-70531485D01*
X66072942Y-71281485D02*
X66072942Y-70781485D01*
X66072942Y-70531485D02*
X66037228Y-70567200D01*
X66072942Y-70602914D01*
X66108657Y-70567200D01*
X66072942Y-70531485D01*
X66072942Y-70602914D01*
X66430085Y-70781485D02*
X66430085Y-71281485D01*
X66430085Y-70852914D02*
X66465800Y-70817200D01*
X66537228Y-70781485D01*
X66644371Y-70781485D01*
X66715800Y-70817200D01*
X66751514Y-70888628D01*
X66751514Y-71281485D01*
D11*
X67457190Y-87013880D02*
X67528619Y-87037690D01*
X67647666Y-87037690D01*
X67695285Y-87013880D01*
X67719095Y-86990071D01*
X67742904Y-86942452D01*
X67742904Y-86894833D01*
X67719095Y-86847214D01*
X67695285Y-86823404D01*
X67647666Y-86799595D01*
X67552428Y-86775785D01*
X67504809Y-86751976D01*
X67481000Y-86728166D01*
X67457190Y-86680547D01*
X67457190Y-86632928D01*
X67481000Y-86585309D01*
X67504809Y-86561500D01*
X67552428Y-86537690D01*
X67671476Y-86537690D01*
X67742904Y-86561500D01*
X68147666Y-87013880D02*
X68100047Y-87037690D01*
X68004809Y-87037690D01*
X67957190Y-87013880D01*
X67933380Y-86966261D01*
X67933380Y-86775785D01*
X67957190Y-86728166D01*
X68004809Y-86704357D01*
X68100047Y-86704357D01*
X68147666Y-86728166D01*
X68171476Y-86775785D01*
X68171476Y-86823404D01*
X67933380Y-86871023D01*
X68385761Y-86704357D02*
X68385761Y-87037690D01*
X68385761Y-86751976D02*
X68409571Y-86728166D01*
X68457190Y-86704357D01*
X68528619Y-86704357D01*
X68576238Y-86728166D01*
X68600047Y-86775785D01*
X68600047Y-87037690D01*
X68814333Y-87013880D02*
X68861952Y-87037690D01*
X68957190Y-87037690D01*
X69004809Y-87013880D01*
X69028619Y-86966261D01*
X69028619Y-86942452D01*
X69004809Y-86894833D01*
X68957190Y-86871023D01*
X68885761Y-86871023D01*
X68838142Y-86847214D01*
X68814333Y-86799595D01*
X68814333Y-86775785D01*
X68838142Y-86728166D01*
X68885761Y-86704357D01*
X68957190Y-86704357D01*
X69004809Y-86728166D01*
X69314333Y-87037690D02*
X69266714Y-87013880D01*
X69242904Y-86990071D01*
X69219095Y-86942452D01*
X69219095Y-86799595D01*
X69242904Y-86751976D01*
X69266714Y-86728166D01*
X69314333Y-86704357D01*
X69385761Y-86704357D01*
X69433380Y-86728166D01*
X69457190Y-86751976D01*
X69481000Y-86799595D01*
X69481000Y-86942452D01*
X69457190Y-86990071D01*
X69433380Y-87013880D01*
X69385761Y-87037690D01*
X69314333Y-87037690D01*
X69695285Y-87037690D02*
X69695285Y-86704357D01*
X69695285Y-86799595D02*
X69719095Y-86751976D01*
X69742904Y-86728166D01*
X69790523Y-86704357D01*
X69838142Y-86704357D01*
X70219095Y-87037690D02*
X70219095Y-86775785D01*
X70195285Y-86728166D01*
X70147666Y-86704357D01*
X70052428Y-86704357D01*
X70004809Y-86728166D01*
X70219095Y-87013880D02*
X70171476Y-87037690D01*
X70052428Y-87037690D01*
X70004809Y-87013880D01*
X69981000Y-86966261D01*
X69981000Y-86918642D01*
X70004809Y-86871023D01*
X70052428Y-86847214D01*
X70171476Y-86847214D01*
X70219095Y-86823404D01*
X70671476Y-87037690D02*
X70671476Y-86537690D01*
X70671476Y-87013880D02*
X70623857Y-87037690D01*
X70528619Y-87037690D01*
X70481000Y-87013880D01*
X70457190Y-86990071D01*
X70433380Y-86942452D01*
X70433380Y-86799595D01*
X70457190Y-86751976D01*
X70481000Y-86728166D01*
X70528619Y-86704357D01*
X70623857Y-86704357D01*
X70671476Y-86728166D01*
X71123857Y-87037690D02*
X71123857Y-86775785D01*
X71100047Y-86728166D01*
X71052428Y-86704357D01*
X70957190Y-86704357D01*
X70909571Y-86728166D01*
X71123857Y-87013880D02*
X71076238Y-87037690D01*
X70957190Y-87037690D01*
X70909571Y-87013880D01*
X70885761Y-86966261D01*
X70885761Y-86918642D01*
X70909571Y-86871023D01*
X70957190Y-86847214D01*
X71076238Y-86847214D01*
X71123857Y-86823404D01*
X71361952Y-86704357D02*
X71361952Y-87204357D01*
X71361952Y-86728166D02*
X71409571Y-86704357D01*
X71504809Y-86704357D01*
X71552428Y-86728166D01*
X71576238Y-86751976D01*
X71600047Y-86799595D01*
X71600047Y-86942452D01*
X71576238Y-86990071D01*
X71552428Y-87013880D01*
X71504809Y-87037690D01*
X71409571Y-87037690D01*
X71361952Y-87013880D01*
X71742904Y-86704357D02*
X71933380Y-86704357D01*
X71814333Y-86537690D02*
X71814333Y-86966261D01*
X71838142Y-87013880D01*
X71885761Y-87037690D01*
X71933380Y-87037690D01*
X72290523Y-87013880D02*
X72242904Y-87037690D01*
X72147666Y-87037690D01*
X72100047Y-87013880D01*
X72076238Y-86966261D01*
X72076238Y-86775785D01*
X72100047Y-86728166D01*
X72147666Y-86704357D01*
X72242904Y-86704357D01*
X72290523Y-86728166D01*
X72314333Y-86775785D01*
X72314333Y-86823404D01*
X72076238Y-86871023D01*
X72528619Y-87037690D02*
X72528619Y-86704357D01*
X72528619Y-86799595D02*
X72552428Y-86751976D01*
X72576238Y-86728166D01*
X72623857Y-86704357D01*
X72671476Y-86704357D01*
X68766714Y-87912690D02*
X68766714Y-87412690D01*
X68981000Y-87460309D02*
X69004809Y-87436500D01*
X69052428Y-87412690D01*
X69171476Y-87412690D01*
X69219095Y-87436500D01*
X69242904Y-87460309D01*
X69266714Y-87507928D01*
X69266714Y-87555547D01*
X69242904Y-87626976D01*
X68957190Y-87912690D01*
X69266714Y-87912690D01*
X69766714Y-87865071D02*
X69742904Y-87888880D01*
X69671476Y-87912690D01*
X69623857Y-87912690D01*
X69552428Y-87888880D01*
X69504809Y-87841261D01*
X69481000Y-87793642D01*
X69457190Y-87698404D01*
X69457190Y-87626976D01*
X69481000Y-87531738D01*
X69504809Y-87484119D01*
X69552428Y-87436500D01*
X69623857Y-87412690D01*
X69671476Y-87412690D01*
X69742904Y-87436500D01*
X69766714Y-87460309D01*
X70314333Y-87579357D02*
X70433380Y-87912690D01*
X70552428Y-87579357D01*
X70838142Y-87412690D02*
X70885761Y-87412690D01*
X70933380Y-87436500D01*
X70957190Y-87460309D01*
X70981000Y-87507928D01*
X71004809Y-87603166D01*
X71004809Y-87722214D01*
X70981000Y-87817452D01*
X70957190Y-87865071D01*
X70933380Y-87888880D01*
X70885761Y-87912690D01*
X70838142Y-87912690D01*
X70790523Y-87888880D01*
X70766714Y-87865071D01*
X70742904Y-87817452D01*
X70719095Y-87722214D01*
X70719095Y-87603166D01*
X70742904Y-87507928D01*
X70766714Y-87460309D01*
X70790523Y-87436500D01*
X70838142Y-87412690D01*
X71219095Y-87865071D02*
X71242904Y-87888880D01*
X71219095Y-87912690D01*
X71195285Y-87888880D01*
X71219095Y-87865071D01*
X71219095Y-87912690D01*
X71719095Y-87912690D02*
X71433380Y-87912690D01*
X71576238Y-87912690D02*
X71576238Y-87412690D01*
X71528619Y-87484119D01*
X71481000Y-87531738D01*
X71433380Y-87555547D01*
D12*
X61228600Y-86802980D02*
X61419076Y-86802980D01*
X61514314Y-86850600D01*
X61609552Y-86945838D01*
X61657171Y-87136314D01*
X61657171Y-87469647D01*
X61609552Y-87660123D01*
X61514314Y-87755361D01*
X61419076Y-87802980D01*
X61228600Y-87802980D01*
X61133361Y-87755361D01*
X61038123Y-87660123D01*
X60990504Y-87469647D01*
X60990504Y-87136314D01*
X61038123Y-86945838D01*
X61133361Y-86850600D01*
X61228600Y-86802980D01*
X62085742Y-87802980D02*
X62085742Y-86802980D01*
X62085742Y-87183933D02*
X62180980Y-87136314D01*
X62371457Y-87136314D01*
X62466695Y-87183933D01*
X62514314Y-87231552D01*
X62561933Y-87326790D01*
X62561933Y-87612504D01*
X62514314Y-87707742D01*
X62466695Y-87755361D01*
X62371457Y-87802980D01*
X62180980Y-87802980D01*
X62085742Y-87755361D01*
X63371457Y-87755361D02*
X63276219Y-87802980D01*
X63085742Y-87802980D01*
X62990504Y-87755361D01*
X62942885Y-87660123D01*
X62942885Y-87279171D01*
X62990504Y-87183933D01*
X63085742Y-87136314D01*
X63276219Y-87136314D01*
X63371457Y-87183933D01*
X63419076Y-87279171D01*
X63419076Y-87374409D01*
X62942885Y-87469647D01*
X63847647Y-87802980D02*
X63847647Y-87136314D01*
X63847647Y-87326790D02*
X63895266Y-87231552D01*
X63942885Y-87183933D01*
X64038123Y-87136314D01*
X64133361Y-87136314D01*
X64323838Y-87136314D02*
X64704790Y-87136314D01*
X64466695Y-86802980D02*
X64466695Y-87660123D01*
X64514314Y-87755361D01*
X64609552Y-87802980D01*
X64704790Y-87802980D01*
X65419076Y-87755361D02*
X65323838Y-87802980D01*
X65133361Y-87802980D01*
X65038123Y-87755361D01*
X64990504Y-87660123D01*
X64990504Y-87279171D01*
X65038123Y-87183933D01*
X65133361Y-87136314D01*
X65323838Y-87136314D01*
X65419076Y-87183933D01*
X65466695Y-87279171D01*
X65466695Y-87374409D01*
X64990504Y-87469647D01*
X65895266Y-87802980D02*
X65895266Y-87136314D01*
X65895266Y-86802980D02*
X65847647Y-86850600D01*
X65895266Y-86898219D01*
X65942885Y-86850600D01*
X65895266Y-86802980D01*
X65895266Y-86898219D01*
X66514314Y-87802980D02*
X66419076Y-87755361D01*
X66371457Y-87660123D01*
X66371457Y-86802980D01*
D13*
G36*
X66903572Y-84808671D02*
G01*
X67112974Y-85121178D01*
X67137547Y-85544526D01*
X67071296Y-86112657D01*
X66758789Y-86322059D01*
X66335442Y-86346632D01*
X65767311Y-86280381D01*
X65557909Y-85967874D01*
X65533336Y-85544526D01*
X65535674Y-85524474D01*
X66119319Y-85524474D01*
X66248383Y-85768271D01*
X66469126Y-85811895D01*
X66801885Y-85676232D01*
X66818933Y-85524474D01*
X66542907Y-85248239D01*
X66469126Y-85237053D01*
X66155627Y-85445204D01*
X66119319Y-85524474D01*
X65535674Y-85524474D01*
X65599587Y-84976395D01*
X65912094Y-84766994D01*
X66335442Y-84742421D01*
X66903572Y-84808671D01*
G37*
X66903572Y-84808671D02*
X67112974Y-85121178D01*
X67137547Y-85544526D01*
X67071296Y-86112657D01*
X66758789Y-86322059D01*
X66335442Y-86346632D01*
X65767311Y-86280381D01*
X65557909Y-85967874D01*
X65533336Y-85544526D01*
X65535674Y-85524474D01*
X66119319Y-85524474D01*
X66248383Y-85768271D01*
X66469126Y-85811895D01*
X66801885Y-85676232D01*
X66818933Y-85524474D01*
X66542907Y-85248239D01*
X66469126Y-85237053D01*
X66155627Y-85445204D01*
X66119319Y-85524474D01*
X65535674Y-85524474D01*
X65599587Y-84976395D01*
X65912094Y-84766994D01*
X66335442Y-84742421D01*
X66903572Y-84808671D01*
G36*
X69423882Y-84911959D02*
G01*
X69653554Y-85177362D01*
X69633264Y-85740313D01*
X69276302Y-86207505D01*
X68875442Y-86346632D01*
X68428355Y-86159796D01*
X68235145Y-85979467D01*
X68078777Y-85524474D01*
X68525635Y-85524474D01*
X68654699Y-85768271D01*
X68875442Y-85811895D01*
X69208201Y-85676232D01*
X69225249Y-85524474D01*
X68949222Y-85248239D01*
X68875442Y-85237053D01*
X68561943Y-85445204D01*
X68525635Y-85524474D01*
X68078777Y-85524474D01*
X68046713Y-85431179D01*
X68282745Y-84956080D01*
X68845588Y-84742837D01*
X68875442Y-84742421D01*
X69423882Y-84911959D01*
G37*
X69423882Y-84911959D02*
X69653554Y-85177362D01*
X69633264Y-85740313D01*
X69276302Y-86207505D01*
X68875442Y-86346632D01*
X68428355Y-86159796D01*
X68235145Y-85979467D01*
X68078777Y-85524474D01*
X68525635Y-85524474D01*
X68654699Y-85768271D01*
X68875442Y-85811895D01*
X69208201Y-85676232D01*
X69225249Y-85524474D01*
X68949222Y-85248239D01*
X68875442Y-85237053D01*
X68561943Y-85445204D01*
X68525635Y-85524474D01*
X68078777Y-85524474D01*
X68046713Y-85431179D01*
X68282745Y-84956080D01*
X68845588Y-84742837D01*
X68875442Y-84742421D01*
X69423882Y-84911959D01*
G36*
X71909089Y-84954844D02*
G01*
X72101685Y-85440185D01*
X71929349Y-85970547D01*
X71922054Y-85979467D01*
X71387209Y-86322602D01*
X70867963Y-86157462D01*
X70635257Y-85852854D01*
X70591081Y-85524474D01*
X70931950Y-85524474D01*
X71061014Y-85768271D01*
X71281757Y-85811895D01*
X71614516Y-85676232D01*
X71631564Y-85524474D01*
X71355538Y-85248239D01*
X71281757Y-85237053D01*
X70968259Y-85445204D01*
X70931950Y-85524474D01*
X70591081Y-85524474D01*
X70557601Y-85275610D01*
X70913394Y-84862056D01*
X71440310Y-84742421D01*
X71909089Y-84954844D01*
G37*
X71909089Y-84954844D02*
X72101685Y-85440185D01*
X71929349Y-85970547D01*
X71922054Y-85979467D01*
X71387209Y-86322602D01*
X70867963Y-86157462D01*
X70635257Y-85852854D01*
X70591081Y-85524474D01*
X70931950Y-85524474D01*
X71061014Y-85768271D01*
X71281757Y-85811895D01*
X71614516Y-85676232D01*
X71631564Y-85524474D01*
X71355538Y-85248239D01*
X71281757Y-85237053D01*
X70968259Y-85445204D01*
X70931950Y-85524474D01*
X70591081Y-85524474D01*
X70557601Y-85275610D01*
X70913394Y-84862056D01*
X71440310Y-84742421D01*
X71909089Y-84954844D01*
G36*
X74367704Y-84942880D02*
G01*
X74564454Y-85417973D01*
X74353668Y-85948984D01*
X73838898Y-86304967D01*
X73350611Y-86246338D01*
X73116340Y-85945579D01*
X73084555Y-85457658D01*
X73400353Y-85457658D01*
X73614329Y-85748069D01*
X73837537Y-85811895D01*
X74084298Y-85632505D01*
X74089126Y-85589088D01*
X73914712Y-85201614D01*
X73552660Y-85147807D01*
X73512735Y-85169217D01*
X73400353Y-85457658D01*
X73084555Y-85457658D01*
X73073731Y-85291507D01*
X73419392Y-84843889D01*
X73821757Y-84742421D01*
X74367704Y-84942880D01*
G37*
X74367704Y-84942880D02*
X74564454Y-85417973D01*
X74353668Y-85948984D01*
X73838898Y-86304967D01*
X73350611Y-86246338D01*
X73116340Y-85945579D01*
X73084555Y-85457658D01*
X73400353Y-85457658D01*
X73614329Y-85748069D01*
X73837537Y-85811895D01*
X74084298Y-85632505D01*
X74089126Y-85589088D01*
X73914712Y-85201614D01*
X73552660Y-85147807D01*
X73512735Y-85169217D01*
X73400353Y-85457658D01*
X73084555Y-85457658D01*
X73073731Y-85291507D01*
X73419392Y-84843889D01*
X73821757Y-84742421D01*
X74367704Y-84942880D01*
G36*
X74891231Y-84207684D02*
G01*
X65533336Y-84207684D01*
X65533336Y-83390710D01*
X68233460Y-83390710D01*
X68437623Y-83620836D01*
X69009126Y-83672947D01*
X69629407Y-83566284D01*
X69841686Y-83212869D01*
X69842246Y-83205053D01*
X69879592Y-82875536D01*
X69958514Y-83065401D01*
X69995535Y-83205053D01*
X70215774Y-83601551D01*
X70365572Y-83672947D01*
X70590831Y-83450940D01*
X70644351Y-83205053D01*
X70681697Y-82875536D01*
X70760619Y-83065401D01*
X70797640Y-83205053D01*
X71102483Y-83476669D01*
X71740229Y-83649200D01*
X72547028Y-83720887D01*
X73359031Y-83689969D01*
X74012385Y-83554685D01*
X74343241Y-83313275D01*
X74356494Y-83243289D01*
X74192099Y-82939706D01*
X73955442Y-82967530D01*
X73611545Y-82965665D01*
X73554389Y-82846671D01*
X73389510Y-82696077D01*
X73282659Y-82739853D01*
X73119008Y-83045510D01*
X73150249Y-83133214D01*
X73061908Y-83279726D01*
X72820399Y-83268880D01*
X72423573Y-83167411D01*
X72351231Y-83124545D01*
X72096538Y-83026766D01*
X71377522Y-82887099D01*
X70261784Y-82718476D01*
X70142966Y-82702150D01*
X69440464Y-82629906D01*
X69143791Y-82698674D01*
X69133382Y-82949944D01*
X69160522Y-83043049D01*
X69256783Y-83385758D01*
X69151673Y-83276986D01*
X68998076Y-83039290D01*
X68712713Y-82714679D01*
X68483453Y-82851081D01*
X68447246Y-82905606D01*
X68233460Y-83390710D01*
X65533336Y-83390710D01*
X65533336Y-78860316D01*
X74891231Y-78860316D01*
X74891231Y-84207684D01*
G37*
X74891231Y-84207684D02*
X65533336Y-84207684D01*
X65533336Y-83390710D01*
X68233460Y-83390710D01*
X68437623Y-83620836D01*
X69009126Y-83672947D01*
X69629407Y-83566284D01*
X69841686Y-83212869D01*
X69842246Y-83205053D01*
X69879592Y-82875536D01*
X69958514Y-83065401D01*
X69995535Y-83205053D01*
X70215774Y-83601551D01*
X70365572Y-83672947D01*
X70590831Y-83450940D01*
X70644351Y-83205053D01*
X70681697Y-82875536D01*
X70760619Y-83065401D01*
X70797640Y-83205053D01*
X71102483Y-83476669D01*
X71740229Y-83649200D01*
X72547028Y-83720887D01*
X73359031Y-83689969D01*
X74012385Y-83554685D01*
X74343241Y-83313275D01*
X74356494Y-83243289D01*
X74192099Y-82939706D01*
X73955442Y-82967530D01*
X73611545Y-82965665D01*
X73554389Y-82846671D01*
X73389510Y-82696077D01*
X73282659Y-82739853D01*
X73119008Y-83045510D01*
X73150249Y-83133214D01*
X73061908Y-83279726D01*
X72820399Y-83268880D01*
X72423573Y-83167411D01*
X72351231Y-83124545D01*
X72096538Y-83026766D01*
X71377522Y-82887099D01*
X70261784Y-82718476D01*
X70142966Y-82702150D01*
X69440464Y-82629906D01*
X69143791Y-82698674D01*
X69133382Y-82949944D01*
X69160522Y-83043049D01*
X69256783Y-83385758D01*
X69151673Y-83276986D01*
X68998076Y-83039290D01*
X68712713Y-82714679D01*
X68483453Y-82851081D01*
X68447246Y-82905606D01*
X68233460Y-83390710D01*
X65533336Y-83390710D01*
X65533336Y-78860316D01*
X74891231Y-78860316D01*
X74891231Y-84207684D01*
G36*
X66881629Y-76917077D02*
G01*
X67098674Y-77393605D01*
X67089457Y-77589120D01*
X66826311Y-78071592D01*
X66347334Y-78294802D01*
X65864323Y-78210385D01*
X65629264Y-77922546D01*
X65655418Y-77523474D01*
X66068073Y-77523474D01*
X66284630Y-77760677D01*
X66469126Y-77790842D01*
X66824931Y-77646471D01*
X66870178Y-77523474D01*
X66653621Y-77286270D01*
X66469126Y-77256105D01*
X66113320Y-77400476D01*
X66068073Y-77523474D01*
X65655418Y-77523474D01*
X65664035Y-77391998D01*
X65877096Y-77065128D01*
X66415936Y-76782300D01*
X66881629Y-76917077D01*
G37*
X66881629Y-76917077D02*
X67098674Y-77393605D01*
X67089457Y-77589120D01*
X66826311Y-78071592D01*
X66347334Y-78294802D01*
X65864323Y-78210385D01*
X65629264Y-77922546D01*
X65655418Y-77523474D01*
X66068073Y-77523474D01*
X66284630Y-77760677D01*
X66469126Y-77790842D01*
X66824931Y-77646471D01*
X66870178Y-77523474D01*
X66653621Y-77286270D01*
X66469126Y-77256105D01*
X66113320Y-77400476D01*
X66068073Y-77523474D01*
X65655418Y-77523474D01*
X65664035Y-77391998D01*
X65877096Y-77065128D01*
X66415936Y-76782300D01*
X66881629Y-76917077D01*
G36*
X69379663Y-76946601D02*
G01*
X69673718Y-77457693D01*
X69653554Y-77890638D01*
X69282736Y-78238017D01*
X68720108Y-78303198D01*
X68228073Y-78086180D01*
X68097329Y-77890638D01*
X68110562Y-77523474D01*
X68474389Y-77523474D01*
X68690946Y-77760677D01*
X68875442Y-77790842D01*
X69231247Y-77646471D01*
X69276494Y-77523474D01*
X69059937Y-77286270D01*
X68875442Y-77256105D01*
X68519636Y-77400476D01*
X68474389Y-77523474D01*
X68110562Y-77523474D01*
X68117619Y-77327687D01*
X68474581Y-76860495D01*
X68875442Y-76721368D01*
X69379663Y-76946601D01*
G37*
X69379663Y-76946601D02*
X69673718Y-77457693D01*
X69653554Y-77890638D01*
X69282736Y-78238017D01*
X68720108Y-78303198D01*
X68228073Y-78086180D01*
X68097329Y-77890638D01*
X68110562Y-77523474D01*
X68474389Y-77523474D01*
X68690946Y-77760677D01*
X68875442Y-77790842D01*
X69231247Y-77646471D01*
X69276494Y-77523474D01*
X69059937Y-77286270D01*
X68875442Y-77256105D01*
X68519636Y-77400476D01*
X68474389Y-77523474D01*
X68110562Y-77523474D01*
X68117619Y-77327687D01*
X68474581Y-76860495D01*
X68875442Y-76721368D01*
X69379663Y-76946601D01*
G36*
X71575815Y-76869379D02*
G01*
X71600308Y-76884192D01*
X72036671Y-77360279D01*
X72039982Y-77861285D01*
X71637373Y-78213991D01*
X71382755Y-78273200D01*
X70766550Y-78199554D01*
X70532172Y-77964978D01*
X70555376Y-77523474D01*
X70880705Y-77523474D01*
X71097262Y-77760677D01*
X71281757Y-77790842D01*
X71637563Y-77646471D01*
X71682810Y-77523474D01*
X71466253Y-77286270D01*
X71281757Y-77256105D01*
X70925952Y-77400476D01*
X70880705Y-77523474D01*
X70555376Y-77523474D01*
X70558769Y-77458917D01*
X70749725Y-77081567D01*
X71132007Y-76748962D01*
X71575815Y-76869379D01*
G37*
X71575815Y-76869379D02*
X71600308Y-76884192D01*
X72036671Y-77360279D01*
X72039982Y-77861285D01*
X71637373Y-78213991D01*
X71382755Y-78273200D01*
X70766550Y-78199554D01*
X70532172Y-77964978D01*
X70555376Y-77523474D01*
X70880705Y-77523474D01*
X71097262Y-77760677D01*
X71281757Y-77790842D01*
X71637563Y-77646471D01*
X71682810Y-77523474D01*
X71466253Y-77286270D01*
X71281757Y-77256105D01*
X70925952Y-77400476D01*
X70880705Y-77523474D01*
X70555376Y-77523474D01*
X70558769Y-77458917D01*
X70749725Y-77081567D01*
X71132007Y-76748962D01*
X71575815Y-76869379D01*
G36*
X74168416Y-76938021D02*
G01*
X74513335Y-77431200D01*
X74528482Y-77921121D01*
X74166767Y-78253100D01*
X73628860Y-78296596D01*
X73187636Y-78050950D01*
X73116340Y-77924526D01*
X73083979Y-77523474D01*
X73420705Y-77523474D01*
X73481317Y-77752368D01*
X73672294Y-77790842D01*
X74038111Y-77651249D01*
X74089126Y-77523474D01*
X73897228Y-77263758D01*
X73837537Y-77256105D01*
X73475430Y-77450455D01*
X73420705Y-77523474D01*
X73083979Y-77523474D01*
X73067438Y-77318483D01*
X73319500Y-76850745D01*
X73646944Y-76721368D01*
X74168416Y-76938021D01*
G37*
X74168416Y-76938021D02*
X74513335Y-77431200D01*
X74528482Y-77921121D01*
X74166767Y-78253100D01*
X73628860Y-78296596D01*
X73187636Y-78050950D01*
X73116340Y-77924526D01*
X73083979Y-77523474D01*
X73420705Y-77523474D01*
X73481317Y-77752368D01*
X73672294Y-77790842D01*
X74038111Y-77651249D01*
X74089126Y-77523474D01*
X73897228Y-77263758D01*
X73837537Y-77256105D01*
X73475430Y-77450455D01*
X73420705Y-77523474D01*
X73083979Y-77523474D01*
X73067438Y-77318483D01*
X73319500Y-76850745D01*
X73646944Y-76721368D01*
X74168416Y-76938021D01*
G36*
X72217547Y-83271895D02*
G01*
X72083863Y-83405579D01*
X71950178Y-83271895D01*
X72083863Y-83138210D01*
X72217547Y-83271895D01*
G37*
X72217547Y-83271895D02*
X72083863Y-83405579D01*
X71950178Y-83271895D01*
X72083863Y-83138210D01*
X72217547Y-83271895D01*
D14*
X75193200Y-69910000D02*
X75193200Y-67250000D01*
X67513200Y-69910000D02*
X75193200Y-69910000D01*
X67513200Y-67250000D02*
X75193200Y-67250000D01*
X67513200Y-69910000D02*
X67513200Y-67250000D01*
X66243200Y-69910000D02*
X64913200Y-69910000D01*
X64913200Y-69910000D02*
X64913200Y-68580000D01*
D12*
X64886580Y-72515361D02*
X65029438Y-72562980D01*
X65267533Y-72562980D01*
X65362771Y-72515361D01*
X65410390Y-72467742D01*
X65458009Y-72372504D01*
X65458009Y-72277266D01*
X65410390Y-72182028D01*
X65362771Y-72134409D01*
X65267533Y-72086790D01*
X65077057Y-72039171D01*
X64981819Y-71991552D01*
X64934200Y-71943933D01*
X64886580Y-71848695D01*
X64886580Y-71753457D01*
X64934200Y-71658219D01*
X64981819Y-71610600D01*
X65077057Y-71562980D01*
X65315152Y-71562980D01*
X65458009Y-71610600D01*
X66267533Y-72515361D02*
X66172295Y-72562980D01*
X65981819Y-72562980D01*
X65886580Y-72515361D01*
X65838961Y-72420123D01*
X65838961Y-72039171D01*
X65886580Y-71943933D01*
X65981819Y-71896314D01*
X66172295Y-71896314D01*
X66267533Y-71943933D01*
X66315152Y-72039171D01*
X66315152Y-72134409D01*
X65838961Y-72229647D01*
X66743723Y-71896314D02*
X66743723Y-72562980D01*
X66743723Y-71991552D02*
X66791342Y-71943933D01*
X66886580Y-71896314D01*
X67029438Y-71896314D01*
X67124676Y-71943933D01*
X67172295Y-72039171D01*
X67172295Y-72562980D01*
X67600866Y-72515361D02*
X67696104Y-72562980D01*
X67886580Y-72562980D01*
X67981819Y-72515361D01*
X68029438Y-72420123D01*
X68029438Y-72372504D01*
X67981819Y-72277266D01*
X67886580Y-72229647D01*
X67743723Y-72229647D01*
X67648485Y-72182028D01*
X67600866Y-72086790D01*
X67600866Y-72039171D01*
X67648485Y-71943933D01*
X67743723Y-71896314D01*
X67886580Y-71896314D01*
X67981819Y-71943933D01*
X68600866Y-72562980D02*
X68505628Y-72515361D01*
X68458009Y-72467742D01*
X68410390Y-72372504D01*
X68410390Y-72086790D01*
X68458009Y-71991552D01*
X68505628Y-71943933D01*
X68600866Y-71896314D01*
X68743723Y-71896314D01*
X68838961Y-71943933D01*
X68886580Y-71991552D01*
X68934200Y-72086790D01*
X68934200Y-72372504D01*
X68886580Y-72467742D01*
X68838961Y-72515361D01*
X68743723Y-72562980D01*
X68600866Y-72562980D01*
X69362771Y-72562980D02*
X69362771Y-71896314D01*
X69362771Y-72086790D02*
X69410390Y-71991552D01*
X69458009Y-71943933D01*
X69553247Y-71896314D01*
X69648485Y-71896314D01*
X69981819Y-72182028D02*
X70743723Y-72182028D01*
X71219914Y-72562980D02*
X71219914Y-71562980D01*
X71219914Y-72039171D02*
X71791342Y-72039171D01*
X71791342Y-72562980D02*
X71791342Y-71562980D01*
X72648485Y-72515361D02*
X72553247Y-72562980D01*
X72362771Y-72562980D01*
X72267533Y-72515361D01*
X72219914Y-72420123D01*
X72219914Y-72039171D01*
X72267533Y-71943933D01*
X72362771Y-71896314D01*
X72553247Y-71896314D01*
X72648485Y-71943933D01*
X72696104Y-72039171D01*
X72696104Y-72134409D01*
X72219914Y-72229647D01*
X73553247Y-72562980D02*
X73553247Y-72039171D01*
X73505628Y-71943933D01*
X73410390Y-71896314D01*
X73219914Y-71896314D01*
X73124676Y-71943933D01*
X73553247Y-72515361D02*
X73458009Y-72562980D01*
X73219914Y-72562980D01*
X73124676Y-72515361D01*
X73077057Y-72420123D01*
X73077057Y-72324885D01*
X73124676Y-72229647D01*
X73219914Y-72182028D01*
X73458009Y-72182028D01*
X73553247Y-72134409D01*
X74458009Y-72562980D02*
X74458009Y-71562980D01*
X74458009Y-72515361D02*
X74362771Y-72562980D01*
X74172295Y-72562980D01*
X74077057Y-72515361D01*
X74029438Y-72467742D01*
X73981819Y-72372504D01*
X73981819Y-72086790D01*
X74029438Y-71991552D01*
X74077057Y-71943933D01*
X74172295Y-71896314D01*
X74362771Y-71896314D01*
X74458009Y-71943933D01*
X75315152Y-72515361D02*
X75219914Y-72562980D01*
X75029438Y-72562980D01*
X74934200Y-72515361D01*
X74886580Y-72420123D01*
X74886580Y-72039171D01*
X74934200Y-71943933D01*
X75029438Y-71896314D01*
X75219914Y-71896314D01*
X75315152Y-71943933D01*
X75362771Y-72039171D01*
X75362771Y-72134409D01*
X74886580Y-72229647D01*
X75791342Y-72562980D02*
X75791342Y-71896314D01*
X75791342Y-72086790D02*
X75838961Y-71991552D01*
X75886580Y-71943933D01*
X75981819Y-71896314D01*
X76077057Y-71896314D01*
M02*
