G04 #@! TF.GenerationSoftware,KiCad,Pcbnew,(5.1.8)-1*
G04 #@! TF.CreationDate,2020-11-20T21:02:53+01:00*
G04 #@! TF.ProjectId,LORA_ATTINY84,4c4f5241-5f41-4545-9449-4e5938342e6b,rev?*
G04 #@! TF.SameCoordinates,Original*
G04 #@! TF.FileFunction,Legend,Top*
G04 #@! TF.FilePolarity,Positive*
%FSLAX46Y46*%
G04 Gerber Fmt 4.6, Leading zero omitted, Abs format (unit mm)*
G04 Created by KiCad (PCBNEW (5.1.8)-1) date 2020-11-20 21:02:53*
%MOMM*%
%LPD*%
G01*
G04 APERTURE LIST*
%ADD10C,0.120000*%
%ADD11C,0.150000*%
%ADD12C,0.010000*%
G04 APERTURE END LIST*
D10*
X75535785Y-78839028D02*
X74785785Y-78839028D01*
X74785785Y-78553314D01*
X74821500Y-78481885D01*
X74857214Y-78446171D01*
X74928642Y-78410457D01*
X75035785Y-78410457D01*
X75107214Y-78446171D01*
X75142928Y-78481885D01*
X75178642Y-78553314D01*
X75178642Y-78839028D01*
X75535785Y-78089028D02*
X75035785Y-78089028D01*
X75178642Y-78089028D02*
X75107214Y-78053314D01*
X75071500Y-78017600D01*
X75035785Y-77946171D01*
X75035785Y-77874742D01*
X75535785Y-77517600D02*
X75500071Y-77589028D01*
X75464357Y-77624742D01*
X75392928Y-77660457D01*
X75178642Y-77660457D01*
X75107214Y-77624742D01*
X75071500Y-77589028D01*
X75035785Y-77517600D01*
X75035785Y-77410457D01*
X75071500Y-77339028D01*
X75107214Y-77303314D01*
X75178642Y-77267600D01*
X75392928Y-77267600D01*
X75464357Y-77303314D01*
X75500071Y-77339028D01*
X75535785Y-77410457D01*
X75535785Y-77517600D01*
X75035785Y-76624742D02*
X75642928Y-76624742D01*
X75714357Y-76660457D01*
X75750071Y-76696171D01*
X75785785Y-76767600D01*
X75785785Y-76874742D01*
X75750071Y-76946171D01*
X75500071Y-76624742D02*
X75535785Y-76696171D01*
X75535785Y-76839028D01*
X75500071Y-76910457D01*
X75464357Y-76946171D01*
X75392928Y-76981885D01*
X75178642Y-76981885D01*
X75107214Y-76946171D01*
X75071500Y-76910457D01*
X75035785Y-76839028D01*
X75035785Y-76696171D01*
X75071500Y-76624742D01*
X75535785Y-75946171D02*
X75142928Y-75946171D01*
X75071500Y-75981885D01*
X75035785Y-76053314D01*
X75035785Y-76196171D01*
X75071500Y-76267600D01*
X75500071Y-75946171D02*
X75535785Y-76017600D01*
X75535785Y-76196171D01*
X75500071Y-76267600D01*
X75428642Y-76303314D01*
X75357214Y-76303314D01*
X75285785Y-76267600D01*
X75250071Y-76196171D01*
X75250071Y-76017600D01*
X75214357Y-75946171D01*
X75535785Y-75267600D02*
X74785785Y-75267600D01*
X75500071Y-75267600D02*
X75535785Y-75339028D01*
X75535785Y-75481885D01*
X75500071Y-75553314D01*
X75464357Y-75589028D01*
X75392928Y-75624742D01*
X75178642Y-75624742D01*
X75107214Y-75589028D01*
X75071500Y-75553314D01*
X75035785Y-75481885D01*
X75035785Y-75339028D01*
X75071500Y-75267600D01*
X75535785Y-74589028D02*
X75142928Y-74589028D01*
X75071500Y-74624742D01*
X75035785Y-74696171D01*
X75035785Y-74839028D01*
X75071500Y-74910457D01*
X75500071Y-74589028D02*
X75535785Y-74660457D01*
X75535785Y-74839028D01*
X75500071Y-74910457D01*
X75428642Y-74946171D01*
X75357214Y-74946171D01*
X75285785Y-74910457D01*
X75250071Y-74839028D01*
X75250071Y-74660457D01*
X75214357Y-74589028D01*
X75035785Y-74231885D02*
X75785785Y-74231885D01*
X75071500Y-74231885D02*
X75035785Y-74160457D01*
X75035785Y-74017600D01*
X75071500Y-73946171D01*
X75107214Y-73910457D01*
X75178642Y-73874742D01*
X75392928Y-73874742D01*
X75464357Y-73910457D01*
X75500071Y-73946171D01*
X75535785Y-74017600D01*
X75535785Y-74160457D01*
X75500071Y-74231885D01*
X75035785Y-73660457D02*
X75035785Y-73374742D01*
X74785785Y-73553314D02*
X75428642Y-73553314D01*
X75500071Y-73517600D01*
X75535785Y-73446171D01*
X75535785Y-73374742D01*
X75500071Y-72839028D02*
X75535785Y-72910457D01*
X75535785Y-73053314D01*
X75500071Y-73124742D01*
X75428642Y-73160457D01*
X75142928Y-73160457D01*
X75071500Y-73124742D01*
X75035785Y-73053314D01*
X75035785Y-72910457D01*
X75071500Y-72839028D01*
X75142928Y-72803314D01*
X75214357Y-72803314D01*
X75285785Y-73160457D01*
X75535785Y-72481885D02*
X75035785Y-72481885D01*
X75178642Y-72481885D02*
X75107214Y-72446171D01*
X75071500Y-72410457D01*
X75035785Y-72339028D01*
X75035785Y-72267600D01*
X75035785Y-71517600D02*
X75535785Y-71339028D01*
X75035785Y-71160457D01*
X74785785Y-70731885D02*
X74785785Y-70660457D01*
X74821500Y-70589028D01*
X74857214Y-70553314D01*
X74928642Y-70517600D01*
X75071500Y-70481885D01*
X75250071Y-70481885D01*
X75392928Y-70517600D01*
X75464357Y-70553314D01*
X75500071Y-70589028D01*
X75535785Y-70660457D01*
X75535785Y-70731885D01*
X75500071Y-70803314D01*
X75464357Y-70839028D01*
X75392928Y-70874742D01*
X75250071Y-70910457D01*
X75071500Y-70910457D01*
X74928642Y-70874742D01*
X74857214Y-70839028D01*
X74821500Y-70803314D01*
X74785785Y-70731885D01*
X75464357Y-70160457D02*
X75500071Y-70124742D01*
X75535785Y-70160457D01*
X75500071Y-70196171D01*
X75464357Y-70160457D01*
X75535785Y-70160457D01*
X75535785Y-69410457D02*
X75535785Y-69839028D01*
X75535785Y-69624742D02*
X74785785Y-69624742D01*
X74892928Y-69696171D01*
X74964357Y-69767600D01*
X75000071Y-69839028D01*
X76780785Y-76678314D02*
X76387928Y-76678314D01*
X76316500Y-76714028D01*
X76280785Y-76785457D01*
X76280785Y-76928314D01*
X76316500Y-76999742D01*
X76745071Y-76678314D02*
X76780785Y-76749742D01*
X76780785Y-76928314D01*
X76745071Y-76999742D01*
X76673642Y-77035457D01*
X76602214Y-77035457D01*
X76530785Y-76999742D01*
X76495071Y-76928314D01*
X76495071Y-76749742D01*
X76459357Y-76678314D01*
X76280785Y-76428314D02*
X76280785Y-76142600D01*
X76030785Y-76321171D02*
X76673642Y-76321171D01*
X76745071Y-76285457D01*
X76780785Y-76214028D01*
X76780785Y-76142600D01*
X76280785Y-75999742D02*
X76280785Y-75714028D01*
X76030785Y-75892600D02*
X76673642Y-75892600D01*
X76745071Y-75856885D01*
X76780785Y-75785457D01*
X76780785Y-75714028D01*
X76280785Y-75464028D02*
X76780785Y-75464028D01*
X76352214Y-75464028D02*
X76316500Y-75428314D01*
X76280785Y-75356885D01*
X76280785Y-75249742D01*
X76316500Y-75178314D01*
X76387928Y-75142600D01*
X76780785Y-75142600D01*
X76780785Y-74678314D02*
X76745071Y-74749742D01*
X76709357Y-74785457D01*
X76637928Y-74821171D01*
X76423642Y-74821171D01*
X76352214Y-74785457D01*
X76316500Y-74749742D01*
X76280785Y-74678314D01*
X76280785Y-74571171D01*
X76316500Y-74499742D01*
X76352214Y-74464028D01*
X76423642Y-74428314D01*
X76637928Y-74428314D01*
X76709357Y-74464028D01*
X76745071Y-74499742D01*
X76780785Y-74571171D01*
X76780785Y-74678314D01*
X76780785Y-73785457D02*
X76030785Y-73785457D01*
X76745071Y-73785457D02*
X76780785Y-73856885D01*
X76780785Y-73999742D01*
X76745071Y-74071171D01*
X76709357Y-74106885D01*
X76637928Y-74142600D01*
X76423642Y-74142600D01*
X76352214Y-74106885D01*
X76316500Y-74071171D01*
X76280785Y-73999742D01*
X76280785Y-73856885D01*
X76316500Y-73785457D01*
X76745071Y-73142600D02*
X76780785Y-73214028D01*
X76780785Y-73356885D01*
X76745071Y-73428314D01*
X76673642Y-73464028D01*
X76387928Y-73464028D01*
X76316500Y-73428314D01*
X76280785Y-73356885D01*
X76280785Y-73214028D01*
X76316500Y-73142600D01*
X76387928Y-73106885D01*
X76459357Y-73106885D01*
X76530785Y-73464028D01*
X76280785Y-72285457D02*
X76780785Y-72106885D01*
X76280785Y-71928314D01*
X76102214Y-71678314D02*
X76066500Y-71642600D01*
X76030785Y-71571171D01*
X76030785Y-71392600D01*
X76066500Y-71321171D01*
X76102214Y-71285457D01*
X76173642Y-71249742D01*
X76245071Y-71249742D01*
X76352214Y-71285457D01*
X76780785Y-71714028D01*
X76780785Y-71249742D01*
D11*
X63946066Y-81028323D02*
X63946066Y-80552133D01*
X64231780Y-81123561D02*
X63231780Y-80790228D01*
X64231780Y-80456895D01*
X63231780Y-80266419D02*
X63231780Y-79694990D01*
X64231780Y-79980704D02*
X63231780Y-79980704D01*
X63231780Y-79504514D02*
X63231780Y-78933085D01*
X64231780Y-79218800D02*
X63231780Y-79218800D01*
X64231780Y-78599752D02*
X63231780Y-78599752D01*
X64231780Y-78028323D01*
X63231780Y-78028323D01*
X64231780Y-77409276D02*
X64184161Y-77504514D01*
X64136542Y-77552133D01*
X64041304Y-77599752D01*
X63755590Y-77599752D01*
X63660352Y-77552133D01*
X63612733Y-77504514D01*
X63565114Y-77409276D01*
X63565114Y-77266419D01*
X63612733Y-77171180D01*
X63660352Y-77123561D01*
X63755590Y-77075942D01*
X64041304Y-77075942D01*
X64136542Y-77123561D01*
X64184161Y-77171180D01*
X64231780Y-77266419D01*
X64231780Y-77409276D01*
X64136542Y-76647371D02*
X64184161Y-76599752D01*
X64231780Y-76647371D01*
X64184161Y-76694990D01*
X64136542Y-76647371D01*
X64231780Y-76647371D01*
X64231780Y-75742609D02*
X63231780Y-75742609D01*
X64184161Y-75742609D02*
X64231780Y-75837847D01*
X64231780Y-76028323D01*
X64184161Y-76123561D01*
X64136542Y-76171180D01*
X64041304Y-76218800D01*
X63755590Y-76218800D01*
X63660352Y-76171180D01*
X63612733Y-76123561D01*
X63565114Y-76028323D01*
X63565114Y-75837847D01*
X63612733Y-75742609D01*
X64184161Y-74885466D02*
X64231780Y-74980704D01*
X64231780Y-75171180D01*
X64184161Y-75266419D01*
X64088923Y-75314038D01*
X63707971Y-75314038D01*
X63612733Y-75266419D01*
X63565114Y-75171180D01*
X63565114Y-74980704D01*
X63612733Y-74885466D01*
X63707971Y-74837847D01*
X63803209Y-74837847D01*
X63898447Y-75314038D01*
X63184161Y-72933085D02*
X64469876Y-73790228D01*
X63184161Y-71885466D02*
X64469876Y-72742609D01*
X63327019Y-70837847D02*
X63279400Y-70790228D01*
X63231780Y-70694990D01*
X63231780Y-70456895D01*
X63279400Y-70361657D01*
X63327019Y-70314038D01*
X63422257Y-70266419D01*
X63517495Y-70266419D01*
X63660352Y-70314038D01*
X64231780Y-70885466D01*
X64231780Y-70266419D01*
X63231780Y-69647371D02*
X63231780Y-69552133D01*
X63279400Y-69456895D01*
X63327019Y-69409276D01*
X63422257Y-69361657D01*
X63612733Y-69314038D01*
X63850828Y-69314038D01*
X64041304Y-69361657D01*
X64136542Y-69409276D01*
X64184161Y-69456895D01*
X64231780Y-69552133D01*
X64231780Y-69647371D01*
X64184161Y-69742609D01*
X64136542Y-69790228D01*
X64041304Y-69837847D01*
X63850828Y-69885466D01*
X63612733Y-69885466D01*
X63422257Y-69837847D01*
X63327019Y-69790228D01*
X63279400Y-69742609D01*
X63231780Y-69647371D01*
X63327019Y-68933085D02*
X63279400Y-68885466D01*
X63231780Y-68790228D01*
X63231780Y-68552133D01*
X63279400Y-68456895D01*
X63327019Y-68409276D01*
X63422257Y-68361657D01*
X63517495Y-68361657D01*
X63660352Y-68409276D01*
X64231780Y-68980704D01*
X64231780Y-68361657D01*
X63231780Y-67742609D02*
X63231780Y-67647371D01*
X63279400Y-67552133D01*
X63327019Y-67504514D01*
X63422257Y-67456895D01*
X63612733Y-67409276D01*
X63850828Y-67409276D01*
X64041304Y-67456895D01*
X64136542Y-67504514D01*
X64184161Y-67552133D01*
X64231780Y-67647371D01*
X64231780Y-67742609D01*
X64184161Y-67837847D01*
X64136542Y-67885466D01*
X64041304Y-67933085D01*
X63850828Y-67980704D01*
X63612733Y-67980704D01*
X63422257Y-67933085D01*
X63327019Y-67885466D01*
X63279400Y-67837847D01*
X63231780Y-67742609D01*
D12*
G36*
X71582547Y-76109095D02*
G01*
X71448863Y-76242779D01*
X71315178Y-76109095D01*
X71448863Y-75975410D01*
X71582547Y-76109095D01*
G37*
X71582547Y-76109095D02*
X71448863Y-76242779D01*
X71315178Y-76109095D01*
X71448863Y-75975410D01*
X71582547Y-76109095D01*
G36*
X73533416Y-69775221D02*
G01*
X73878335Y-70268400D01*
X73893482Y-70758321D01*
X73531767Y-71090300D01*
X72993860Y-71133796D01*
X72552636Y-70888150D01*
X72481340Y-70761726D01*
X72448979Y-70360674D01*
X72785705Y-70360674D01*
X72846317Y-70589568D01*
X73037294Y-70628042D01*
X73403111Y-70488449D01*
X73454126Y-70360674D01*
X73262228Y-70100958D01*
X73202537Y-70093305D01*
X72840430Y-70287655D01*
X72785705Y-70360674D01*
X72448979Y-70360674D01*
X72432438Y-70155683D01*
X72684500Y-69687945D01*
X73011944Y-69558568D01*
X73533416Y-69775221D01*
G37*
X73533416Y-69775221D02*
X73878335Y-70268400D01*
X73893482Y-70758321D01*
X73531767Y-71090300D01*
X72993860Y-71133796D01*
X72552636Y-70888150D01*
X72481340Y-70761726D01*
X72448979Y-70360674D01*
X72785705Y-70360674D01*
X72846317Y-70589568D01*
X73037294Y-70628042D01*
X73403111Y-70488449D01*
X73454126Y-70360674D01*
X73262228Y-70100958D01*
X73202537Y-70093305D01*
X72840430Y-70287655D01*
X72785705Y-70360674D01*
X72448979Y-70360674D01*
X72432438Y-70155683D01*
X72684500Y-69687945D01*
X73011944Y-69558568D01*
X73533416Y-69775221D01*
G36*
X70940815Y-69706579D02*
G01*
X70965308Y-69721392D01*
X71401671Y-70197479D01*
X71404982Y-70698485D01*
X71002373Y-71051191D01*
X70747755Y-71110400D01*
X70131550Y-71036754D01*
X69897172Y-70802178D01*
X69920376Y-70360674D01*
X70245705Y-70360674D01*
X70462262Y-70597877D01*
X70646757Y-70628042D01*
X71002563Y-70483671D01*
X71047810Y-70360674D01*
X70831253Y-70123470D01*
X70646757Y-70093305D01*
X70290952Y-70237676D01*
X70245705Y-70360674D01*
X69920376Y-70360674D01*
X69923769Y-70296117D01*
X70114725Y-69918767D01*
X70497007Y-69586162D01*
X70940815Y-69706579D01*
G37*
X70940815Y-69706579D02*
X70965308Y-69721392D01*
X71401671Y-70197479D01*
X71404982Y-70698485D01*
X71002373Y-71051191D01*
X70747755Y-71110400D01*
X70131550Y-71036754D01*
X69897172Y-70802178D01*
X69920376Y-70360674D01*
X70245705Y-70360674D01*
X70462262Y-70597877D01*
X70646757Y-70628042D01*
X71002563Y-70483671D01*
X71047810Y-70360674D01*
X70831253Y-70123470D01*
X70646757Y-70093305D01*
X70290952Y-70237676D01*
X70245705Y-70360674D01*
X69920376Y-70360674D01*
X69923769Y-70296117D01*
X70114725Y-69918767D01*
X70497007Y-69586162D01*
X70940815Y-69706579D01*
G36*
X68744663Y-69783801D02*
G01*
X69038718Y-70294893D01*
X69018554Y-70727838D01*
X68647736Y-71075217D01*
X68085108Y-71140398D01*
X67593073Y-70923380D01*
X67462329Y-70727838D01*
X67475562Y-70360674D01*
X67839389Y-70360674D01*
X68055946Y-70597877D01*
X68240442Y-70628042D01*
X68596247Y-70483671D01*
X68641494Y-70360674D01*
X68424937Y-70123470D01*
X68240442Y-70093305D01*
X67884636Y-70237676D01*
X67839389Y-70360674D01*
X67475562Y-70360674D01*
X67482619Y-70164887D01*
X67839581Y-69697695D01*
X68240442Y-69558568D01*
X68744663Y-69783801D01*
G37*
X68744663Y-69783801D02*
X69038718Y-70294893D01*
X69018554Y-70727838D01*
X68647736Y-71075217D01*
X68085108Y-71140398D01*
X67593073Y-70923380D01*
X67462329Y-70727838D01*
X67475562Y-70360674D01*
X67839389Y-70360674D01*
X68055946Y-70597877D01*
X68240442Y-70628042D01*
X68596247Y-70483671D01*
X68641494Y-70360674D01*
X68424937Y-70123470D01*
X68240442Y-70093305D01*
X67884636Y-70237676D01*
X67839389Y-70360674D01*
X67475562Y-70360674D01*
X67482619Y-70164887D01*
X67839581Y-69697695D01*
X68240442Y-69558568D01*
X68744663Y-69783801D01*
G36*
X66246629Y-69754277D02*
G01*
X66463674Y-70230805D01*
X66454457Y-70426320D01*
X66191311Y-70908792D01*
X65712334Y-71132002D01*
X65229323Y-71047585D01*
X64994264Y-70759746D01*
X65020418Y-70360674D01*
X65433073Y-70360674D01*
X65649630Y-70597877D01*
X65834126Y-70628042D01*
X66189931Y-70483671D01*
X66235178Y-70360674D01*
X66018621Y-70123470D01*
X65834126Y-70093305D01*
X65478320Y-70237676D01*
X65433073Y-70360674D01*
X65020418Y-70360674D01*
X65029035Y-70229198D01*
X65242096Y-69902328D01*
X65780936Y-69619500D01*
X66246629Y-69754277D01*
G37*
X66246629Y-69754277D02*
X66463674Y-70230805D01*
X66454457Y-70426320D01*
X66191311Y-70908792D01*
X65712334Y-71132002D01*
X65229323Y-71047585D01*
X64994264Y-70759746D01*
X65020418Y-70360674D01*
X65433073Y-70360674D01*
X65649630Y-70597877D01*
X65834126Y-70628042D01*
X66189931Y-70483671D01*
X66235178Y-70360674D01*
X66018621Y-70123470D01*
X65834126Y-70093305D01*
X65478320Y-70237676D01*
X65433073Y-70360674D01*
X65020418Y-70360674D01*
X65029035Y-70229198D01*
X65242096Y-69902328D01*
X65780936Y-69619500D01*
X66246629Y-69754277D01*
G36*
X74256231Y-77044884D02*
G01*
X64898336Y-77044884D01*
X64898336Y-76227910D01*
X67598460Y-76227910D01*
X67802623Y-76458036D01*
X68374126Y-76510147D01*
X68994407Y-76403484D01*
X69206686Y-76050069D01*
X69207246Y-76042253D01*
X69244592Y-75712736D01*
X69323514Y-75902601D01*
X69360535Y-76042253D01*
X69580774Y-76438751D01*
X69730572Y-76510147D01*
X69955831Y-76288140D01*
X70009351Y-76042253D01*
X70046697Y-75712736D01*
X70125619Y-75902601D01*
X70162640Y-76042253D01*
X70467483Y-76313869D01*
X71105229Y-76486400D01*
X71912028Y-76558087D01*
X72724031Y-76527169D01*
X73377385Y-76391885D01*
X73708241Y-76150475D01*
X73721494Y-76080489D01*
X73557099Y-75776906D01*
X73320442Y-75804730D01*
X72976545Y-75802865D01*
X72919389Y-75683871D01*
X72754510Y-75533277D01*
X72647659Y-75577053D01*
X72484008Y-75882710D01*
X72515249Y-75970414D01*
X72426908Y-76116926D01*
X72185399Y-76106080D01*
X71788573Y-76004611D01*
X71716231Y-75961745D01*
X71461538Y-75863966D01*
X70742522Y-75724299D01*
X69626784Y-75555676D01*
X69507966Y-75539350D01*
X68805464Y-75467106D01*
X68508791Y-75535874D01*
X68498382Y-75787144D01*
X68525522Y-75880249D01*
X68621783Y-76222958D01*
X68516673Y-76114186D01*
X68363076Y-75876490D01*
X68077713Y-75551879D01*
X67848453Y-75688281D01*
X67812246Y-75742806D01*
X67598460Y-76227910D01*
X64898336Y-76227910D01*
X64898336Y-71697516D01*
X74256231Y-71697516D01*
X74256231Y-77044884D01*
G37*
X74256231Y-77044884D02*
X64898336Y-77044884D01*
X64898336Y-76227910D01*
X67598460Y-76227910D01*
X67802623Y-76458036D01*
X68374126Y-76510147D01*
X68994407Y-76403484D01*
X69206686Y-76050069D01*
X69207246Y-76042253D01*
X69244592Y-75712736D01*
X69323514Y-75902601D01*
X69360535Y-76042253D01*
X69580774Y-76438751D01*
X69730572Y-76510147D01*
X69955831Y-76288140D01*
X70009351Y-76042253D01*
X70046697Y-75712736D01*
X70125619Y-75902601D01*
X70162640Y-76042253D01*
X70467483Y-76313869D01*
X71105229Y-76486400D01*
X71912028Y-76558087D01*
X72724031Y-76527169D01*
X73377385Y-76391885D01*
X73708241Y-76150475D01*
X73721494Y-76080489D01*
X73557099Y-75776906D01*
X73320442Y-75804730D01*
X72976545Y-75802865D01*
X72919389Y-75683871D01*
X72754510Y-75533277D01*
X72647659Y-75577053D01*
X72484008Y-75882710D01*
X72515249Y-75970414D01*
X72426908Y-76116926D01*
X72185399Y-76106080D01*
X71788573Y-76004611D01*
X71716231Y-75961745D01*
X71461538Y-75863966D01*
X70742522Y-75724299D01*
X69626784Y-75555676D01*
X69507966Y-75539350D01*
X68805464Y-75467106D01*
X68508791Y-75535874D01*
X68498382Y-75787144D01*
X68525522Y-75880249D01*
X68621783Y-76222958D01*
X68516673Y-76114186D01*
X68363076Y-75876490D01*
X68077713Y-75551879D01*
X67848453Y-75688281D01*
X67812246Y-75742806D01*
X67598460Y-76227910D01*
X64898336Y-76227910D01*
X64898336Y-71697516D01*
X74256231Y-71697516D01*
X74256231Y-77044884D01*
G36*
X73732704Y-77780080D02*
G01*
X73929454Y-78255173D01*
X73718668Y-78786184D01*
X73203898Y-79142167D01*
X72715611Y-79083538D01*
X72481340Y-78782779D01*
X72449555Y-78294858D01*
X72765353Y-78294858D01*
X72979329Y-78585269D01*
X73202537Y-78649095D01*
X73449298Y-78469705D01*
X73454126Y-78426288D01*
X73279712Y-78038814D01*
X72917660Y-77985007D01*
X72877735Y-78006417D01*
X72765353Y-78294858D01*
X72449555Y-78294858D01*
X72438731Y-78128707D01*
X72784392Y-77681089D01*
X73186757Y-77579621D01*
X73732704Y-77780080D01*
G37*
X73732704Y-77780080D02*
X73929454Y-78255173D01*
X73718668Y-78786184D01*
X73203898Y-79142167D01*
X72715611Y-79083538D01*
X72481340Y-78782779D01*
X72449555Y-78294858D01*
X72765353Y-78294858D01*
X72979329Y-78585269D01*
X73202537Y-78649095D01*
X73449298Y-78469705D01*
X73454126Y-78426288D01*
X73279712Y-78038814D01*
X72917660Y-77985007D01*
X72877735Y-78006417D01*
X72765353Y-78294858D01*
X72449555Y-78294858D01*
X72438731Y-78128707D01*
X72784392Y-77681089D01*
X73186757Y-77579621D01*
X73732704Y-77780080D01*
G36*
X71274089Y-77792044D02*
G01*
X71466685Y-78277385D01*
X71294349Y-78807747D01*
X71287054Y-78816667D01*
X70752209Y-79159802D01*
X70232963Y-78994662D01*
X70000257Y-78690054D01*
X69956081Y-78361674D01*
X70296950Y-78361674D01*
X70426014Y-78605471D01*
X70646757Y-78649095D01*
X70979516Y-78513432D01*
X70996564Y-78361674D01*
X70720538Y-78085439D01*
X70646757Y-78074253D01*
X70333259Y-78282404D01*
X70296950Y-78361674D01*
X69956081Y-78361674D01*
X69922601Y-78112810D01*
X70278394Y-77699256D01*
X70805310Y-77579621D01*
X71274089Y-77792044D01*
G37*
X71274089Y-77792044D02*
X71466685Y-78277385D01*
X71294349Y-78807747D01*
X71287054Y-78816667D01*
X70752209Y-79159802D01*
X70232963Y-78994662D01*
X70000257Y-78690054D01*
X69956081Y-78361674D01*
X70296950Y-78361674D01*
X70426014Y-78605471D01*
X70646757Y-78649095D01*
X70979516Y-78513432D01*
X70996564Y-78361674D01*
X70720538Y-78085439D01*
X70646757Y-78074253D01*
X70333259Y-78282404D01*
X70296950Y-78361674D01*
X69956081Y-78361674D01*
X69922601Y-78112810D01*
X70278394Y-77699256D01*
X70805310Y-77579621D01*
X71274089Y-77792044D01*
G36*
X68788882Y-77749159D02*
G01*
X69018554Y-78014562D01*
X68998264Y-78577513D01*
X68641302Y-79044705D01*
X68240442Y-79183832D01*
X67793355Y-78996996D01*
X67600145Y-78816667D01*
X67443777Y-78361674D01*
X67890635Y-78361674D01*
X68019699Y-78605471D01*
X68240442Y-78649095D01*
X68573201Y-78513432D01*
X68590249Y-78361674D01*
X68314222Y-78085439D01*
X68240442Y-78074253D01*
X67926943Y-78282404D01*
X67890635Y-78361674D01*
X67443777Y-78361674D01*
X67411713Y-78268379D01*
X67647745Y-77793280D01*
X68210588Y-77580037D01*
X68240442Y-77579621D01*
X68788882Y-77749159D01*
G37*
X68788882Y-77749159D02*
X69018554Y-78014562D01*
X68998264Y-78577513D01*
X68641302Y-79044705D01*
X68240442Y-79183832D01*
X67793355Y-78996996D01*
X67600145Y-78816667D01*
X67443777Y-78361674D01*
X67890635Y-78361674D01*
X68019699Y-78605471D01*
X68240442Y-78649095D01*
X68573201Y-78513432D01*
X68590249Y-78361674D01*
X68314222Y-78085439D01*
X68240442Y-78074253D01*
X67926943Y-78282404D01*
X67890635Y-78361674D01*
X67443777Y-78361674D01*
X67411713Y-78268379D01*
X67647745Y-77793280D01*
X68210588Y-77580037D01*
X68240442Y-77579621D01*
X68788882Y-77749159D01*
G36*
X66268572Y-77645871D02*
G01*
X66477974Y-77958378D01*
X66502547Y-78381726D01*
X66436296Y-78949857D01*
X66123789Y-79159259D01*
X65700442Y-79183832D01*
X65132311Y-79117581D01*
X64922909Y-78805074D01*
X64898336Y-78381726D01*
X64900674Y-78361674D01*
X65484319Y-78361674D01*
X65613383Y-78605471D01*
X65834126Y-78649095D01*
X66166885Y-78513432D01*
X66183933Y-78361674D01*
X65907907Y-78085439D01*
X65834126Y-78074253D01*
X65520627Y-78282404D01*
X65484319Y-78361674D01*
X64900674Y-78361674D01*
X64964587Y-77813595D01*
X65277094Y-77604194D01*
X65700442Y-77579621D01*
X66268572Y-77645871D01*
G37*
X66268572Y-77645871D02*
X66477974Y-77958378D01*
X66502547Y-78381726D01*
X66436296Y-78949857D01*
X66123789Y-79159259D01*
X65700442Y-79183832D01*
X65132311Y-79117581D01*
X64922909Y-78805074D01*
X64898336Y-78381726D01*
X64900674Y-78361674D01*
X65484319Y-78361674D01*
X65613383Y-78605471D01*
X65834126Y-78649095D01*
X66166885Y-78513432D01*
X66183933Y-78361674D01*
X65907907Y-78085439D01*
X65834126Y-78074253D01*
X65520627Y-78282404D01*
X65484319Y-78361674D01*
X64900674Y-78361674D01*
X64964587Y-77813595D01*
X65277094Y-77604194D01*
X65700442Y-77579621D01*
X66268572Y-77645871D01*
D10*
X83346600Y-65846000D02*
X82016600Y-65846000D01*
X83346600Y-64516000D02*
X83346600Y-65846000D01*
X80746600Y-65846000D02*
X78146600Y-65846000D01*
X80746600Y-63246000D02*
X80746600Y-65846000D01*
X83346600Y-63246000D02*
X80746600Y-63246000D01*
X78146600Y-65846000D02*
X78146600Y-58106000D01*
X83346600Y-63246000D02*
X83346600Y-58106000D01*
X83346600Y-58106000D02*
X78146600Y-58106000D01*
X56582000Y-65846000D02*
X56582000Y-64516000D01*
X57912000Y-65846000D02*
X56582000Y-65846000D01*
X59182000Y-65846000D02*
X59182000Y-63186000D01*
X59182000Y-63186000D02*
X77022000Y-63186000D01*
X59182000Y-65846000D02*
X77022000Y-65846000D01*
X77022000Y-65846000D02*
X77022000Y-63186000D01*
M02*
