M48
; DRILL file {KiCad 5.1.6} date Thu Sep 10 16:33:37 2020
; FORMAT={-:-/ absolute / inch / decimal}
; #@! TF.CreationDate,2020-09-10T16:33:37+02:00
; #@! TF.GenerationSoftware,Kicad,Pcbnew,5.1.6
; #@! TF.FileFunction,Plated,1,2,PTH
FMAT,2
INCH
T1C0.0157
T2C0.0394
%
G90
G05
T1
X2.631Y-2.49
X2.6964Y-2.0185
X2.8136Y-2.14
X2.834Y-2.314
X2.926Y-2.26
X3.1324Y-2.009
X3.1324Y-2.059
X3.1337Y-2.1603
X3.231Y-2.241
X3.3279Y-2.4515
X3.35Y-2.985
X3.392Y-2.179
X3.424Y-2.0662
X3.586Y-2.983
T2
X3.522Y-2.141
X3.522Y-2.241
X3.522Y-2.341
X3.522Y-2.441
X3.522Y-2.541
X3.522Y-2.641
X3.522Y-2.741
X3.522Y-2.841
X3.322Y-1.892
X3.322Y-1.992
X3.422Y-1.892
X3.422Y-1.992
X3.522Y-1.892
X3.522Y-1.992
X3.468Y-3.086
T0
M30
