G04 #@! TF.GenerationSoftware,KiCad,Pcbnew,5.1.6*
G04 #@! TF.CreationDate,2020-09-10T16:33:30+02:00*
G04 #@! TF.ProjectId,LORA_ATTINY84,4c4f5241-5f41-4545-9449-4e5938342e6b,rev?*
G04 #@! TF.SameCoordinates,Original*
G04 #@! TF.FileFunction,Copper,L2,Bot*
G04 #@! TF.FilePolarity,Positive*
%FSLAX46Y46*%
G04 Gerber Fmt 4.6, Leading zero omitted, Abs format (unit mm)*
G04 Created by KiCad (PCBNEW 5.1.6) date 2020-09-10 16:33:30*
%MOMM*%
%LPD*%
G01*
G04 APERTURE LIST*
G04 #@! TA.AperFunction,SMDPad,CuDef*
%ADD10R,3.600000X7.100000*%
G04 #@! TD*
G04 #@! TA.AperFunction,ComponentPad*
%ADD11R,1.200000X2.100000*%
G04 #@! TD*
G04 #@! TA.AperFunction,SMDPad,CuDef*
%ADD12R,1.350000X4.200000*%
G04 #@! TD*
G04 #@! TA.AperFunction,ComponentPad*
%ADD13O,1.700000X1.700000*%
G04 #@! TD*
G04 #@! TA.AperFunction,ComponentPad*
%ADD14R,1.700000X1.700000*%
G04 #@! TD*
G04 #@! TA.AperFunction,ViaPad*
%ADD15C,0.800000*%
G04 #@! TD*
G04 #@! TA.AperFunction,Conductor*
%ADD16C,0.250000*%
G04 #@! TD*
G04 #@! TA.AperFunction,Conductor*
%ADD17C,0.254000*%
G04 #@! TD*
G04 APERTURE END LIST*
D10*
X77063600Y-50444400D03*
X77063600Y-75336400D03*
D11*
X88087200Y-78384400D03*
D12*
X90912200Y-77393800D03*
X85262200Y-77393800D03*
D13*
X84378800Y-50596800D03*
X84378800Y-48056800D03*
X86918800Y-50596800D03*
X86918800Y-48056800D03*
X89458800Y-50596800D03*
D14*
X89458800Y-48056800D03*
D13*
X89458800Y-54381400D03*
X89458800Y-56921400D03*
X89458800Y-59461400D03*
X89458800Y-62001400D03*
X89458800Y-64541400D03*
X89458800Y-67081400D03*
X89458800Y-69621400D03*
D14*
X89458800Y-72161400D03*
D15*
X91084400Y-75768200D03*
X85090000Y-75819000D03*
X86969600Y-52481399D03*
X66827400Y-63246000D03*
X79596854Y-54871454D03*
X71464500Y-54356000D03*
X82067400Y-56921400D03*
X68489500Y-51269900D03*
X71983600Y-58775600D03*
X86156800Y-55346600D03*
X84529200Y-62267600D03*
X74320400Y-57404000D03*
X79564000Y-52298600D03*
X79564000Y-51028600D03*
D16*
X77063600Y-48694400D02*
X77063600Y-50444400D01*
X90331402Y-46644400D02*
X79113600Y-46644400D01*
X79113600Y-46644400D02*
X77063600Y-48694400D01*
X90633801Y-46946799D02*
X90331402Y-46644400D01*
X90633801Y-49421799D02*
X90633801Y-46946799D01*
X89458800Y-50596800D02*
X90633801Y-49421799D01*
X78141999Y-58129001D02*
X73972399Y-58129001D01*
X78141999Y-58129001D02*
X78141999Y-56326309D01*
X78141999Y-56326309D02*
X79596854Y-54871454D01*
X73972399Y-58129001D02*
X71464500Y-55621102D01*
X71464500Y-55621102D02*
X71464500Y-54356000D01*
X76952000Y-54356000D02*
X72177000Y-54356000D01*
X77063600Y-54244400D02*
X76952000Y-54356000D01*
X72177000Y-54356000D02*
X71464500Y-54356000D01*
X77063600Y-50444400D02*
X77063600Y-54244400D01*
X67069801Y-59500601D02*
X67056000Y-59486800D01*
X82067400Y-56921400D02*
X79488199Y-59500601D01*
X79488199Y-59500601D02*
X67069801Y-59500601D01*
X67069801Y-59500601D02*
X67069801Y-52689599D01*
X67069801Y-52689599D02*
X68489500Y-51269900D01*
X78740000Y-58775600D02*
X86918800Y-50596800D01*
X71983600Y-58775600D02*
X78740000Y-58775600D01*
X86156800Y-62280800D02*
X86156800Y-55346600D01*
X86156800Y-62280800D02*
X84542400Y-62280800D01*
X84542400Y-62280800D02*
X84529200Y-62267600D01*
X76039002Y-57404000D02*
X79564000Y-53879002D01*
X79564000Y-53879002D02*
X79564000Y-52298600D01*
X74320400Y-57404000D02*
X76039002Y-57404000D01*
X84378800Y-48709960D02*
X84378800Y-48056800D01*
X84378800Y-48056800D02*
X82535800Y-48056800D01*
X82535800Y-48056800D02*
X79564000Y-51028600D01*
D17*
G36*
X91418682Y-74657058D02*
G01*
X91197950Y-74658800D01*
X91039200Y-74817550D01*
X91039200Y-77266800D01*
X91059200Y-77266800D01*
X91059200Y-77520800D01*
X91039200Y-77520800D01*
X91039200Y-77540800D01*
X90785200Y-77540800D01*
X90785200Y-77520800D01*
X89760950Y-77520800D01*
X89602200Y-77679550D01*
X89600275Y-78816600D01*
X89325272Y-78816600D01*
X89325272Y-77334400D01*
X89313012Y-77209918D01*
X89276702Y-77090220D01*
X89217737Y-76979906D01*
X89138385Y-76883215D01*
X89041694Y-76803863D01*
X88931380Y-76744898D01*
X88811682Y-76708588D01*
X88687200Y-76696328D01*
X87487200Y-76696328D01*
X87362718Y-76708588D01*
X87243020Y-76744898D01*
X87132706Y-76803863D01*
X87036015Y-76883215D01*
X86956663Y-76979906D01*
X86897698Y-77090220D01*
X86861388Y-77209918D01*
X86849128Y-77334400D01*
X86849128Y-78816600D01*
X86574125Y-78816600D01*
X86572200Y-77679550D01*
X86413450Y-77520800D01*
X85389200Y-77520800D01*
X85389200Y-77540800D01*
X85135200Y-77540800D01*
X85135200Y-77520800D01*
X84110950Y-77520800D01*
X83952200Y-77679550D01*
X83950275Y-78816600D01*
X79501606Y-78816600D01*
X79498600Y-75622150D01*
X79339850Y-75463400D01*
X77190600Y-75463400D01*
X77190600Y-75483400D01*
X76936600Y-75483400D01*
X76936600Y-75463400D01*
X74787350Y-75463400D01*
X74628600Y-75622150D01*
X74625594Y-78816600D01*
X66724895Y-78816600D01*
X66722205Y-75293800D01*
X83949128Y-75293800D01*
X83952200Y-77108050D01*
X84110950Y-77266800D01*
X85135200Y-77266800D01*
X85135200Y-74817550D01*
X85389200Y-74817550D01*
X85389200Y-77266800D01*
X86413450Y-77266800D01*
X86572200Y-77108050D01*
X86575272Y-75293800D01*
X89599128Y-75293800D01*
X89602200Y-77108050D01*
X89760950Y-77266800D01*
X90785200Y-77266800D01*
X90785200Y-74817550D01*
X90626450Y-74658800D01*
X90237200Y-74655728D01*
X90112718Y-74667988D01*
X89993020Y-74704298D01*
X89882706Y-74763263D01*
X89786015Y-74842615D01*
X89706663Y-74939306D01*
X89647698Y-75049620D01*
X89611388Y-75169318D01*
X89599128Y-75293800D01*
X86575272Y-75293800D01*
X86563012Y-75169318D01*
X86526702Y-75049620D01*
X86467737Y-74939306D01*
X86388385Y-74842615D01*
X86291694Y-74763263D01*
X86181380Y-74704298D01*
X86061682Y-74667988D01*
X85937200Y-74655728D01*
X85547950Y-74658800D01*
X85389200Y-74817550D01*
X85135200Y-74817550D01*
X84976450Y-74658800D01*
X84587200Y-74655728D01*
X84462718Y-74667988D01*
X84343020Y-74704298D01*
X84232706Y-74763263D01*
X84136015Y-74842615D01*
X84056663Y-74939306D01*
X83997698Y-75049620D01*
X83961388Y-75169318D01*
X83949128Y-75293800D01*
X66722205Y-75293800D01*
X66719525Y-71786400D01*
X74625528Y-71786400D01*
X74628600Y-75050650D01*
X74787350Y-75209400D01*
X76936600Y-75209400D01*
X76936600Y-71310150D01*
X77190600Y-71310150D01*
X77190600Y-75209400D01*
X79339850Y-75209400D01*
X79498600Y-75050650D01*
X79501672Y-71786400D01*
X79489412Y-71661918D01*
X79453102Y-71542220D01*
X79394137Y-71431906D01*
X79314785Y-71335215D01*
X79285767Y-71311400D01*
X87970728Y-71311400D01*
X87970728Y-73011400D01*
X87982988Y-73135882D01*
X88019298Y-73255580D01*
X88078263Y-73365894D01*
X88157615Y-73462585D01*
X88254306Y-73541937D01*
X88364620Y-73600902D01*
X88484318Y-73637212D01*
X88608800Y-73649472D01*
X90308800Y-73649472D01*
X90433282Y-73637212D01*
X90552980Y-73600902D01*
X90663294Y-73541937D01*
X90759985Y-73462585D01*
X90839337Y-73365894D01*
X90898302Y-73255580D01*
X90934612Y-73135882D01*
X90946872Y-73011400D01*
X90946872Y-71311400D01*
X90934612Y-71186918D01*
X90898302Y-71067220D01*
X90839337Y-70956906D01*
X90759985Y-70860215D01*
X90663294Y-70780863D01*
X90552980Y-70721898D01*
X90472334Y-70697434D01*
X90556388Y-70621669D01*
X90730441Y-70388320D01*
X90855625Y-70125499D01*
X90900276Y-69978290D01*
X90778955Y-69748400D01*
X89585800Y-69748400D01*
X89585800Y-69768400D01*
X89331800Y-69768400D01*
X89331800Y-69748400D01*
X88138645Y-69748400D01*
X88017324Y-69978290D01*
X88061975Y-70125499D01*
X88187159Y-70388320D01*
X88361212Y-70621669D01*
X88445266Y-70697434D01*
X88364620Y-70721898D01*
X88254306Y-70780863D01*
X88157615Y-70860215D01*
X88078263Y-70956906D01*
X88019298Y-71067220D01*
X87982988Y-71186918D01*
X87970728Y-71311400D01*
X79285767Y-71311400D01*
X79218094Y-71255863D01*
X79107780Y-71196898D01*
X78988082Y-71160588D01*
X78863600Y-71148328D01*
X77349350Y-71151400D01*
X77190600Y-71310150D01*
X76936600Y-71310150D01*
X76777850Y-71151400D01*
X75263600Y-71148328D01*
X75139118Y-71160588D01*
X75019420Y-71196898D01*
X74909106Y-71255863D01*
X74812415Y-71335215D01*
X74733063Y-71431906D01*
X74674098Y-71542220D01*
X74637788Y-71661918D01*
X74625528Y-71786400D01*
X66719525Y-71786400D01*
X66712176Y-62165661D01*
X83494200Y-62165661D01*
X83494200Y-62369539D01*
X83533974Y-62569498D01*
X83611995Y-62757856D01*
X83725263Y-62927374D01*
X83869426Y-63071537D01*
X84038944Y-63184805D01*
X84227302Y-63262826D01*
X84427261Y-63302600D01*
X84631139Y-63302600D01*
X84831098Y-63262826D01*
X85019456Y-63184805D01*
X85188974Y-63071537D01*
X85219711Y-63040800D01*
X86119467Y-63040800D01*
X86156800Y-63044477D01*
X86194133Y-63040800D01*
X86305786Y-63029803D01*
X86449047Y-62986346D01*
X86581076Y-62915774D01*
X86696801Y-62820801D01*
X86791774Y-62705076D01*
X86862346Y-62573047D01*
X86905803Y-62429786D01*
X86920477Y-62280800D01*
X86916800Y-62243467D01*
X86916800Y-56050311D01*
X86960737Y-56006374D01*
X87074005Y-55836856D01*
X87152026Y-55648498D01*
X87191800Y-55448539D01*
X87191800Y-55244661D01*
X87152026Y-55044702D01*
X87074005Y-54856344D01*
X86960737Y-54686826D01*
X86816574Y-54542663D01*
X86647056Y-54429395D01*
X86458698Y-54351374D01*
X86258739Y-54311600D01*
X86054861Y-54311600D01*
X85854902Y-54351374D01*
X85666544Y-54429395D01*
X85497026Y-54542663D01*
X85352863Y-54686826D01*
X85239595Y-54856344D01*
X85161574Y-55044702D01*
X85121800Y-55244661D01*
X85121800Y-55448539D01*
X85161574Y-55648498D01*
X85239595Y-55836856D01*
X85352863Y-56006374D01*
X85396801Y-56050312D01*
X85396800Y-61520800D01*
X85246111Y-61520800D01*
X85188974Y-61463663D01*
X85019456Y-61350395D01*
X84831098Y-61272374D01*
X84631139Y-61232600D01*
X84427261Y-61232600D01*
X84227302Y-61272374D01*
X84038944Y-61350395D01*
X83869426Y-61463663D01*
X83725263Y-61607826D01*
X83611995Y-61777344D01*
X83533974Y-61965702D01*
X83494200Y-62165661D01*
X66712176Y-62165661D01*
X66710651Y-60170386D01*
X66777554Y-60206147D01*
X66920815Y-60249604D01*
X67069801Y-60264278D01*
X67107134Y-60260601D01*
X79450877Y-60260601D01*
X79488199Y-60264277D01*
X79525521Y-60260601D01*
X79525532Y-60260601D01*
X79637185Y-60249604D01*
X79780446Y-60206147D01*
X79912475Y-60135575D01*
X80028200Y-60040602D01*
X80052003Y-60011598D01*
X82107202Y-57956400D01*
X82169339Y-57956400D01*
X82369298Y-57916626D01*
X82557656Y-57838605D01*
X82727174Y-57725337D01*
X82871337Y-57581174D01*
X82984605Y-57411656D01*
X83062626Y-57223298D01*
X83102400Y-57023339D01*
X83102400Y-56819461D01*
X83062626Y-56619502D01*
X82984605Y-56431144D01*
X82871337Y-56261626D01*
X82727174Y-56117463D01*
X82574771Y-56015631D01*
X84355262Y-54235140D01*
X87973800Y-54235140D01*
X87973800Y-54527660D01*
X88030868Y-54814558D01*
X88142810Y-55084811D01*
X88305325Y-55328032D01*
X88512168Y-55534875D01*
X88686560Y-55651400D01*
X88512168Y-55767925D01*
X88305325Y-55974768D01*
X88142810Y-56217989D01*
X88030868Y-56488242D01*
X87973800Y-56775140D01*
X87973800Y-57067660D01*
X88030868Y-57354558D01*
X88142810Y-57624811D01*
X88305325Y-57868032D01*
X88512168Y-58074875D01*
X88686560Y-58191400D01*
X88512168Y-58307925D01*
X88305325Y-58514768D01*
X88142810Y-58757989D01*
X88030868Y-59028242D01*
X87973800Y-59315140D01*
X87973800Y-59607660D01*
X88030868Y-59894558D01*
X88142810Y-60164811D01*
X88305325Y-60408032D01*
X88512168Y-60614875D01*
X88686560Y-60731400D01*
X88512168Y-60847925D01*
X88305325Y-61054768D01*
X88142810Y-61297989D01*
X88030868Y-61568242D01*
X87973800Y-61855140D01*
X87973800Y-62147660D01*
X88030868Y-62434558D01*
X88142810Y-62704811D01*
X88305325Y-62948032D01*
X88512168Y-63154875D01*
X88686560Y-63271400D01*
X88512168Y-63387925D01*
X88305325Y-63594768D01*
X88142810Y-63837989D01*
X88030868Y-64108242D01*
X87973800Y-64395140D01*
X87973800Y-64687660D01*
X88030868Y-64974558D01*
X88142810Y-65244811D01*
X88305325Y-65488032D01*
X88512168Y-65694875D01*
X88686560Y-65811400D01*
X88512168Y-65927925D01*
X88305325Y-66134768D01*
X88142810Y-66377989D01*
X88030868Y-66648242D01*
X87973800Y-66935140D01*
X87973800Y-67227660D01*
X88030868Y-67514558D01*
X88142810Y-67784811D01*
X88305325Y-68028032D01*
X88512168Y-68234875D01*
X88694334Y-68356595D01*
X88577445Y-68426222D01*
X88361212Y-68621131D01*
X88187159Y-68854480D01*
X88061975Y-69117301D01*
X88017324Y-69264510D01*
X88138645Y-69494400D01*
X89331800Y-69494400D01*
X89331800Y-69474400D01*
X89585800Y-69474400D01*
X89585800Y-69494400D01*
X90778955Y-69494400D01*
X90900276Y-69264510D01*
X90855625Y-69117301D01*
X90730441Y-68854480D01*
X90556388Y-68621131D01*
X90340155Y-68426222D01*
X90223266Y-68356595D01*
X90405432Y-68234875D01*
X90612275Y-68028032D01*
X90774790Y-67784811D01*
X90886732Y-67514558D01*
X90943800Y-67227660D01*
X90943800Y-66935140D01*
X90886732Y-66648242D01*
X90774790Y-66377989D01*
X90612275Y-66134768D01*
X90405432Y-65927925D01*
X90231040Y-65811400D01*
X90405432Y-65694875D01*
X90612275Y-65488032D01*
X90774790Y-65244811D01*
X90886732Y-64974558D01*
X90943800Y-64687660D01*
X90943800Y-64395140D01*
X90886732Y-64108242D01*
X90774790Y-63837989D01*
X90612275Y-63594768D01*
X90405432Y-63387925D01*
X90231040Y-63271400D01*
X90405432Y-63154875D01*
X90612275Y-62948032D01*
X90774790Y-62704811D01*
X90886732Y-62434558D01*
X90943800Y-62147660D01*
X90943800Y-61855140D01*
X90886732Y-61568242D01*
X90774790Y-61297989D01*
X90612275Y-61054768D01*
X90405432Y-60847925D01*
X90231040Y-60731400D01*
X90405432Y-60614875D01*
X90612275Y-60408032D01*
X90774790Y-60164811D01*
X90886732Y-59894558D01*
X90943800Y-59607660D01*
X90943800Y-59315140D01*
X90886732Y-59028242D01*
X90774790Y-58757989D01*
X90612275Y-58514768D01*
X90405432Y-58307925D01*
X90231040Y-58191400D01*
X90405432Y-58074875D01*
X90612275Y-57868032D01*
X90774790Y-57624811D01*
X90886732Y-57354558D01*
X90943800Y-57067660D01*
X90943800Y-56775140D01*
X90886732Y-56488242D01*
X90774790Y-56217989D01*
X90612275Y-55974768D01*
X90405432Y-55767925D01*
X90231040Y-55651400D01*
X90405432Y-55534875D01*
X90612275Y-55328032D01*
X90774790Y-55084811D01*
X90886732Y-54814558D01*
X90943800Y-54527660D01*
X90943800Y-54235140D01*
X90886732Y-53948242D01*
X90774790Y-53677989D01*
X90612275Y-53434768D01*
X90405432Y-53227925D01*
X90162211Y-53065410D01*
X89891958Y-52953468D01*
X89605060Y-52896400D01*
X89312540Y-52896400D01*
X89025642Y-52953468D01*
X88755389Y-53065410D01*
X88512168Y-53227925D01*
X88305325Y-53434768D01*
X88142810Y-53677989D01*
X88030868Y-53948242D01*
X87973800Y-54235140D01*
X84355262Y-54235140D01*
X86552392Y-52038010D01*
X86772540Y-52081800D01*
X87065060Y-52081800D01*
X87351958Y-52024732D01*
X87622211Y-51912790D01*
X87865432Y-51750275D01*
X88072275Y-51543432D01*
X88188800Y-51369040D01*
X88305325Y-51543432D01*
X88512168Y-51750275D01*
X88755389Y-51912790D01*
X89025642Y-52024732D01*
X89312540Y-52081800D01*
X89605060Y-52081800D01*
X89891958Y-52024732D01*
X90162211Y-51912790D01*
X90405432Y-51750275D01*
X90612275Y-51543432D01*
X90774790Y-51300211D01*
X90886732Y-51029958D01*
X90943800Y-50743060D01*
X90943800Y-50450540D01*
X90900010Y-50230392D01*
X91144805Y-49985597D01*
X91173802Y-49961800D01*
X91268775Y-49846075D01*
X91339347Y-49714046D01*
X91382804Y-49570785D01*
X91393801Y-49459132D01*
X91393801Y-49459123D01*
X91397477Y-49421800D01*
X91393801Y-49384477D01*
X91393801Y-46984124D01*
X91397477Y-46946799D01*
X91393801Y-46909474D01*
X91393801Y-46909466D01*
X91382804Y-46797813D01*
X91339347Y-46654552D01*
X91268775Y-46522523D01*
X91173802Y-46406798D01*
X91172099Y-46405400D01*
X91440264Y-46405400D01*
X91418682Y-74657058D01*
G37*
X91418682Y-74657058D02*
X91197950Y-74658800D01*
X91039200Y-74817550D01*
X91039200Y-77266800D01*
X91059200Y-77266800D01*
X91059200Y-77520800D01*
X91039200Y-77520800D01*
X91039200Y-77540800D01*
X90785200Y-77540800D01*
X90785200Y-77520800D01*
X89760950Y-77520800D01*
X89602200Y-77679550D01*
X89600275Y-78816600D01*
X89325272Y-78816600D01*
X89325272Y-77334400D01*
X89313012Y-77209918D01*
X89276702Y-77090220D01*
X89217737Y-76979906D01*
X89138385Y-76883215D01*
X89041694Y-76803863D01*
X88931380Y-76744898D01*
X88811682Y-76708588D01*
X88687200Y-76696328D01*
X87487200Y-76696328D01*
X87362718Y-76708588D01*
X87243020Y-76744898D01*
X87132706Y-76803863D01*
X87036015Y-76883215D01*
X86956663Y-76979906D01*
X86897698Y-77090220D01*
X86861388Y-77209918D01*
X86849128Y-77334400D01*
X86849128Y-78816600D01*
X86574125Y-78816600D01*
X86572200Y-77679550D01*
X86413450Y-77520800D01*
X85389200Y-77520800D01*
X85389200Y-77540800D01*
X85135200Y-77540800D01*
X85135200Y-77520800D01*
X84110950Y-77520800D01*
X83952200Y-77679550D01*
X83950275Y-78816600D01*
X79501606Y-78816600D01*
X79498600Y-75622150D01*
X79339850Y-75463400D01*
X77190600Y-75463400D01*
X77190600Y-75483400D01*
X76936600Y-75483400D01*
X76936600Y-75463400D01*
X74787350Y-75463400D01*
X74628600Y-75622150D01*
X74625594Y-78816600D01*
X66724895Y-78816600D01*
X66722205Y-75293800D01*
X83949128Y-75293800D01*
X83952200Y-77108050D01*
X84110950Y-77266800D01*
X85135200Y-77266800D01*
X85135200Y-74817550D01*
X85389200Y-74817550D01*
X85389200Y-77266800D01*
X86413450Y-77266800D01*
X86572200Y-77108050D01*
X86575272Y-75293800D01*
X89599128Y-75293800D01*
X89602200Y-77108050D01*
X89760950Y-77266800D01*
X90785200Y-77266800D01*
X90785200Y-74817550D01*
X90626450Y-74658800D01*
X90237200Y-74655728D01*
X90112718Y-74667988D01*
X89993020Y-74704298D01*
X89882706Y-74763263D01*
X89786015Y-74842615D01*
X89706663Y-74939306D01*
X89647698Y-75049620D01*
X89611388Y-75169318D01*
X89599128Y-75293800D01*
X86575272Y-75293800D01*
X86563012Y-75169318D01*
X86526702Y-75049620D01*
X86467737Y-74939306D01*
X86388385Y-74842615D01*
X86291694Y-74763263D01*
X86181380Y-74704298D01*
X86061682Y-74667988D01*
X85937200Y-74655728D01*
X85547950Y-74658800D01*
X85389200Y-74817550D01*
X85135200Y-74817550D01*
X84976450Y-74658800D01*
X84587200Y-74655728D01*
X84462718Y-74667988D01*
X84343020Y-74704298D01*
X84232706Y-74763263D01*
X84136015Y-74842615D01*
X84056663Y-74939306D01*
X83997698Y-75049620D01*
X83961388Y-75169318D01*
X83949128Y-75293800D01*
X66722205Y-75293800D01*
X66719525Y-71786400D01*
X74625528Y-71786400D01*
X74628600Y-75050650D01*
X74787350Y-75209400D01*
X76936600Y-75209400D01*
X76936600Y-71310150D01*
X77190600Y-71310150D01*
X77190600Y-75209400D01*
X79339850Y-75209400D01*
X79498600Y-75050650D01*
X79501672Y-71786400D01*
X79489412Y-71661918D01*
X79453102Y-71542220D01*
X79394137Y-71431906D01*
X79314785Y-71335215D01*
X79285767Y-71311400D01*
X87970728Y-71311400D01*
X87970728Y-73011400D01*
X87982988Y-73135882D01*
X88019298Y-73255580D01*
X88078263Y-73365894D01*
X88157615Y-73462585D01*
X88254306Y-73541937D01*
X88364620Y-73600902D01*
X88484318Y-73637212D01*
X88608800Y-73649472D01*
X90308800Y-73649472D01*
X90433282Y-73637212D01*
X90552980Y-73600902D01*
X90663294Y-73541937D01*
X90759985Y-73462585D01*
X90839337Y-73365894D01*
X90898302Y-73255580D01*
X90934612Y-73135882D01*
X90946872Y-73011400D01*
X90946872Y-71311400D01*
X90934612Y-71186918D01*
X90898302Y-71067220D01*
X90839337Y-70956906D01*
X90759985Y-70860215D01*
X90663294Y-70780863D01*
X90552980Y-70721898D01*
X90472334Y-70697434D01*
X90556388Y-70621669D01*
X90730441Y-70388320D01*
X90855625Y-70125499D01*
X90900276Y-69978290D01*
X90778955Y-69748400D01*
X89585800Y-69748400D01*
X89585800Y-69768400D01*
X89331800Y-69768400D01*
X89331800Y-69748400D01*
X88138645Y-69748400D01*
X88017324Y-69978290D01*
X88061975Y-70125499D01*
X88187159Y-70388320D01*
X88361212Y-70621669D01*
X88445266Y-70697434D01*
X88364620Y-70721898D01*
X88254306Y-70780863D01*
X88157615Y-70860215D01*
X88078263Y-70956906D01*
X88019298Y-71067220D01*
X87982988Y-71186918D01*
X87970728Y-71311400D01*
X79285767Y-71311400D01*
X79218094Y-71255863D01*
X79107780Y-71196898D01*
X78988082Y-71160588D01*
X78863600Y-71148328D01*
X77349350Y-71151400D01*
X77190600Y-71310150D01*
X76936600Y-71310150D01*
X76777850Y-71151400D01*
X75263600Y-71148328D01*
X75139118Y-71160588D01*
X75019420Y-71196898D01*
X74909106Y-71255863D01*
X74812415Y-71335215D01*
X74733063Y-71431906D01*
X74674098Y-71542220D01*
X74637788Y-71661918D01*
X74625528Y-71786400D01*
X66719525Y-71786400D01*
X66712176Y-62165661D01*
X83494200Y-62165661D01*
X83494200Y-62369539D01*
X83533974Y-62569498D01*
X83611995Y-62757856D01*
X83725263Y-62927374D01*
X83869426Y-63071537D01*
X84038944Y-63184805D01*
X84227302Y-63262826D01*
X84427261Y-63302600D01*
X84631139Y-63302600D01*
X84831098Y-63262826D01*
X85019456Y-63184805D01*
X85188974Y-63071537D01*
X85219711Y-63040800D01*
X86119467Y-63040800D01*
X86156800Y-63044477D01*
X86194133Y-63040800D01*
X86305786Y-63029803D01*
X86449047Y-62986346D01*
X86581076Y-62915774D01*
X86696801Y-62820801D01*
X86791774Y-62705076D01*
X86862346Y-62573047D01*
X86905803Y-62429786D01*
X86920477Y-62280800D01*
X86916800Y-62243467D01*
X86916800Y-56050311D01*
X86960737Y-56006374D01*
X87074005Y-55836856D01*
X87152026Y-55648498D01*
X87191800Y-55448539D01*
X87191800Y-55244661D01*
X87152026Y-55044702D01*
X87074005Y-54856344D01*
X86960737Y-54686826D01*
X86816574Y-54542663D01*
X86647056Y-54429395D01*
X86458698Y-54351374D01*
X86258739Y-54311600D01*
X86054861Y-54311600D01*
X85854902Y-54351374D01*
X85666544Y-54429395D01*
X85497026Y-54542663D01*
X85352863Y-54686826D01*
X85239595Y-54856344D01*
X85161574Y-55044702D01*
X85121800Y-55244661D01*
X85121800Y-55448539D01*
X85161574Y-55648498D01*
X85239595Y-55836856D01*
X85352863Y-56006374D01*
X85396801Y-56050312D01*
X85396800Y-61520800D01*
X85246111Y-61520800D01*
X85188974Y-61463663D01*
X85019456Y-61350395D01*
X84831098Y-61272374D01*
X84631139Y-61232600D01*
X84427261Y-61232600D01*
X84227302Y-61272374D01*
X84038944Y-61350395D01*
X83869426Y-61463663D01*
X83725263Y-61607826D01*
X83611995Y-61777344D01*
X83533974Y-61965702D01*
X83494200Y-62165661D01*
X66712176Y-62165661D01*
X66710651Y-60170386D01*
X66777554Y-60206147D01*
X66920815Y-60249604D01*
X67069801Y-60264278D01*
X67107134Y-60260601D01*
X79450877Y-60260601D01*
X79488199Y-60264277D01*
X79525521Y-60260601D01*
X79525532Y-60260601D01*
X79637185Y-60249604D01*
X79780446Y-60206147D01*
X79912475Y-60135575D01*
X80028200Y-60040602D01*
X80052003Y-60011598D01*
X82107202Y-57956400D01*
X82169339Y-57956400D01*
X82369298Y-57916626D01*
X82557656Y-57838605D01*
X82727174Y-57725337D01*
X82871337Y-57581174D01*
X82984605Y-57411656D01*
X83062626Y-57223298D01*
X83102400Y-57023339D01*
X83102400Y-56819461D01*
X83062626Y-56619502D01*
X82984605Y-56431144D01*
X82871337Y-56261626D01*
X82727174Y-56117463D01*
X82574771Y-56015631D01*
X84355262Y-54235140D01*
X87973800Y-54235140D01*
X87973800Y-54527660D01*
X88030868Y-54814558D01*
X88142810Y-55084811D01*
X88305325Y-55328032D01*
X88512168Y-55534875D01*
X88686560Y-55651400D01*
X88512168Y-55767925D01*
X88305325Y-55974768D01*
X88142810Y-56217989D01*
X88030868Y-56488242D01*
X87973800Y-56775140D01*
X87973800Y-57067660D01*
X88030868Y-57354558D01*
X88142810Y-57624811D01*
X88305325Y-57868032D01*
X88512168Y-58074875D01*
X88686560Y-58191400D01*
X88512168Y-58307925D01*
X88305325Y-58514768D01*
X88142810Y-58757989D01*
X88030868Y-59028242D01*
X87973800Y-59315140D01*
X87973800Y-59607660D01*
X88030868Y-59894558D01*
X88142810Y-60164811D01*
X88305325Y-60408032D01*
X88512168Y-60614875D01*
X88686560Y-60731400D01*
X88512168Y-60847925D01*
X88305325Y-61054768D01*
X88142810Y-61297989D01*
X88030868Y-61568242D01*
X87973800Y-61855140D01*
X87973800Y-62147660D01*
X88030868Y-62434558D01*
X88142810Y-62704811D01*
X88305325Y-62948032D01*
X88512168Y-63154875D01*
X88686560Y-63271400D01*
X88512168Y-63387925D01*
X88305325Y-63594768D01*
X88142810Y-63837989D01*
X88030868Y-64108242D01*
X87973800Y-64395140D01*
X87973800Y-64687660D01*
X88030868Y-64974558D01*
X88142810Y-65244811D01*
X88305325Y-65488032D01*
X88512168Y-65694875D01*
X88686560Y-65811400D01*
X88512168Y-65927925D01*
X88305325Y-66134768D01*
X88142810Y-66377989D01*
X88030868Y-66648242D01*
X87973800Y-66935140D01*
X87973800Y-67227660D01*
X88030868Y-67514558D01*
X88142810Y-67784811D01*
X88305325Y-68028032D01*
X88512168Y-68234875D01*
X88694334Y-68356595D01*
X88577445Y-68426222D01*
X88361212Y-68621131D01*
X88187159Y-68854480D01*
X88061975Y-69117301D01*
X88017324Y-69264510D01*
X88138645Y-69494400D01*
X89331800Y-69494400D01*
X89331800Y-69474400D01*
X89585800Y-69474400D01*
X89585800Y-69494400D01*
X90778955Y-69494400D01*
X90900276Y-69264510D01*
X90855625Y-69117301D01*
X90730441Y-68854480D01*
X90556388Y-68621131D01*
X90340155Y-68426222D01*
X90223266Y-68356595D01*
X90405432Y-68234875D01*
X90612275Y-68028032D01*
X90774790Y-67784811D01*
X90886732Y-67514558D01*
X90943800Y-67227660D01*
X90943800Y-66935140D01*
X90886732Y-66648242D01*
X90774790Y-66377989D01*
X90612275Y-66134768D01*
X90405432Y-65927925D01*
X90231040Y-65811400D01*
X90405432Y-65694875D01*
X90612275Y-65488032D01*
X90774790Y-65244811D01*
X90886732Y-64974558D01*
X90943800Y-64687660D01*
X90943800Y-64395140D01*
X90886732Y-64108242D01*
X90774790Y-63837989D01*
X90612275Y-63594768D01*
X90405432Y-63387925D01*
X90231040Y-63271400D01*
X90405432Y-63154875D01*
X90612275Y-62948032D01*
X90774790Y-62704811D01*
X90886732Y-62434558D01*
X90943800Y-62147660D01*
X90943800Y-61855140D01*
X90886732Y-61568242D01*
X90774790Y-61297989D01*
X90612275Y-61054768D01*
X90405432Y-60847925D01*
X90231040Y-60731400D01*
X90405432Y-60614875D01*
X90612275Y-60408032D01*
X90774790Y-60164811D01*
X90886732Y-59894558D01*
X90943800Y-59607660D01*
X90943800Y-59315140D01*
X90886732Y-59028242D01*
X90774790Y-58757989D01*
X90612275Y-58514768D01*
X90405432Y-58307925D01*
X90231040Y-58191400D01*
X90405432Y-58074875D01*
X90612275Y-57868032D01*
X90774790Y-57624811D01*
X90886732Y-57354558D01*
X90943800Y-57067660D01*
X90943800Y-56775140D01*
X90886732Y-56488242D01*
X90774790Y-56217989D01*
X90612275Y-55974768D01*
X90405432Y-55767925D01*
X90231040Y-55651400D01*
X90405432Y-55534875D01*
X90612275Y-55328032D01*
X90774790Y-55084811D01*
X90886732Y-54814558D01*
X90943800Y-54527660D01*
X90943800Y-54235140D01*
X90886732Y-53948242D01*
X90774790Y-53677989D01*
X90612275Y-53434768D01*
X90405432Y-53227925D01*
X90162211Y-53065410D01*
X89891958Y-52953468D01*
X89605060Y-52896400D01*
X89312540Y-52896400D01*
X89025642Y-52953468D01*
X88755389Y-53065410D01*
X88512168Y-53227925D01*
X88305325Y-53434768D01*
X88142810Y-53677989D01*
X88030868Y-53948242D01*
X87973800Y-54235140D01*
X84355262Y-54235140D01*
X86552392Y-52038010D01*
X86772540Y-52081800D01*
X87065060Y-52081800D01*
X87351958Y-52024732D01*
X87622211Y-51912790D01*
X87865432Y-51750275D01*
X88072275Y-51543432D01*
X88188800Y-51369040D01*
X88305325Y-51543432D01*
X88512168Y-51750275D01*
X88755389Y-51912790D01*
X89025642Y-52024732D01*
X89312540Y-52081800D01*
X89605060Y-52081800D01*
X89891958Y-52024732D01*
X90162211Y-51912790D01*
X90405432Y-51750275D01*
X90612275Y-51543432D01*
X90774790Y-51300211D01*
X90886732Y-51029958D01*
X90943800Y-50743060D01*
X90943800Y-50450540D01*
X90900010Y-50230392D01*
X91144805Y-49985597D01*
X91173802Y-49961800D01*
X91268775Y-49846075D01*
X91339347Y-49714046D01*
X91382804Y-49570785D01*
X91393801Y-49459132D01*
X91393801Y-49459123D01*
X91397477Y-49421800D01*
X91393801Y-49384477D01*
X91393801Y-46984124D01*
X91397477Y-46946799D01*
X91393801Y-46909474D01*
X91393801Y-46909466D01*
X91382804Y-46797813D01*
X91339347Y-46654552D01*
X91268775Y-46522523D01*
X91173802Y-46406798D01*
X91172099Y-46405400D01*
X91440264Y-46405400D01*
X91418682Y-74657058D01*
G36*
X83225325Y-49003432D02*
G01*
X83432168Y-49210275D01*
X83608206Y-49327900D01*
X83378531Y-49499212D01*
X83183622Y-49715445D01*
X83034643Y-49965548D01*
X82937319Y-50239909D01*
X83057986Y-50469800D01*
X84251800Y-50469800D01*
X84251800Y-50449800D01*
X84505800Y-50449800D01*
X84505800Y-50469800D01*
X84525800Y-50469800D01*
X84525800Y-50723800D01*
X84505800Y-50723800D01*
X84505800Y-50743800D01*
X84251800Y-50743800D01*
X84251800Y-50723800D01*
X83057986Y-50723800D01*
X82937319Y-50953691D01*
X83034643Y-51228052D01*
X83183622Y-51478155D01*
X83378531Y-51694388D01*
X83611880Y-51868441D01*
X83874701Y-51993625D01*
X84021910Y-52038276D01*
X84251798Y-51916956D01*
X84251798Y-52081800D01*
X84358998Y-52081800D01*
X78901999Y-57538800D01*
X78901999Y-56641110D01*
X79636656Y-55906454D01*
X79698793Y-55906454D01*
X79898752Y-55866680D01*
X80087110Y-55788659D01*
X80256628Y-55675391D01*
X80400791Y-55531228D01*
X80514059Y-55361710D01*
X80592080Y-55173352D01*
X80631854Y-54973393D01*
X80631854Y-54769515D01*
X80592080Y-54569556D01*
X80514059Y-54381198D01*
X80400791Y-54211680D01*
X80290682Y-54101571D01*
X80313003Y-54027988D01*
X80324000Y-53916335D01*
X80324000Y-53916325D01*
X80327676Y-53879002D01*
X80324000Y-53841680D01*
X80324000Y-53002311D01*
X80367937Y-52958374D01*
X80481205Y-52788856D01*
X80559226Y-52600498D01*
X80599000Y-52400539D01*
X80599000Y-52196661D01*
X80559226Y-51996702D01*
X80481205Y-51808344D01*
X80384490Y-51663600D01*
X80481205Y-51518856D01*
X80559226Y-51330498D01*
X80599000Y-51130539D01*
X80599000Y-51068401D01*
X82850602Y-48816800D01*
X83100622Y-48816800D01*
X83225325Y-49003432D01*
G37*
X83225325Y-49003432D02*
X83432168Y-49210275D01*
X83608206Y-49327900D01*
X83378531Y-49499212D01*
X83183622Y-49715445D01*
X83034643Y-49965548D01*
X82937319Y-50239909D01*
X83057986Y-50469800D01*
X84251800Y-50469800D01*
X84251800Y-50449800D01*
X84505800Y-50449800D01*
X84505800Y-50469800D01*
X84525800Y-50469800D01*
X84525800Y-50723800D01*
X84505800Y-50723800D01*
X84505800Y-50743800D01*
X84251800Y-50743800D01*
X84251800Y-50723800D01*
X83057986Y-50723800D01*
X82937319Y-50953691D01*
X83034643Y-51228052D01*
X83183622Y-51478155D01*
X83378531Y-51694388D01*
X83611880Y-51868441D01*
X83874701Y-51993625D01*
X84021910Y-52038276D01*
X84251798Y-51916956D01*
X84251798Y-52081800D01*
X84358998Y-52081800D01*
X78901999Y-57538800D01*
X78901999Y-56641110D01*
X79636656Y-55906454D01*
X79698793Y-55906454D01*
X79898752Y-55866680D01*
X80087110Y-55788659D01*
X80256628Y-55675391D01*
X80400791Y-55531228D01*
X80514059Y-55361710D01*
X80592080Y-55173352D01*
X80631854Y-54973393D01*
X80631854Y-54769515D01*
X80592080Y-54569556D01*
X80514059Y-54381198D01*
X80400791Y-54211680D01*
X80290682Y-54101571D01*
X80313003Y-54027988D01*
X80324000Y-53916335D01*
X80324000Y-53916325D01*
X80327676Y-53879002D01*
X80324000Y-53841680D01*
X80324000Y-53002311D01*
X80367937Y-52958374D01*
X80481205Y-52788856D01*
X80559226Y-52600498D01*
X80599000Y-52400539D01*
X80599000Y-52196661D01*
X80559226Y-51996702D01*
X80481205Y-51808344D01*
X80384490Y-51663600D01*
X80481205Y-51518856D01*
X80559226Y-51330498D01*
X80599000Y-51130539D01*
X80599000Y-51068401D01*
X82850602Y-48816800D01*
X83100622Y-48816800D01*
X83225325Y-49003432D01*
M02*
