G04 #@! TF.GenerationSoftware,KiCad,Pcbnew,5.1.5*
G04 #@! TF.CreationDate,2020-01-01T11:05:53+01:00*
G04 #@! TF.ProjectId,LORA_ATTINY84,4c4f5241-5f41-4545-9449-4e5938342e6b,rev?*
G04 #@! TF.SameCoordinates,Original*
G04 #@! TF.FileFunction,Paste,Top*
G04 #@! TF.FilePolarity,Positive*
%FSLAX46Y46*%
G04 Gerber Fmt 4.6, Leading zero omitted, Abs format (unit mm)*
G04 Created by KiCad (PCBNEW 5.1.5) date 2020-01-01 11:05:53*
%MOMM*%
%LPD*%
G04 APERTURE LIST*
%ADD10C,0.100000*%
%ADD11R,3.600000X7.100000*%
%ADD12O,2.000000X1.000000*%
G04 APERTURE END LIST*
D10*
G36*
X90184504Y-68921204D02*
G01*
X90208773Y-68924804D01*
X90232571Y-68930765D01*
X90255671Y-68939030D01*
X90277849Y-68949520D01*
X90298893Y-68962133D01*
X90318598Y-68976747D01*
X90336777Y-68993223D01*
X90353253Y-69011402D01*
X90367867Y-69031107D01*
X90380480Y-69052151D01*
X90390970Y-69074329D01*
X90399235Y-69097429D01*
X90405196Y-69121227D01*
X90408796Y-69145496D01*
X90410000Y-69170000D01*
X90410000Y-70095000D01*
X90408796Y-70119504D01*
X90405196Y-70143773D01*
X90399235Y-70167571D01*
X90390970Y-70190671D01*
X90380480Y-70212849D01*
X90367867Y-70233893D01*
X90353253Y-70253598D01*
X90336777Y-70271777D01*
X90318598Y-70288253D01*
X90298893Y-70302867D01*
X90277849Y-70315480D01*
X90255671Y-70325970D01*
X90232571Y-70334235D01*
X90208773Y-70340196D01*
X90184504Y-70343796D01*
X90160000Y-70345000D01*
X88910000Y-70345000D01*
X88885496Y-70343796D01*
X88861227Y-70340196D01*
X88837429Y-70334235D01*
X88814329Y-70325970D01*
X88792151Y-70315480D01*
X88771107Y-70302867D01*
X88751402Y-70288253D01*
X88733223Y-70271777D01*
X88716747Y-70253598D01*
X88702133Y-70233893D01*
X88689520Y-70212849D01*
X88679030Y-70190671D01*
X88670765Y-70167571D01*
X88664804Y-70143773D01*
X88661204Y-70119504D01*
X88660000Y-70095000D01*
X88660000Y-69170000D01*
X88661204Y-69145496D01*
X88664804Y-69121227D01*
X88670765Y-69097429D01*
X88679030Y-69074329D01*
X88689520Y-69052151D01*
X88702133Y-69031107D01*
X88716747Y-69011402D01*
X88733223Y-68993223D01*
X88751402Y-68976747D01*
X88771107Y-68962133D01*
X88792151Y-68949520D01*
X88814329Y-68939030D01*
X88837429Y-68930765D01*
X88861227Y-68924804D01*
X88885496Y-68921204D01*
X88910000Y-68920000D01*
X90160000Y-68920000D01*
X90184504Y-68921204D01*
G37*
G36*
X90184504Y-71896204D02*
G01*
X90208773Y-71899804D01*
X90232571Y-71905765D01*
X90255671Y-71914030D01*
X90277849Y-71924520D01*
X90298893Y-71937133D01*
X90318598Y-71951747D01*
X90336777Y-71968223D01*
X90353253Y-71986402D01*
X90367867Y-72006107D01*
X90380480Y-72027151D01*
X90390970Y-72049329D01*
X90399235Y-72072429D01*
X90405196Y-72096227D01*
X90408796Y-72120496D01*
X90410000Y-72145000D01*
X90410000Y-73070000D01*
X90408796Y-73094504D01*
X90405196Y-73118773D01*
X90399235Y-73142571D01*
X90390970Y-73165671D01*
X90380480Y-73187849D01*
X90367867Y-73208893D01*
X90353253Y-73228598D01*
X90336777Y-73246777D01*
X90318598Y-73263253D01*
X90298893Y-73277867D01*
X90277849Y-73290480D01*
X90255671Y-73300970D01*
X90232571Y-73309235D01*
X90208773Y-73315196D01*
X90184504Y-73318796D01*
X90160000Y-73320000D01*
X88910000Y-73320000D01*
X88885496Y-73318796D01*
X88861227Y-73315196D01*
X88837429Y-73309235D01*
X88814329Y-73300970D01*
X88792151Y-73290480D01*
X88771107Y-73277867D01*
X88751402Y-73263253D01*
X88733223Y-73246777D01*
X88716747Y-73228598D01*
X88702133Y-73208893D01*
X88689520Y-73187849D01*
X88679030Y-73165671D01*
X88670765Y-73142571D01*
X88664804Y-73118773D01*
X88661204Y-73094504D01*
X88660000Y-73070000D01*
X88660000Y-72145000D01*
X88661204Y-72120496D01*
X88664804Y-72096227D01*
X88670765Y-72072429D01*
X88679030Y-72049329D01*
X88689520Y-72027151D01*
X88702133Y-72006107D01*
X88716747Y-71986402D01*
X88733223Y-71968223D01*
X88751402Y-71951747D01*
X88771107Y-71937133D01*
X88792151Y-71924520D01*
X88814329Y-71914030D01*
X88837429Y-71905765D01*
X88861227Y-71899804D01*
X88885496Y-71896204D01*
X88910000Y-71895000D01*
X90160000Y-71895000D01*
X90184504Y-71896204D01*
G37*
G36*
X84778504Y-75453204D02*
G01*
X84802773Y-75456804D01*
X84826571Y-75462765D01*
X84849671Y-75471030D01*
X84871849Y-75481520D01*
X84892893Y-75494133D01*
X84912598Y-75508747D01*
X84930777Y-75525223D01*
X84947253Y-75543402D01*
X84961867Y-75563107D01*
X84974480Y-75584151D01*
X84984970Y-75606329D01*
X84993235Y-75629429D01*
X84999196Y-75653227D01*
X85002796Y-75677496D01*
X85004000Y-75702000D01*
X85004000Y-76952000D01*
X85002796Y-76976504D01*
X84999196Y-77000773D01*
X84993235Y-77024571D01*
X84984970Y-77047671D01*
X84974480Y-77069849D01*
X84961867Y-77090893D01*
X84947253Y-77110598D01*
X84930777Y-77128777D01*
X84912598Y-77145253D01*
X84892893Y-77159867D01*
X84871849Y-77172480D01*
X84849671Y-77182970D01*
X84826571Y-77191235D01*
X84802773Y-77197196D01*
X84778504Y-77200796D01*
X84754000Y-77202000D01*
X83829000Y-77202000D01*
X83804496Y-77200796D01*
X83780227Y-77197196D01*
X83756429Y-77191235D01*
X83733329Y-77182970D01*
X83711151Y-77172480D01*
X83690107Y-77159867D01*
X83670402Y-77145253D01*
X83652223Y-77128777D01*
X83635747Y-77110598D01*
X83621133Y-77090893D01*
X83608520Y-77069849D01*
X83598030Y-77047671D01*
X83589765Y-77024571D01*
X83583804Y-77000773D01*
X83580204Y-76976504D01*
X83579000Y-76952000D01*
X83579000Y-75702000D01*
X83580204Y-75677496D01*
X83583804Y-75653227D01*
X83589765Y-75629429D01*
X83598030Y-75606329D01*
X83608520Y-75584151D01*
X83621133Y-75563107D01*
X83635747Y-75543402D01*
X83652223Y-75525223D01*
X83670402Y-75508747D01*
X83690107Y-75494133D01*
X83711151Y-75481520D01*
X83733329Y-75471030D01*
X83756429Y-75462765D01*
X83780227Y-75456804D01*
X83804496Y-75453204D01*
X83829000Y-75452000D01*
X84754000Y-75452000D01*
X84778504Y-75453204D01*
G37*
G36*
X81803504Y-75453204D02*
G01*
X81827773Y-75456804D01*
X81851571Y-75462765D01*
X81874671Y-75471030D01*
X81896849Y-75481520D01*
X81917893Y-75494133D01*
X81937598Y-75508747D01*
X81955777Y-75525223D01*
X81972253Y-75543402D01*
X81986867Y-75563107D01*
X81999480Y-75584151D01*
X82009970Y-75606329D01*
X82018235Y-75629429D01*
X82024196Y-75653227D01*
X82027796Y-75677496D01*
X82029000Y-75702000D01*
X82029000Y-76952000D01*
X82027796Y-76976504D01*
X82024196Y-77000773D01*
X82018235Y-77024571D01*
X82009970Y-77047671D01*
X81999480Y-77069849D01*
X81986867Y-77090893D01*
X81972253Y-77110598D01*
X81955777Y-77128777D01*
X81937598Y-77145253D01*
X81917893Y-77159867D01*
X81896849Y-77172480D01*
X81874671Y-77182970D01*
X81851571Y-77191235D01*
X81827773Y-77197196D01*
X81803504Y-77200796D01*
X81779000Y-77202000D01*
X80854000Y-77202000D01*
X80829496Y-77200796D01*
X80805227Y-77197196D01*
X80781429Y-77191235D01*
X80758329Y-77182970D01*
X80736151Y-77172480D01*
X80715107Y-77159867D01*
X80695402Y-77145253D01*
X80677223Y-77128777D01*
X80660747Y-77110598D01*
X80646133Y-77090893D01*
X80633520Y-77069849D01*
X80623030Y-77047671D01*
X80614765Y-77024571D01*
X80608804Y-77000773D01*
X80605204Y-76976504D01*
X80604000Y-76952000D01*
X80604000Y-75702000D01*
X80605204Y-75677496D01*
X80608804Y-75653227D01*
X80614765Y-75629429D01*
X80623030Y-75606329D01*
X80633520Y-75584151D01*
X80646133Y-75563107D01*
X80660747Y-75543402D01*
X80677223Y-75525223D01*
X80695402Y-75508747D01*
X80715107Y-75494133D01*
X80736151Y-75481520D01*
X80758329Y-75471030D01*
X80781429Y-75462765D01*
X80805227Y-75456804D01*
X80829496Y-75453204D01*
X80854000Y-75452000D01*
X81779000Y-75452000D01*
X81803504Y-75453204D01*
G37*
G36*
X86692004Y-50941204D02*
G01*
X86716273Y-50944804D01*
X86740071Y-50950765D01*
X86763171Y-50959030D01*
X86785349Y-50969520D01*
X86806393Y-50982133D01*
X86826098Y-50996747D01*
X86844277Y-51013223D01*
X86860753Y-51031402D01*
X86875367Y-51051107D01*
X86887980Y-51072151D01*
X86898470Y-51094329D01*
X86906735Y-51117429D01*
X86912696Y-51141227D01*
X86916296Y-51165496D01*
X86917500Y-51190000D01*
X86917500Y-52115000D01*
X86916296Y-52139504D01*
X86912696Y-52163773D01*
X86906735Y-52187571D01*
X86898470Y-52210671D01*
X86887980Y-52232849D01*
X86875367Y-52253893D01*
X86860753Y-52273598D01*
X86844277Y-52291777D01*
X86826098Y-52308253D01*
X86806393Y-52322867D01*
X86785349Y-52335480D01*
X86763171Y-52345970D01*
X86740071Y-52354235D01*
X86716273Y-52360196D01*
X86692004Y-52363796D01*
X86667500Y-52365000D01*
X85417500Y-52365000D01*
X85392996Y-52363796D01*
X85368727Y-52360196D01*
X85344929Y-52354235D01*
X85321829Y-52345970D01*
X85299651Y-52335480D01*
X85278607Y-52322867D01*
X85258902Y-52308253D01*
X85240723Y-52291777D01*
X85224247Y-52273598D01*
X85209633Y-52253893D01*
X85197020Y-52232849D01*
X85186530Y-52210671D01*
X85178265Y-52187571D01*
X85172304Y-52163773D01*
X85168704Y-52139504D01*
X85167500Y-52115000D01*
X85167500Y-51190000D01*
X85168704Y-51165496D01*
X85172304Y-51141227D01*
X85178265Y-51117429D01*
X85186530Y-51094329D01*
X85197020Y-51072151D01*
X85209633Y-51051107D01*
X85224247Y-51031402D01*
X85240723Y-51013223D01*
X85258902Y-50996747D01*
X85278607Y-50982133D01*
X85299651Y-50969520D01*
X85321829Y-50959030D01*
X85344929Y-50950765D01*
X85368727Y-50944804D01*
X85392996Y-50941204D01*
X85417500Y-50940000D01*
X86667500Y-50940000D01*
X86692004Y-50941204D01*
G37*
G36*
X86692004Y-47966204D02*
G01*
X86716273Y-47969804D01*
X86740071Y-47975765D01*
X86763171Y-47984030D01*
X86785349Y-47994520D01*
X86806393Y-48007133D01*
X86826098Y-48021747D01*
X86844277Y-48038223D01*
X86860753Y-48056402D01*
X86875367Y-48076107D01*
X86887980Y-48097151D01*
X86898470Y-48119329D01*
X86906735Y-48142429D01*
X86912696Y-48166227D01*
X86916296Y-48190496D01*
X86917500Y-48215000D01*
X86917500Y-49140000D01*
X86916296Y-49164504D01*
X86912696Y-49188773D01*
X86906735Y-49212571D01*
X86898470Y-49235671D01*
X86887980Y-49257849D01*
X86875367Y-49278893D01*
X86860753Y-49298598D01*
X86844277Y-49316777D01*
X86826098Y-49333253D01*
X86806393Y-49347867D01*
X86785349Y-49360480D01*
X86763171Y-49370970D01*
X86740071Y-49379235D01*
X86716273Y-49385196D01*
X86692004Y-49388796D01*
X86667500Y-49390000D01*
X85417500Y-49390000D01*
X85392996Y-49388796D01*
X85368727Y-49385196D01*
X85344929Y-49379235D01*
X85321829Y-49370970D01*
X85299651Y-49360480D01*
X85278607Y-49347867D01*
X85258902Y-49333253D01*
X85240723Y-49316777D01*
X85224247Y-49298598D01*
X85209633Y-49278893D01*
X85197020Y-49257849D01*
X85186530Y-49235671D01*
X85178265Y-49212571D01*
X85172304Y-49188773D01*
X85168704Y-49164504D01*
X85167500Y-49140000D01*
X85167500Y-48215000D01*
X85168704Y-48190496D01*
X85172304Y-48166227D01*
X85178265Y-48142429D01*
X85186530Y-48119329D01*
X85197020Y-48097151D01*
X85209633Y-48076107D01*
X85224247Y-48056402D01*
X85240723Y-48038223D01*
X85258902Y-48021747D01*
X85278607Y-48007133D01*
X85299651Y-47994520D01*
X85321829Y-47984030D01*
X85344929Y-47975765D01*
X85368727Y-47969804D01*
X85392996Y-47966204D01*
X85417500Y-47965000D01*
X86667500Y-47965000D01*
X86692004Y-47966204D01*
G37*
G36*
X78301504Y-75453204D02*
G01*
X78325773Y-75456804D01*
X78349571Y-75462765D01*
X78372671Y-75471030D01*
X78394849Y-75481520D01*
X78415893Y-75494133D01*
X78435598Y-75508747D01*
X78453777Y-75525223D01*
X78470253Y-75543402D01*
X78484867Y-75563107D01*
X78497480Y-75584151D01*
X78507970Y-75606329D01*
X78516235Y-75629429D01*
X78522196Y-75653227D01*
X78525796Y-75677496D01*
X78527000Y-75702000D01*
X78527000Y-76952000D01*
X78525796Y-76976504D01*
X78522196Y-77000773D01*
X78516235Y-77024571D01*
X78507970Y-77047671D01*
X78497480Y-77069849D01*
X78484867Y-77090893D01*
X78470253Y-77110598D01*
X78453777Y-77128777D01*
X78435598Y-77145253D01*
X78415893Y-77159867D01*
X78394849Y-77172480D01*
X78372671Y-77182970D01*
X78349571Y-77191235D01*
X78325773Y-77197196D01*
X78301504Y-77200796D01*
X78277000Y-77202000D01*
X77352000Y-77202000D01*
X77327496Y-77200796D01*
X77303227Y-77197196D01*
X77279429Y-77191235D01*
X77256329Y-77182970D01*
X77234151Y-77172480D01*
X77213107Y-77159867D01*
X77193402Y-77145253D01*
X77175223Y-77128777D01*
X77158747Y-77110598D01*
X77144133Y-77090893D01*
X77131520Y-77069849D01*
X77121030Y-77047671D01*
X77112765Y-77024571D01*
X77106804Y-77000773D01*
X77103204Y-76976504D01*
X77102000Y-76952000D01*
X77102000Y-75702000D01*
X77103204Y-75677496D01*
X77106804Y-75653227D01*
X77112765Y-75629429D01*
X77121030Y-75606329D01*
X77131520Y-75584151D01*
X77144133Y-75563107D01*
X77158747Y-75543402D01*
X77175223Y-75525223D01*
X77193402Y-75508747D01*
X77213107Y-75494133D01*
X77234151Y-75481520D01*
X77256329Y-75471030D01*
X77279429Y-75462765D01*
X77303227Y-75456804D01*
X77327496Y-75453204D01*
X77352000Y-75452000D01*
X78277000Y-75452000D01*
X78301504Y-75453204D01*
G37*
G36*
X75326504Y-75453204D02*
G01*
X75350773Y-75456804D01*
X75374571Y-75462765D01*
X75397671Y-75471030D01*
X75419849Y-75481520D01*
X75440893Y-75494133D01*
X75460598Y-75508747D01*
X75478777Y-75525223D01*
X75495253Y-75543402D01*
X75509867Y-75563107D01*
X75522480Y-75584151D01*
X75532970Y-75606329D01*
X75541235Y-75629429D01*
X75547196Y-75653227D01*
X75550796Y-75677496D01*
X75552000Y-75702000D01*
X75552000Y-76952000D01*
X75550796Y-76976504D01*
X75547196Y-77000773D01*
X75541235Y-77024571D01*
X75532970Y-77047671D01*
X75522480Y-77069849D01*
X75509867Y-77090893D01*
X75495253Y-77110598D01*
X75478777Y-77128777D01*
X75460598Y-77145253D01*
X75440893Y-77159867D01*
X75419849Y-77172480D01*
X75397671Y-77182970D01*
X75374571Y-77191235D01*
X75350773Y-77197196D01*
X75326504Y-77200796D01*
X75302000Y-77202000D01*
X74377000Y-77202000D01*
X74352496Y-77200796D01*
X74328227Y-77197196D01*
X74304429Y-77191235D01*
X74281329Y-77182970D01*
X74259151Y-77172480D01*
X74238107Y-77159867D01*
X74218402Y-77145253D01*
X74200223Y-77128777D01*
X74183747Y-77110598D01*
X74169133Y-77090893D01*
X74156520Y-77069849D01*
X74146030Y-77047671D01*
X74137765Y-77024571D01*
X74131804Y-77000773D01*
X74128204Y-76976504D01*
X74127000Y-76952000D01*
X74127000Y-75702000D01*
X74128204Y-75677496D01*
X74131804Y-75653227D01*
X74137765Y-75629429D01*
X74146030Y-75606329D01*
X74156520Y-75584151D01*
X74169133Y-75563107D01*
X74183747Y-75543402D01*
X74200223Y-75525223D01*
X74218402Y-75508747D01*
X74238107Y-75494133D01*
X74259151Y-75481520D01*
X74281329Y-75471030D01*
X74304429Y-75462765D01*
X74328227Y-75456804D01*
X74352496Y-75453204D01*
X74377000Y-75452000D01*
X75302000Y-75452000D01*
X75326504Y-75453204D01*
G37*
G36*
X71951504Y-75453204D02*
G01*
X71975773Y-75456804D01*
X71999571Y-75462765D01*
X72022671Y-75471030D01*
X72044849Y-75481520D01*
X72065893Y-75494133D01*
X72085598Y-75508747D01*
X72103777Y-75525223D01*
X72120253Y-75543402D01*
X72134867Y-75563107D01*
X72147480Y-75584151D01*
X72157970Y-75606329D01*
X72166235Y-75629429D01*
X72172196Y-75653227D01*
X72175796Y-75677496D01*
X72177000Y-75702000D01*
X72177000Y-76952000D01*
X72175796Y-76976504D01*
X72172196Y-77000773D01*
X72166235Y-77024571D01*
X72157970Y-77047671D01*
X72147480Y-77069849D01*
X72134867Y-77090893D01*
X72120253Y-77110598D01*
X72103777Y-77128777D01*
X72085598Y-77145253D01*
X72065893Y-77159867D01*
X72044849Y-77172480D01*
X72022671Y-77182970D01*
X71999571Y-77191235D01*
X71975773Y-77197196D01*
X71951504Y-77200796D01*
X71927000Y-77202000D01*
X71002000Y-77202000D01*
X70977496Y-77200796D01*
X70953227Y-77197196D01*
X70929429Y-77191235D01*
X70906329Y-77182970D01*
X70884151Y-77172480D01*
X70863107Y-77159867D01*
X70843402Y-77145253D01*
X70825223Y-77128777D01*
X70808747Y-77110598D01*
X70794133Y-77090893D01*
X70781520Y-77069849D01*
X70771030Y-77047671D01*
X70762765Y-77024571D01*
X70756804Y-77000773D01*
X70753204Y-76976504D01*
X70752000Y-76952000D01*
X70752000Y-75702000D01*
X70753204Y-75677496D01*
X70756804Y-75653227D01*
X70762765Y-75629429D01*
X70771030Y-75606329D01*
X70781520Y-75584151D01*
X70794133Y-75563107D01*
X70808747Y-75543402D01*
X70825223Y-75525223D01*
X70843402Y-75508747D01*
X70863107Y-75494133D01*
X70884151Y-75481520D01*
X70906329Y-75471030D01*
X70929429Y-75462765D01*
X70953227Y-75456804D01*
X70977496Y-75453204D01*
X71002000Y-75452000D01*
X71927000Y-75452000D01*
X71951504Y-75453204D01*
G37*
G36*
X68976504Y-75453204D02*
G01*
X69000773Y-75456804D01*
X69024571Y-75462765D01*
X69047671Y-75471030D01*
X69069849Y-75481520D01*
X69090893Y-75494133D01*
X69110598Y-75508747D01*
X69128777Y-75525223D01*
X69145253Y-75543402D01*
X69159867Y-75563107D01*
X69172480Y-75584151D01*
X69182970Y-75606329D01*
X69191235Y-75629429D01*
X69197196Y-75653227D01*
X69200796Y-75677496D01*
X69202000Y-75702000D01*
X69202000Y-76952000D01*
X69200796Y-76976504D01*
X69197196Y-77000773D01*
X69191235Y-77024571D01*
X69182970Y-77047671D01*
X69172480Y-77069849D01*
X69159867Y-77090893D01*
X69145253Y-77110598D01*
X69128777Y-77128777D01*
X69110598Y-77145253D01*
X69090893Y-77159867D01*
X69069849Y-77172480D01*
X69047671Y-77182970D01*
X69024571Y-77191235D01*
X69000773Y-77197196D01*
X68976504Y-77200796D01*
X68952000Y-77202000D01*
X68027000Y-77202000D01*
X68002496Y-77200796D01*
X67978227Y-77197196D01*
X67954429Y-77191235D01*
X67931329Y-77182970D01*
X67909151Y-77172480D01*
X67888107Y-77159867D01*
X67868402Y-77145253D01*
X67850223Y-77128777D01*
X67833747Y-77110598D01*
X67819133Y-77090893D01*
X67806520Y-77069849D01*
X67796030Y-77047671D01*
X67787765Y-77024571D01*
X67781804Y-77000773D01*
X67778204Y-76976504D01*
X67777000Y-76952000D01*
X67777000Y-75702000D01*
X67778204Y-75677496D01*
X67781804Y-75653227D01*
X67787765Y-75629429D01*
X67796030Y-75606329D01*
X67806520Y-75584151D01*
X67819133Y-75563107D01*
X67833747Y-75543402D01*
X67850223Y-75525223D01*
X67868402Y-75508747D01*
X67888107Y-75494133D01*
X67909151Y-75481520D01*
X67931329Y-75471030D01*
X67954429Y-75462765D01*
X67978227Y-75456804D01*
X68002496Y-75453204D01*
X68027000Y-75452000D01*
X68952000Y-75452000D01*
X68976504Y-75453204D01*
G37*
D11*
X56515000Y-48514000D03*
X56515000Y-73406000D03*
D10*
G36*
X83984703Y-51665722D02*
G01*
X83999264Y-51667882D01*
X84013543Y-51671459D01*
X84027403Y-51676418D01*
X84040710Y-51682712D01*
X84053336Y-51690280D01*
X84065159Y-51699048D01*
X84076066Y-51708934D01*
X84085952Y-51719841D01*
X84094720Y-51731664D01*
X84102288Y-51744290D01*
X84108582Y-51757597D01*
X84113541Y-51771457D01*
X84117118Y-51785736D01*
X84119278Y-51800297D01*
X84120000Y-51815000D01*
X84120000Y-53465000D01*
X84119278Y-53479703D01*
X84117118Y-53494264D01*
X84113541Y-53508543D01*
X84108582Y-53522403D01*
X84102288Y-53535710D01*
X84094720Y-53548336D01*
X84085952Y-53560159D01*
X84076066Y-53571066D01*
X84065159Y-53580952D01*
X84053336Y-53589720D01*
X84040710Y-53597288D01*
X84027403Y-53603582D01*
X84013543Y-53608541D01*
X83999264Y-53612118D01*
X83984703Y-53614278D01*
X83970000Y-53615000D01*
X83670000Y-53615000D01*
X83655297Y-53614278D01*
X83640736Y-53612118D01*
X83626457Y-53608541D01*
X83612597Y-53603582D01*
X83599290Y-53597288D01*
X83586664Y-53589720D01*
X83574841Y-53580952D01*
X83563934Y-53571066D01*
X83554048Y-53560159D01*
X83545280Y-53548336D01*
X83537712Y-53535710D01*
X83531418Y-53522403D01*
X83526459Y-53508543D01*
X83522882Y-53494264D01*
X83520722Y-53479703D01*
X83520000Y-53465000D01*
X83520000Y-51815000D01*
X83520722Y-51800297D01*
X83522882Y-51785736D01*
X83526459Y-51771457D01*
X83531418Y-51757597D01*
X83537712Y-51744290D01*
X83545280Y-51731664D01*
X83554048Y-51719841D01*
X83563934Y-51708934D01*
X83574841Y-51699048D01*
X83586664Y-51690280D01*
X83599290Y-51682712D01*
X83612597Y-51676418D01*
X83626457Y-51671459D01*
X83640736Y-51667882D01*
X83655297Y-51665722D01*
X83670000Y-51665000D01*
X83970000Y-51665000D01*
X83984703Y-51665722D01*
G37*
G36*
X82714703Y-51665722D02*
G01*
X82729264Y-51667882D01*
X82743543Y-51671459D01*
X82757403Y-51676418D01*
X82770710Y-51682712D01*
X82783336Y-51690280D01*
X82795159Y-51699048D01*
X82806066Y-51708934D01*
X82815952Y-51719841D01*
X82824720Y-51731664D01*
X82832288Y-51744290D01*
X82838582Y-51757597D01*
X82843541Y-51771457D01*
X82847118Y-51785736D01*
X82849278Y-51800297D01*
X82850000Y-51815000D01*
X82850000Y-53465000D01*
X82849278Y-53479703D01*
X82847118Y-53494264D01*
X82843541Y-53508543D01*
X82838582Y-53522403D01*
X82832288Y-53535710D01*
X82824720Y-53548336D01*
X82815952Y-53560159D01*
X82806066Y-53571066D01*
X82795159Y-53580952D01*
X82783336Y-53589720D01*
X82770710Y-53597288D01*
X82757403Y-53603582D01*
X82743543Y-53608541D01*
X82729264Y-53612118D01*
X82714703Y-53614278D01*
X82700000Y-53615000D01*
X82400000Y-53615000D01*
X82385297Y-53614278D01*
X82370736Y-53612118D01*
X82356457Y-53608541D01*
X82342597Y-53603582D01*
X82329290Y-53597288D01*
X82316664Y-53589720D01*
X82304841Y-53580952D01*
X82293934Y-53571066D01*
X82284048Y-53560159D01*
X82275280Y-53548336D01*
X82267712Y-53535710D01*
X82261418Y-53522403D01*
X82256459Y-53508543D01*
X82252882Y-53494264D01*
X82250722Y-53479703D01*
X82250000Y-53465000D01*
X82250000Y-51815000D01*
X82250722Y-51800297D01*
X82252882Y-51785736D01*
X82256459Y-51771457D01*
X82261418Y-51757597D01*
X82267712Y-51744290D01*
X82275280Y-51731664D01*
X82284048Y-51719841D01*
X82293934Y-51708934D01*
X82304841Y-51699048D01*
X82316664Y-51690280D01*
X82329290Y-51682712D01*
X82342597Y-51676418D01*
X82356457Y-51671459D01*
X82370736Y-51667882D01*
X82385297Y-51665722D01*
X82400000Y-51665000D01*
X82700000Y-51665000D01*
X82714703Y-51665722D01*
G37*
G36*
X81444703Y-51665722D02*
G01*
X81459264Y-51667882D01*
X81473543Y-51671459D01*
X81487403Y-51676418D01*
X81500710Y-51682712D01*
X81513336Y-51690280D01*
X81525159Y-51699048D01*
X81536066Y-51708934D01*
X81545952Y-51719841D01*
X81554720Y-51731664D01*
X81562288Y-51744290D01*
X81568582Y-51757597D01*
X81573541Y-51771457D01*
X81577118Y-51785736D01*
X81579278Y-51800297D01*
X81580000Y-51815000D01*
X81580000Y-53465000D01*
X81579278Y-53479703D01*
X81577118Y-53494264D01*
X81573541Y-53508543D01*
X81568582Y-53522403D01*
X81562288Y-53535710D01*
X81554720Y-53548336D01*
X81545952Y-53560159D01*
X81536066Y-53571066D01*
X81525159Y-53580952D01*
X81513336Y-53589720D01*
X81500710Y-53597288D01*
X81487403Y-53603582D01*
X81473543Y-53608541D01*
X81459264Y-53612118D01*
X81444703Y-53614278D01*
X81430000Y-53615000D01*
X81130000Y-53615000D01*
X81115297Y-53614278D01*
X81100736Y-53612118D01*
X81086457Y-53608541D01*
X81072597Y-53603582D01*
X81059290Y-53597288D01*
X81046664Y-53589720D01*
X81034841Y-53580952D01*
X81023934Y-53571066D01*
X81014048Y-53560159D01*
X81005280Y-53548336D01*
X80997712Y-53535710D01*
X80991418Y-53522403D01*
X80986459Y-53508543D01*
X80982882Y-53494264D01*
X80980722Y-53479703D01*
X80980000Y-53465000D01*
X80980000Y-51815000D01*
X80980722Y-51800297D01*
X80982882Y-51785736D01*
X80986459Y-51771457D01*
X80991418Y-51757597D01*
X80997712Y-51744290D01*
X81005280Y-51731664D01*
X81014048Y-51719841D01*
X81023934Y-51708934D01*
X81034841Y-51699048D01*
X81046664Y-51690280D01*
X81059290Y-51682712D01*
X81072597Y-51676418D01*
X81086457Y-51671459D01*
X81100736Y-51667882D01*
X81115297Y-51665722D01*
X81130000Y-51665000D01*
X81430000Y-51665000D01*
X81444703Y-51665722D01*
G37*
G36*
X80174703Y-51665722D02*
G01*
X80189264Y-51667882D01*
X80203543Y-51671459D01*
X80217403Y-51676418D01*
X80230710Y-51682712D01*
X80243336Y-51690280D01*
X80255159Y-51699048D01*
X80266066Y-51708934D01*
X80275952Y-51719841D01*
X80284720Y-51731664D01*
X80292288Y-51744290D01*
X80298582Y-51757597D01*
X80303541Y-51771457D01*
X80307118Y-51785736D01*
X80309278Y-51800297D01*
X80310000Y-51815000D01*
X80310000Y-53465000D01*
X80309278Y-53479703D01*
X80307118Y-53494264D01*
X80303541Y-53508543D01*
X80298582Y-53522403D01*
X80292288Y-53535710D01*
X80284720Y-53548336D01*
X80275952Y-53560159D01*
X80266066Y-53571066D01*
X80255159Y-53580952D01*
X80243336Y-53589720D01*
X80230710Y-53597288D01*
X80217403Y-53603582D01*
X80203543Y-53608541D01*
X80189264Y-53612118D01*
X80174703Y-53614278D01*
X80160000Y-53615000D01*
X79860000Y-53615000D01*
X79845297Y-53614278D01*
X79830736Y-53612118D01*
X79816457Y-53608541D01*
X79802597Y-53603582D01*
X79789290Y-53597288D01*
X79776664Y-53589720D01*
X79764841Y-53580952D01*
X79753934Y-53571066D01*
X79744048Y-53560159D01*
X79735280Y-53548336D01*
X79727712Y-53535710D01*
X79721418Y-53522403D01*
X79716459Y-53508543D01*
X79712882Y-53494264D01*
X79710722Y-53479703D01*
X79710000Y-53465000D01*
X79710000Y-51815000D01*
X79710722Y-51800297D01*
X79712882Y-51785736D01*
X79716459Y-51771457D01*
X79721418Y-51757597D01*
X79727712Y-51744290D01*
X79735280Y-51731664D01*
X79744048Y-51719841D01*
X79753934Y-51708934D01*
X79764841Y-51699048D01*
X79776664Y-51690280D01*
X79789290Y-51682712D01*
X79802597Y-51676418D01*
X79816457Y-51671459D01*
X79830736Y-51667882D01*
X79845297Y-51665722D01*
X79860000Y-51665000D01*
X80160000Y-51665000D01*
X80174703Y-51665722D01*
G37*
G36*
X78904703Y-51665722D02*
G01*
X78919264Y-51667882D01*
X78933543Y-51671459D01*
X78947403Y-51676418D01*
X78960710Y-51682712D01*
X78973336Y-51690280D01*
X78985159Y-51699048D01*
X78996066Y-51708934D01*
X79005952Y-51719841D01*
X79014720Y-51731664D01*
X79022288Y-51744290D01*
X79028582Y-51757597D01*
X79033541Y-51771457D01*
X79037118Y-51785736D01*
X79039278Y-51800297D01*
X79040000Y-51815000D01*
X79040000Y-53465000D01*
X79039278Y-53479703D01*
X79037118Y-53494264D01*
X79033541Y-53508543D01*
X79028582Y-53522403D01*
X79022288Y-53535710D01*
X79014720Y-53548336D01*
X79005952Y-53560159D01*
X78996066Y-53571066D01*
X78985159Y-53580952D01*
X78973336Y-53589720D01*
X78960710Y-53597288D01*
X78947403Y-53603582D01*
X78933543Y-53608541D01*
X78919264Y-53612118D01*
X78904703Y-53614278D01*
X78890000Y-53615000D01*
X78590000Y-53615000D01*
X78575297Y-53614278D01*
X78560736Y-53612118D01*
X78546457Y-53608541D01*
X78532597Y-53603582D01*
X78519290Y-53597288D01*
X78506664Y-53589720D01*
X78494841Y-53580952D01*
X78483934Y-53571066D01*
X78474048Y-53560159D01*
X78465280Y-53548336D01*
X78457712Y-53535710D01*
X78451418Y-53522403D01*
X78446459Y-53508543D01*
X78442882Y-53494264D01*
X78440722Y-53479703D01*
X78440000Y-53465000D01*
X78440000Y-51815000D01*
X78440722Y-51800297D01*
X78442882Y-51785736D01*
X78446459Y-51771457D01*
X78451418Y-51757597D01*
X78457712Y-51744290D01*
X78465280Y-51731664D01*
X78474048Y-51719841D01*
X78483934Y-51708934D01*
X78494841Y-51699048D01*
X78506664Y-51690280D01*
X78519290Y-51682712D01*
X78532597Y-51676418D01*
X78546457Y-51671459D01*
X78560736Y-51667882D01*
X78575297Y-51665722D01*
X78590000Y-51665000D01*
X78890000Y-51665000D01*
X78904703Y-51665722D01*
G37*
G36*
X77634703Y-51665722D02*
G01*
X77649264Y-51667882D01*
X77663543Y-51671459D01*
X77677403Y-51676418D01*
X77690710Y-51682712D01*
X77703336Y-51690280D01*
X77715159Y-51699048D01*
X77726066Y-51708934D01*
X77735952Y-51719841D01*
X77744720Y-51731664D01*
X77752288Y-51744290D01*
X77758582Y-51757597D01*
X77763541Y-51771457D01*
X77767118Y-51785736D01*
X77769278Y-51800297D01*
X77770000Y-51815000D01*
X77770000Y-53465000D01*
X77769278Y-53479703D01*
X77767118Y-53494264D01*
X77763541Y-53508543D01*
X77758582Y-53522403D01*
X77752288Y-53535710D01*
X77744720Y-53548336D01*
X77735952Y-53560159D01*
X77726066Y-53571066D01*
X77715159Y-53580952D01*
X77703336Y-53589720D01*
X77690710Y-53597288D01*
X77677403Y-53603582D01*
X77663543Y-53608541D01*
X77649264Y-53612118D01*
X77634703Y-53614278D01*
X77620000Y-53615000D01*
X77320000Y-53615000D01*
X77305297Y-53614278D01*
X77290736Y-53612118D01*
X77276457Y-53608541D01*
X77262597Y-53603582D01*
X77249290Y-53597288D01*
X77236664Y-53589720D01*
X77224841Y-53580952D01*
X77213934Y-53571066D01*
X77204048Y-53560159D01*
X77195280Y-53548336D01*
X77187712Y-53535710D01*
X77181418Y-53522403D01*
X77176459Y-53508543D01*
X77172882Y-53494264D01*
X77170722Y-53479703D01*
X77170000Y-53465000D01*
X77170000Y-51815000D01*
X77170722Y-51800297D01*
X77172882Y-51785736D01*
X77176459Y-51771457D01*
X77181418Y-51757597D01*
X77187712Y-51744290D01*
X77195280Y-51731664D01*
X77204048Y-51719841D01*
X77213934Y-51708934D01*
X77224841Y-51699048D01*
X77236664Y-51690280D01*
X77249290Y-51682712D01*
X77262597Y-51676418D01*
X77276457Y-51671459D01*
X77290736Y-51667882D01*
X77305297Y-51665722D01*
X77320000Y-51665000D01*
X77620000Y-51665000D01*
X77634703Y-51665722D01*
G37*
G36*
X76364703Y-51665722D02*
G01*
X76379264Y-51667882D01*
X76393543Y-51671459D01*
X76407403Y-51676418D01*
X76420710Y-51682712D01*
X76433336Y-51690280D01*
X76445159Y-51699048D01*
X76456066Y-51708934D01*
X76465952Y-51719841D01*
X76474720Y-51731664D01*
X76482288Y-51744290D01*
X76488582Y-51757597D01*
X76493541Y-51771457D01*
X76497118Y-51785736D01*
X76499278Y-51800297D01*
X76500000Y-51815000D01*
X76500000Y-53465000D01*
X76499278Y-53479703D01*
X76497118Y-53494264D01*
X76493541Y-53508543D01*
X76488582Y-53522403D01*
X76482288Y-53535710D01*
X76474720Y-53548336D01*
X76465952Y-53560159D01*
X76456066Y-53571066D01*
X76445159Y-53580952D01*
X76433336Y-53589720D01*
X76420710Y-53597288D01*
X76407403Y-53603582D01*
X76393543Y-53608541D01*
X76379264Y-53612118D01*
X76364703Y-53614278D01*
X76350000Y-53615000D01*
X76050000Y-53615000D01*
X76035297Y-53614278D01*
X76020736Y-53612118D01*
X76006457Y-53608541D01*
X75992597Y-53603582D01*
X75979290Y-53597288D01*
X75966664Y-53589720D01*
X75954841Y-53580952D01*
X75943934Y-53571066D01*
X75934048Y-53560159D01*
X75925280Y-53548336D01*
X75917712Y-53535710D01*
X75911418Y-53522403D01*
X75906459Y-53508543D01*
X75902882Y-53494264D01*
X75900722Y-53479703D01*
X75900000Y-53465000D01*
X75900000Y-51815000D01*
X75900722Y-51800297D01*
X75902882Y-51785736D01*
X75906459Y-51771457D01*
X75911418Y-51757597D01*
X75917712Y-51744290D01*
X75925280Y-51731664D01*
X75934048Y-51719841D01*
X75943934Y-51708934D01*
X75954841Y-51699048D01*
X75966664Y-51690280D01*
X75979290Y-51682712D01*
X75992597Y-51676418D01*
X76006457Y-51671459D01*
X76020736Y-51667882D01*
X76035297Y-51665722D01*
X76050000Y-51665000D01*
X76350000Y-51665000D01*
X76364703Y-51665722D01*
G37*
G36*
X76364703Y-46715722D02*
G01*
X76379264Y-46717882D01*
X76393543Y-46721459D01*
X76407403Y-46726418D01*
X76420710Y-46732712D01*
X76433336Y-46740280D01*
X76445159Y-46749048D01*
X76456066Y-46758934D01*
X76465952Y-46769841D01*
X76474720Y-46781664D01*
X76482288Y-46794290D01*
X76488582Y-46807597D01*
X76493541Y-46821457D01*
X76497118Y-46835736D01*
X76499278Y-46850297D01*
X76500000Y-46865000D01*
X76500000Y-48515000D01*
X76499278Y-48529703D01*
X76497118Y-48544264D01*
X76493541Y-48558543D01*
X76488582Y-48572403D01*
X76482288Y-48585710D01*
X76474720Y-48598336D01*
X76465952Y-48610159D01*
X76456066Y-48621066D01*
X76445159Y-48630952D01*
X76433336Y-48639720D01*
X76420710Y-48647288D01*
X76407403Y-48653582D01*
X76393543Y-48658541D01*
X76379264Y-48662118D01*
X76364703Y-48664278D01*
X76350000Y-48665000D01*
X76050000Y-48665000D01*
X76035297Y-48664278D01*
X76020736Y-48662118D01*
X76006457Y-48658541D01*
X75992597Y-48653582D01*
X75979290Y-48647288D01*
X75966664Y-48639720D01*
X75954841Y-48630952D01*
X75943934Y-48621066D01*
X75934048Y-48610159D01*
X75925280Y-48598336D01*
X75917712Y-48585710D01*
X75911418Y-48572403D01*
X75906459Y-48558543D01*
X75902882Y-48544264D01*
X75900722Y-48529703D01*
X75900000Y-48515000D01*
X75900000Y-46865000D01*
X75900722Y-46850297D01*
X75902882Y-46835736D01*
X75906459Y-46821457D01*
X75911418Y-46807597D01*
X75917712Y-46794290D01*
X75925280Y-46781664D01*
X75934048Y-46769841D01*
X75943934Y-46758934D01*
X75954841Y-46749048D01*
X75966664Y-46740280D01*
X75979290Y-46732712D01*
X75992597Y-46726418D01*
X76006457Y-46721459D01*
X76020736Y-46717882D01*
X76035297Y-46715722D01*
X76050000Y-46715000D01*
X76350000Y-46715000D01*
X76364703Y-46715722D01*
G37*
G36*
X77634703Y-46715722D02*
G01*
X77649264Y-46717882D01*
X77663543Y-46721459D01*
X77677403Y-46726418D01*
X77690710Y-46732712D01*
X77703336Y-46740280D01*
X77715159Y-46749048D01*
X77726066Y-46758934D01*
X77735952Y-46769841D01*
X77744720Y-46781664D01*
X77752288Y-46794290D01*
X77758582Y-46807597D01*
X77763541Y-46821457D01*
X77767118Y-46835736D01*
X77769278Y-46850297D01*
X77770000Y-46865000D01*
X77770000Y-48515000D01*
X77769278Y-48529703D01*
X77767118Y-48544264D01*
X77763541Y-48558543D01*
X77758582Y-48572403D01*
X77752288Y-48585710D01*
X77744720Y-48598336D01*
X77735952Y-48610159D01*
X77726066Y-48621066D01*
X77715159Y-48630952D01*
X77703336Y-48639720D01*
X77690710Y-48647288D01*
X77677403Y-48653582D01*
X77663543Y-48658541D01*
X77649264Y-48662118D01*
X77634703Y-48664278D01*
X77620000Y-48665000D01*
X77320000Y-48665000D01*
X77305297Y-48664278D01*
X77290736Y-48662118D01*
X77276457Y-48658541D01*
X77262597Y-48653582D01*
X77249290Y-48647288D01*
X77236664Y-48639720D01*
X77224841Y-48630952D01*
X77213934Y-48621066D01*
X77204048Y-48610159D01*
X77195280Y-48598336D01*
X77187712Y-48585710D01*
X77181418Y-48572403D01*
X77176459Y-48558543D01*
X77172882Y-48544264D01*
X77170722Y-48529703D01*
X77170000Y-48515000D01*
X77170000Y-46865000D01*
X77170722Y-46850297D01*
X77172882Y-46835736D01*
X77176459Y-46821457D01*
X77181418Y-46807597D01*
X77187712Y-46794290D01*
X77195280Y-46781664D01*
X77204048Y-46769841D01*
X77213934Y-46758934D01*
X77224841Y-46749048D01*
X77236664Y-46740280D01*
X77249290Y-46732712D01*
X77262597Y-46726418D01*
X77276457Y-46721459D01*
X77290736Y-46717882D01*
X77305297Y-46715722D01*
X77320000Y-46715000D01*
X77620000Y-46715000D01*
X77634703Y-46715722D01*
G37*
G36*
X78904703Y-46715722D02*
G01*
X78919264Y-46717882D01*
X78933543Y-46721459D01*
X78947403Y-46726418D01*
X78960710Y-46732712D01*
X78973336Y-46740280D01*
X78985159Y-46749048D01*
X78996066Y-46758934D01*
X79005952Y-46769841D01*
X79014720Y-46781664D01*
X79022288Y-46794290D01*
X79028582Y-46807597D01*
X79033541Y-46821457D01*
X79037118Y-46835736D01*
X79039278Y-46850297D01*
X79040000Y-46865000D01*
X79040000Y-48515000D01*
X79039278Y-48529703D01*
X79037118Y-48544264D01*
X79033541Y-48558543D01*
X79028582Y-48572403D01*
X79022288Y-48585710D01*
X79014720Y-48598336D01*
X79005952Y-48610159D01*
X78996066Y-48621066D01*
X78985159Y-48630952D01*
X78973336Y-48639720D01*
X78960710Y-48647288D01*
X78947403Y-48653582D01*
X78933543Y-48658541D01*
X78919264Y-48662118D01*
X78904703Y-48664278D01*
X78890000Y-48665000D01*
X78590000Y-48665000D01*
X78575297Y-48664278D01*
X78560736Y-48662118D01*
X78546457Y-48658541D01*
X78532597Y-48653582D01*
X78519290Y-48647288D01*
X78506664Y-48639720D01*
X78494841Y-48630952D01*
X78483934Y-48621066D01*
X78474048Y-48610159D01*
X78465280Y-48598336D01*
X78457712Y-48585710D01*
X78451418Y-48572403D01*
X78446459Y-48558543D01*
X78442882Y-48544264D01*
X78440722Y-48529703D01*
X78440000Y-48515000D01*
X78440000Y-46865000D01*
X78440722Y-46850297D01*
X78442882Y-46835736D01*
X78446459Y-46821457D01*
X78451418Y-46807597D01*
X78457712Y-46794290D01*
X78465280Y-46781664D01*
X78474048Y-46769841D01*
X78483934Y-46758934D01*
X78494841Y-46749048D01*
X78506664Y-46740280D01*
X78519290Y-46732712D01*
X78532597Y-46726418D01*
X78546457Y-46721459D01*
X78560736Y-46717882D01*
X78575297Y-46715722D01*
X78590000Y-46715000D01*
X78890000Y-46715000D01*
X78904703Y-46715722D01*
G37*
G36*
X80174703Y-46715722D02*
G01*
X80189264Y-46717882D01*
X80203543Y-46721459D01*
X80217403Y-46726418D01*
X80230710Y-46732712D01*
X80243336Y-46740280D01*
X80255159Y-46749048D01*
X80266066Y-46758934D01*
X80275952Y-46769841D01*
X80284720Y-46781664D01*
X80292288Y-46794290D01*
X80298582Y-46807597D01*
X80303541Y-46821457D01*
X80307118Y-46835736D01*
X80309278Y-46850297D01*
X80310000Y-46865000D01*
X80310000Y-48515000D01*
X80309278Y-48529703D01*
X80307118Y-48544264D01*
X80303541Y-48558543D01*
X80298582Y-48572403D01*
X80292288Y-48585710D01*
X80284720Y-48598336D01*
X80275952Y-48610159D01*
X80266066Y-48621066D01*
X80255159Y-48630952D01*
X80243336Y-48639720D01*
X80230710Y-48647288D01*
X80217403Y-48653582D01*
X80203543Y-48658541D01*
X80189264Y-48662118D01*
X80174703Y-48664278D01*
X80160000Y-48665000D01*
X79860000Y-48665000D01*
X79845297Y-48664278D01*
X79830736Y-48662118D01*
X79816457Y-48658541D01*
X79802597Y-48653582D01*
X79789290Y-48647288D01*
X79776664Y-48639720D01*
X79764841Y-48630952D01*
X79753934Y-48621066D01*
X79744048Y-48610159D01*
X79735280Y-48598336D01*
X79727712Y-48585710D01*
X79721418Y-48572403D01*
X79716459Y-48558543D01*
X79712882Y-48544264D01*
X79710722Y-48529703D01*
X79710000Y-48515000D01*
X79710000Y-46865000D01*
X79710722Y-46850297D01*
X79712882Y-46835736D01*
X79716459Y-46821457D01*
X79721418Y-46807597D01*
X79727712Y-46794290D01*
X79735280Y-46781664D01*
X79744048Y-46769841D01*
X79753934Y-46758934D01*
X79764841Y-46749048D01*
X79776664Y-46740280D01*
X79789290Y-46732712D01*
X79802597Y-46726418D01*
X79816457Y-46721459D01*
X79830736Y-46717882D01*
X79845297Y-46715722D01*
X79860000Y-46715000D01*
X80160000Y-46715000D01*
X80174703Y-46715722D01*
G37*
G36*
X81444703Y-46715722D02*
G01*
X81459264Y-46717882D01*
X81473543Y-46721459D01*
X81487403Y-46726418D01*
X81500710Y-46732712D01*
X81513336Y-46740280D01*
X81525159Y-46749048D01*
X81536066Y-46758934D01*
X81545952Y-46769841D01*
X81554720Y-46781664D01*
X81562288Y-46794290D01*
X81568582Y-46807597D01*
X81573541Y-46821457D01*
X81577118Y-46835736D01*
X81579278Y-46850297D01*
X81580000Y-46865000D01*
X81580000Y-48515000D01*
X81579278Y-48529703D01*
X81577118Y-48544264D01*
X81573541Y-48558543D01*
X81568582Y-48572403D01*
X81562288Y-48585710D01*
X81554720Y-48598336D01*
X81545952Y-48610159D01*
X81536066Y-48621066D01*
X81525159Y-48630952D01*
X81513336Y-48639720D01*
X81500710Y-48647288D01*
X81487403Y-48653582D01*
X81473543Y-48658541D01*
X81459264Y-48662118D01*
X81444703Y-48664278D01*
X81430000Y-48665000D01*
X81130000Y-48665000D01*
X81115297Y-48664278D01*
X81100736Y-48662118D01*
X81086457Y-48658541D01*
X81072597Y-48653582D01*
X81059290Y-48647288D01*
X81046664Y-48639720D01*
X81034841Y-48630952D01*
X81023934Y-48621066D01*
X81014048Y-48610159D01*
X81005280Y-48598336D01*
X80997712Y-48585710D01*
X80991418Y-48572403D01*
X80986459Y-48558543D01*
X80982882Y-48544264D01*
X80980722Y-48529703D01*
X80980000Y-48515000D01*
X80980000Y-46865000D01*
X80980722Y-46850297D01*
X80982882Y-46835736D01*
X80986459Y-46821457D01*
X80991418Y-46807597D01*
X80997712Y-46794290D01*
X81005280Y-46781664D01*
X81014048Y-46769841D01*
X81023934Y-46758934D01*
X81034841Y-46749048D01*
X81046664Y-46740280D01*
X81059290Y-46732712D01*
X81072597Y-46726418D01*
X81086457Y-46721459D01*
X81100736Y-46717882D01*
X81115297Y-46715722D01*
X81130000Y-46715000D01*
X81430000Y-46715000D01*
X81444703Y-46715722D01*
G37*
G36*
X82714703Y-46715722D02*
G01*
X82729264Y-46717882D01*
X82743543Y-46721459D01*
X82757403Y-46726418D01*
X82770710Y-46732712D01*
X82783336Y-46740280D01*
X82795159Y-46749048D01*
X82806066Y-46758934D01*
X82815952Y-46769841D01*
X82824720Y-46781664D01*
X82832288Y-46794290D01*
X82838582Y-46807597D01*
X82843541Y-46821457D01*
X82847118Y-46835736D01*
X82849278Y-46850297D01*
X82850000Y-46865000D01*
X82850000Y-48515000D01*
X82849278Y-48529703D01*
X82847118Y-48544264D01*
X82843541Y-48558543D01*
X82838582Y-48572403D01*
X82832288Y-48585710D01*
X82824720Y-48598336D01*
X82815952Y-48610159D01*
X82806066Y-48621066D01*
X82795159Y-48630952D01*
X82783336Y-48639720D01*
X82770710Y-48647288D01*
X82757403Y-48653582D01*
X82743543Y-48658541D01*
X82729264Y-48662118D01*
X82714703Y-48664278D01*
X82700000Y-48665000D01*
X82400000Y-48665000D01*
X82385297Y-48664278D01*
X82370736Y-48662118D01*
X82356457Y-48658541D01*
X82342597Y-48653582D01*
X82329290Y-48647288D01*
X82316664Y-48639720D01*
X82304841Y-48630952D01*
X82293934Y-48621066D01*
X82284048Y-48610159D01*
X82275280Y-48598336D01*
X82267712Y-48585710D01*
X82261418Y-48572403D01*
X82256459Y-48558543D01*
X82252882Y-48544264D01*
X82250722Y-48529703D01*
X82250000Y-48515000D01*
X82250000Y-46865000D01*
X82250722Y-46850297D01*
X82252882Y-46835736D01*
X82256459Y-46821457D01*
X82261418Y-46807597D01*
X82267712Y-46794290D01*
X82275280Y-46781664D01*
X82284048Y-46769841D01*
X82293934Y-46758934D01*
X82304841Y-46749048D01*
X82316664Y-46740280D01*
X82329290Y-46732712D01*
X82342597Y-46726418D01*
X82356457Y-46721459D01*
X82370736Y-46717882D01*
X82385297Y-46715722D01*
X82400000Y-46715000D01*
X82700000Y-46715000D01*
X82714703Y-46715722D01*
G37*
G36*
X83984703Y-46715722D02*
G01*
X83999264Y-46717882D01*
X84013543Y-46721459D01*
X84027403Y-46726418D01*
X84040710Y-46732712D01*
X84053336Y-46740280D01*
X84065159Y-46749048D01*
X84076066Y-46758934D01*
X84085952Y-46769841D01*
X84094720Y-46781664D01*
X84102288Y-46794290D01*
X84108582Y-46807597D01*
X84113541Y-46821457D01*
X84117118Y-46835736D01*
X84119278Y-46850297D01*
X84120000Y-46865000D01*
X84120000Y-48515000D01*
X84119278Y-48529703D01*
X84117118Y-48544264D01*
X84113541Y-48558543D01*
X84108582Y-48572403D01*
X84102288Y-48585710D01*
X84094720Y-48598336D01*
X84085952Y-48610159D01*
X84076066Y-48621066D01*
X84065159Y-48630952D01*
X84053336Y-48639720D01*
X84040710Y-48647288D01*
X84027403Y-48653582D01*
X84013543Y-48658541D01*
X83999264Y-48662118D01*
X83984703Y-48664278D01*
X83970000Y-48665000D01*
X83670000Y-48665000D01*
X83655297Y-48664278D01*
X83640736Y-48662118D01*
X83626457Y-48658541D01*
X83612597Y-48653582D01*
X83599290Y-48647288D01*
X83586664Y-48639720D01*
X83574841Y-48630952D01*
X83563934Y-48621066D01*
X83554048Y-48610159D01*
X83545280Y-48598336D01*
X83537712Y-48585710D01*
X83531418Y-48572403D01*
X83526459Y-48558543D01*
X83522882Y-48544264D01*
X83520722Y-48529703D01*
X83520000Y-48515000D01*
X83520000Y-46865000D01*
X83520722Y-46850297D01*
X83522882Y-46835736D01*
X83526459Y-46821457D01*
X83531418Y-46807597D01*
X83537712Y-46794290D01*
X83545280Y-46781664D01*
X83554048Y-46769841D01*
X83563934Y-46758934D01*
X83574841Y-46749048D01*
X83586664Y-46740280D01*
X83599290Y-46732712D01*
X83612597Y-46726418D01*
X83626457Y-46721459D01*
X83640736Y-46717882D01*
X83655297Y-46715722D01*
X83670000Y-46715000D01*
X83970000Y-46715000D01*
X83984703Y-46715722D01*
G37*
D12*
X84580000Y-58420000D03*
X84580000Y-60420000D03*
X84580000Y-62420000D03*
X84580000Y-64420000D03*
X84580000Y-66420000D03*
X84580000Y-68420000D03*
X84580000Y-70420000D03*
X84580000Y-72420000D03*
X68580000Y-72420000D03*
X68580000Y-70420000D03*
X68580000Y-68420000D03*
X68580000Y-66420000D03*
X68580000Y-64420000D03*
X68580000Y-62420000D03*
X68580000Y-60420000D03*
X68580000Y-58420000D03*
M02*
