G04 #@! TF.GenerationSoftware,KiCad,Pcbnew,5.1.5*
G04 #@! TF.CreationDate,2020-01-01T11:05:53+01:00*
G04 #@! TF.ProjectId,LORA_ATTINY84,4c4f5241-5f41-4545-9449-4e5938342e6b,rev?*
G04 #@! TF.SameCoordinates,Original*
G04 #@! TF.FileFunction,Copper,L2,Bot*
G04 #@! TF.FilePolarity,Positive*
%FSLAX46Y46*%
G04 Gerber Fmt 4.6, Leading zero omitted, Abs format (unit mm)*
G04 Created by KiCad (PCBNEW 5.1.5) date 2020-01-01 11:05:53*
%MOMM*%
%LPD*%
G04 APERTURE LIST*
%ADD10O,1.700000X1.700000*%
%ADD11R,1.700000X1.700000*%
%ADD12C,0.800000*%
%ADD13C,0.250000*%
%ADD14C,0.254000*%
G04 APERTURE END LIST*
D10*
X71882000Y-53340000D03*
X69342000Y-53340000D03*
X71882000Y-50800000D03*
X69342000Y-50800000D03*
X71882000Y-48260000D03*
D11*
X69342000Y-48260000D03*
D10*
X89535000Y-66040000D03*
X89535000Y-63500000D03*
X89535000Y-60960000D03*
X89535000Y-58420000D03*
X89535000Y-55880000D03*
X89535000Y-53340000D03*
X89535000Y-50800000D03*
D11*
X89535000Y-48260000D03*
X89535000Y-76200000D03*
D12*
X83185000Y-70485000D03*
X69850000Y-72390000D03*
X69850000Y-58420000D03*
X56515000Y-53340000D03*
X67310000Y-76327000D03*
X71882000Y-55626000D03*
X86042500Y-53086000D03*
X83820000Y-46355000D03*
X82595720Y-64414400D03*
X78740000Y-55118000D03*
X78740000Y-49530000D03*
X77851000Y-74676000D03*
X77851000Y-50038000D03*
X75057000Y-54483000D03*
X82550000Y-46355000D03*
X82550000Y-62357000D03*
X81280000Y-46355000D03*
X81280000Y-62357000D03*
X80010000Y-46355000D03*
D13*
X83820000Y-46920685D02*
X83820000Y-46355000D01*
X83729999Y-47010686D02*
X83820000Y-46920685D01*
X72731999Y-47410001D02*
X71882000Y-48260000D01*
X74512001Y-45629999D02*
X72731999Y-47410001D01*
X83094999Y-45629999D02*
X74512001Y-45629999D01*
X83820000Y-46355000D02*
X83094999Y-45629999D01*
X83729999Y-55589001D02*
X83729999Y-54268201D01*
X83729999Y-54268201D02*
X83729999Y-47010686D01*
X83729998Y-56640900D02*
X83729999Y-56640899D01*
X83729998Y-63280122D02*
X83729998Y-56640900D01*
X82595720Y-64414400D02*
X83729998Y-63280122D01*
X83729999Y-56831399D02*
X83729999Y-56640899D01*
X83729999Y-56640899D02*
X83729999Y-55589001D01*
X78740000Y-55118000D02*
X78740000Y-49530000D01*
X77851000Y-50038000D02*
X77851000Y-49911000D01*
X88332919Y-63500000D02*
X86681919Y-65151000D01*
X89535000Y-63500000D02*
X88332919Y-63500000D01*
X77978000Y-65151000D02*
X77851000Y-65024000D01*
X86681919Y-65151000D02*
X77978000Y-65151000D01*
X77851000Y-74676000D02*
X77851000Y-65024000D01*
X77851000Y-65024000D02*
X77851000Y-50038000D01*
X71882000Y-51308000D02*
X71882000Y-50800000D01*
X75057000Y-54483000D02*
X71882000Y-51308000D01*
X82550000Y-46355000D02*
X82550000Y-62357000D01*
X81280000Y-46355000D02*
X81280000Y-62357000D01*
X70191999Y-52490001D02*
X69342000Y-53340000D01*
X70517001Y-52164999D02*
X70191999Y-52490001D01*
X71279001Y-49624999D02*
X70517001Y-50386999D01*
X70517001Y-50386999D02*
X70517001Y-52164999D01*
X72256003Y-49624999D02*
X71279001Y-49624999D01*
X75526002Y-46355000D02*
X72256003Y-49624999D01*
X80010000Y-46355000D02*
X75526002Y-46355000D01*
D14*
G36*
X91948000Y-77978000D02*
G01*
X46482000Y-77978000D01*
X46482000Y-47410000D01*
X67853928Y-47410000D01*
X67853928Y-49110000D01*
X67866188Y-49234482D01*
X67902498Y-49354180D01*
X67961463Y-49464494D01*
X68040815Y-49561185D01*
X68137506Y-49640537D01*
X68247820Y-49699502D01*
X68320380Y-49721513D01*
X68188525Y-49853368D01*
X68026010Y-50096589D01*
X67914068Y-50366842D01*
X67857000Y-50653740D01*
X67857000Y-50946260D01*
X67914068Y-51233158D01*
X68026010Y-51503411D01*
X68188525Y-51746632D01*
X68395368Y-51953475D01*
X68569760Y-52070000D01*
X68395368Y-52186525D01*
X68188525Y-52393368D01*
X68026010Y-52636589D01*
X67914068Y-52906842D01*
X67857000Y-53193740D01*
X67857000Y-53486260D01*
X67914068Y-53773158D01*
X68026010Y-54043411D01*
X68188525Y-54286632D01*
X68395368Y-54493475D01*
X68638589Y-54655990D01*
X68908842Y-54767932D01*
X69195740Y-54825000D01*
X69488260Y-54825000D01*
X69775158Y-54767932D01*
X70045411Y-54655990D01*
X70288632Y-54493475D01*
X70495475Y-54286632D01*
X70613100Y-54110594D01*
X70784412Y-54340269D01*
X71000645Y-54535178D01*
X71250748Y-54684157D01*
X71525109Y-54781481D01*
X71755000Y-54660814D01*
X71755000Y-53467000D01*
X71735000Y-53467000D01*
X71735000Y-53213000D01*
X71755000Y-53213000D01*
X71755000Y-53193000D01*
X72009000Y-53193000D01*
X72009000Y-53213000D01*
X72029000Y-53213000D01*
X72029000Y-53467000D01*
X72009000Y-53467000D01*
X72009000Y-54660814D01*
X72238891Y-54781481D01*
X72513252Y-54684157D01*
X72763355Y-54535178D01*
X72979588Y-54340269D01*
X73153641Y-54106920D01*
X73278825Y-53844099D01*
X73293829Y-53794631D01*
X74022000Y-54522802D01*
X74022000Y-54584939D01*
X74061774Y-54784898D01*
X74139795Y-54973256D01*
X74253063Y-55142774D01*
X74397226Y-55286937D01*
X74566744Y-55400205D01*
X74755102Y-55478226D01*
X74955061Y-55518000D01*
X75158939Y-55518000D01*
X75358898Y-55478226D01*
X75547256Y-55400205D01*
X75716774Y-55286937D01*
X75860937Y-55142774D01*
X75974205Y-54973256D01*
X76052226Y-54784898D01*
X76092000Y-54584939D01*
X76092000Y-54381061D01*
X76052226Y-54181102D01*
X75974205Y-53992744D01*
X75860937Y-53823226D01*
X75716774Y-53679063D01*
X75547256Y-53565795D01*
X75358898Y-53487774D01*
X75158939Y-53448000D01*
X75096802Y-53448000D01*
X73179654Y-51530853D01*
X73197990Y-51503411D01*
X73309932Y-51233158D01*
X73367000Y-50946260D01*
X73367000Y-50653740D01*
X73309932Y-50366842D01*
X73197990Y-50096589D01*
X73062295Y-49893508D01*
X75840804Y-47115000D01*
X79306289Y-47115000D01*
X79350226Y-47158937D01*
X79519744Y-47272205D01*
X79708102Y-47350226D01*
X79908061Y-47390000D01*
X80111939Y-47390000D01*
X80311898Y-47350226D01*
X80500256Y-47272205D01*
X80520000Y-47259012D01*
X80520001Y-61653288D01*
X80476063Y-61697226D01*
X80362795Y-61866744D01*
X80284774Y-62055102D01*
X80245000Y-62255061D01*
X80245000Y-62458939D01*
X80284774Y-62658898D01*
X80362795Y-62847256D01*
X80476063Y-63016774D01*
X80620226Y-63160937D01*
X80789744Y-63274205D01*
X80978102Y-63352226D01*
X81178061Y-63392000D01*
X81381939Y-63392000D01*
X81581898Y-63352226D01*
X81770256Y-63274205D01*
X81915000Y-63177490D01*
X82059744Y-63274205D01*
X82248102Y-63352226D01*
X82439249Y-63390247D01*
X82293822Y-63419174D01*
X82105464Y-63497195D01*
X81935946Y-63610463D01*
X81791783Y-63754626D01*
X81678515Y-63924144D01*
X81600494Y-64112502D01*
X81560720Y-64312461D01*
X81560720Y-64391000D01*
X78611000Y-64391000D01*
X78611000Y-56147617D01*
X78638061Y-56153000D01*
X78841939Y-56153000D01*
X79041898Y-56113226D01*
X79230256Y-56035205D01*
X79399774Y-55921937D01*
X79543937Y-55777774D01*
X79657205Y-55608256D01*
X79735226Y-55419898D01*
X79775000Y-55219939D01*
X79775000Y-55016061D01*
X79735226Y-54816102D01*
X79657205Y-54627744D01*
X79543937Y-54458226D01*
X79500000Y-54414289D01*
X79500000Y-50233711D01*
X79543937Y-50189774D01*
X79657205Y-50020256D01*
X79735226Y-49831898D01*
X79775000Y-49631939D01*
X79775000Y-49428061D01*
X79735226Y-49228102D01*
X79657205Y-49039744D01*
X79543937Y-48870226D01*
X79399774Y-48726063D01*
X79230256Y-48612795D01*
X79041898Y-48534774D01*
X78841939Y-48495000D01*
X78638061Y-48495000D01*
X78438102Y-48534774D01*
X78249744Y-48612795D01*
X78080226Y-48726063D01*
X77936063Y-48870226D01*
X77847346Y-49003000D01*
X77749061Y-49003000D01*
X77549102Y-49042774D01*
X77360744Y-49120795D01*
X77191226Y-49234063D01*
X77047063Y-49378226D01*
X76933795Y-49547744D01*
X76855774Y-49736102D01*
X76816000Y-49936061D01*
X76816000Y-50139939D01*
X76855774Y-50339898D01*
X76933795Y-50528256D01*
X77047063Y-50697774D01*
X77091001Y-50741712D01*
X77091000Y-64986678D01*
X77087324Y-65024000D01*
X77091000Y-65061322D01*
X77091000Y-65061332D01*
X77091001Y-65061342D01*
X77091000Y-73972289D01*
X77047063Y-74016226D01*
X76933795Y-74185744D01*
X76855774Y-74374102D01*
X76816000Y-74574061D01*
X76816000Y-74777939D01*
X76855774Y-74977898D01*
X76933795Y-75166256D01*
X77047063Y-75335774D01*
X77191226Y-75479937D01*
X77360744Y-75593205D01*
X77549102Y-75671226D01*
X77749061Y-75711000D01*
X77952939Y-75711000D01*
X78152898Y-75671226D01*
X78341256Y-75593205D01*
X78510774Y-75479937D01*
X78640711Y-75350000D01*
X88046928Y-75350000D01*
X88046928Y-77050000D01*
X88059188Y-77174482D01*
X88095498Y-77294180D01*
X88154463Y-77404494D01*
X88233815Y-77501185D01*
X88330506Y-77580537D01*
X88440820Y-77639502D01*
X88560518Y-77675812D01*
X88685000Y-77688072D01*
X90385000Y-77688072D01*
X90509482Y-77675812D01*
X90629180Y-77639502D01*
X90739494Y-77580537D01*
X90836185Y-77501185D01*
X90915537Y-77404494D01*
X90974502Y-77294180D01*
X91010812Y-77174482D01*
X91023072Y-77050000D01*
X91023072Y-75350000D01*
X91010812Y-75225518D01*
X90974502Y-75105820D01*
X90915537Y-74995506D01*
X90836185Y-74898815D01*
X90739494Y-74819463D01*
X90629180Y-74760498D01*
X90509482Y-74724188D01*
X90385000Y-74711928D01*
X88685000Y-74711928D01*
X88560518Y-74724188D01*
X88440820Y-74760498D01*
X88330506Y-74819463D01*
X88233815Y-74898815D01*
X88154463Y-74995506D01*
X88095498Y-75105820D01*
X88059188Y-75225518D01*
X88046928Y-75350000D01*
X78640711Y-75350000D01*
X78654937Y-75335774D01*
X78768205Y-75166256D01*
X78846226Y-74977898D01*
X78886000Y-74777939D01*
X78886000Y-74574061D01*
X78846226Y-74374102D01*
X78768205Y-74185744D01*
X78654937Y-74016226D01*
X78611000Y-73972289D01*
X78611000Y-65911000D01*
X86644597Y-65911000D01*
X86681919Y-65914676D01*
X86719241Y-65911000D01*
X86719252Y-65911000D01*
X86830905Y-65900003D01*
X86974166Y-65856546D01*
X87106195Y-65785974D01*
X87221920Y-65691001D01*
X87245723Y-65661997D01*
X88421307Y-64486414D01*
X88588368Y-64653475D01*
X88762760Y-64770000D01*
X88588368Y-64886525D01*
X88381525Y-65093368D01*
X88219010Y-65336589D01*
X88107068Y-65606842D01*
X88050000Y-65893740D01*
X88050000Y-66186260D01*
X88107068Y-66473158D01*
X88219010Y-66743411D01*
X88381525Y-66986632D01*
X88588368Y-67193475D01*
X88831589Y-67355990D01*
X89101842Y-67467932D01*
X89388740Y-67525000D01*
X89681260Y-67525000D01*
X89968158Y-67467932D01*
X90238411Y-67355990D01*
X90481632Y-67193475D01*
X90688475Y-66986632D01*
X90850990Y-66743411D01*
X90962932Y-66473158D01*
X91020000Y-66186260D01*
X91020000Y-65893740D01*
X90962932Y-65606842D01*
X90850990Y-65336589D01*
X90688475Y-65093368D01*
X90481632Y-64886525D01*
X90307240Y-64770000D01*
X90481632Y-64653475D01*
X90688475Y-64446632D01*
X90850990Y-64203411D01*
X90962932Y-63933158D01*
X91020000Y-63646260D01*
X91020000Y-63353740D01*
X90962932Y-63066842D01*
X90850990Y-62796589D01*
X90688475Y-62553368D01*
X90481632Y-62346525D01*
X90307240Y-62230000D01*
X90481632Y-62113475D01*
X90688475Y-61906632D01*
X90850990Y-61663411D01*
X90962932Y-61393158D01*
X91020000Y-61106260D01*
X91020000Y-60813740D01*
X90962932Y-60526842D01*
X90850990Y-60256589D01*
X90688475Y-60013368D01*
X90481632Y-59806525D01*
X90307240Y-59690000D01*
X90481632Y-59573475D01*
X90688475Y-59366632D01*
X90850990Y-59123411D01*
X90962932Y-58853158D01*
X91020000Y-58566260D01*
X91020000Y-58273740D01*
X90962932Y-57986842D01*
X90850990Y-57716589D01*
X90688475Y-57473368D01*
X90481632Y-57266525D01*
X90307240Y-57150000D01*
X90481632Y-57033475D01*
X90688475Y-56826632D01*
X90850990Y-56583411D01*
X90962932Y-56313158D01*
X91020000Y-56026260D01*
X91020000Y-55733740D01*
X90962932Y-55446842D01*
X90850990Y-55176589D01*
X90688475Y-54933368D01*
X90481632Y-54726525D01*
X90307240Y-54610000D01*
X90481632Y-54493475D01*
X90688475Y-54286632D01*
X90850990Y-54043411D01*
X90962932Y-53773158D01*
X91020000Y-53486260D01*
X91020000Y-53193740D01*
X90962932Y-52906842D01*
X90850990Y-52636589D01*
X90688475Y-52393368D01*
X90481632Y-52186525D01*
X90299466Y-52064805D01*
X90416355Y-51995178D01*
X90632588Y-51800269D01*
X90806641Y-51566920D01*
X90931825Y-51304099D01*
X90976476Y-51156890D01*
X90855155Y-50927000D01*
X89662000Y-50927000D01*
X89662000Y-50947000D01*
X89408000Y-50947000D01*
X89408000Y-50927000D01*
X88214845Y-50927000D01*
X88093524Y-51156890D01*
X88138175Y-51304099D01*
X88263359Y-51566920D01*
X88437412Y-51800269D01*
X88653645Y-51995178D01*
X88770534Y-52064805D01*
X88588368Y-52186525D01*
X88381525Y-52393368D01*
X88219010Y-52636589D01*
X88107068Y-52906842D01*
X88050000Y-53193740D01*
X88050000Y-53486260D01*
X88107068Y-53773158D01*
X88219010Y-54043411D01*
X88381525Y-54286632D01*
X88588368Y-54493475D01*
X88762760Y-54610000D01*
X88588368Y-54726525D01*
X88381525Y-54933368D01*
X88219010Y-55176589D01*
X88107068Y-55446842D01*
X88050000Y-55733740D01*
X88050000Y-56026260D01*
X88107068Y-56313158D01*
X88219010Y-56583411D01*
X88381525Y-56826632D01*
X88588368Y-57033475D01*
X88762760Y-57150000D01*
X88588368Y-57266525D01*
X88381525Y-57473368D01*
X88219010Y-57716589D01*
X88107068Y-57986842D01*
X88050000Y-58273740D01*
X88050000Y-58566260D01*
X88107068Y-58853158D01*
X88219010Y-59123411D01*
X88381525Y-59366632D01*
X88588368Y-59573475D01*
X88762760Y-59690000D01*
X88588368Y-59806525D01*
X88381525Y-60013368D01*
X88219010Y-60256589D01*
X88107068Y-60526842D01*
X88050000Y-60813740D01*
X88050000Y-61106260D01*
X88107068Y-61393158D01*
X88219010Y-61663411D01*
X88381525Y-61906632D01*
X88588368Y-62113475D01*
X88762760Y-62230000D01*
X88588368Y-62346525D01*
X88381525Y-62553368D01*
X88254091Y-62744087D01*
X88183933Y-62750997D01*
X88040672Y-62794454D01*
X87908643Y-62865026D01*
X87792918Y-62959999D01*
X87769120Y-62988997D01*
X86367118Y-64391000D01*
X83693921Y-64391000D01*
X84241002Y-63843920D01*
X84269999Y-63820123D01*
X84364972Y-63704398D01*
X84435544Y-63572369D01*
X84479001Y-63429108D01*
X84489998Y-63317455D01*
X84489998Y-63317446D01*
X84493674Y-63280123D01*
X84489998Y-63242800D01*
X84489998Y-56868742D01*
X84489999Y-56868732D01*
X84489999Y-56678222D01*
X84493675Y-56640900D01*
X84489999Y-56603577D01*
X84489999Y-47410000D01*
X88046928Y-47410000D01*
X88046928Y-49110000D01*
X88059188Y-49234482D01*
X88095498Y-49354180D01*
X88154463Y-49464494D01*
X88233815Y-49561185D01*
X88330506Y-49640537D01*
X88440820Y-49699502D01*
X88521466Y-49723966D01*
X88437412Y-49799731D01*
X88263359Y-50033080D01*
X88138175Y-50295901D01*
X88093524Y-50443110D01*
X88214845Y-50673000D01*
X89408000Y-50673000D01*
X89408000Y-50653000D01*
X89662000Y-50653000D01*
X89662000Y-50673000D01*
X90855155Y-50673000D01*
X90976476Y-50443110D01*
X90931825Y-50295901D01*
X90806641Y-50033080D01*
X90632588Y-49799731D01*
X90548534Y-49723966D01*
X90629180Y-49699502D01*
X90739494Y-49640537D01*
X90836185Y-49561185D01*
X90915537Y-49464494D01*
X90974502Y-49354180D01*
X91010812Y-49234482D01*
X91023072Y-49110000D01*
X91023072Y-47410000D01*
X91010812Y-47285518D01*
X90974502Y-47165820D01*
X90915537Y-47055506D01*
X90836185Y-46958815D01*
X90739494Y-46879463D01*
X90629180Y-46820498D01*
X90509482Y-46784188D01*
X90385000Y-46771928D01*
X88685000Y-46771928D01*
X88560518Y-46784188D01*
X88440820Y-46820498D01*
X88330506Y-46879463D01*
X88233815Y-46958815D01*
X88154463Y-47055506D01*
X88095498Y-47165820D01*
X88059188Y-47285518D01*
X88046928Y-47410000D01*
X84489999Y-47410000D01*
X84489999Y-47279435D01*
X84525546Y-47212932D01*
X84568987Y-47069724D01*
X84623937Y-47014774D01*
X84737205Y-46845256D01*
X84815226Y-46656898D01*
X84855000Y-46456939D01*
X84855000Y-46253061D01*
X84815226Y-46053102D01*
X84737205Y-45864744D01*
X84623937Y-45695226D01*
X84479774Y-45551063D01*
X84310256Y-45437795D01*
X84121898Y-45359774D01*
X83921939Y-45320000D01*
X83859801Y-45320000D01*
X83658802Y-45119001D01*
X83635000Y-45089998D01*
X83519275Y-44995025D01*
X83387246Y-44924453D01*
X83243985Y-44880996D01*
X83132332Y-44869999D01*
X83132321Y-44869999D01*
X83094999Y-44866323D01*
X83057677Y-44869999D01*
X74549324Y-44869999D01*
X74512001Y-44866323D01*
X74474678Y-44869999D01*
X74474668Y-44869999D01*
X74363015Y-44880996D01*
X74219754Y-44924453D01*
X74087724Y-44995025D01*
X74004084Y-45063667D01*
X73972000Y-45089998D01*
X73948202Y-45118996D01*
X72248408Y-46818791D01*
X72028260Y-46775000D01*
X71735740Y-46775000D01*
X71448842Y-46832068D01*
X71178589Y-46944010D01*
X70935368Y-47106525D01*
X70803513Y-47238380D01*
X70781502Y-47165820D01*
X70722537Y-47055506D01*
X70643185Y-46958815D01*
X70546494Y-46879463D01*
X70436180Y-46820498D01*
X70316482Y-46784188D01*
X70192000Y-46771928D01*
X68492000Y-46771928D01*
X68367518Y-46784188D01*
X68247820Y-46820498D01*
X68137506Y-46879463D01*
X68040815Y-46958815D01*
X67961463Y-47055506D01*
X67902498Y-47165820D01*
X67866188Y-47285518D01*
X67853928Y-47410000D01*
X46482000Y-47410000D01*
X46482000Y-43942000D01*
X91948000Y-43942000D01*
X91948000Y-77978000D01*
G37*
X91948000Y-77978000D02*
X46482000Y-77978000D01*
X46482000Y-47410000D01*
X67853928Y-47410000D01*
X67853928Y-49110000D01*
X67866188Y-49234482D01*
X67902498Y-49354180D01*
X67961463Y-49464494D01*
X68040815Y-49561185D01*
X68137506Y-49640537D01*
X68247820Y-49699502D01*
X68320380Y-49721513D01*
X68188525Y-49853368D01*
X68026010Y-50096589D01*
X67914068Y-50366842D01*
X67857000Y-50653740D01*
X67857000Y-50946260D01*
X67914068Y-51233158D01*
X68026010Y-51503411D01*
X68188525Y-51746632D01*
X68395368Y-51953475D01*
X68569760Y-52070000D01*
X68395368Y-52186525D01*
X68188525Y-52393368D01*
X68026010Y-52636589D01*
X67914068Y-52906842D01*
X67857000Y-53193740D01*
X67857000Y-53486260D01*
X67914068Y-53773158D01*
X68026010Y-54043411D01*
X68188525Y-54286632D01*
X68395368Y-54493475D01*
X68638589Y-54655990D01*
X68908842Y-54767932D01*
X69195740Y-54825000D01*
X69488260Y-54825000D01*
X69775158Y-54767932D01*
X70045411Y-54655990D01*
X70288632Y-54493475D01*
X70495475Y-54286632D01*
X70613100Y-54110594D01*
X70784412Y-54340269D01*
X71000645Y-54535178D01*
X71250748Y-54684157D01*
X71525109Y-54781481D01*
X71755000Y-54660814D01*
X71755000Y-53467000D01*
X71735000Y-53467000D01*
X71735000Y-53213000D01*
X71755000Y-53213000D01*
X71755000Y-53193000D01*
X72009000Y-53193000D01*
X72009000Y-53213000D01*
X72029000Y-53213000D01*
X72029000Y-53467000D01*
X72009000Y-53467000D01*
X72009000Y-54660814D01*
X72238891Y-54781481D01*
X72513252Y-54684157D01*
X72763355Y-54535178D01*
X72979588Y-54340269D01*
X73153641Y-54106920D01*
X73278825Y-53844099D01*
X73293829Y-53794631D01*
X74022000Y-54522802D01*
X74022000Y-54584939D01*
X74061774Y-54784898D01*
X74139795Y-54973256D01*
X74253063Y-55142774D01*
X74397226Y-55286937D01*
X74566744Y-55400205D01*
X74755102Y-55478226D01*
X74955061Y-55518000D01*
X75158939Y-55518000D01*
X75358898Y-55478226D01*
X75547256Y-55400205D01*
X75716774Y-55286937D01*
X75860937Y-55142774D01*
X75974205Y-54973256D01*
X76052226Y-54784898D01*
X76092000Y-54584939D01*
X76092000Y-54381061D01*
X76052226Y-54181102D01*
X75974205Y-53992744D01*
X75860937Y-53823226D01*
X75716774Y-53679063D01*
X75547256Y-53565795D01*
X75358898Y-53487774D01*
X75158939Y-53448000D01*
X75096802Y-53448000D01*
X73179654Y-51530853D01*
X73197990Y-51503411D01*
X73309932Y-51233158D01*
X73367000Y-50946260D01*
X73367000Y-50653740D01*
X73309932Y-50366842D01*
X73197990Y-50096589D01*
X73062295Y-49893508D01*
X75840804Y-47115000D01*
X79306289Y-47115000D01*
X79350226Y-47158937D01*
X79519744Y-47272205D01*
X79708102Y-47350226D01*
X79908061Y-47390000D01*
X80111939Y-47390000D01*
X80311898Y-47350226D01*
X80500256Y-47272205D01*
X80520000Y-47259012D01*
X80520001Y-61653288D01*
X80476063Y-61697226D01*
X80362795Y-61866744D01*
X80284774Y-62055102D01*
X80245000Y-62255061D01*
X80245000Y-62458939D01*
X80284774Y-62658898D01*
X80362795Y-62847256D01*
X80476063Y-63016774D01*
X80620226Y-63160937D01*
X80789744Y-63274205D01*
X80978102Y-63352226D01*
X81178061Y-63392000D01*
X81381939Y-63392000D01*
X81581898Y-63352226D01*
X81770256Y-63274205D01*
X81915000Y-63177490D01*
X82059744Y-63274205D01*
X82248102Y-63352226D01*
X82439249Y-63390247D01*
X82293822Y-63419174D01*
X82105464Y-63497195D01*
X81935946Y-63610463D01*
X81791783Y-63754626D01*
X81678515Y-63924144D01*
X81600494Y-64112502D01*
X81560720Y-64312461D01*
X81560720Y-64391000D01*
X78611000Y-64391000D01*
X78611000Y-56147617D01*
X78638061Y-56153000D01*
X78841939Y-56153000D01*
X79041898Y-56113226D01*
X79230256Y-56035205D01*
X79399774Y-55921937D01*
X79543937Y-55777774D01*
X79657205Y-55608256D01*
X79735226Y-55419898D01*
X79775000Y-55219939D01*
X79775000Y-55016061D01*
X79735226Y-54816102D01*
X79657205Y-54627744D01*
X79543937Y-54458226D01*
X79500000Y-54414289D01*
X79500000Y-50233711D01*
X79543937Y-50189774D01*
X79657205Y-50020256D01*
X79735226Y-49831898D01*
X79775000Y-49631939D01*
X79775000Y-49428061D01*
X79735226Y-49228102D01*
X79657205Y-49039744D01*
X79543937Y-48870226D01*
X79399774Y-48726063D01*
X79230256Y-48612795D01*
X79041898Y-48534774D01*
X78841939Y-48495000D01*
X78638061Y-48495000D01*
X78438102Y-48534774D01*
X78249744Y-48612795D01*
X78080226Y-48726063D01*
X77936063Y-48870226D01*
X77847346Y-49003000D01*
X77749061Y-49003000D01*
X77549102Y-49042774D01*
X77360744Y-49120795D01*
X77191226Y-49234063D01*
X77047063Y-49378226D01*
X76933795Y-49547744D01*
X76855774Y-49736102D01*
X76816000Y-49936061D01*
X76816000Y-50139939D01*
X76855774Y-50339898D01*
X76933795Y-50528256D01*
X77047063Y-50697774D01*
X77091001Y-50741712D01*
X77091000Y-64986678D01*
X77087324Y-65024000D01*
X77091000Y-65061322D01*
X77091000Y-65061332D01*
X77091001Y-65061342D01*
X77091000Y-73972289D01*
X77047063Y-74016226D01*
X76933795Y-74185744D01*
X76855774Y-74374102D01*
X76816000Y-74574061D01*
X76816000Y-74777939D01*
X76855774Y-74977898D01*
X76933795Y-75166256D01*
X77047063Y-75335774D01*
X77191226Y-75479937D01*
X77360744Y-75593205D01*
X77549102Y-75671226D01*
X77749061Y-75711000D01*
X77952939Y-75711000D01*
X78152898Y-75671226D01*
X78341256Y-75593205D01*
X78510774Y-75479937D01*
X78640711Y-75350000D01*
X88046928Y-75350000D01*
X88046928Y-77050000D01*
X88059188Y-77174482D01*
X88095498Y-77294180D01*
X88154463Y-77404494D01*
X88233815Y-77501185D01*
X88330506Y-77580537D01*
X88440820Y-77639502D01*
X88560518Y-77675812D01*
X88685000Y-77688072D01*
X90385000Y-77688072D01*
X90509482Y-77675812D01*
X90629180Y-77639502D01*
X90739494Y-77580537D01*
X90836185Y-77501185D01*
X90915537Y-77404494D01*
X90974502Y-77294180D01*
X91010812Y-77174482D01*
X91023072Y-77050000D01*
X91023072Y-75350000D01*
X91010812Y-75225518D01*
X90974502Y-75105820D01*
X90915537Y-74995506D01*
X90836185Y-74898815D01*
X90739494Y-74819463D01*
X90629180Y-74760498D01*
X90509482Y-74724188D01*
X90385000Y-74711928D01*
X88685000Y-74711928D01*
X88560518Y-74724188D01*
X88440820Y-74760498D01*
X88330506Y-74819463D01*
X88233815Y-74898815D01*
X88154463Y-74995506D01*
X88095498Y-75105820D01*
X88059188Y-75225518D01*
X88046928Y-75350000D01*
X78640711Y-75350000D01*
X78654937Y-75335774D01*
X78768205Y-75166256D01*
X78846226Y-74977898D01*
X78886000Y-74777939D01*
X78886000Y-74574061D01*
X78846226Y-74374102D01*
X78768205Y-74185744D01*
X78654937Y-74016226D01*
X78611000Y-73972289D01*
X78611000Y-65911000D01*
X86644597Y-65911000D01*
X86681919Y-65914676D01*
X86719241Y-65911000D01*
X86719252Y-65911000D01*
X86830905Y-65900003D01*
X86974166Y-65856546D01*
X87106195Y-65785974D01*
X87221920Y-65691001D01*
X87245723Y-65661997D01*
X88421307Y-64486414D01*
X88588368Y-64653475D01*
X88762760Y-64770000D01*
X88588368Y-64886525D01*
X88381525Y-65093368D01*
X88219010Y-65336589D01*
X88107068Y-65606842D01*
X88050000Y-65893740D01*
X88050000Y-66186260D01*
X88107068Y-66473158D01*
X88219010Y-66743411D01*
X88381525Y-66986632D01*
X88588368Y-67193475D01*
X88831589Y-67355990D01*
X89101842Y-67467932D01*
X89388740Y-67525000D01*
X89681260Y-67525000D01*
X89968158Y-67467932D01*
X90238411Y-67355990D01*
X90481632Y-67193475D01*
X90688475Y-66986632D01*
X90850990Y-66743411D01*
X90962932Y-66473158D01*
X91020000Y-66186260D01*
X91020000Y-65893740D01*
X90962932Y-65606842D01*
X90850990Y-65336589D01*
X90688475Y-65093368D01*
X90481632Y-64886525D01*
X90307240Y-64770000D01*
X90481632Y-64653475D01*
X90688475Y-64446632D01*
X90850990Y-64203411D01*
X90962932Y-63933158D01*
X91020000Y-63646260D01*
X91020000Y-63353740D01*
X90962932Y-63066842D01*
X90850990Y-62796589D01*
X90688475Y-62553368D01*
X90481632Y-62346525D01*
X90307240Y-62230000D01*
X90481632Y-62113475D01*
X90688475Y-61906632D01*
X90850990Y-61663411D01*
X90962932Y-61393158D01*
X91020000Y-61106260D01*
X91020000Y-60813740D01*
X90962932Y-60526842D01*
X90850990Y-60256589D01*
X90688475Y-60013368D01*
X90481632Y-59806525D01*
X90307240Y-59690000D01*
X90481632Y-59573475D01*
X90688475Y-59366632D01*
X90850990Y-59123411D01*
X90962932Y-58853158D01*
X91020000Y-58566260D01*
X91020000Y-58273740D01*
X90962932Y-57986842D01*
X90850990Y-57716589D01*
X90688475Y-57473368D01*
X90481632Y-57266525D01*
X90307240Y-57150000D01*
X90481632Y-57033475D01*
X90688475Y-56826632D01*
X90850990Y-56583411D01*
X90962932Y-56313158D01*
X91020000Y-56026260D01*
X91020000Y-55733740D01*
X90962932Y-55446842D01*
X90850990Y-55176589D01*
X90688475Y-54933368D01*
X90481632Y-54726525D01*
X90307240Y-54610000D01*
X90481632Y-54493475D01*
X90688475Y-54286632D01*
X90850990Y-54043411D01*
X90962932Y-53773158D01*
X91020000Y-53486260D01*
X91020000Y-53193740D01*
X90962932Y-52906842D01*
X90850990Y-52636589D01*
X90688475Y-52393368D01*
X90481632Y-52186525D01*
X90299466Y-52064805D01*
X90416355Y-51995178D01*
X90632588Y-51800269D01*
X90806641Y-51566920D01*
X90931825Y-51304099D01*
X90976476Y-51156890D01*
X90855155Y-50927000D01*
X89662000Y-50927000D01*
X89662000Y-50947000D01*
X89408000Y-50947000D01*
X89408000Y-50927000D01*
X88214845Y-50927000D01*
X88093524Y-51156890D01*
X88138175Y-51304099D01*
X88263359Y-51566920D01*
X88437412Y-51800269D01*
X88653645Y-51995178D01*
X88770534Y-52064805D01*
X88588368Y-52186525D01*
X88381525Y-52393368D01*
X88219010Y-52636589D01*
X88107068Y-52906842D01*
X88050000Y-53193740D01*
X88050000Y-53486260D01*
X88107068Y-53773158D01*
X88219010Y-54043411D01*
X88381525Y-54286632D01*
X88588368Y-54493475D01*
X88762760Y-54610000D01*
X88588368Y-54726525D01*
X88381525Y-54933368D01*
X88219010Y-55176589D01*
X88107068Y-55446842D01*
X88050000Y-55733740D01*
X88050000Y-56026260D01*
X88107068Y-56313158D01*
X88219010Y-56583411D01*
X88381525Y-56826632D01*
X88588368Y-57033475D01*
X88762760Y-57150000D01*
X88588368Y-57266525D01*
X88381525Y-57473368D01*
X88219010Y-57716589D01*
X88107068Y-57986842D01*
X88050000Y-58273740D01*
X88050000Y-58566260D01*
X88107068Y-58853158D01*
X88219010Y-59123411D01*
X88381525Y-59366632D01*
X88588368Y-59573475D01*
X88762760Y-59690000D01*
X88588368Y-59806525D01*
X88381525Y-60013368D01*
X88219010Y-60256589D01*
X88107068Y-60526842D01*
X88050000Y-60813740D01*
X88050000Y-61106260D01*
X88107068Y-61393158D01*
X88219010Y-61663411D01*
X88381525Y-61906632D01*
X88588368Y-62113475D01*
X88762760Y-62230000D01*
X88588368Y-62346525D01*
X88381525Y-62553368D01*
X88254091Y-62744087D01*
X88183933Y-62750997D01*
X88040672Y-62794454D01*
X87908643Y-62865026D01*
X87792918Y-62959999D01*
X87769120Y-62988997D01*
X86367118Y-64391000D01*
X83693921Y-64391000D01*
X84241002Y-63843920D01*
X84269999Y-63820123D01*
X84364972Y-63704398D01*
X84435544Y-63572369D01*
X84479001Y-63429108D01*
X84489998Y-63317455D01*
X84489998Y-63317446D01*
X84493674Y-63280123D01*
X84489998Y-63242800D01*
X84489998Y-56868742D01*
X84489999Y-56868732D01*
X84489999Y-56678222D01*
X84493675Y-56640900D01*
X84489999Y-56603577D01*
X84489999Y-47410000D01*
X88046928Y-47410000D01*
X88046928Y-49110000D01*
X88059188Y-49234482D01*
X88095498Y-49354180D01*
X88154463Y-49464494D01*
X88233815Y-49561185D01*
X88330506Y-49640537D01*
X88440820Y-49699502D01*
X88521466Y-49723966D01*
X88437412Y-49799731D01*
X88263359Y-50033080D01*
X88138175Y-50295901D01*
X88093524Y-50443110D01*
X88214845Y-50673000D01*
X89408000Y-50673000D01*
X89408000Y-50653000D01*
X89662000Y-50653000D01*
X89662000Y-50673000D01*
X90855155Y-50673000D01*
X90976476Y-50443110D01*
X90931825Y-50295901D01*
X90806641Y-50033080D01*
X90632588Y-49799731D01*
X90548534Y-49723966D01*
X90629180Y-49699502D01*
X90739494Y-49640537D01*
X90836185Y-49561185D01*
X90915537Y-49464494D01*
X90974502Y-49354180D01*
X91010812Y-49234482D01*
X91023072Y-49110000D01*
X91023072Y-47410000D01*
X91010812Y-47285518D01*
X90974502Y-47165820D01*
X90915537Y-47055506D01*
X90836185Y-46958815D01*
X90739494Y-46879463D01*
X90629180Y-46820498D01*
X90509482Y-46784188D01*
X90385000Y-46771928D01*
X88685000Y-46771928D01*
X88560518Y-46784188D01*
X88440820Y-46820498D01*
X88330506Y-46879463D01*
X88233815Y-46958815D01*
X88154463Y-47055506D01*
X88095498Y-47165820D01*
X88059188Y-47285518D01*
X88046928Y-47410000D01*
X84489999Y-47410000D01*
X84489999Y-47279435D01*
X84525546Y-47212932D01*
X84568987Y-47069724D01*
X84623937Y-47014774D01*
X84737205Y-46845256D01*
X84815226Y-46656898D01*
X84855000Y-46456939D01*
X84855000Y-46253061D01*
X84815226Y-46053102D01*
X84737205Y-45864744D01*
X84623937Y-45695226D01*
X84479774Y-45551063D01*
X84310256Y-45437795D01*
X84121898Y-45359774D01*
X83921939Y-45320000D01*
X83859801Y-45320000D01*
X83658802Y-45119001D01*
X83635000Y-45089998D01*
X83519275Y-44995025D01*
X83387246Y-44924453D01*
X83243985Y-44880996D01*
X83132332Y-44869999D01*
X83132321Y-44869999D01*
X83094999Y-44866323D01*
X83057677Y-44869999D01*
X74549324Y-44869999D01*
X74512001Y-44866323D01*
X74474678Y-44869999D01*
X74474668Y-44869999D01*
X74363015Y-44880996D01*
X74219754Y-44924453D01*
X74087724Y-44995025D01*
X74004084Y-45063667D01*
X73972000Y-45089998D01*
X73948202Y-45118996D01*
X72248408Y-46818791D01*
X72028260Y-46775000D01*
X71735740Y-46775000D01*
X71448842Y-46832068D01*
X71178589Y-46944010D01*
X70935368Y-47106525D01*
X70803513Y-47238380D01*
X70781502Y-47165820D01*
X70722537Y-47055506D01*
X70643185Y-46958815D01*
X70546494Y-46879463D01*
X70436180Y-46820498D01*
X70316482Y-46784188D01*
X70192000Y-46771928D01*
X68492000Y-46771928D01*
X68367518Y-46784188D01*
X68247820Y-46820498D01*
X68137506Y-46879463D01*
X68040815Y-46958815D01*
X67961463Y-47055506D01*
X67902498Y-47165820D01*
X67866188Y-47285518D01*
X67853928Y-47410000D01*
X46482000Y-47410000D01*
X46482000Y-43942000D01*
X91948000Y-43942000D01*
X91948000Y-77978000D01*
M02*
